<?xml version="1.0" encoding="utf-8"?>
<!-- Generator: Adobe Illustrator 19.2.1, SVG Export Plug-In . SVG Version: 6.00 Build 0)  -->
<svg version="1.1" id="Layer_1" xmlns="http://www.w3.org/2000/svg" xmlns:xlink="http://www.w3.org/1999/xlink" x="0px" y="0px"
	 width="67.2px" height="100px" viewBox="0 0 67.2 100" style="enable-background:new 0 0 67.2 100;" xml:space="preserve">
<style type="text/css">
	.st0{fill:#F6F7F9;}
</style>
<path class="st0" d="M66.9,64.8c-0.2-0.3-0.5-0.3-0.6,0.2c-1.7,2.8-4.7,6.8-9.3,12c-5.6,6.5-12.2,12.5-14.3,12.6
	c-1.1,0.1-3.1-1.4-3.2-4.6c-0.3-6.6,4.4-15.3,12.1-31.2c3.1-6.6,8.1-14.7,4.9-17.1c-1.4-0.9-4.2-1.9-5.9-1.8
	c-2.8,0.1-3.8,1.9-5.7,4.8C43,42.5,29.4,59.2,29.4,59.2c-6.9,9.2-12.3,16.6-14.3,19.7c2.1-6.7,9.2-26.1,21-58.7
	c2-5.7,4.5-11.3,4.4-13.4c-0.1-1.9-1.5-3.4-3.9-4.9C34.7,0.6,31.6,0,30,0c-1.5,0-4.1,11.9-8.3,25.9l-15,44.7
	C2.2,85.3-0.1,93.3,0,94.5c0.2,3.2,5.7,5.6,9,5.5c0.7,0,1.6-3.3,3.1-6.1C16.2,86.6,20.5,80,25.3,74c7.1-9.2,12.3-14.3,13.2-15.1
	c-2.8,7.2-4.6,13.2-5.3,18.2c-1.5,9.5,0.2,15.6,4.6,18.8c7,5.2,15.5-3.2,21.5-12.6c1.8-3.1,3.5-6.4,5.1-10c1.6-3.6,2.6-6.1,2.7-7.5
	C67.2,65.4,67.1,65.1,66.9,64.8z"/>
</svg>
