<?xml version="1.0" encoding="utf-8"?>
<!-- Generator: Adobe Illustrator 19.2.1, SVG Export Plug-In . SVG Version: 6.00 Build 0)  -->
<svg version="1.1" id="Layer_1" xmlns="http://www.w3.org/2000/svg" xmlns:xlink="http://www.w3.org/1999/xlink" x="0px" y="0px"
	 width="237px" height="22px" viewBox="0 0 237 22" style="enable-background:new 0 0 237 22;" xml:space="preserve">
<style type="text/css">
	.st0{fill:#727A83;}
</style>
<g>
	<path class="st0" d="M0,0.5h8.9c0.6,0,1.2,0,2,0.2s1.4,0.4,2,0.8c0.6,0.4,1.1,1,1.6,1.8c0.4,0.8,0.6,1.8,0.6,3
		c0,1.9-0.6,3.3-1.7,4.3s-2.7,1.5-4.9,1.5H1.3v9.3H0V0.5z M1.3,11h7.4c0.9,0,1.7-0.1,2.4-0.4c0.6-0.3,1.2-0.6,1.6-1.1
		C13,9,13.3,8.6,13.4,8c0.2-0.5,0.2-1.1,0.2-1.7c0-0.4,0-0.8-0.2-1.4c0-0.5-0.3-1-0.6-1.5S12,2.4,11.4,2.1S9.9,1.6,8.8,1.6H1.3V11z"
		/>
	<path class="st0" d="M17.3,0.5h14.1v1.1H18.6V10h12v1.1h-12v9.2h12.9v1.1H17.3V0.5z"/>
	<path class="st0" d="M33.7,0.5h8.7c0.9,0,1.8,0.1,2.6,0.3c0.8,0.2,1.5,0.5,2.1,0.9c0.6,0.4,1.1,1,1.4,1.7c0.3,0.7,0.5,1.5,0.5,2.5
		c0,1.4-0.4,2.6-1.2,3.6c-0.8,1-1.9,1.6-3.3,1.8v0c1,0.1,1.7,0.4,2.3,0.8c0.5,0.4,1,0.9,1.2,1.4c0.3,0.6,0.4,1.2,0.5,1.9
		c0.1,0.7,0.1,1.4,0.1,2.1c0,0.4,0,0.8,0,1.2c0,0.4,0,0.8,0,1.1c0,0.3,0.1,0.6,0.2,1c0.1,0.3,0.2,0.5,0.4,0.7h-1.4
		c-0.3-0.5-0.4-1.1-0.4-1.7c0-0.6,0-1.3,0-2.1c0-0.7,0-1.4-0.1-2.1c0-0.7-0.2-1.3-0.5-1.9c-0.3-0.5-0.8-1-1.5-1.3
		c-0.7-0.3-1.6-0.5-2.8-0.5H35v9.5h-1.3V0.5z M42.4,10.8c0.8,0,1.5-0.1,2.1-0.3c0.6-0.2,1.2-0.5,1.7-0.9c0.5-0.4,0.8-0.9,1.1-1.5
		c0.3-0.6,0.4-1.3,0.4-2.2c0-0.8-0.1-1.5-0.4-2s-0.7-1-1.2-1.4c-0.5-0.3-1.1-0.6-1.7-0.8c-0.6-0.1-1.3-0.2-2-0.2H35v9.2L42.4,10.8
		L42.4,10.8z"/>
	<path class="st0" d="M51.4,11c0-1.5,0.2-2.9,0.7-4.3c0.4-1.3,1.1-2.5,2-3.5c0.8-1,1.9-1.8,3.1-2.3S59.8,0,61.3,0
		c1.2,0,2.3,0.1,3.2,0.5c0.9,0.3,1.7,0.7,2.3,1.2s1.1,1,1.5,1.6c0.4,0.6,0.7,1.1,0.9,1.6s0.3,0.9,0.4,1.3s0.1,0.6,0.1,0.6h-1.3
		c-0.1-0.9-0.4-1.7-0.8-2.3c-0.4-0.7-1-1.3-1.6-1.8c-0.6-0.5-1.4-0.9-2.1-1.1c-0.8-0.2-1.6-0.4-2.5-0.4c-1.4,0-2.6,0.2-3.7,0.8
		c-1.1,0.5-2,1.2-2.7,2.2c-0.7,0.9-1.3,2-1.7,3.1c-0.4,1.2-0.6,2.4-0.6,3.8c0,1.4,0.2,2.6,0.6,3.8s1,2.2,1.7,3.1
		c0.7,0.9,1.7,1.6,2.7,2.2c1.1,0.5,2.3,0.8,3.7,0.8c1,0,2-0.2,2.9-0.6c0.9-0.4,1.7-1,2.3-1.7c0.7-0.7,1.2-1.5,1.6-2.4
		c0.4-0.9,0.6-1.9,0.7-2.8h1.3c-0.1,1.3-0.4,2.4-0.9,3.5c-0.5,1.1-1.1,2-1.9,2.7c-0.8,0.8-1.7,1.4-2.7,1.8c-1,0.4-2.1,0.6-3.3,0.6
		c-1.6,0-3-0.3-4.2-0.8c-1.2-0.6-2.3-1.3-3.1-2.3c-0.8-1-1.5-2.2-2-3.5C51.6,13.9,51.4,12.5,51.4,11z"/>
	<path class="st0" d="M72.8,0.5h14.1v1.1H74.1V10h12v1.1h-12v9.2H87v1.1H72.8V0.5z"/>
	<path class="st0" d="M89.2,0.5h1.6L104,19.7h0V0.5h1.3v20.9h-1.5L90.6,2.1h0v19.4h-1.3L89.2,0.5L89.2,0.5z"/>
	<path class="st0" d="M106.8,1.6V0.5h16v1.1h-7.4v19.8h-1.3V1.6H106.8z"/>
	<path class="st0" d="M132.4,0.5h1.3v19.8h11.9v1.1h-13.1V0.5z"/>
	<path class="st0" d="M165,11c0,1.5-0.2,3-0.7,4.3s-1.1,2.5-2,3.5c-0.8,1-1.9,1.8-3.1,2.3c-1.2,0.6-2.6,0.8-4.2,0.8s-3-0.3-4.2-0.8
		c-1.2-0.6-2.3-1.3-3.1-2.3c-0.8-1-1.5-2.2-2-3.5c-0.4-1.3-0.7-2.8-0.7-4.3s0.2-2.9,0.7-4.3c0.4-1.3,1.1-2.5,2-3.5
		c0.8-1,1.9-1.8,3.1-2.3S153.5,0,155,0s3,0.3,4.2,0.8c1.2,0.6,2.3,1.4,3.1,2.3c0.8,1,1.5,2.2,2,3.5C164.7,8,165,9.4,165,11z
		 M146.4,11c0,1.4,0.2,2.6,0.6,3.8s1,2.2,1.7,3.1c0.7,0.9,1.7,1.6,2.7,2.2c1.1,0.5,2.3,0.8,3.7,0.8s2.6-0.2,3.7-0.8s2-1.2,2.7-2.2
		c0.7-0.9,1.3-1.9,1.7-3.1c0.4-1.2,0.6-2.4,0.6-3.8s-0.2-2.6-0.6-3.8c-0.4-1.2-1-2.2-1.7-3.1c-0.8-0.9-1.7-1.6-2.7-2.1
		s-2.3-0.8-3.7-0.8s-2.6,0.2-3.7,0.8s-2,1.2-2.7,2.2c-0.7,0.9-1.3,2-1.7,3.1C146.6,8.4,146.4,9.6,146.4,11z"/>
	<path class="st0" d="M173.4,0.5h1.4l8.3,20.9h-1.4l-2.6-6.7h-10l-2.7,6.7H165L173.4,0.5z M178.7,13.6l-4.5-11.8h0l-4.7,11.8H178.7z
		"/>
	<path class="st0" d="M184.6,0.5h6.8c1.9,0,3.4,0.3,4.7,0.9s2.2,1.4,3,2.3c0.7,1,1.3,2.1,1.6,3.3c0.3,1.3,0.4,2.5,0.4,3.9
		c0,1.5-0.2,2.9-0.6,4.2c-0.4,1.3-1,2.4-1.8,3.3c-0.8,0.9-1.8,1.7-3,2.2s-2.7,0.8-4.3,0.8h-6.8V0.5z M191.5,20.3c1,0,2-0.1,2.9-0.4
		c1-0.3,1.9-0.8,2.7-1.5c0.8-0.7,1.5-1.7,2-2.9c0.5-1.2,0.7-2.7,0.7-4.5c0-1.4-0.1-2.6-0.4-3.7s-0.6-1.9-1.1-2.5
		c-0.4-0.7-1-1.2-1.6-1.7c-0.6-0.4-1.2-0.7-1.9-0.9c-0.6-0.2-1.3-0.3-1.9-0.4c-0.6,0-1.2-0.1-1.7-0.1h-5.4v18.7H191.5z"/>
	<path class="st0" d="M204.1,0.5h14.1v1.1h-12.8V10h12v1.1h-12v9.2h12.9v1.1h-14.2V0.5z"/>
	<path class="st0" d="M220.5,0.5h6.8c1.9,0,3.4,0.3,4.7,0.9s2.2,1.4,3,2.3c0.7,1,1.3,2.1,1.6,3.3c0.3,1.3,0.4,2.5,0.4,3.9
		c0,1.5-0.2,2.9-0.6,4.2s-1,2.4-1.8,3.3s-1.8,1.7-3,2.2s-2.7,0.8-4.3,0.8h-6.8V0.5z M227.4,20.3c1,0,2-0.1,2.9-0.4
		c1-0.3,1.9-0.8,2.7-1.5c0.8-0.7,1.5-1.7,2-2.9c0.5-1.2,0.7-2.7,0.7-4.5c0-1.4-0.1-2.6-0.4-3.7c-0.3-1-0.6-1.9-1.1-2.5
		c-0.4-0.7-1-1.2-1.6-1.7c-0.6-0.4-1.2-0.7-1.9-0.9c-0.6-0.2-1.3-0.3-1.9-0.4c-0.6,0-1.2-0.1-1.7-0.1h-5.4v18.7H227.4z"/>
</g>
</svg>
