<?xml version="1.0" encoding="utf-8"?>
<!-- Generator: Adobe Illustrator 17.1.0, SVG Export Plug-In . SVG Version: 6.00 Build 0)  -->
<!DOCTYPE svg PUBLIC "-//W3C//DTD SVG 1.1//EN" "http://www.w3.org/Graphics/SVG/1.1/DTD/svg11.dtd">
<svg version="1.1" id="Layer_1" xmlns="http://www.w3.org/2000/svg" xmlns:xlink="http://www.w3.org/1999/xlink" x="0px" y="0px"
	 width="120px" height="44px" viewBox="-10 28 120 44" enable-background="new -10 28 120 44" xml:space="preserve">
<g>
	<g>
		<g>
			<path d="M-6.4,65.6c1.4-1.6,3.1-3.1,5.1-4.6c2-1.5,4.1-3,6.3-4.5c2.3-1.5,4.3-3.1,6.3-4.8c1.9-1.7,3.5-3.5,4.8-5.5
				c1.3-1.9,1.9-4.1,1.9-6.5c0-1.9-0.4-3.6-1.1-5.1c-0.7-1.4-1.6-2.6-2.8-3.6c-1.2-1-2.6-1.7-4.2-2.2C8.3,28.3,6.6,28,4.7,28
				c-4.6,0-8.1,1.3-10.4,3.9c-2.3,2.6-3.5,6.3-3.5,11H-8c0-2,0.2-3.8,0.7-5.5c0.5-1.7,1.2-3.1,2.2-4.3s2.3-2.1,4-2.8
				c1.6-0.7,3.5-1,5.8-1c1.7,0,3.3,0.2,4.8,0.7s2.7,1.1,3.8,2c1.1,0.9,1.9,1.9,2.5,3.2c0.6,1.3,0.9,2.8,0.9,4.5
				c0,1.7-0.4,3.3-1.1,4.7c-0.7,1.5-1.7,2.8-3,4.1c-1.2,1.3-2.6,2.5-4.2,3.7c-1.6,1.2-3.2,2.4-4.8,3.5C2,56.9,0.4,58-1.2,59.2
				c-1.6,1.2-3.1,2.4-4.4,3.7C-7,64.2-8,65.6-8.8,67c-0.8,1.5-1.2,3.1-1.1,5h29.2v-1.3H-8.7C-8.6,68.9-7.8,67.1-6.4,65.6z
				 M35.7,31.5c-0.8,0.8-1.7,1.5-2.6,2.2s-1.8,1.2-2.9,1.7c-1,0.5-2.2,1-3.5,1.4v1.3c2.2-0.6,4.3-1.6,6.4-2.9
				c2.1-1.3,3.8-2.9,5.1-4.7h0.1V72h1.3V28.8h-1.4C37.3,29.8,36.5,30.7,35.7,31.5z M58.6,38.4c0.5,0.5,1.1,1,1.8,1.3
				c0.7,0.3,1.5,0.5,2.4,0.5c0.7,0,1.4-0.1,2-0.3c0.6-0.2,1.1-0.5,1.6-0.9s0.8-0.9,1.1-1.5c0.3-0.6,0.4-1.2,0.5-2h-2.5
				c-0.1,0.8-0.4,1.4-0.8,1.9c-0.4,0.5-1.1,0.7-1.8,0.7c-0.6,0-1.1-0.1-1.5-0.3c-0.4-0.2-0.7-0.5-1-0.9c-0.3-0.4-0.4-0.8-0.5-1.2
				c-0.1-0.5-0.2-0.9-0.2-1.4c0-0.5,0.1-1,0.2-1.5c0.1-0.5,0.3-0.9,0.5-1.3c0.2-0.4,0.6-0.7,1-0.9c0.4-0.2,0.9-0.3,1.5-0.3
				c0.3,0,0.6,0.1,0.9,0.2c0.3,0.1,0.5,0.2,0.8,0.4c0.2,0.2,0.4,0.4,0.6,0.6c0.2,0.2,0.2,0.5,0.3,0.8h2.5c-0.1-0.7-0.3-1.3-0.6-1.8
				c-0.3-0.5-0.7-1-1.1-1.3c-0.5-0.4-1-0.6-1.5-0.8C64,28.1,63.4,28,62.8,28c-0.9,0-1.7,0.2-2.4,0.5c-0.7,0.3-1.3,0.7-1.8,1.3
				c-0.5,0.6-0.9,1.2-1.1,1.9c-0.3,0.7-0.4,1.5-0.4,2.4c0,0.8,0.1,1.6,0.4,2.4C57.7,37.2,58.1,37.9,58.6,38.4z M71.8,28.3h-2.3v11.6
				h2.3V28.3z M73.7,30.2H76v-1.9h-2.3V30.2z M73.7,39.9H76v-8.4h-2.3V39.9z M81.7,40.1c1,0,1.8-0.2,2.4-0.7
				c0.7-0.4,1.2-1.2,1.5-2.2h-2c-0.1,0.3-0.3,0.5-0.6,0.7c-0.3,0.2-0.7,0.3-1.2,0.3c-0.7,0-1.2-0.2-1.5-0.5s-0.5-0.9-0.6-1.6h6.1
				c0-0.7,0-1.3-0.2-1.9c-0.2-0.6-0.4-1.1-0.7-1.6s-0.8-0.8-1.3-1.1c-0.5-0.3-1.2-0.4-1.9-0.4c-0.6,0-1.2,0.1-1.8,0.3
				c-0.5,0.2-1,0.5-1.4,0.9s-0.7,0.9-0.9,1.4c-0.2,0.5-0.3,1.1-0.3,1.8c0,0.7,0.1,1.2,0.3,1.8c0.2,0.5,0.5,1,0.9,1.4
				c0.4,0.4,0.8,0.7,1.4,0.9C80.5,40,81.1,40.1,81.7,40.1z M79.8,34.2c0.1-0.2,0.2-0.4,0.3-0.6c0.1-0.2,0.3-0.3,0.6-0.5
				c0.2-0.1,0.6-0.2,0.9-0.2c0.6,0,1,0.2,1.3,0.5c0.3,0.3,0.5,0.7,0.6,1.3h-3.8C79.7,34.6,79.8,34.4,79.8,34.2z M89.5,35.5
				c0-0.9,0.1-1.5,0.4-1.8c0.3-0.4,0.7-0.6,1.4-0.6c0.6,0,0.9,0.2,1.2,0.5c0.2,0.3,0.3,0.9,0.3,1.6v4.8h2.3v-5.2c0-0.5,0-1-0.1-1.4
				c-0.1-0.4-0.3-0.8-0.5-1.1c-0.2-0.3-0.5-0.5-0.9-0.7c-0.4-0.2-0.9-0.3-1.5-0.3c-0.5,0-1,0.1-1.4,0.3c-0.5,0.2-0.8,0.6-1.1,1.1h0
				v-1.2h-2.2v8.4h2.3C89.5,39.9,89.5,35.5,89.5,35.5z M97.5,38c0,0.4,0.1,0.8,0.2,1c0.1,0.3,0.3,0.5,0.6,0.6
				c0.2,0.1,0.5,0.2,0.8,0.3c0.3,0,0.7,0.1,1,0.1c0.2,0,0.5,0,0.7,0c0.2,0,0.5,0,0.7-0.1v-1.8c-0.1,0-0.2,0-0.3,0
				c-0.1,0-0.2,0-0.4,0c-0.4,0-0.7-0.1-0.8-0.2c-0.1-0.1-0.2-0.4-0.2-0.8V33h1.7v-1.5h-1.7V29h-2.3v2.5h-1.4V33h1.4
				C97.5,33,97.5,38,97.5,38z M104.7,40c0.5,0.1,0.9,0.1,1.4,0.1c0.5,0,0.9,0,1.4-0.1c0.5-0.1,0.9-0.3,1.2-0.5
				c0.4-0.2,0.6-0.5,0.9-0.9c0.2-0.4,0.3-0.8,0.3-1.4c0-0.4-0.1-0.7-0.2-1c-0.2-0.3-0.4-0.5-0.6-0.7c-0.3-0.2-0.5-0.3-0.9-0.4
				s-0.6-0.2-1-0.3c-0.3-0.1-0.6-0.1-1-0.2c-0.3-0.1-0.6-0.1-0.8-0.2c-0.2-0.1-0.4-0.2-0.6-0.3c-0.2-0.1-0.2-0.3-0.2-0.5
				c0-0.2,0-0.3,0.1-0.4c0.1-0.1,0.2-0.2,0.3-0.2c0.1-0.1,0.3-0.1,0.4-0.1c0.2,0,0.3,0,0.4,0c0.4,0,0.8,0.1,1.1,0.2
				c0.3,0.2,0.5,0.5,0.5,0.9h2.2c0-0.5-0.2-1-0.4-1.3c-0.2-0.3-0.5-0.6-0.8-0.8c-0.3-0.2-0.7-0.4-1.1-0.4c-0.4-0.1-0.9-0.1-1.3-0.1
				c-0.5,0-0.9,0-1.3,0.1c-0.4,0.1-0.8,0.2-1.2,0.4c-0.3,0.2-0.6,0.5-0.8,0.8c-0.2,0.3-0.3,0.8-0.3,1.3c0,0.4,0.1,0.7,0.2,0.9
				c0.2,0.3,0.4,0.5,0.6,0.6c0.3,0.2,0.5,0.3,0.9,0.4c0.3,0.1,0.6,0.2,1,0.3c0.8,0.2,1.5,0.3,1.9,0.5c0.5,0.2,0.7,0.4,0.7,0.8
				c0,0.2,0,0.4-0.1,0.5c-0.1,0.1-0.2,0.2-0.4,0.3c-0.1,0.1-0.3,0.1-0.5,0.2c-0.2,0-0.4,0.1-0.5,0.1c-0.2,0-0.4,0-0.7-0.1
				s-0.4-0.1-0.6-0.3s-0.3-0.3-0.4-0.4c-0.1-0.2-0.2-0.4-0.2-0.6h-2.2c0,0.6,0.1,1,0.4,1.4c0.2,0.4,0.5,0.7,0.9,0.9
				C103.8,39.7,104.2,39.9,104.7,40z M56.5,47.4h3.2v8.4h1.3v-8.4H64v-1.1h-7.6V47.4z M72.5,47.6c-0.4-0.5-0.9-0.8-1.4-1.1
				c-0.6-0.3-1.2-0.4-2-0.4c-0.8,0-1.4,0.1-2,0.4c-0.6,0.3-1,0.6-1.4,1.1c-0.4,0.5-0.7,1-0.9,1.6c-0.2,0.6-0.3,1.2-0.3,1.9
				c0,0.6,0.1,1.3,0.3,1.9c0.2,0.6,0.5,1.1,0.9,1.6c0.4,0.5,0.9,0.8,1.4,1.1c0.6,0.3,1.2,0.4,2,0.4c0.8,0,1.4-0.1,2-0.4
				s1-0.6,1.4-1.1c0.4-0.5,0.7-1,0.9-1.6c0.2-0.6,0.3-1.2,0.3-1.9c0-0.6-0.1-1.3-0.3-1.9C73.1,48.6,72.9,48.1,72.5,47.6z M72.2,52.4
				c-0.1,0.5-0.3,0.9-0.6,1.2c-0.3,0.4-0.6,0.7-1,0.9c-0.4,0.2-0.9,0.3-1.5,0.3s-1.1-0.1-1.5-0.3c-0.4-0.2-0.8-0.5-1-0.9
				c-0.3-0.4-0.5-0.8-0.6-1.2c-0.1-0.5-0.2-0.9-0.2-1.4c0-0.5,0.1-0.9,0.2-1.4c0.1-0.5,0.3-0.9,0.6-1.2c0.3-0.4,0.6-0.7,1-0.9
				c0.4-0.2,0.9-0.3,1.5-0.3s1.1,0.1,1.5,0.3c0.4,0.2,0.8,0.5,1,0.9c0.3,0.4,0.5,0.8,0.6,1.2c0.1,0.5,0.2,0.9,0.2,1.4
				C72.4,51.5,72.3,52,72.2,52.4z M82.1,46.3h-3.2v9.4h3.2c0.8,0,1.5-0.1,2-0.3c0.6-0.2,1-0.5,1.4-1s0.6-0.9,0.8-1.5
				c0.2-0.6,0.3-1.3,0.3-2.1c0-1.5-0.4-2.6-1.2-3.4C84.7,46.7,83.5,46.3,82.1,46.3z M85.2,52.5c-0.1,0.4-0.3,0.8-0.5,1
				c-0.2,0.3-0.4,0.5-0.6,0.6c-0.2,0.2-0.5,0.3-0.7,0.4c-0.2,0.1-0.5,0.1-0.7,0.2c-0.2,0-0.4,0-0.5,0h-2.1v-7.3h2.1
				c0.6,0,1.1,0.1,1.5,0.2c0.4,0.2,0.7,0.4,1,0.7c0.3,0.3,0.4,0.7,0.5,1.1c0.1,0.4,0.2,0.9,0.2,1.5C85.4,51.6,85.3,52.1,85.2,52.5z
				 M90.7,46.3L87,55.8h1.3l1.1-2.8h4l1,2.8h1.4l-3.7-9.4H90.7z M89.8,51.9l1.6-4.4h0l1.6,4.4H89.8z M94.5,47.4h3.2v8.4h1.3v-8.4
				h3.2v-1.1h-7.6C94.5,46.3,94.5,47.4,94.5,47.4z M104.4,51.4h4.9v-1.1h-4.9v-3h5.3v-1.1h-6.5v9.4h6.6v-1.1h-5.3
				C104.4,54.7,104.4,51.4,104.4,51.4z"/>
		</g>
	</g>
	<path opacity="0.2" enable-background="new    " d="M56.5,69.8c0,0,0,0,0.1,0c1.4,0,17.2,0,17.2,0v1.5H56.5l0,0V69.8z"/>
</g>
</svg>
