<?xml version="1.0" encoding="utf-8"?>
<!-- Generator: Adobe Illustrator 17.1.0, SVG Export Plug-In . SVG Version: 6.00 Build 0)  -->
<!DOCTYPE svg PUBLIC "-//W3C//DTD SVG 1.1//EN" "http://www.w3.org/Graphics/SVG/1.1/DTD/svg11.dtd">
<svg version="1.1" id="Layer_1" xmlns="http://www.w3.org/2000/svg" xmlns:xlink="http://www.w3.org/1999/xlink" x="0px" y="0px"
	 width="125px" height="26px" viewBox="-12.5 37 125 26" enable-background="new -12.5 37 125 26" xml:space="preserve">
<g>
	<rect x="-12.5" y="37.3" fill="#999999" width="1.7" height="19.3"/>
	<path fill="#999999" d="M3.9,52.9c0,0.2,0,0.5,0,0.9c0,0.3,0,0.7,0.1,1.1c0,0.4,0,0.7,0,1c0,0.3,0,0.5,0,0.7H2.3c0-0.5,0-1,0-1.4
		c0-0.5,0-0.7-0.1-0.9H2.1c-0.3,0.7-0.9,1.3-1.8,1.9c-0.8,0.5-1.8,0.8-2.9,0.8c-1.1,0-1.9-0.2-2.6-0.5c-0.7-0.3-1.2-0.7-1.6-1.3
		c-0.4-0.5-0.6-1.1-0.8-1.8c-0.1-0.7-0.2-1.4-0.2-2.1v-7.8H-6v7.7c0,0.5,0.1,1,0.2,1.5c0.1,0.5,0.3,1,0.5,1.3c0.2,0.4,0.6,0.7,1,1
		c0.4,0.2,1,0.4,1.7,0.4c0.6,0,1.3-0.1,1.8-0.3c0.6-0.2,1.1-0.5,1.5-1c0.4-0.4,0.8-1,1-1.7C2,51.7,2.2,50.9,2.2,50v-6.5h1.8
		L3.9,52.9L3.9,52.9z"/>
	<path fill="#999999" d="M6.4,47.1c0-0.2,0-0.5,0-0.9c0-0.3,0-0.7-0.1-1.1c0-0.4,0-0.7,0-1c0-0.3,0-0.5,0-0.7h1.8c0,0.5,0,1,0,1.4
		c0,0.5,0,0.7,0.1,0.9h0.1c0.3-0.7,0.9-1.3,1.8-1.9c0.8-0.5,1.8-0.8,2.9-0.8c0.9,0,1.7,0.2,2.5,0.7c0.7,0.4,1.3,1.2,1.6,2.2
		c0.4-1,1.1-1.7,1.9-2.1c0.8-0.4,1.7-0.7,2.7-0.7c1.1,0,1.9,0.2,2.6,0.5c0.7,0.3,1.2,0.7,1.6,1.3c0.4,0.5,0.6,1.1,0.8,1.8
		c0.2,0.7,0.2,1.4,0.2,2.1v7.8H25v-7.7c0-0.5-0.1-1-0.1-1.5c-0.1-0.5-0.3-0.9-0.5-1.3c-0.2-0.4-0.6-0.7-1-0.9
		c-0.4-0.2-1-0.4-1.7-0.4c-0.8,0-1.5,0.1-2,0.4c-0.5,0.3-0.9,0.7-1.3,1.1c-0.3,0.5-0.5,1-0.6,1.5c-0.1,0.5-0.2,1-0.2,1.5v7.4h-1.8
		v-7.9c0-1.2-0.2-2.2-0.7-2.9c-0.5-0.7-1.2-1.1-2.1-1.1c-0.6,0-1.3,0.1-1.8,0.3c-0.6,0.2-1.1,0.5-1.5,1c-0.4,0.4-0.8,1-1,1.7
		c-0.2,0.7-0.4,1.5-0.4,2.4v6.6H6.4L6.4,47.1L6.4,47.1z"/>
	<path fill="#999999" d="M29.5,38.3c0-0.4,0.1-0.7,0.4-0.9c0.3-0.2,0.6-0.4,0.9-0.4c0.4,0,0.7,0.1,0.9,0.4c0.3,0.2,0.4,0.5,0.4,0.9
		c0,0.4-0.1,0.7-0.4,0.9c-0.3,0.2-0.6,0.4-0.9,0.4s-0.7-0.1-0.9-0.4C29.7,38.9,29.5,38.6,29.5,38.3L29.5,38.3z M30,43.5h1.8v13.1H30
		V43.5z"/>
	<path fill="#999999" d="M35.4,53.2c0.4,0.7,0.9,1.2,1.7,1.6c0.7,0.4,1.5,0.5,2.3,0.5c0.4,0,0.7-0.1,1.1-0.2c0.4-0.1,0.7-0.3,1-0.5
		c0.3-0.2,0.5-0.4,0.7-0.7c0.2-0.3,0.3-0.6,0.3-1c0-0.6-0.2-1.1-0.6-1.4c-0.4-0.3-0.9-0.5-1.5-0.7c-0.6-0.2-1.2-0.3-1.9-0.4
		c-0.7-0.1-1.3-0.3-1.9-0.6c-0.6-0.3-1.1-0.6-1.5-1.1c-0.4-0.4-0.6-1.1-0.6-1.9c0-0.6,0.1-1.2,0.4-1.7c0.3-0.5,0.6-0.9,1.1-1.2
		c0.4-0.3,0.9-0.5,1.5-0.7c0.5-0.1,1.1-0.2,1.7-0.2c1.1,0,2.1,0.2,2.9,0.6c0.8,0.4,1.5,1,1.9,1.9l-1.6,0.9c-0.3-0.6-0.8-1.1-1.3-1.4
		c-0.5-0.3-1.2-0.5-2-0.5c-0.3,0-0.6,0-1,0.1c-0.3,0.1-0.6,0.2-0.9,0.4c-0.3,0.2-0.5,0.4-0.7,0.7c-0.2,0.3-0.3,0.6-0.3,0.9
		c0,0.6,0.2,1,0.6,1.3c0.4,0.3,0.9,0.5,1.5,0.7c0.6,0.1,1.2,0.3,1.9,0.4c0.7,0.1,1.3,0.3,1.9,0.5c0.6,0.3,1.1,0.6,1.5,1.1
		c0.4,0.5,0.6,1.2,0.6,2.1c0,0.7-0.1,1.3-0.4,1.8c-0.3,0.5-0.6,0.9-1.1,1.3c-0.5,0.3-1,0.6-1.6,0.8c-0.6,0.2-1.2,0.3-1.9,0.3
		c-1.2,0-2.3-0.2-3.2-0.7c-1-0.4-1.7-1.1-2.3-2L35.4,53.2z"/>
	<path fill="#999999" d="M54,55.3c0.1,0,0.1,0,0.2,0c0.8,0,1.6-0.1,2.2-0.4c0.7-0.3,1.2-0.7,1.7-1.1c0.5-0.5,0.8-1,1.1-1.7
		c0.2-0.7,0.4-1.3,0.4-2.1c0-0.7-0.1-1.4-0.4-2.1c-0.2-0.7-0.6-1.2-1.1-1.7c-0.5-0.5-1-0.9-1.7-1.1c-0.7-0.3-1.4-0.4-2.2-0.4
		c-0.1,0-0.1,0-0.2,0v-1.5c0.1,0,0.1,0,0.2,0c1,0,2,0.2,2.9,0.5c0.9,0.3,1.6,0.8,2.3,1.4c0.6,0.6,1.1,1.3,1.5,2.2s0.5,1.8,0.5,2.8
		c0,1-0.2,1.9-0.5,2.8c-0.3,0.8-0.9,1.6-1.5,2.2c-0.6,0.6-1.4,1.1-2.3,1.4c-0.9,0.3-1.8,0.5-2.9,0.5c-0.1,0-0.1,0-0.2,0V55.3z
		 M48.5,50c0,0.7,0.2,1.4,0.4,2.1c0.3,0.7,0.7,1.2,1.2,1.7c0.5,0.5,1.1,0.9,1.8,1.1c0.6,0.3,1.3,0.4,2.1,0.4v1.5
		c-0.5,0-0.9-0.1-1.4-0.2c-0.5-0.1-1-0.3-1.5-0.5c-0.5-0.2-0.9-0.5-1.3-0.8c-0.4-0.3-0.7-0.7-1-1.2h-0.1V63h-1.8V43.5h1.8v2.3h0.1
		c0.3-0.4,0.6-0.8,1-1.2c0.4-0.3,0.9-0.6,1.3-0.8c0.5-0.2,1-0.4,1.5-0.5c0.5-0.1,1-0.1,1.4-0.2v1.5c-0.7,0-1.4,0.1-2.1,0.4
		c-0.7,0.3-1.3,0.7-1.8,1.1c-0.5,0.5-0.9,1-1.2,1.7C48.7,48.6,48.5,49.3,48.5,50z"/>
	<path fill="#999999" d="M73.7,48.9c0-0.6-0.1-1.1-0.4-1.6c-0.2-0.5-0.6-1-1-1.3c-0.4-0.4-0.9-0.7-1.5-0.9c-0.6-0.2-1.2-0.3-1.8-0.3
		c0,0-0.1,0-0.1,0v-1.5c0.1,0,0.1,0,0.2,0c1,0,2,0.2,2.8,0.5c0.8,0.3,1.5,0.8,2,1.4c0.5,0.6,0.9,1.2,1.2,2c0.3,0.7,0.4,1.5,0.4,2.2
		v1.2h-6.6v-1.5H73.7L73.7,48.9z M68.9,56.9v-1.5c0.1,0,0.2,0,0.3,0c0.9,0,1.8-0.2,2.6-0.6c0.9-0.4,1.5-1,1.9-1.7l1.3,1.1
		c-0.7,1-1.5,1.7-2.5,2.1c-1,0.4-2.1,0.7-3.3,0.7C69.1,56.9,69,56.9,68.9,56.9z M68.9,44.7c-0.9,0-1.7,0.2-2.3,0.6
		c-0.6,0.4-1.1,0.8-1.5,1.3s-0.6,1-0.8,1.4s-0.2,0.8-0.2,1h4.8v1.5h-4.8c0,0.4,0.1,0.8,0.2,1.4c0.1,0.6,0.4,1.1,0.8,1.6
		c0.4,0.5,0.9,1,1.6,1.4c0.6,0.3,1.3,0.5,2.2,0.6v1.5c-0.9,0-1.8-0.2-2.5-0.5c-0.8-0.3-1.6-0.8-2.2-1.4c-0.6-0.6-1.1-1.3-1.4-2.2
		c-0.3-0.8-0.5-1.8-0.5-2.8c0-1,0.2-1.9,0.5-2.7c0.3-0.8,0.8-1.5,1.4-2.2c0.6-0.6,1.3-1.1,2.2-1.4c0.8-0.3,1.6-0.5,2.5-0.5V44.7z"/>
	<path fill="#999999" d="M89.6,54.6c-0.7,0.8-1.4,1.3-2.3,1.7c-0.8,0.4-1.8,0.6-2.7,0.6c-1,0-2-0.2-2.9-0.5
		c-0.9-0.3-1.6-0.8-2.3-1.4c-0.6-0.6-1.1-1.3-1.5-2.2c-0.3-0.8-0.5-1.8-0.5-2.8c0-1,0.2-1.9,0.5-2.8c0.4-0.8,0.8-1.6,1.5-2.2
		c0.6-0.6,1.4-1.1,2.3-1.4c0.9-0.3,1.8-0.5,2.9-0.5c1,0,1.9,0.2,2.8,0.6c0.9,0.4,1.6,1,2.3,1.7l-1.4,1c-0.5-0.5-1.1-1-1.7-1.3
		c-0.6-0.3-1.3-0.5-2-0.5c-0.8,0-1.6,0.1-2.2,0.4c-0.7,0.3-1.2,0.7-1.7,1.1c-0.5,0.5-0.8,1-1.1,1.7c-0.2,0.7-0.4,1.3-0.4,2.1
		c0,0.7,0.1,1.4,0.4,2.1c0.2,0.7,0.6,1.2,1.1,1.7c0.5,0.5,1,0.9,1.7,1.1c0.7,0.3,1.4,0.4,2.2,0.4c0.7,0,1.4-0.2,2-0.5
		c0.6-0.3,1.2-0.8,1.6-1.3L89.6,54.6z"/>
	<g opacity="0.5">
		<g>
			<path fill="#999999" d="M99.2,56.9c-4.1,0-7.4-3.3-7.4-7.4c0-2.3,1.2-4.6,3-6c0.3-0.2,0.8-0.2,1.1,0.2c0.2,0.3,0.2,0.8-0.2,1.1
				c-1.5,1.1-2.4,2.9-2.4,4.7c0,3.2,2.6,5.9,5.9,5.9c3.2,0,5.9-2.6,5.9-5.9c0-1.8-0.9-3.7-2.4-4.7c-0.3-0.2-0.4-0.7-0.2-1.1
				c0.2-0.3,0.7-0.4,1.1-0.2c1.9,1.4,3,3.7,3,6C106.6,53.6,103.3,56.9,99.2,56.9z M99.2,49.8c-0.4,0-0.8-0.3-0.8-0.8v-7.4
				c0-0.4,0.3-0.8,0.8-0.8c0.4,0,0.8,0.3,0.8,0.8v7.4C99.9,49.5,99.6,49.8,99.2,49.8z"/>
		</g>
	</g>
	<path fill="#999999" d="M107.1,41.6h2V42h-0.7v2.2h-0.5V42h-0.7V41.6L107.1,41.6z M109.4,41.6h0.8l0.7,1.8c0,0.1,0,0.1,0,0.2
		c0,0.1,0,0.2,0,0.2c0-0.1,0-0.2,0-0.2c0-0.1,0-0.1,0-0.2l0.7-1.8h0.8v2.7H112v-2c0-0.1,0-0.1,0-0.2c0-0.1,0-0.2,0-0.2
		c0,0.1,0,0.2-0.1,0.2c0,0.1,0,0.1,0,0.1l-0.8,2.1h-0.5l-0.7-2c0-0.1,0-0.1-0.1-0.2c0-0.1,0-0.1-0.1-0.2c0,0.2,0,0.3,0,0.3
		c0,0.1,0,0.1,0,0.1v2h-0.5C109.4,44.2,109.4,41.6,109.4,41.6z"/>
</g>
</svg>
