<?xml version="1.0" encoding="utf-8"?>
<!-- Generator: Adobe Illustrator 22.1.0, SVG Export Plug-In . SVG Version: 6.00 Build 0)  -->
<svg version="1.1" id="Layer_1" xmlns="http://www.w3.org/2000/svg" xmlns:xlink="http://www.w3.org/1999/xlink" x="0px" y="0px"
	 viewBox="0 0 143.1 26.5" style="enable-background:new 0 0 143.1 26.5;" xml:space="preserve">
<style type="text/css">
	.st0{opacity:0.35;}
	.st1{fill:#5F6771;}
</style>
<g class="st0">
	<g>
		<g>
			<path class="st1" d="M12.3,0c1.2,0,2.4,0.1,3.4,0.3s1.9,0.6,2.6,1.1s1.3,1.2,1.7,2c0.4,0.8,0.6,1.8,0.6,3c0,1.3-0.3,2.4-0.9,3.3
				s-1.5,1.6-2.7,2.1c1.6,0.5,2.8,1.3,3.6,2.4c0.8,1.2,1.2,2.5,1.2,4.2c0,1.3-0.3,2.5-0.8,3.4c-0.5,1-1.2,1.7-2.1,2.4
				c-0.9,0.6-1.8,1.1-3,1.3c-1.1,0.3-2.2,0.4-3.4,0.4H0V0H12.3z M11.5,10.5c1,0,1.9-0.2,2.5-0.7c0.7-0.5,1-1.3,1-2.4
				c0-0.6-0.1-1.1-0.3-1.5S14.2,5.2,13.8,5S13,4.6,12.5,4.5s-1-0.1-1.5-0.1H5.7v6.1H11.5z M11.8,21.6c0.6,0,1.1-0.1,1.6-0.2
				s1-0.3,1.3-0.6c0.4-0.3,0.7-0.6,0.9-1s0.3-1,0.3-1.7c0-1.3-0.4-2.3-1.1-2.9c-0.8-0.6-1.8-0.9-3-0.9H5.7v7.2h6.1
				C11.8,21.5,11.8,21.6,11.8,21.6z"/>
			<path class="st1" d="M29.9,21.5c0.8,0.8,1.9,1.1,3.3,1.1c1,0,1.9-0.3,2.7-0.8c0.7-0.5,1.2-1.1,1.4-1.7h4.6
				C41.2,22.4,40,24,38.5,25s-3.3,1.5-5.4,1.5c-1.5,0-2.8-0.2-4-0.7s-2.2-1.1-3-2s-1.5-1.9-1.9-3.1s-0.7-2.6-0.7-4s0.2-2.7,0.7-3.9
				s1.1-2.3,2-3.2s1.9-1.6,3-2.1c1.2-0.5,2.5-0.8,3.9-0.8c1.6,0,3,0.3,4.2,0.9s2.2,1.4,2.9,2.5c0.8,1,1.3,2.2,1.7,3.6
				c0.3,1.3,0.5,2.7,0.4,4.2H28.6C28.6,19.3,29.1,20.7,29.9,21.5z M35.9,11.6c-0.6-0.7-1.7-1-2.9-1c-0.8,0-1.5,0.1-2.1,0.4
				c-0.5,0.3-1,0.6-1.3,1s-0.6,0.9-0.7,1.3c-0.1,0.5-0.2,0.9-0.2,1.2H37C36.9,13.2,36.5,12.3,35.9,11.6z"/>
			<path class="st1" d="M49.6,0v9.8h0.1c0.7-1.1,1.5-1.9,2.5-2.4s2-0.7,3-0.7c1.4,0,2.5,0.2,3.4,0.6s1.6,0.9,2.1,1.6
				c0.5,0.7,0.9,1.5,1.1,2.4c0.2,1,0.3,2,0.3,3.2V26h-5.2V15.4c0-1.5-0.2-2.7-0.7-3.5s-1.3-1.1-2.6-1.1c-1.4,0-2.4,0.4-3,1.3
				c-0.6,0.8-0.9,2.2-0.9,4.1V26h-5.2V0H49.6z"/>
			<path class="st1" d="M65.7,9.9c0.5-0.8,1.2-1.4,2-1.9s1.7-0.8,2.8-1c1-0.2,2.1-0.3,3.1-0.3c0.9,0,1.9,0.1,2.9,0.2
				s1.8,0.4,2.7,0.8c0.8,0.4,1.5,0.9,2,1.6S82,10.9,82,12v9.8c0,0.9,0.1,1.7,0.1,2.4c0.1,0.8,0.4,1.4,0.6,1.8h-5.3
				c-0.2-0.2-0.3-0.6-0.3-0.9C77,24.8,77,24.5,77,24.2c-0.9,0.8-1.9,1.4-3,1.8c-1.1,0.3-2.3,0.5-3.4,0.5c-0.9,0-1.7-0.1-2.5-0.3
				c-0.8-0.2-1.4-0.6-2-1c-0.6-0.5-1-1-1.4-1.8c-0.3-0.7-0.5-1.5-0.5-2.5c0-1.1,0.2-2,0.6-2.6c0.4-0.7,0.8-1.2,1.5-1.7
				c0.6-0.4,1.3-0.7,2-0.9c0.8-0.2,1.5-0.4,2.3-0.5s1.5-0.2,2.3-0.3s1.4-0.2,2-0.3s1-0.4,1.4-0.6c0.3-0.3,0.5-0.7,0.5-1.2
				c0-0.6-0.1-1-0.3-1.3c-0.2-0.3-0.4-0.6-0.7-0.8c-0.3-0.2-0.6-0.3-1-0.4c-0.4-0.1-0.8-0.1-1.3-0.1c-1,0-1.8,0.2-2.4,0.7
				c-0.6,0.4-0.9,1.2-1,2.2h-5.2C64.9,11.7,65.2,10.7,65.7,9.9z M75.9,17.2c-0.3,0.1-0.7,0.2-1,0.3c-0.4,0.1-0.8,0.1-1.2,0.2
				c-0.4,0-0.8,0.1-1.2,0.2c-0.4,0.1-0.8,0.2-1.1,0.3c-0.4,0.1-0.7,0.3-1,0.5s-0.5,0.5-0.7,0.8s-0.3,0.7-0.3,1.2s0.1,0.8,0.3,1.2
				c0.2,0.3,0.4,0.6,0.7,0.7c0.3,0.2,0.6,0.3,1,0.4s0.8,0.1,1.2,0.1c1,0,1.8-0.2,2.4-0.5s1-0.7,1.2-1.2c0.3-0.5,0.4-1,0.5-1.4
				c0.1-0.5,0.1-0.9,0.1-1.2v-1.9C76.5,17,76.2,17.1,75.9,17.2z"/>
			<path class="st1" d="M89.6,7.2v2.6h0.1c0.7-1.1,1.5-1.9,2.5-2.4s2.1-0.7,3.2-0.7c1.4,0,2.5,0.2,3.4,0.6s1.6,0.9,2.1,1.6
				c0.5,0.7,0.9,1.5,1.1,2.4c0.2,1,0.3,2,0.3,3.2V26h-5.2V15.4c0-1.5-0.2-2.7-0.7-3.5s-1.3-1.3-2.6-1.3c-1.4,0-2.4,0.5-3.1,1.4
				c-0.6,0.8-0.9,2.2-0.9,4.1V26h-5.1V7.2H89.6z"/>
			<path class="st1" d="M113.9,10.5c-0.8,0-1.5,0.2-2.1,0.6c-0.6,0.4-1,0.9-1.4,1.5s-0.6,1.2-0.7,2c-0.1,0.7-0.2,1.4-0.2,2.1
				s0.1,1.4,0.2,2.1c0.2,0.7,0.4,1.3,0.7,1.9c0.3,0.6,0.8,1,1.3,1.4c0.6,0.4,1.2,0.5,2,0.5c1.2,0,2.2-0.3,2.9-1
				c0.7-0.7,1.1-1.6,1.2-2.8h5c-0.3,2.5-1.3,4.4-2.9,5.7s-3.7,2-6.2,2c-1.4,0-2.7-0.2-3.9-0.7c-1.2-0.5-2.2-1.1-3-2s-1.5-1.9-1.9-3
				c-0.5-1.2-0.7-2.5-0.7-3.9c0-1.5,0.2-2.8,0.6-4.1c0.4-1.2,1-2.3,1.9-3.2c0.8-0.9,1.8-1.6,3-2.1s2.6-0.8,4.1-0.8
				c1.1,0,2.2,0.2,3.2,0.4c1,0.3,2,0.7,2.8,1.3s1.5,1.3,2,2.2s0.8,1.9,0.9,3.1h-5.1C117.4,11.6,116.1,10.5,113.9,10.5z"/>
			<rect x="27.6" y="1.7" class="st1" width="10.5" height="2.6"/>
			<path class="st1" d="M130.7,21.5c0.8,0.8,1.9,1.1,3.4,1.1c1,0,1.9-0.3,2.7-0.8s1.2-1.1,1.4-1.7h4.6c-0.7,2.3-1.8,3.9-3.3,4.9
				s-3.3,1.5-5.5,1.5c-1.5,0-2.8-0.2-4-0.7s-2.2-1.1-3-2s-1.5-1.9-1.9-3.1s-0.7-2.6-0.7-4s0.2-2.7,0.7-3.9s1.1-2.3,2-3.2
				s1.9-1.6,3-2.1c1.2-0.5,2.5-0.8,3.9-0.8c1.6,0,3,0.3,4.2,0.9s2.2,1.4,2.9,2.5c0.8,1,1.3,2.2,1.7,3.6c0.3,1.3,0.5,2.7,0.4,4.2
				h-13.6C129.4,19.3,129.9,20.7,130.7,21.5z M136.7,11.6c-0.6-0.7-1.7-1-2.9-1c-0.8,0-1.5,0.1-2.1,0.4c-0.5,0.3-1,0.6-1.4,1
				c-0.3,0.4-0.6,0.9-0.7,1.3c-0.1,0.5-0.2,0.9-0.2,1.2h8.5C137.7,13.2,137.3,12.3,136.7,11.6z"/>
		</g>
	</g>
</g>
</svg>
