<?xml version="1.0" standalone="no"?>
<!DOCTYPE svg PUBLIC "-//W3C//DTD SVG 1.1//EN" "http://www.w3.org/Graphics/SVG/1.1/DTD/svg11.dtd" >
<svg xmlns="http://www.w3.org/2000/svg">
<metadata></metadata>
<defs>
<font id="dincond-boldbold" horiz-adv-x="817" >
<font-face units-per-em="2048" ascent="1638" descent="-410" />
<missing-glyph horiz-adv-x="366" />
<glyph horiz-adv-x="0" />
<glyph horiz-adv-x="682" />
<glyph unicode=" "  horiz-adv-x="366" />
<glyph unicode="&#x09;" horiz-adv-x="366" />
<glyph unicode="&#xa0;" horiz-adv-x="366" />
<glyph unicode="!" horiz-adv-x="526" d="M160 0v252h254v-252h-254zM178 410v1048h217v-1048h-217z" />
<glyph unicode="&#x22;" horiz-adv-x="894" d="M147 1047v411h209v-411h-209zM539 1047v411h206v-411h-206z" />
<glyph unicode="#" horiz-adv-x="1245" d="M96 412v204h172l37 261h-145l-2 206h180l53 375h227l-55 -375h219l56 375h225l-53 -375h139v-206h-172l-37 -261h145v-204h-178l-59 -412h-227l59 412h-219l-60 -412h-225l60 412h-140zM494 616h219l39 261h-220z" />
<glyph unicode="$" horiz-adv-x="919" d="M78 395h229q0 -62 8.5 -99.5t32.5 -64.5q33 -38 107 -38t108 40q41 46 41 162t-26 161t-111 79l-174 72q-77 32 -119 73t-63 111t-21 182q0 202 119 309q65 59 147 76v193h203v-191q98 -17 162 -78q102 -99 102 -317h-229q0 112 -35 156q-32 43 -102 43q-61 0 -99 -41 q-39 -45 -39 -144q0 -90 22.5 -128t98.5 -68l172 -70q131 -54 176.5 -139t45.5 -271q0 -118 -21 -193.5t-74 -127.5q-65 -65 -180 -86v-229h-203v227q-115 17 -186 88q-51 51 -71.5 123t-20.5 190z" />
<glyph unicode="%" horiz-adv-x="1499" d="M96 956v273q0 116 75 181t185 65t185 -65t75 -181v-273q0 -116 -75 -180.5t-185 -64.5t-185 64.5t-75 180.5zM272 961q0 -46 23 -69.5t61 -23.5t60 23.5t22 69.5v264q0 46 -22 69t-60 23t-61 -23t-23 -69v-264zM414 0l508 1458h168l-508 -1458h-168zM883 229v273 q0 116 75 181t185 65t185 -65t75 -181v-273q0 -116 -75 -180.5t-185 -64.5t-185 64.5t-75 180.5zM1061 233q0 -46 22 -69t60 -23t60 23t22 69v265q0 46 -22 69t-60 23t-60 -23t-22 -69v-265z" />
<glyph unicode="&#x26;" horiz-adv-x="1021" d="M70 358q0 120 54 225t163 216q-80 108 -117 185.5t-37 162.5q0 155 82 240.5t209 85.5q143 0 219 -86t76 -220q0 -121 -46 -212t-141 -189l175 -268q49 103 59 268h186q-4 -120 -39 -245.5t-86 -215.5l191 -305h-227l-80 129q-64 -72 -134 -108.5t-165 -36.5 q-152 0 -247 101t-95 273zM272 373q0 -86 44.5 -140.5t113.5 -54.5q92 0 174 117l-211 328q-121 -124 -121 -250zM328 1155q0 -86 96 -215q54 59 77 106.5t23 116.5q0 52 -28 83.5t-70 31.5q-46 0 -72 -33t-26 -90z" />
<glyph unicode="'" horiz-adv-x="505" d="M147 1047v411h209v-411h-209z" />
<glyph unicode="(" horiz-adv-x="542" d="M98 246v966q0 155 49 242q20 35 49.5 71.5t51.5 59.5t65 66l146 -146q-86 -86 -115 -137q-29 -54 -29 -168v-942q0 -114 29 -168q29 -51 115 -137l-146 -146q-43 43 -65.5 66.5t-52 60t-48.5 70.5q-49 87 -49 242z" />
<glyph unicode=")" horiz-adv-x="542" d="M84 -47q2 2 14 13.5t14 14t12 13t13 13.5t11.5 12.5t12 14t10.5 13t10.5 14.5t8.5 13.5t9 15.5q30 48 30 168v942q0 120 -30 168q-10 18 -20.5 34t-31.5 38.5t-27 28.5l-36 36l147 146q8 -8 30.5 -31.5t31.5 -33t27.5 -30t28.5 -34t23 -32t23 -36.5q51 -90 51 -242v-966 q0 -152 -51 -242q-11 -21 -24 -40t-34.5 -44t-29.5 -34t-40.5 -42.5t-35.5 -36.5z" />
<glyph unicode="*" horiz-adv-x="854" d="M88 981l201 104l-201 105l76 135l192 -121l-8 258h158l-8 -258l190 121l78 -135l-201 -105l201 -104l-78 -133l-190 119l8 -258h-158l8 258l-192 -119z" />
<glyph unicode="+" horiz-adv-x="935" d="M90 487v207h275v275h206v-275h275v-207h-275v-274h-206v274h-275z" />
<glyph unicode="," horiz-adv-x="468" d="M117 254h235v-387l-235 -174v561z" />
<glyph unicode="-" horiz-adv-x="604" d="M96 487v207h414v-207h-414z" />
<glyph unicode="." horiz-adv-x="479" d="M115 0v252h252v-252h-252z" />
<glyph unicode="/" horiz-adv-x="610" d="M12 -152l379 1762h205l-379 -1762h-205z" />
<glyph unicode="0" horiz-adv-x="821" d="M86 311v836q0 153 92 242q89 86 234 86q142 0 231 -86q92 -89 92 -242v-836q0 -152 -92 -241q-89 -86 -231 -86q-145 0 -234 86q-92 89 -92 241zM303 303q0 -60 31 -92.5t78 -32.5t76.5 32t29.5 93v852q0 61 -29.5 93t-76.5 32t-78 -32.5t-31 -92.5v-852z" />
<glyph unicode="1" horiz-adv-x="821" d="M143 1036v246l219 176h218v-1458h-218v1204z" />
<glyph unicode="2" horiz-adv-x="821" d="M90 1061v86q0 155 90 242q42 41 105.5 63.5t130.5 22.5q141 0 225 -78q96 -89 96 -252q0 -78 -22 -164.5t-58 -155.5l-329 -630h409v-195h-641v184l365 709q59 109 59 260q0 61 -29 94t-75 33q-47 0 -78 -32.5t-31 -92.5v-94h-217z" />
<glyph unicode="3" horiz-adv-x="821" d="M84 311v86h217v-94q0 -60 31 -92.5t78 -32.5t77 37q35 44 35 215q0 88 -6 136.5t-27 76.5q-27 37 -81 37h-72v182h72q43 0 69 29q15 17 23 49.5t9 58.5t1 76q0 67 -5.5 107.5t-23.5 64.5q-26 33 -71 33q-43 0 -71 -30.5t-28 -86.5v-102h-217v88q0 155 90 242 q87 84 226 84q141 0 223 -82q94 -94 94 -303q0 -84 -7 -136t-30 -96q-26 -50 -80 -86q61 -44 84 -88q28 -49 36.5 -107.5t8.5 -160.5q0 -138 -16.5 -212t-79.5 -136q-87 -84 -233 -84q-68 0 -131 22.5t-105 63.5q-90 87 -90 241z" />
<glyph unicode="4" horiz-adv-x="821" d="M49 227v195l375 1036h211l-363 -1036h183v260h217v-260h100v-195h-100v-227h-217v227h-406z" />
<glyph unicode="5" horiz-adv-x="821" d="M86 311v72h217v-100q0 -63 30 -95t79 -32q53 0 80 39q15 20 22.5 69t8.5 86.5t1 120.5q0 81 -0.5 115.5t-7 78t-20.5 64.5q-26 45 -84 45q-47 0 -78 -33.5t-31 -91.5v-31h-207v840h629v-194h-430v-392q35 47 76 70q52 27 104 27q127 0 197 -88q42 -52 55.5 -143.5 t13.5 -245.5q0 -174 -16.5 -263.5t-81.5 -154.5q-90 -90 -231 -90q-147 0 -234 84q-92 89 -92 243z" />
<glyph unicode="6" horiz-adv-x="821" d="M82 442q0 186 59 344l256 672h226l-240 -590q35 25 90 25q124 0 193 -90q41 -53 57 -128.5t16 -232.5q0 -141 -16 -214.5t-53 -127.5q-81 -116 -260 -116q-174 0 -254 116q-42 61 -58 135t-16 207zM299 444q0 -66 0.5 -93t8.5 -70.5t24 -65.5q27 -37 80 -37q50 0 77 37 q16 21 24 64.5t8.5 71t0.5 93.5q0 67 -0.5 95t-8.5 73t-24 66q-27 37 -77 37q-53 0 -80 -37q-16 -21 -24 -66t-8.5 -73t-0.5 -95z" />
<glyph unicode="7" horiz-adv-x="821" d="M68 1069v389h680v-180l-383 -1278h-218l383 1264h-254v-195h-208z" />
<glyph unicode="8" horiz-adv-x="821" d="M82 412q0 97 9 155t34 103q22 45 86 92q-53 38 -80 90q-23 45 -31 95.5t-8 131.5q0 112 20.5 185.5t73.5 126.5q84 84 224 84q141 0 225 -84q53 -53 73.5 -126.5t20.5 -185.5q0 -81 -8 -131.5t-31 -95.5q-27 -52 -80 -90q60 -44 86 -92q25 -45 34 -103t9 -155 q0 -134 -18 -208t-78 -134q-86 -86 -231 -86q-68 0 -130 22t-104 64q-60 60 -78 134t-18 208zM299 422q0 -56 1 -85t9 -66.5t23 -57.5q27 -35 80 -35q50 0 77 35q15 19 23 56.5t9 67t1 85.5q0 66 -0.5 91.5t-8.5 64.5t-24 59q-27 35 -77 35q-53 0 -80 -35q-16 -20 -24 -59 t-8.5 -64.5t-0.5 -91.5zM309 1069q0 -54 1 -77t9.5 -59.5t26.5 -53.5q25 -25 66 -25q40 0 65 25q6 6 11.5 13.5t9 17.5t6 18t4 22t2.5 21.5t1.5 25t0.5 23.5v25.5v23.5q0 47 -1 72.5t-8.5 59t-21.5 50.5q-23 29 -69 29q-49 0 -72 -29q-14 -17 -21.5 -50.5t-8.5 -59t-1 -72.5 z" />
<glyph unicode="9" horiz-adv-x="821" d="M82 1016q0 139 17 213t55 129q81 117 258 117q175 0 256 -117q42 -60 56.5 -133.5t14.5 -208.5q0 -186 -59 -344l-256 -672h-225l239 590q-35 -25 -88 -25q-125 0 -194 90q-41 53 -57.5 129t-16.5 232zM299 1014q0 -67 0.5 -95t8.5 -73t24 -66q27 -37 80 -37q50 0 77 37 q16 21 24 66t8.5 73t0.5 95q0 66 -0.5 93t-8.5 70.5t-24 65.5q-27 37 -77 37q-53 0 -80 -37q-16 -21 -24 -64.5t-8.5 -71t-0.5 -93.5z" />
<glyph unicode=":" horiz-adv-x="526" d="M160 0v252h254v-252h-254zM160 641v252h254v-252h-254z" />
<glyph unicode=";" horiz-adv-x="526" d="M160 641v252h254v-252h-254zM168 254h238v-387l-238 -174v561z" />
<glyph unicode="&#x3c;" horiz-adv-x="821" d="M70 522v152l682 397v-237l-416 -236l416 -236v-239z" />
<glyph unicode="=" horiz-adv-x="935" d="M90 297v207h756v-207h-756zM90 668v206h756v-206h-756z" />
<glyph unicode="&#x3e;" horiz-adv-x="821" d="M70 123v239l415 236l-415 236v237l682 -397v-152z" />
<glyph unicode="?" horiz-adv-x="872" d="M115 1079q0 204 96 295q103 96 246 96q161 0 250 -92q53 -53 75.5 -124.5t22.5 -180.5q0 -158 -70 -252l-121 -162q-47 -62 -47 -133v-116h-217v141q0 91 64 176l121 162q32 42 42.5 83.5t10.5 106.5q0 112 -41 158q-36 39 -88 39q-54 0 -88 -37q-39 -43 -39 -160h-217z M332 0v252h254v-252h-254z" />
<glyph unicode="@" horiz-adv-x="1245" d="M96 268v854q0 157 94 248q88 88 242 88h365q153 0 241 -88q97 -94 97 -248v-1122h-209v82q-35 -49 -72 -68q-52 -30 -111 -30q-122 0 -194 84q-33 38 -47.5 90t-14.5 143v385q0 92 14.5 144t47.5 90q72 84 194 84q58 0 111 -29q40 -21 64 -55v170q0 182 -170 182h-267 q-168 0 -168 -182v-811q0 -53 13.5 -86t46.5 -64l-158 -156q-66 64 -92.5 129t-26.5 166zM705 303q0 -61 29.5 -93t76.5 -32t77 32.5t30 92.5v381q0 61 -30.5 94t-76.5 33t-76 -33t-30 -94v-381z" />
<glyph unicode="A" horiz-adv-x="958" d="M10 0l359 1458h223l354 -1458h-239l-60 289h-338l-57 -289h-242zM354 496h250l-125 610z" />
<glyph unicode="B" horiz-adv-x="966" d="M123 0v1458h364q195 0 285 -90q48 -50 69 -123.5t21 -183.5q0 -84 -15 -142t-61 -104q-34 -34 -75 -51q47 -18 77 -53q48 -52 63 -121.5t15 -157.5q0 -128 -21.5 -207.5t-72.5 -132.5q-89 -92 -287 -92h-362zM352 207h111q95 0 134.5 50.5t39.5 176.5q0 121 -41 174.5 t-133 53.5h-111v-455zM352 856h109q91 0 131.5 47.5t40.5 151.5q0 109 -39.5 152.5t-132.5 43.5h-109v-395z" />
<glyph unicode="C" horiz-adv-x="915" d="M84 620.5v106.5v22q0 108 1 160.5t6 133.5t15.5 127.5t31.5 96.5t52 85q107 123 283 123q151 0 254 -95q111 -105 117 -307h-230q-4 96 -34 141q-33 54 -107 54t-108 -56q-31 -50 -41.5 -160t-10.5 -323t10.5 -323t41.5 -160q34 -56 108 -56q76 0 109 54q30 45 34 143 h230q-3 -99 -34.5 -179.5t-86.5 -131.5q-103 -92 -252 -92q-177 0 -283 122q-20 23 -36 48.5t-27 62.5t-18.5 62t-12.5 78t-7.5 77.5t-3.5 93.5t-1 92.5z" />
<glyph unicode="D" horiz-adv-x="966" d="M123 0v1458h371q177 0 282 -121q23 -25 40.5 -59t28.5 -63.5t18.5 -81t11.5 -83t6 -101t2 -102.5v-118v-118t-2 -102.5t-6 -101t-11.5 -83t-18.5 -81t-28.5 -63.5t-40.5 -59q-105 -121 -282 -121h-371zM352 207h135q78 0 117 59q30 48 39.5 151.5t9.5 313.5 q0 209 -9.5 311t-39.5 150q-39 59 -117 59h-135v-1044z" />
<glyph unicode="E" horiz-adv-x="811" d="M123 0v1458h612v-207h-383v-413h330v-207h-330v-424h383v-207h-612z" />
<glyph unicode="F" horiz-adv-x="798" d="M123 0v1458h612v-207h-383v-413h330v-207h-330v-631h-229z" />
<glyph unicode="G" horiz-adv-x="931" d="M84 622.5v106.5v106.5t1 92.5t3.5 94t7.5 78t12.5 78.5t18.5 62.5t27 62.5t36 48.5q107 123 283 123q161 0 260 -99q107 -110 113 -305h-230q-5 197 -143 197q-74 0 -108 -56q-31 -50 -41.5 -160t-10.5 -323t10.5 -323t41.5 -160q34 -56 108 -56q70 0 106.5 53.5 t36.5 133.5v227h-143v189h373v-404q0 -193 -102.5 -299t-270.5 -106q-177 0 -283 122q-20 23 -36 48.5t-27 62.5t-18.5 62.5t-12.5 78.5t-7.5 78t-3.5 94t-1 92.5z" />
<glyph unicode="H" horiz-adv-x="989" d="M123 0v1458h229v-614h285v614h229v-1458h-229v639h-285v-639h-229z" />
<glyph unicode="I" horiz-adv-x="475" d="M123 0v1458h229v-1458h-229z" />
<glyph unicode="J" horiz-adv-x="796" d="M6 100l160 154q20 -27 54.5 -45.5t72.5 -18.5q73 0 118.5 50t45.5 141v1077h229v-1077q0 -184 -100 -287q-104 -110 -293 -110q-177 0 -287 116z" />
<glyph unicode="K" horiz-adv-x="960" d="M123 0v1458h229v-686l318 686h231l-293 -604l338 -854h-248l-235 600l-111 -225v-375h-229z" />
<glyph unicode="L" horiz-adv-x="784" d="M123 0v1458h229v-1251h383v-207h-612z" />
<glyph unicode="M" horiz-adv-x="1224" d="M123 0v1458h207l282 -766l281 766h209v-1458h-230v909l-198 -598h-127l-195 588v-899h-229z" />
<glyph unicode="N" horiz-adv-x="1021" d="M123 0v1458h205l342 -866v866h229v-1458h-203l-344 866v-866h-229z" />
<glyph unicode="O" horiz-adv-x="946" d="M84 622.5v106.5v106.5t1 92.5t3.5 94t7.5 78t12.5 78.5t18.5 62.5t27 62.5t36 48.5q107 123 283 123t283 -123q20 -23 36 -48.5t27 -62.5t18.5 -62.5t12.5 -78.5t7.5 -78t3.5 -94t1 -92.5v-106.5v-106.5t-1 -92.5t-3.5 -94t-7.5 -78t-12.5 -78.5t-18.5 -62.5t-27 -62.5 t-36 -48.5q-106 -122 -283 -122t-283 122q-20 23 -36 48.5t-27 62.5t-18.5 62.5t-12.5 78.5t-7.5 78t-3.5 94t-1 92.5zM313 729q0 -213 10.5 -323t41.5 -160q34 -56 108 -56q77 0 111 56q30 49 39.5 156.5t9.5 326.5t-9.5 326.5t-39.5 156.5q-34 56 -111 56q-74 0 -108 -56 q-31 -50 -41.5 -160t-10.5 -323z" />
<glyph unicode="P" horiz-adv-x="940" d="M123 0v1458h366q197 0 286 -106t89 -336q0 -228 -86.5 -337.5t-288.5 -109.5h-137v-569h-229zM352 776h142q44 0 73.5 18t43.5 53.5t19 74t5 92.5t-5 92.5t-19 73.5t-43.5 53t-73.5 18h-142v-475z" />
<glyph unicode="Q" horiz-adv-x="946" d="M84 622.5v106.5v106.5t1 92.5t3.5 94t7.5 78t12.5 78.5t18.5 62.5t27 62.5t36 48.5q107 123 283 123t283 -123q20 -23 36 -48.5t27 -62.5t18.5 -62.5t12.5 -78.5t7.5 -78t3.5 -94t1 -92.5v-106.5q0 -153 -2 -227.5t-15.5 -167t-41.5 -152.5l121 -102l-107 -127l-119 100 q-88 -69 -225 -69q-177 0 -283 122q-20 23 -36 48.5t-27 62.5t-18.5 62.5t-12.5 78.5t-7.5 78t-3.5 94t-1 92.5zM313 729q0 -219 10 -326.5t42 -156.5q34 -56 108 -56q30 0 49 11l-76 63l107 127l59 -49q21 93 21 387q0 225 -9 329.5t-40 153.5q-34 56 -111 56 q-74 0 -108 -56q-32 -49 -42 -156.5t-10 -326.5z" />
<glyph unicode="R" horiz-adv-x="978" d="M123 0v1458h369q198 0 285 -101.5t87 -328.5q0 -144 -37.5 -237t-132.5 -144l217 -647h-239l-191 598h-129v-598h-229zM352 805h142q44 0 73.5 17t43.5 50t19 69t5 87t-5 87t-19 69t-43.5 50t-73.5 17h-142v-446z" />
<glyph unicode="S" horiz-adv-x="905" d="M72 395h229q0 -62 8.5 -99.5t32.5 -64.5q33 -38 107 -38q76 0 110 40q39 44 39 162q0 116 -26 161t-111 79l-174 72q-77 32 -119 73t-63 111t-21 182q0 202 119 309q101 88 250 88q171 0 262 -88q102 -99 102 -317h-229q0 112 -35 156q-32 43 -102 43q-61 0 -99 -41 q-39 -45 -39 -144q0 -90 22.5 -128t98.5 -68l172 -70q130 -54 175.5 -139.5t45.5 -270.5q0 -119 -20.5 -194t-73.5 -127q-99 -96 -284 -96q-187 0 -283 96q-52 52 -73 124t-21 189z" />
<glyph unicode="T" horiz-adv-x="804" d="M43 1251v207h719v-207h-246v-1251h-229v1251h-244z" />
<glyph unicode="U" horiz-adv-x="964" d="M111 358v1100h229v-1112q0 -75 40.5 -115.5t102.5 -40.5t102 40.5t40 115.5v1112h229v-1100q0 -163 -100 -268q-103 -106 -271 -106q-169 0 -272 106q-100 105 -100 268z" />
<glyph unicode="V" horiz-adv-x="894" d="M8 1458h252l186 -1106l189 1106h252l-322 -1458h-237z" />
<glyph unicode="W" horiz-adv-x="1462" d="M8 1458h252l143 -1106l201 1106h254l203 -1106l141 1106h252l-274 -1458h-240l-209 1108l-207 -1108h-239z" />
<glyph unicode="X" horiz-adv-x="884" d="M23 0l288 756l-266 702h252l145 -487l146 487h252l-273 -702l295 -756h-252l-168 524l-168 -524h-251z" />
<glyph unicode="Y" horiz-adv-x="796" d="M0 1458h254l143 -577l146 577h252l-283 -887v-571h-229v571z" />
<glyph unicode="Z" horiz-adv-x="763" d="M63 0v172l398 1079h-373v207h610v-172l-395 -1079h395v-207h-635z" />
<glyph unicode="[" horiz-adv-x="577" d="M109 -152v1762h409v-193h-192v-1376h192v-193h-409z" />
<glyph unicode="\" horiz-adv-x="610" d="M12 1610h205l379 -1762h-205z" />
<glyph unicode="]" horiz-adv-x="577" d="M59 41h191v1376h-191v193h408v-1762h-408v193z" />
<glyph unicode="^" horiz-adv-x="948" d="M92 889l287 579h190l287 -579h-211l-170 362l-170 -362h-213z" />
<glyph unicode="_" horiz-adv-x="935" d="M0 -156h936v-157h-936v157z" />
<glyph unicode="`" d="M172 1487h182l148 -285h-152z" />
<glyph unicode="a" d="M55 315q0 155 101 242q83 74 247 74h97v149q0 60 -27 92.5t-78 32.5q-43 0 -71 -31q-33 -36 -33 -100h-217q0 142 92 234q39 39 100.5 63.5t126.5 24.5q153 0 230 -80q94 -94 94 -254v-762h-205v92q-35 -52 -66 -72q-52 -36 -122 -36q-67 0 -114 21t-89 69 q-66 78 -66 241zM272 324q0 -72 29 -111t84 -39q50 0 82.5 39t32.5 104v160h-72q-78 0 -113 -33q-20 -18 -31.5 -52t-11.5 -68z" />
<glyph unicode="b" horiz-adv-x="835" d="M106 0v1458h218v-448q26 38 63 57q50 29 109 29q120 0 190 -84q49 -60 62.5 -163.5t13.5 -307.5q0 -205 -13.5 -309t-62.5 -164q-67 -84 -190 -84q-57 0 -109 30q-17 9 -40 31t-32 37v-82h-209zM324 307q0 -68 34 -102q27 -27 74 -27q55 0 82 43q20 34 25.5 106.5 t5.5 213.5t-5.5 212t-25.5 105q-28 45 -82 45q-45 0 -74 -29q-34 -34 -34 -102v-465z" />
<glyph unicode="c" horiz-adv-x="786" d="M74 541q0 164 15 271t61 171q81 113 256 113q146 0 227 -76q85 -82 96 -256h-215q-4 69 -29 100q-25 39 -79 39q-56 0 -84 -45q-20 -34 -25.5 -105t-5.5 -212t5.5 -213t25.5 -107q27 -43 84 -43q53 0 79 37q25 32 29 102h215q-10 -170 -94 -254q-79 -79 -229 -79 q-174 0 -256 114q-46 63 -61 170.5t-15 272.5z" />
<glyph unicode="d" horiz-adv-x="835" d="M74 541q0 204 13.5 307.5t62.5 163.5q70 84 190 84q59 0 109 -29q37 -19 63 -57v448h217v-1458h-209v82q-9 -16 -31.5 -37.5t-39.5 -30.5q-52 -30 -109 -30q-123 0 -190 84q-49 60 -62.5 164t-13.5 309zM291 541q0 -141 5.5 -213.5t25.5 -106.5q27 -43 81 -43q47 0 74 27 q35 35 35 102v465q0 67 -35 102q-29 29 -74 29q-53 0 -81 -45q-20 -34 -25.5 -105t-5.5 -212z" />
<glyph unicode="e" horiz-adv-x="806" d="M74 541q0 181 19 294t81 175q86 86 232 86q151 0 231 -86q17 -18 30.5 -39.5t23.5 -51t17 -50.5t12 -61.5t7.5 -59.5t4 -68.5t2 -64.5t1 -71.5t0.5 -66.5h-444q0 -208 33 -256q28 -43 84 -43q49 0 81 43q27 34 27 96h215q-7 -154 -90 -247q-78 -86 -233 -86 q-77 0 -131.5 20t-102.5 68q-62 62 -81 175t-19 294zM291 637h227q0 185 -31 223q-31 43 -81 43q-51 0 -82 -43q-33 -41 -33 -223z" />
<glyph unicode="f" horiz-adv-x="555" d="M39 913v166h111v64q0 176 108 260q88 67 258 67v-194q-149 0 -149 -146v-51h149v-166h-149v-913h-217v913h-111z" />
<glyph unicode="g" horiz-adv-x="835" d="M74 580q0 180 18.5 279t67.5 157q38 44 78.5 62t107.5 18q58 0 111 -29q37 -19 63 -57v69h209v-1099q0 -189 -92 -281q-41 -41 -104 -64.5t-130 -23.5q-146 0 -233 84q-90 90 -90 237h215q0 -66 31 -102q30 -33 77 -33t78 35q31 36 31 133v185q-30 -41 -61 -60 q-39 -24 -105 -24q-67 0 -108 18t-78 61q-49 58 -67.5 156.5t-18.5 278.5zM291 578q0 -86 1 -127t8.5 -87.5t23.5 -66.5q32 -43 79 -43q50 0 78 31q31 36 31 98v389q0 62 -33 100q-28 31 -76 31q-46 0 -79 -45q-16 -20 -23.5 -66.5t-8.5 -87.5t-1 -126z" />
<glyph unicode="h" horiz-adv-x="854" d="M106 0v1458h218v-448q26 38 63 57q50 29 109 29q124 0 196 -84q33 -38 47.5 -90t14.5 -144v-778h-217v776q0 60 -30 92.5t-77 32.5t-76.5 -32t-29.5 -93v-776h-218z" />
<glyph unicode="i" horiz-adv-x="430" d="M94 1217v239h240v-239h-240zM106 0v1051h218v-1051h-218z" />
<glyph unicode="j" horiz-adv-x="430" d="M-41 -184q76 0 111.5 33t35.5 112v1090h218v-1102q0 -177 -111 -260q-89 -68 -254 -68v195zM94 1217v239h240v-239h-240z" />
<glyph unicode="k" horiz-adv-x="851" d="M106 0v1458h218v-840l272 461h227l-268 -428l283 -651h-240l-182 455l-92 -146v-309h-218z" />
<glyph unicode="l" horiz-adv-x="499" d="M100 328v1130h217v-1118q0 -145 148 -145v-195q-84 0 -145 14t-111 52q-109 82 -109 262z" />
<glyph unicode="m" horiz-adv-x="1286" d="M106 0v1079h209v-80q35 49 72 68q50 29 109 29q64 0 119.5 -29.5t91.5 -81.5q47 54 96 82q53 29 115 29q73 0 119.5 -20t84.5 -64q34 -38 49 -90.5t15 -143.5v-778h-217v776q0 60 -31 92.5t-78 32.5t-76.5 -32t-29.5 -93v-776h-217v776q0 60 -30 92.5t-77 32.5t-76.5 -32 t-29.5 -93v-776h-218z" />
<glyph unicode="n" horiz-adv-x="854" d="M106 0v1079h209v-80q35 49 72 68q50 29 109 29q124 0 196 -84q33 -38 47.5 -90t14.5 -144v-778h-217v776q0 60 -30 92.5t-77 32.5t-76.5 -32t-29.5 -93v-776h-218z" />
<glyph unicode="o" horiz-adv-x="811" d="M74 541q0 164 15 271t61 171q81 113 256 113t256 -113q46 -64 60.5 -170.5t14.5 -271.5t-14.5 -272t-60.5 -171q-82 -114 -256 -114t-256 114q-46 64 -61 171.5t-15 271.5zM291 541q0 -141 5.5 -213.5t25.5 -106.5q27 -43 84 -43q56 0 83 43q20 34 25.5 106.5t5.5 213.5 t-5.5 212t-25.5 105q-28 45 -83 45q-56 0 -84 -45q-20 -34 -25.5 -105t-5.5 -212z" />
<glyph unicode="p" horiz-adv-x="835" d="M106 -379v1458h209v-80q9 15 32 37t40 31q50 29 109 29q123 0 190 -84q49 -60 62.5 -163.5t13.5 -307.5q0 -205 -13.5 -309t-62.5 -164q-70 -84 -190 -84q-61 0 -109 28q-36 19 -63 58v-449h-218zM324 307q0 -68 34 -102q27 -27 74 -27q55 0 82 43q20 34 25.5 106.5 t5.5 213.5t-5.5 212t-25.5 105q-28 45 -82 45q-45 0 -74 -29q-34 -34 -34 -102v-465z" />
<glyph unicode="q" horiz-adv-x="835" d="M74 541q0 204 13.5 307.5t62.5 163.5q67 84 190 84q59 0 109 -29q17 -9 39.5 -30.5t31.5 -37.5v80h209v-1458h-217v449q-27 -39 -63 -58q-48 -28 -109 -28q-120 0 -190 84q-49 60 -62.5 164t-13.5 309zM291 541q0 -141 5.5 -213.5t25.5 -106.5q27 -43 81 -43q47 0 74 27 q35 35 35 102v465q0 67 -35 102q-29 29 -74 29q-53 0 -81 -45q-20 -34 -25.5 -105t-5.5 -212z" />
<glyph unicode="r" horiz-adv-x="612" d="M106 0v1079h209v-114q33 48 95 86q73 45 168 45v-211h-74q-78 0 -129 -50.5t-51 -136.5v-698h-218z" />
<glyph unicode="s" horiz-adv-x="780" d="M55 315h215q0 -65 37 -102q29 -33 82 -33q50 0 84 31q31 28 31 86q0 44 -23 80t-84 61l-143 64q-110 49 -158 125q-35 55 -35 147q0 134 95 232q90 90 233 90q142 0 227 -82q93 -90 93 -240h-213q0 62 -31 98q-29 33 -76 33q-49 0 -80 -31q-30 -30 -30 -81q0 -40 16 -64 q22 -36 80 -61l143 -62q110 -49 158 -119q45 -64 45 -176q0 -143 -96 -239q-88 -88 -236 -88q-70 0 -133 23t-104 65q-97 102 -97 243z" />
<glyph unicode="t" horiz-adv-x="561" d="M39 913v166h111v277h217v-277h149v-166h-149v-573q0 -145 153 -145v-195q-88 0 -149.5 13.5t-112.5 52.5q-108 84 -108 262v585h-111z" />
<glyph unicode="u" horiz-adv-x="854" d="M100 301v778h217v-776q0 -60 30 -92.5t77 -32.5t76.5 32t29.5 93v776h218v-1079h-207v82q-34 -47 -74 -68q-52 -30 -109 -30q-124 0 -196 84q-33 38 -47.5 90t-14.5 143z" />
<glyph unicode="v" horiz-adv-x="780" d="M8 1079h240l143 -735l141 735h240l-266 -1079h-230z" />
<glyph unicode="w" horiz-adv-x="1181" d="M8 1079h242l112 -735l134 735h186l135 -735l113 735h244l-242 -1079h-215l-129 700l-127 -700h-215z" />
<glyph unicode="x" horiz-adv-x="800" d="M18 0l254 549l-241 530h239l129 -327l129 327h242l-246 -530l258 -549h-241l-142 336l-141 -336h-240z" />
<glyph unicode="y" horiz-adv-x="782" d="M8 1079h240l143 -735l141 735h240l-303 -1216q-15 -63 -44 -108t-63 -71t-85 -40.5t-98 -18.5t-113 -4v193q42 1 67 4.5t53 14t45 33.5t27 60l18 76z" />
<glyph unicode="z" horiz-adv-x="665" d="M53 0v164l316 723h-291v192h534v-161l-315 -723h315v-195h-559z" />
<glyph unicode="{" horiz-adv-x="686" d="M59 633v192h80q41 0 67.5 31t26.5 78v389q0 138 78 213q74 74 193 74h125v-195h-80q-42 0 -70 -29.5t-28 -76.5v-369q0 -110 -56 -166q-32 -32 -76 -45q36 -11 76 -45q56 -56 56 -166v-368q0 -47 28 -77t70 -30h80v-195h-125q-119 0 -193 74q-78 75 -78 213v389 q0 47 -26.5 78t-67.5 31h-80z" />
<glyph unicode="|" horiz-adv-x="675" d="M229 -152v1762h217v-1762h-217z" />
<glyph unicode="}" horiz-adv-x="686" d="M59 43h80q42 0 69.5 30t27.5 77v368q0 111 55 166q32 32 76 45q-57 17 -76 45q-55 55 -55 166v369q0 47 -27.5 76.5t-69.5 29.5h-80v195h123q121 0 195 -74q76 -73 76 -213v-389q0 -47 27.5 -78t68.5 -31h80v-192h-80q-41 0 -68.5 -31t-27.5 -78v-389q0 -140 -76 -213 q-74 -74 -195 -74h-123v195z" />
<glyph unicode="~" horiz-adv-x="935" d="M47 608q73 73 132 104t126 31q88 0 182 -51q77 -41 134 -41q38 0 68 15.5t67 52.5l133 -131q-73 -73 -132 -104t-126 -31q-86 0 -180 51q-77 41 -136 41q-38 0 -68 -15.5t-67 -52.5z" />
<glyph unicode="&#xa1;" horiz-adv-x="526" d="M115 827v252h252v-252h-252zM131 -379v1051h217v-1051h-217z" />
<glyph unicode="&#xa2;" horiz-adv-x="802" d="M84 743q0 156 15 258.5t61 163.5q64 84 174 103v190h166v-190q82 -12 143 -68q86 -78 94 -244h-215q0 64 -26 97q-27 34 -80 34q-59 0 -84 -40q-20 -32 -25.5 -101t-5.5 -203t5.5 -202.5t25.5 -100.5q27 -43 84 -43q51 0 80 37q26 31 26 96h215q-7 -158 -92 -241 q-51 -51 -145 -70v-219h-166v219q-110 19 -174 103q-46 61 -61 163t-15 258z" />
<glyph unicode="&#xa3;" horiz-adv-x="942" d="M66 664v165h129v250q0 178 110.5 287t280.5 109q177 0 288 -117l-157 -154q-51 64 -131 64q-69 0 -115.5 -50.5t-46.5 -136.5v-252h164v-165h-164v-457h450v-207h-679v664h-129z" />
<glyph unicode="&#xa4;" horiz-adv-x="1019" d="M66 481v166h114v164h-114v166h118q3 137 27.5 227t75.5 148q107 123 280 123q153 0 256 -95q111 -105 117 -307h-229q-1 32 -4.5 57.5t-13 52t-25 44.5t-41.5 29.5t-60 11.5q-78 0 -112 -56q-22 -33 -29.5 -82t-9.5 -153h217v-166h-223v-164h223v-166h-217 q2 -104 10 -153t31 -82q36 -56 110 -56q34 0 60 11.5t41.5 30t25 45t13 52.5t4.5 58h229q-3 -99 -34.5 -179.5t-86.5 -131.5q-103 -92 -252 -92q-174 0 -280 122q-52 58 -76 147t-27 228h-118z" />
<glyph unicode="&#xa5;" horiz-adv-x="796" d="M18 1458h240l139 -577l142 577h239l-190 -624h121v-164h-172l-31 -99v-82h203v-165h-203v-324h-217v324h-203v165h203v82l-29 99h-174v164h123z" />
<glyph unicode="&#xa6;" horiz-adv-x="675" d="M229 -147v708h217v-708h-217zM229 897v709h217v-709h-217z" />
<glyph unicode="&#xa7;" horiz-adv-x="878" d="M92 553q0 119 19.5 182.5t81.5 116.5q33 25 57 33q-73 46 -105 100q-36 56 -36 154q0 135 94 229q90 90 237 90q130 0 217 -72q107 -87 107 -241h-217q0 59 -31 90q-29 33 -76 33t-78 -31q-30 -30 -30 -80q0 -43 16 -72q23 -38 80 -61l147 -63q77 -30 121 -74 q56 -57 73 -123.5t17 -210.5q0 -124 -18.5 -190t-81.5 -119q-29 -25 -53 -31q68 -43 100 -98q39 -65 39 -156q0 -146 -96 -242q-83 -86 -242 -86q-69 0 -131.5 23.5t-105.5 66.5q-97 97 -97 232h222q0 -57 32 -92q29 -33 80 -33q55 0 84 29q31 31 31 84q0 42 -23 75 q-28 41 -84 64l-149 63q-60 26 -103 66q-64 63 -81 136t-17 208zM309 553q0 -56 1.5 -85.5t12.5 -67t33 -56.5q37 -29 84 -29q42 0 82 31q22 19 33 55t12.5 65t1.5 87q0 57 -1.5 86t-12.5 65t-33 56q-36 31 -82 31q-44 0 -84 -31q-30 -26 -38.5 -74t-8.5 -133z" />
<glyph unicode="&#xa8;" d="M127 1223v204h205v-204h-205zM485 1223v204h205v-204h-205z" />
<glyph unicode="&#xa9;" horiz-adv-x="1728" d="M123 729q0 151 58.5 288.5t157.5 236.5t236.5 157.5t288.5 58.5q202 0 372.5 -99t270 -269.5t99.5 -372.5t-99.5 -372.5t-270 -269.5t-372.5 -99q-151 0 -288.5 58.5t-236.5 157.5t-157.5 236.5t-58.5 288.5zM268 729q0 -171 78.5 -310.5t215 -218.5t302.5 -79t302.5 79 t215 218.5t78.5 310.5t-78.5 310.5t-215 218.5t-302.5 79t-302.5 -79t-215 -218.5t-78.5 -310.5zM651 727q0 86 2 134.5t16 110t42 95.5q63 74 157 74q90 0 146 -56q60 -60 63 -180h-131q0 56 -18 82q-21 31 -60 31q-35 0 -57 -33q-29 -45 -29 -258t29 -258q22 -33 57 -33 q38 0 58 27q20 25 20 88h133q-3 -118 -65 -180q-58 -58 -146 -58q-94 0 -157 74q-28 34 -42 95.5t-16 110t-2 134.5z" />
<glyph unicode="&#xaa;" horiz-adv-x="677" d="M51 852q0 120 84 192q70 60 201 60h76v110q0 44 -21.5 70.5t-60.5 26.5q-35 0 -62 -27q-22 -24 -22 -78h-180q0 118 73 191q33 33 83.5 52t105.5 19q121 0 188 -67q76 -76 76 -203v-596h-168v70q-28 -37 -57 -54q-43 -24 -97 -24q-104 0 -166 70q-53 59 -53 188zM231 860 q0 -53 23.5 -84t67.5 -31q38 0 64 31.5t26 83.5v117h-58q-57 0 -88 -27q-35 -30 -35 -90z" />
<glyph unicode="&#xab;" horiz-adv-x="847" d="M49 565l330 508v-323l-125 -185l125 -188v-322zM424 565l328 508v-323l-127 -185l127 -188v-322z" />
<glyph unicode="&#xac;" horiz-adv-x="935" d="M104 516v207h730v-432h-207v225h-523z" />
<glyph unicode="&#xad;" horiz-adv-x="604" d="M96 487v207h414v-207h-414z" />
<glyph unicode="&#xae;" horiz-adv-x="1728" d="M123 729q0 151 58.5 288.5t157.5 236.5t236.5 157.5t288.5 58.5q202 0 372.5 -99t270 -269.5t99.5 -372.5t-99.5 -372.5t-270 -269.5t-372.5 -99q-151 0 -288.5 58.5t-236.5 157.5t-157.5 236.5t-58.5 288.5zM268 729q0 -171 78.5 -310.5t215 -218.5t302.5 -79t302.5 79 t215 218.5t78.5 310.5t-78.5 310.5t-215 218.5t-302.5 79t-302.5 -79t-215 -218.5t-78.5 -310.5zM672 324v806h213q102 0 151 -49q54 -57 54 -190q0 -65 -11 -106.5t-41 -73.5q-14 -17 -39 -31l115 -356h-137l-100 327h-72v-327h-133zM805 774h80q30 0 51 21q22 25 22 96 q0 68 -22 96q-21 21 -51 21h-80v-234z" />
<glyph unicode="&#xaf;" d="M158 1249v146h501v-146h-501z" />
<glyph unicode="&#xb0;" horiz-adv-x="839" d="M88 1155q0 137 98 234.5t234 97.5t234 -97.5t98 -234.5t-98 -234.5t-234 -97.5t-234 97.5t-98 234.5zM279 1155q0 -60 41 -100.5t100 -40.5t100 40.5t41 100.5t-41 101.5t-100 41.5t-100 -41.5t-41 -101.5z" />
<glyph unicode="&#xb1;" horiz-adv-x="935" d="M90 27v206h756v-206h-756zM90 647v207h275v274h206v-274h275v-207h-275v-274h-206v274h-275z" />
<glyph unicode="&#xb2;" horiz-adv-x="649" d="M84 1196v57q0 106 66 160q64 55 174 55q105 0 168 -49q73 -59 73 -162q0 -99 -59 -188l-244 -364h303v-121h-473v114l273 416q43 65 43 148q0 39 -23.5 61.5t-60.5 22.5q-40 0 -62 -23t-22 -66v-61h-156z" />
<glyph unicode="&#xb3;" horiz-adv-x="649" d="M78 795v36h158v-40q0 -53 22 -72q23 -23 61 -23q42 0 62 23q25 29 25 121q0 87 -23 116q-21 27 -66 27h-51v117h51q35 0 56 18q26 26 26 109q0 76 -22 98q-21 21 -58 21q-36 0 -57 -21q-20 -20 -20 -63v-50h-158v41q0 106 63 160q64 55 172 55q109 0 168 -53 q68 -59 68 -180q0 -92 -29 -137q-22 -35 -63 -56q46 -22 69 -61q31 -49 31 -152q0 -77 -12 -119.5t-57 -80.5q-69 -56 -175 -56q-109 0 -176 58q-65 55 -65 164z" />
<glyph unicode="&#xb4;" d="M315 1202l148 285h182l-178 -285h-152z" />
<glyph unicode="&#xb5;" horiz-adv-x="862" d="M102 -379v1458h217v-776q0 -60 31 -92.5t78 -32.5t77 32.5t30 92.5v776h217v-1079h-209v82q-35 -49 -72 -68q-52 -30 -115 -30q-33 0 -45 16v-379h-209z" />
<glyph unicode="&#xb6;" horiz-adv-x="1232" d="M74 1022q0 436 303 436h747v-1837h-217v1630h-207v-1630h-217v965h-106q-303 0 -303 436z" />
<glyph unicode="&#xb7;" horiz-adv-x="557" d="M115 453v327h327v-327h-327z" />
<glyph unicode="&#xb8;" d="M233 -397l125 315h140l-109 -315h-156z" />
<glyph unicode="&#xb9;" horiz-adv-x="649" d="M123 1202v156l156 100h155v-874h-158v714z" />
<glyph unicode="&#xba;" horiz-adv-x="673" d="M66 1028q0 127 12.5 212t50.5 136q66 90 209 90q141 0 207 -90q38 -51 50.5 -136t12.5 -212t-12.5 -212t-50.5 -136q-66 -90 -207 -90q-143 0 -209 90q-38 51 -50.5 136t-12.5 212zM246 1028q0 -201 26 -246q21 -34 66 -34q42 0 63 34q27 44 27 246t-27 246 q-21 35 -63 35q-45 0 -66 -35q-26 -45 -26 -246z" />
<glyph unicode="&#xbb;" horiz-adv-x="847" d="M96 55v322l127 188l-127 185v323l328 -508zM469 55v322l125 188l-125 185v323l328 -508z" />
<glyph unicode="&#xbc;" horiz-adv-x="1607" d="M123 1202v156l153 100h156v-874h-156v714zM455 0l503 1458h168l-503 -1458h-168zM1012 129v123l223 622h154l-218 -622h140v143h155v-143h70v-123h-70v-129h-155v129h-299z" />
<glyph unicode="&#xbd;" horiz-adv-x="1607" d="M123 1202v156l153 100h156v-874h-156v714zM455 0l503 1458h168l-503 -1458h-168zM1042 612v58q0 57 15.5 94t50.5 65q65 56 174 56q107 0 170 -49q72 -59 72 -162q0 -98 -60 -189l-241 -364h301v-121h-473v115l274 415q41 62 41 148q0 39 -23.5 61.5t-60.5 22.5 q-82 0 -82 -88v-62h-158z" />
<glyph unicode="&#xbe;" horiz-adv-x="1607" d="M78 795v36h158v-40q0 -53 22 -72q23 -23 61 -23q42 0 62 23q25 29 25 121q0 87 -23 116q-21 27 -66 27h-51v117h51q35 0 56 18q26 26 26 109q0 76 -22 98q-21 21 -58 21q-36 0 -57 -21q-20 -20 -20 -63v-50h-158v41q0 106 63 160q64 55 172 55q109 0 168 -53 q68 -59 68 -180q0 -92 -29 -137q-22 -35 -63 -56q46 -22 69 -61q31 -49 31 -152q0 -77 -12 -119.5t-57 -80.5q-69 -56 -175 -56q-109 0 -176 58q-65 55 -65 164zM455 0l503 1458h168l-503 -1458h-168zM1010 129v123l225 622h151l-215 -622h138v143h157v-143h70v-123h-70 v-129h-157v129h-299z" />
<glyph unicode="&#xbf;" horiz-adv-x="872" d="M68 8q0 159 69 252l121 160q47 62 47 133v119h217v-144q0 -93 -63 -176l-121 -159q-32 -42 -42.5 -84t-10.5 -107q0 -114 41 -160q36 -39 88 -39t88 39q39 43 39 160h217q0 -206 -96 -297q-103 -96 -246 -96q-159 0 -250 94q-53 53 -75.5 124.5t-22.5 180.5zM289 827v252 h252v-252h-252z" />
<glyph unicode="&#xc0;" horiz-adv-x="958" d="M10 0l359 1458h223l354 -1458h-239l-60 289h-338l-57 -289h-242zM244 1841h182l147 -285h-151zM354 496h250l-125 610z" />
<glyph unicode="&#xc1;" horiz-adv-x="958" d="M10 0l359 1458h223l354 -1458h-239l-60 289h-338l-57 -289h-242zM354 496h250l-125 610zM385 1556l147 285h183l-178 -285h-152z" />
<glyph unicode="&#xc2;" horiz-adv-x="958" d="M10 0l359 1458h223l354 -1458h-239l-60 289h-338l-57 -289h-242zM193 1556l202 285h170l203 -285h-166l-123 168l-121 -168h-165zM354 496h250l-125 610z" />
<glyph unicode="&#xc3;" horiz-adv-x="958" d="M10 0l359 1458h223l354 -1458h-239l-60 289h-338l-57 -289h-242zM195 1686q54 54 93.5 75t86.5 21q69 0 127 -35q53 -31 90 -31q45 0 92 47l96 -96q-53 -53 -93.5 -73.5t-88.5 -20.5q-69 0 -127 35q-52 30 -90 30q-47 0 -94 -47zM354 496h250l-125 610z" />
<glyph unicode="&#xc4;" horiz-adv-x="958" d="M10 0l359 1458h223l354 -1458h-239l-60 289h-338l-57 -289h-242zM199 1577v205h204v-205h-204zM354 496h250l-125 610zM557 1577v205h205v-205h-205z" />
<glyph unicode="&#xc5;" horiz-adv-x="958" d="M10 0l359 1458h223l354 -1458h-239l-60 289h-338l-57 -289h-242zM266 1763q0 89 62 151t151 62t152 -62t63 -151t-63 -152t-152 -63t-151 63t-62 152zM354 496h250l-125 610zM387 1763q0 -38 27 -66t65 -28t66 28t28 66t-28 66.5t-66 28.5t-65 -28t-27 -67z" />
<glyph unicode="&#xc6;" horiz-adv-x="1382" d="M12 0l535 1458h760v-207h-383v-413h329v-207h-329v-424h383v-207h-613v303h-323l-107 -303h-252zM438 510h256v741z" />
<glyph unicode="&#xc7;" horiz-adv-x="915" d="M84 620.5v106.5v22q0 108 1 160.5t6 133.5t15.5 127.5t31.5 96.5t52 85q107 123 283 123q151 0 254 -95q111 -105 117 -307h-230q-4 96 -34 141q-33 54 -107 54t-108 -56q-31 -50 -41.5 -160t-10.5 -323t10.5 -323t41.5 -160q34 -56 108 -56q76 0 109 54q30 45 34 143 h230q-3 -99 -34.5 -179.5t-86.5 -131.5q-103 -92 -252 -92q-177 0 -283 122q-20 23 -36 48.5t-27 62.5t-18.5 62t-12.5 78t-7.5 77.5t-3.5 93.5t-1 92.5zM283 -397l125 315h139l-109 -315h-155z" />
<glyph unicode="&#xc8;" horiz-adv-x="811" d="M123 0v1458h612v-207h-383v-413h330v-207h-330v-424h383v-207h-612zM199 1841h182l147 -285h-151z" />
<glyph unicode="&#xc9;" horiz-adv-x="811" d="M123 0v1458h612v-207h-383v-413h330v-207h-330v-424h383v-207h-612zM342 1556l147 285h183l-178 -285h-152z" />
<glyph unicode="&#xca;" horiz-adv-x="811" d="M123 0v1458h612v-207h-383v-413h330v-207h-330v-424h383v-207h-612zM150 1556l202 285h170l203 -285h-166l-123 168l-121 -168h-165z" />
<glyph unicode="&#xcb;" horiz-adv-x="811" d="M123 0v1458h612v-207h-383v-413h330v-207h-330v-424h383v-207h-612zM156 1577v205h204v-205h-204zM514 1577v205h205v-205h-205z" />
<glyph unicode="&#xcc;" horiz-adv-x="475" d="M23 1841h182l147 -285h-151zM123 0v1458h229v-1458h-229z" />
<glyph unicode="&#xcd;" horiz-adv-x="475" d="M123 0v1458h229v-1458h-229zM147 1556l148 285h182l-178 -285h-152z" />
<glyph unicode="&#xce;" horiz-adv-x="475" d="M-49 1556l203 285h170l202 -285h-166l-122 168l-121 -168h-166zM123 0v1458h229v-1458h-229z" />
<glyph unicode="&#xcf;" horiz-adv-x="475" d="M-45 1577v205h205v-205h-205zM123 0v1458h229v-1458h-229zM313 1577v205h205v-205h-205z" />
<glyph unicode="&#xd0;" horiz-adv-x="1001" d="M53 643v180h105v635h370q178 0 283 -121q23 -25 40.5 -59t28.5 -63.5t18.5 -81t11.5 -83t6 -101t2 -102.5v-118v-118t-2 -102.5t-6 -101t-11.5 -83t-18.5 -81t-28.5 -63.5t-40.5 -59q-105 -121 -283 -121h-370v643h-105zM387 207h135q78 0 117 59q30 48 39.5 151.5 t9.5 313.5q0 209 -9.5 311t-39.5 150q-39 59 -117 59h-135v-428h143v-180h-143v-436z" />
<glyph unicode="&#xd1;" horiz-adv-x="1021" d="M123 0v1458h205l342 -866v866h229v-1458h-203l-344 866v-866h-229zM233 1686q54 54 94 75t87 21q69 0 127 -35q53 -31 90 -31q45 0 92 47l96 -96q-53 -53 -93.5 -73.5t-88.5 -20.5q-69 0 -127 35q-52 30 -90 30q-47 0 -94 -47z" />
<glyph unicode="&#xd2;" horiz-adv-x="946" d="M84 622.5v106.5v106.5t1 92.5t3.5 94t7.5 78t12.5 78.5t18.5 62.5t27 62.5t36 48.5q107 123 283 123t283 -123q20 -23 36 -48.5t27 -62.5t18.5 -62.5t12.5 -78.5t7.5 -78t3.5 -94t1 -92.5v-106.5v-106.5t-1 -92.5t-3.5 -94t-7.5 -78t-12.5 -78.5t-18.5 -62.5t-27 -62.5 t-36 -48.5q-106 -122 -283 -122t-283 122q-20 23 -36 48.5t-27 62.5t-18.5 62.5t-12.5 78.5t-7.5 78t-3.5 94t-1 92.5zM233 1841h183l147 -285h-151zM313 729q0 -213 10.5 -323t41.5 -160q34 -56 108 -56q77 0 111 56q30 49 39.5 156.5t9.5 326.5t-9.5 326.5t-39.5 156.5 q-34 56 -111 56q-74 0 -108 -56q-31 -50 -41.5 -160t-10.5 -323z" />
<glyph unicode="&#xd3;" horiz-adv-x="946" d="M84 622.5v106.5v106.5t1 92.5t3.5 94t7.5 78t12.5 78.5t18.5 62.5t27 62.5t36 48.5q107 123 283 123t283 -123q20 -23 36 -48.5t27 -62.5t18.5 -62.5t12.5 -78.5t7.5 -78t3.5 -94t1 -92.5v-106.5v-106.5t-1 -92.5t-3.5 -94t-7.5 -78t-12.5 -78.5t-18.5 -62.5t-27 -62.5 t-36 -48.5q-106 -122 -283 -122t-283 122q-20 23 -36 48.5t-27 62.5t-18.5 62.5t-12.5 78.5t-7.5 78t-3.5 94t-1 92.5zM313 729q0 -213 10.5 -323t41.5 -160q34 -56 108 -56q77 0 111 56q30 49 39.5 156.5t9.5 326.5t-9.5 326.5t-39.5 156.5q-34 56 -111 56q-74 0 -108 -56 q-31 -50 -41.5 -160t-10.5 -323zM379 1556l147 285h183l-179 -285h-151z" />
<glyph unicode="&#xd4;" horiz-adv-x="946" d="M84 622.5v106.5v106.5t1 92.5t3.5 94t7.5 78t12.5 78.5t18.5 62.5t27 62.5t36 48.5q107 123 283 123t283 -123q20 -23 36 -48.5t27 -62.5t18.5 -62.5t12.5 -78.5t7.5 -78t3.5 -94t1 -92.5v-106.5v-106.5t-1 -92.5t-3.5 -94t-7.5 -78t-12.5 -78.5t-18.5 -62.5t-27 -62.5 t-36 -48.5q-106 -122 -283 -122t-283 122q-20 23 -36 48.5t-27 62.5t-18.5 62.5t-12.5 78.5t-7.5 78t-3.5 94t-1 92.5zM182 1556l203 285h170l203 -285h-166l-123 168l-121 -168h-166zM313 729q0 -213 10.5 -323t41.5 -160q34 -56 108 -56q77 0 111 56q30 49 39.5 156.5 t9.5 326.5t-9.5 326.5t-39.5 156.5q-34 56 -111 56q-74 0 -108 -56q-31 -50 -41.5 -160t-10.5 -323z" />
<glyph unicode="&#xd5;" horiz-adv-x="946" d="M84 622.5v106.5v106.5t1 92.5t3.5 94t7.5 78t12.5 78.5t18.5 62.5t27 62.5t36 48.5q107 123 283 123t283 -123q20 -23 36 -48.5t27 -62.5t18.5 -62.5t12.5 -78.5t7.5 -78t3.5 -94t1 -92.5v-106.5v-106.5t-1 -92.5t-3.5 -94t-7.5 -78t-12.5 -78.5t-18.5 -62.5t-27 -62.5 t-36 -48.5q-106 -122 -283 -122t-283 122q-20 23 -36 48.5t-27 62.5t-18.5 62.5t-12.5 78.5t-7.5 78t-3.5 94t-1 92.5zM184 1686q54 54 94 75t87 21q69 0 127 -35q53 -31 90 -31q45 0 92 47l96 -96q-53 -53 -93.5 -73.5t-88.5 -20.5q-69 0 -127 35q-52 30 -90 30 q-48 0 -95 -47zM313 729q0 -213 10.5 -323t41.5 -160q34 -56 108 -56q77 0 111 56q30 49 39.5 156.5t9.5 326.5t-9.5 326.5t-39.5 156.5q-34 56 -111 56q-74 0 -108 -56q-31 -50 -41.5 -160t-10.5 -323z" />
<glyph unicode="&#xd6;" horiz-adv-x="946" d="M84 622.5v106.5v106.5t1 92.5t3.5 94t7.5 78t12.5 78.5t18.5 62.5t27 62.5t36 48.5q107 123 283 123t283 -123q20 -23 36 -48.5t27 -62.5t18.5 -62.5t12.5 -78.5t7.5 -78t3.5 -94t1 -92.5v-106.5v-106.5t-1 -92.5t-3.5 -94t-7.5 -78t-12.5 -78.5t-18.5 -62.5t-27 -62.5 t-36 -48.5q-106 -122 -283 -122t-283 122q-20 23 -36 48.5t-27 62.5t-18.5 62.5t-12.5 78.5t-7.5 78t-3.5 94t-1 92.5zM188 1577v205h205v-205h-205zM313 729q0 -213 10.5 -323t41.5 -160q34 -56 108 -56q77 0 111 56q30 49 39.5 156.5t9.5 326.5t-9.5 326.5t-39.5 156.5 q-34 56 -111 56q-74 0 -108 -56q-31 -50 -41.5 -160t-10.5 -323zM547 1577v205h205v-205h-205z" />
<glyph unicode="&#xd7;" horiz-adv-x="935" d="M92 348l238 238l-238 237l139 140l238 -236l238 236l139 -140l-238 -237l238 -238l-139 -139l-238 237l-238 -237z" />
<glyph unicode="&#xd8;" horiz-adv-x="935" d="M84 729v106.5t1 92.5t3.5 94t7.5 78t12.5 78.5t18.5 62.5t27 62.5t36 48.5q107 123 283 123q105 0 178 -39l41 112h152l-76 -211q24 -30 41 -66.5t27.5 -89.5t16.5 -91.5t8 -114.5t2.5 -114t0.5 -132v-106.5t-1 -92.5t-3.5 -94t-7.5 -78t-12.5 -78.5t-18.5 -62.5 t-27 -62.5t-36 -48.5q-106 -122 -285 -122q-105 0 -178 39l-39 -113h-152l76 209q-24 30 -41 66.5t-27.5 89.5t-16.5 91.5t-8 115t-2.5 115t-0.5 132.5zM313 729q0 -184 11 -260l251 756q-37 43 -102 43q-74 0 -108 -56q-31 -50 -41.5 -160t-10.5 -323zM373 233 q32 -43 100 -43q77 0 111 56q30 49 39.5 156.5t9.5 326.5q0 203 -8 258z" />
<glyph unicode="&#xd9;" horiz-adv-x="964" d="M111 358v1100h229v-1112q0 -75 40.5 -115.5t102.5 -40.5t102 40.5t40 115.5v1112h229v-1100q0 -163 -100 -268q-103 -106 -271 -106q-169 0 -272 106q-100 105 -100 268zM248 1841h182l148 -285h-152z" />
<glyph unicode="&#xda;" horiz-adv-x="964" d="M111 358v1100h229v-1112q0 -75 40.5 -115.5t102.5 -40.5t102 40.5t40 115.5v1112h229v-1100q0 -163 -100 -268q-103 -106 -271 -106q-169 0 -272 106q-100 105 -100 268zM393 1556l148 285h182l-178 -285h-152z" />
<glyph unicode="&#xdb;" horiz-adv-x="964" d="M111 358v1100h229v-1112q0 -75 40.5 -115.5t102.5 -40.5t102 40.5t40 115.5v1112h229v-1100q0 -163 -100 -268q-103 -106 -271 -106q-169 0 -272 106q-100 105 -100 268zM197 1556l202 285h170l203 -285h-166l-123 168l-121 -168h-165z" />
<glyph unicode="&#xdc;" horiz-adv-x="964" d="M111 358v1100h229v-1112q0 -75 40.5 -115.5t102.5 -40.5t102 40.5t40 115.5v1112h229v-1100q0 -163 -100 -268q-103 -106 -271 -106q-169 0 -272 106q-100 105 -100 268zM203 1577v205h205v-205h-205zM561 1577v205h205v-205h-205z" />
<glyph unicode="&#xdd;" horiz-adv-x="796" d="M0 1458h254l143 -577l146 577h252l-283 -887v-571h-229v571zM305 1556l148 285h182l-178 -285h-152z" />
<glyph unicode="&#xde;" horiz-adv-x="940" d="M123 0v1458h229v-276h137q197 0 286 -106.5t89 -336.5q0 -228 -86.5 -337t-288.5 -109h-137v-293h-229zM352 500h142q44 0 73.5 18t43.5 53t19 73.5t5 92.5t-5 92.5t-19 74t-43.5 53.5t-73.5 18h-142v-475z" />
<glyph unicode="&#xdf;" horiz-adv-x="851" d="M106 0v1143q0 85 23 141.5t70 101.5q43 42 104.5 65.5t128.5 23.5q154 0 238 -84q57 -57 76.5 -125t19.5 -164q0 -137 -35 -207q-24 -49 -78 -88q55 -38 80 -84q29 -49 38 -110.5t9 -172.5q0 -71 -2 -107t-10 -88.5t-29 -91t-55 -71.5q-84 -82 -250 -82v195q67 0 94 34 q17 21 25.5 62t9 69t0.5 99q0 60 -1 90t-8 67t-22 58q-25 39 -81 39h-17v182h17q45 0 69 35q14 19 21 50t7.5 47.5t0.5 55.5q0 118 -31 160q-27 37 -84 37q-49 0 -79.5 -33.5t-30.5 -97.5v-1149h-218z" />
<glyph unicode="&#xe0;" d="M51 315q0 155 101 242q83 74 247 74h97v149q0 60 -27 92.5t-78 32.5q-44 0 -72 -31q-32 -35 -32 -100h-217q0 142 92 234q39 39 100 63.5t127 24.5q149 0 229 -80q95 -95 95 -254v-762h-205v92q-35 -52 -66 -72q-52 -36 -123 -36q-67 0 -114.5 21.5t-87.5 68.5 q-66 75 -66 241zM168 1487h182l148 -285h-152zM268 324q0 -72 29 -111t84 -39q50 0 82.5 39t32.5 104v160h-72q-41 0 -66 -6.5t-47 -26.5q-20 -18 -31.5 -52t-11.5 -68z" />
<glyph unicode="&#xe1;" d="M55 315q0 155 101 242q83 74 247 74h97v149q0 60 -27 92.5t-78 32.5q-43 0 -71 -31q-33 -36 -33 -100h-217q0 142 92 234q39 39 100.5 63.5t126.5 24.5q153 0 230 -80q94 -94 94 -254v-762h-205v92q-35 -52 -66 -72q-52 -36 -122 -36q-67 0 -114 21t-89 69 q-66 78 -66 241zM272 324q0 -72 29 -111t84 -39q50 0 82.5 39t32.5 104v160h-72q-78 0 -113 -33q-20 -18 -31.5 -52t-11.5 -68zM311 1202l148 285h182l-178 -285h-152z" />
<glyph unicode="&#xe2;" d="M55 315q0 155 101 242q83 74 247 74h97v149q0 60 -27 92.5t-78 32.5q-43 0 -71 -31q-33 -36 -33 -100h-217q0 142 92 234q39 39 100.5 63.5t126.5 24.5q153 0 230 -80q94 -94 94 -254v-762h-205v92q-35 -52 -66 -72q-52 -36 -122 -36q-67 0 -114 21t-89 69 q-66 78 -66 241zM111 1202l202 285h170l203 -285h-166l-123 168l-121 -168h-165zM272 324q0 -72 29 -111t84 -39q50 0 82.5 39t32.5 104v160h-72q-78 0 -113 -33q-20 -18 -31.5 -52t-11.5 -68z" />
<glyph unicode="&#xe3;" d="M55 315q0 155 101 242q83 74 247 74h97v149q0 60 -27 92.5t-78 32.5q-43 0 -71 -31q-33 -36 -33 -100h-217q0 142 92 234q39 39 100.5 63.5t126.5 24.5q153 0 230 -80q94 -94 94 -254v-762h-205v92q-35 -52 -66 -72q-52 -36 -122 -36q-67 0 -114 21t-89 69 q-66 78 -66 241zM113 1331q54 54 93.5 75t86.5 21q70 0 127 -34q53 -31 90 -31q45 0 92 47l96 -96q-53 -53 -93.5 -73.5t-88.5 -20.5q-70 0 -127 34q-53 31 -90 31q-47 0 -94 -47zM272 324q0 -72 29 -111t84 -39q50 0 82.5 39t32.5 104v160h-72q-78 0 -113 -33 q-20 -18 -31.5 -52t-11.5 -68z" />
<glyph unicode="&#xe4;" d="M55 315q0 155 101 242q83 74 247 74h97v149q0 60 -27 92.5t-78 32.5q-43 0 -71 -31q-33 -36 -33 -100h-217q0 142 92 234q39 39 100.5 63.5t126.5 24.5q153 0 230 -80q94 -94 94 -254v-762h-205v92q-35 -52 -66 -72q-52 -36 -122 -36q-67 0 -114 21t-89 69 q-66 78 -66 241zM117 1223v204h205v-204h-205zM272 324q0 -72 29 -111t84 -39q50 0 82.5 39t32.5 104v160h-72q-78 0 -113 -33q-20 -18 -31.5 -52t-11.5 -68zM475 1223v204h205v-204h-205z" />
<glyph unicode="&#xe5;" d="M55 315q0 155 101 242q83 74 247 74h97v149q0 60 -27 92.5t-78 32.5q-43 0 -71 -31q-33 -36 -33 -100h-217q0 142 92 234q39 39 100.5 63.5t126.5 24.5q153 0 230 -80q94 -94 94 -254v-762h-205v92q-35 -52 -66 -72q-52 -36 -122 -36q-67 0 -114 21t-89 69 q-66 78 -66 241zM184 1415q0 89 62 151t151 62t152 -62t63 -151t-63 -152t-152 -63t-151 63t-62 152zM272 324q0 -72 29 -111t84 -39q50 0 82.5 39t32.5 104v160h-72q-78 0 -113 -33q-20 -18 -31.5 -52t-11.5 -68zM305 1415q0 -38 27 -66t65 -28t66.5 28t28.5 66t-28.5 66 t-66.5 28t-65 -28t-27 -66z" />
<glyph unicode="&#xe6;" horiz-adv-x="1232" d="M55 315q0 155 101 242q83 74 247 74h97v151q0 59 -28.5 91t-76.5 32q-50 0 -76 -33q-28 -35 -28 -98h-217q0 142 92 234q39 39 100.5 63.5t126.5 24.5q114 0 180 -49q26 -22 39 -43q18 21 33 34q73 58 186 58q152 0 232 -86q17 -18 30.5 -39.5t23.5 -51t17 -50.5 t12 -61.5t7.5 -59.5t4 -68.5t2 -64.5t1 -71.5t0.5 -66.5h-444q0 -208 33 -256q28 -43 81 -43q52 0 84 43q27 34 27 96h215q-7 -154 -90 -247q-78 -86 -236 -86q-105 0 -182 53q-49 35 -84 90q-46 -70 -86 -98q-61 -45 -155 -45q-67 0 -114 21t-89 69q-66 78 -66 241z M272 324q0 -72 29 -111t84 -39q50 0 82.5 39t32.5 104v160h-72q-78 0 -113 -33q-20 -18 -31.5 -52t-11.5 -68zM717 637h227q0 185 -31 223q-31 43 -82 43q-50 0 -81 -43q-33 -41 -33 -223z" />
<glyph unicode="&#xe7;" horiz-adv-x="786" d="M74 541q0 164 15 271t61 171q81 113 256 113q146 0 227 -76q85 -82 96 -256h-215q-4 69 -29 100q-25 39 -79 39q-56 0 -84 -45q-20 -34 -25.5 -105t-5.5 -212t5.5 -213t25.5 -107q27 -43 84 -43q53 0 79 37q25 32 29 102h215q-10 -170 -94 -254q-79 -79 -229 -79 q-174 0 -256 114q-46 63 -61 170.5t-15 272.5zM233 -397l125 315h140l-109 -315h-156z" />
<glyph unicode="&#xe8;" d="M172 541q0 181 19 294t81 175q86 86 232 86q151 0 231 -86q34 -37 55.5 -90.5t30 -123t10.5 -129.5t3 -144v-46h-445q0 -208 33 -256q28 -43 84 -43q50 0 82 43q26 32 26 96h215q-7 -154 -90 -247q-78 -86 -233 -86q-77 0 -131.5 20t-102.5 68q-62 62 -81 175t-19 294z M219 1487h182l148 -285h-152zM389 637h227q0 186 -30 223q-31 43 -82 43t-82 -43q-33 -41 -33 -223z" />
<glyph unicode="&#xe9;" horiz-adv-x="806" d="M74 541q0 181 19 294t81 175q86 86 232 86q151 0 231 -86q17 -18 30.5 -39.5t23.5 -51t17 -50.5t12 -61.5t7.5 -59.5t4 -68.5t2 -64.5t1 -71.5t0.5 -66.5h-444q0 -208 33 -256q28 -43 84 -43q49 0 81 43q27 34 27 96h215q-7 -154 -90 -247q-78 -86 -233 -86 q-77 0 -131.5 20t-102.5 68q-62 62 -81 175t-19 294zM291 637h227q0 185 -31 223q-31 43 -81 43q-51 0 -82 -43q-33 -41 -33 -223zM315 1202l148 285h182l-178 -285h-152z" />
<glyph unicode="&#xea;" horiz-adv-x="806" d="M74 541q0 181 19 294t81 175q86 86 232 86q151 0 231 -86q17 -18 30.5 -39.5t23.5 -51t17 -50.5t12 -61.5t7.5 -59.5t4 -68.5t2 -64.5t1 -71.5t0.5 -66.5h-444q0 -208 33 -256q28 -43 84 -43q49 0 81 43q27 34 27 96h215q-7 -154 -90 -247q-78 -86 -233 -86 q-77 0 -131.5 20t-102.5 68q-62 62 -81 175t-19 294zM121 1202l203 285h170l202 -285h-166l-122 168l-121 -168h-166zM291 637h227q0 185 -31 223q-31 43 -81 43q-51 0 -82 -43q-33 -41 -33 -223z" />
<glyph unicode="&#xeb;" horiz-adv-x="806" d="M74 541q0 181 19 294t81 175q86 86 232 86q151 0 231 -86q17 -18 30.5 -39.5t23.5 -51t17 -50.5t12 -61.5t7.5 -59.5t4 -68.5t2 -64.5t1 -71.5t0.5 -66.5h-444q0 -208 33 -256q28 -43 84 -43q49 0 81 43q27 34 27 96h215q-7 -154 -90 -247q-78 -86 -233 -86 q-77 0 -131.5 20t-102.5 68q-62 62 -81 175t-19 294zM127 1223v204h205v-204h-205zM291 637h227q0 185 -31 223q-31 43 -81 43q-51 0 -82 -43q-33 -41 -33 -223zM485 1223v204h205v-204h-205z" />
<glyph unicode="&#xec;" horiz-adv-x="430" d="M-14 1487h182l147 -285h-151zM109 0v1079h217v-1079h-217z" />
<glyph unicode="&#xed;" horiz-adv-x="430" d="M109 0v1079h217v-1079h-217zM125 1202l147 285h185l-181 -285h-151z" />
<glyph unicode="&#xee;" horiz-adv-x="430" d="M-72 1202l203 285h170l203 -285h-166l-121 168l-123 -168h-166zM109 0v1079h217v-1079h-217z" />
<glyph unicode="&#xef;" horiz-adv-x="430" d="M-66 1223v204h205v-204h-205zM109 0v1079h217v-1079h-217zM293 1223v204h205v-204h-205z" />
<glyph unicode="&#xf0;" horiz-adv-x="819" d="M76 498q0 187 14 284t64 152q69 78 192 78q73 0 123 -35l-61 188h-154v160h104l-47 133h219l45 -133h144v-160h-96l63 -207q29 -97 42 -198.5t13 -261.5q0 -149 -16 -249t-63 -159q-81 -106 -254 -106q-171 0 -252 106q-47 59 -63.5 159.5t-16.5 248.5zM293 502 q0 -122 6.5 -187t26.5 -96q24 -41 82 -41q60 0 84 41q20 31 26 95t6 188t-6 188.5t-26 95.5q-24 41 -84 41q-58 0 -82 -41q-20 -31 -26.5 -96.5t-6.5 -187.5z" />
<glyph unicode="&#xf1;" horiz-adv-x="854" d="M106 0v1079h209v-80q35 49 72 68q50 29 109 29q124 0 196 -84q33 -38 47.5 -90t14.5 -144v-778h-217v776q0 60 -30 92.5t-77 32.5t-76.5 -32t-29.5 -93v-776h-218zM147 1331q54 54 94 75t87 21q70 0 127 -34q53 -31 90 -31q45 0 92 47l96 -96q-53 -53 -93.5 -73.5 t-88.5 -20.5q-70 0 -127 34q-53 31 -90 31q-47 0 -94 -47z" />
<glyph unicode="&#xf2;" d="M172 541q0 164 15 271t61 171q81 113 256 113t256 -113q46 -64 61 -171t15 -271t-15 -271.5t-61 -171.5q-82 -114 -256 -114t-256 114q-46 64 -61 171.5t-15 271.5zM221 1487h182l148 -285h-152zM389 541q0 -141 5.5 -213.5t25.5 -106.5q27 -43 84 -43t84 43 q20 33 25 104.5t5 215.5t-5 214t-25 103q-28 45 -84 45t-84 -45q-20 -34 -25.5 -105t-5.5 -212z" />
<glyph unicode="&#xf3;" horiz-adv-x="811" d="M74 541q0 164 15 271t61 171q81 113 256 113t256 -113q46 -64 60.5 -170.5t14.5 -271.5t-14.5 -272t-60.5 -171q-82 -114 -256 -114t-256 114q-46 64 -61 171.5t-15 271.5zM291 541q0 -141 5.5 -213.5t25.5 -106.5q27 -43 84 -43q56 0 83 43q20 34 25.5 106.5t5.5 213.5 t-5.5 212t-25.5 105q-28 45 -83 45q-56 0 -84 -45q-20 -34 -25.5 -105t-5.5 -212zM315 1202l148 285h182l-178 -285h-152z" />
<glyph unicode="&#xf4;" horiz-adv-x="811" d="M74 541q0 164 15 271t61 171q81 113 256 113t256 -113q46 -64 60.5 -170.5t14.5 -271.5t-14.5 -272t-60.5 -171q-82 -114 -256 -114t-256 114q-46 64 -61 171.5t-15 271.5zM121 1202l203 285h170l202 -285h-166l-122 168l-121 -168h-166zM291 541q0 -141 5.5 -213.5 t25.5 -106.5q27 -43 84 -43q56 0 83 43q20 34 25.5 106.5t5.5 213.5t-5.5 212t-25.5 105q-28 45 -83 45q-56 0 -84 -45q-20 -34 -25.5 -105t-5.5 -212z" />
<glyph unicode="&#xf5;" horiz-adv-x="811" d="M74 541q0 164 15 271t61 171q81 113 256 113t256 -113q46 -64 60.5 -170.5t14.5 -271.5t-14.5 -272t-60.5 -171q-82 -114 -256 -114t-256 114q-46 64 -61 171.5t-15 271.5zM121 1331q54 54 93.5 75t86.5 21q70 0 127 -34q53 -31 90 -31q45 0 92 47l97 -96 q-53 -53 -94 -73.5t-89 -20.5q-70 0 -127 34q-53 31 -90 31q-47 0 -94 -47zM291 541q0 -141 5.5 -213.5t25.5 -106.5q27 -43 84 -43q56 0 83 43q20 34 25.5 106.5t5.5 213.5t-5.5 212t-25.5 105q-28 45 -83 45q-56 0 -84 -45q-20 -34 -25.5 -105t-5.5 -212z" />
<glyph unicode="&#xf6;" horiz-adv-x="811" d="M74 541q0 164 15 271t61 171q81 113 256 113t256 -113q46 -64 60.5 -170.5t14.5 -271.5t-14.5 -272t-60.5 -171q-82 -114 -256 -114t-256 114q-46 64 -61 171.5t-15 271.5zM127 1223v204h205v-204h-205zM291 541q0 -141 5.5 -213.5t25.5 -106.5q27 -43 84 -43q56 0 83 43 q20 34 25.5 106.5t5.5 213.5t-5.5 212t-25.5 105q-28 45 -83 45q-56 0 -84 -45q-20 -34 -25.5 -105t-5.5 -212zM485 1223v204h205v-204h-205z" />
<glyph unicode="&#xf7;" horiz-adv-x="935" d="M90 469v207h756v-207h-756zM342 66v251h254v-251h-254zM342 825v252h254v-252h-254z" />
<glyph unicode="&#xf8;" horiz-adv-x="806" d="M59 -90l84 196q-43 64 -56 169.5t-13 265.5q0 164 15 271t61 171q81 113 256 113q96 0 157 -31l43 104h146l-84 -194q43 -64 56 -169t13 -265q0 -165 -14.5 -272t-60.5 -171q-82 -114 -256 -114q-99 0 -158 30l-43 -104h-146zM289 541q0 -93 6 -123l186 461 q-29 32 -75 32q-58 0 -84 -45q-21 -35 -27 -108t-6 -217zM330 201q30 -33 76 -33q56 0 83 47q21 35 27 108t6 218q0 101 -6 121z" />
<glyph unicode="&#xf9;" horiz-adv-x="854" d="M100 301v778h217v-776q0 -60 30 -92.5t77 -32.5t76.5 32t29.5 93v776h218v-1079h-207v82q-34 -47 -74 -68q-52 -30 -109 -30q-124 0 -196 84q-33 38 -47.5 90t-14.5 143zM180 1487h182l148 -285h-152z" />
<glyph unicode="&#xfa;" horiz-adv-x="854" d="M100 301v778h217v-776q0 -60 30 -92.5t77 -32.5t76.5 32t29.5 93v776h218v-1079h-207v82q-34 -47 -74 -68q-52 -30 -109 -30q-124 0 -196 84q-33 38 -47.5 90t-14.5 143zM356 1202l148 285h182l-178 -285h-152z" />
<glyph unicode="&#xfb;" horiz-adv-x="854" d="M100 301v778h217v-776q0 -60 30 -92.5t77 -32.5t76.5 32t29.5 93v776h218v-1079h-207v82q-34 -47 -74 -68q-52 -30 -109 -30q-124 0 -196 84q-33 38 -47.5 90t-14.5 143zM141 1202l203 285h170l203 -285h-166l-123 168l-121 -168h-166z" />
<glyph unicode="&#xfc;" horiz-adv-x="854" d="M100 301v778h217v-776q0 -60 30 -92.5t77 -32.5t76.5 32t29.5 93v776h218v-1079h-207v82q-34 -47 -74 -68q-52 -30 -109 -30q-124 0 -196 84q-33 38 -47.5 90t-14.5 143zM145 1223v204h205v-204h-205zM504 1223v204h205v-204h-205z" />
<glyph unicode="&#xfd;" horiz-adv-x="782" d="M8 1079h240l143 -735l141 735h240l-303 -1216q-15 -63 -44 -108t-63 -71t-85 -40.5t-98 -18.5t-113 -4v193q42 1 67 4.5t53 14t45 33.5t27 60l18 76zM301 1202l148 285h182l-178 -285h-152z" />
<glyph unicode="&#xfe;" horiz-adv-x="841" d="M109 -379v1837h208v-459q9 15 32 37t40 31q50 29 111 29q121 0 188 -84q50 -61 64 -165.5t14 -305.5q0 -202 -14 -307t-64 -166q-37 -44 -81 -64t-107 -20t-111 28q-36 19 -63 58v-449h-217zM326 307q0 -68 34 -102q27 -27 74 -27q55 0 82 43q20 34 26.5 109t6.5 211 t-6.5 209.5t-26.5 107.5q-28 45 -82 45q-45 0 -74 -29q-34 -34 -34 -102v-465z" />
<glyph unicode="&#xff;" horiz-adv-x="782" d="M8 1079h240l143 -735l141 735h240l-303 -1216q-15 -63 -44 -108t-63 -71t-85 -40.5t-98 -18.5t-113 -4v193q42 1 67 4.5t53 14t45 33.5t27 60l18 76zM113 1223v204h204v-204h-204zM471 1223v204h205v-204h-205z" />
<glyph unicode="&#x152;" horiz-adv-x="1314" d="M84 729q0 252 20 397.5t86 225.5q98 123 273 123q54 0 104 -20t80 -52v55h590v-207h-383v-413h330v-207h-330v-424h383v-207h-590v55q-71 -71 -184 -71q-179 0 -273 122q-64 83 -85 230.5t-21 392.5zM313 729q0 -213 10.5 -323t41.5 -160q34 -56 108 -56q77 0 111 56 q30 49 39.5 156.5t9.5 326.5t-9.5 326.5t-39.5 156.5q-34 56 -111 56q-74 0 -108 -56q-31 -50 -41.5 -160t-10.5 -323z" />
<glyph unicode="&#x153;" horiz-adv-x="1255" d="M74 541q0 164 15 271t61 171q81 113 256 113q118 0 194 -64q19 -16 31 -37q16 23 39 39q78 62 182 62q151 0 231 -86q35 -37 56.5 -91.5t30 -126t11 -131.5t3.5 -147v-37h-447q0 -208 33 -256q28 -43 84 -43q50 0 82 43q27 34 27 96h215q-7 -153 -91 -247 q-78 -86 -233 -86q-110 0 -186 63q-15 10 -35 39q-13 -20 -37 -41q-77 -61 -190 -61q-174 0 -256 114q-46 64 -61 171.5t-15 271.5zM291 541q0 -141 5.5 -213.5t25.5 -106.5q27 -43 84 -43q56 0 83 43q20 34 25.5 106.5t5.5 213.5t-5.5 212t-25.5 105q-28 45 -83 45 q-56 0 -84 -45q-20 -34 -25.5 -105t-5.5 -212zM737 637h230q0 182 -33 223q-31 43 -82 43t-82 -43q-33 -41 -33 -223z" />
<glyph unicode="&#x178;" horiz-adv-x="796" d="M0 1458h254l143 -577l146 577h252l-283 -887v-571h-229v571zM117 1577v205h205v-205h-205zM475 1577v205h205v-205h-205z" />
<glyph unicode="&#x2c6;" d="M121 1202l203 285h170l202 -285h-166l-122 168l-121 -168h-166z" />
<glyph unicode="&#x2dc;" d="M123 1331q54 54 93.5 75t86.5 21q70 0 127 -34q53 -31 90 -31q45 0 92 47l97 -96q-53 -53 -94 -73.5t-89 -20.5q-70 0 -127 34q-53 31 -90 31q-47 0 -94 -47z" />
<glyph unicode="&#x2000;" horiz-adv-x="988" />
<glyph unicode="&#x2001;" horiz-adv-x="1976" />
<glyph unicode="&#x2002;" horiz-adv-x="988" />
<glyph unicode="&#x2003;" horiz-adv-x="1976" />
<glyph unicode="&#x2004;" horiz-adv-x="658" />
<glyph unicode="&#x2005;" horiz-adv-x="494" />
<glyph unicode="&#x2006;" horiz-adv-x="329" />
<glyph unicode="&#x2007;" horiz-adv-x="329" />
<glyph unicode="&#x2008;" horiz-adv-x="247" />
<glyph unicode="&#x2009;" horiz-adv-x="395" />
<glyph unicode="&#x200a;" horiz-adv-x="109" />
<glyph unicode="&#x2010;" horiz-adv-x="604" d="M96 487v207h414v-207h-414z" />
<glyph unicode="&#x2011;" horiz-adv-x="604" d="M96 487v207h414v-207h-414z" />
<glyph unicode="&#x2012;" horiz-adv-x="604" d="M96 487v207h414v-207h-414z" />
<glyph unicode="&#x2013;" horiz-adv-x="935" d="M90 487v207h756v-207h-756z" />
<glyph unicode="&#x2014;" horiz-adv-x="1456" d="M96 487v207h1266v-207h-1266z" />
<glyph unicode="&#x2018;" horiz-adv-x="468" d="M117 1217v241l235 174v-415h-235z" />
<glyph unicode="&#x2019;" horiz-adv-x="468" d="M117 1040v418h235v-241z" />
<glyph unicode="&#x201a;" horiz-adv-x="468" d="M117 -174v416h235v-242z" />
<glyph unicode="&#x201c;" horiz-adv-x="856" d="M117 1217v241l235 174v-415h-235zM502 1217v241l237 174v-415h-237z" />
<glyph unicode="&#x201d;" horiz-adv-x="856" d="M117 1040v418h235v-241zM502 1040v418h237v-241z" />
<glyph unicode="&#x201e;" horiz-adv-x="856" d="M117 -174v416h235v-242zM502 -174v416h237v-242z" />
<glyph unicode="&#x2022;" horiz-adv-x="913" d="M123 684q0 138 98 236t236 98t236 -98t98 -236t-98 -236t-236 -98t-236 98t-98 236z" />
<glyph unicode="&#x2026;" horiz-adv-x="1339" d="M115 0v252h252v-252h-252zM545 0v252h252v-252h-252zM975 0v252h252v-252h-252z" />
<glyph unicode="&#x202f;" horiz-adv-x="395" />
<glyph unicode="&#x2039;" horiz-adv-x="473" d="M49 565l330 508v-323l-125 -185l125 -188v-322z" />
<glyph unicode="&#x203a;" horiz-adv-x="473" d="M96 55v322l123 188l-123 185v323l328 -508z" />
<glyph unicode="&#x205f;" horiz-adv-x="494" />
<glyph unicode="&#x20ac;" horiz-adv-x="1019" d="M66 481v166h114v164h-114v166h118q3 137 27.5 227t75.5 148q107 123 280 123q153 0 256 -95q111 -105 117 -307h-229q-1 32 -4.5 57.5t-13 52t-25 44.5t-41.5 29.5t-60 11.5q-78 0 -112 -56q-22 -33 -29.5 -82t-9.5 -153h217v-166h-223v-164h223v-166h-217 q2 -104 10 -153t31 -82q36 -56 110 -56q34 0 60 11.5t41.5 30t25 45t13 52.5t4.5 58h229q-3 -99 -34.5 -179.5t-86.5 -131.5q-103 -92 -252 -92q-174 0 -280 122q-52 58 -76 147t-27 228h-118z" />
<glyph unicode="&#x2122;" horiz-adv-x="1292" d="M51 1325v133h441v-133h-150v-762h-143v762h-148zM594 563v895h129l168 -461l170 461h129v-895h-143v539l-115 -350h-82l-113 344v-533h-143z" />
<glyph unicode="&#x25fc;" horiz-adv-x="1075" d="M0 0v1075h1075v-1075h-1075z" />
<glyph unicode="&#xfb01;" horiz-adv-x="948" d="M39 913v166h111v68q0 176 108 260q89 68 258 68v-195q-77 0 -113 -34t-36 -111v-56h149v-166h-149v-913h-217v913h-111zM614 1217v239h240v-239h-240zM625 0v1079h217v-1079h-217z" />
<glyph unicode="&#xfb02;" horiz-adv-x="1026" d="M39 913v166h111v68q0 176 108 260q89 68 258 68v-195q-149 0 -149 -145v-56h149v-166h-149v-913h-217v913h-111zM625 328v1130h217v-1118q0 -145 147 -145v-195q-83 0 -143.5 14t-110.5 52q-110 82 -110 262z" />
</font>
</defs>
</svg>
