<?xml version="1.0" standalone="no"?>
<!DOCTYPE svg PUBLIC "-//W3C//DTD SVG 1.1//EN" "http://www.w3.org/Graphics/SVG/1.1/DTD/svg11.dtd" >
<svg xmlns="http://www.w3.org/2000/svg" xmlns:xlink="http://www.w3.org/1999/xlink" version="1.1">
<metadata></metadata>
<defs>
<font id="rosarioregular" horiz-adv-x="1011" >
<font-face units-per-em="2048" ascent="1638" descent="-410" />
<missing-glyph horiz-adv-x="471" />
<glyph unicode="&#xfb01;" horiz-adv-x="1163" d="M41 889v106q5 1 23 2.5t25.5 2t23.5 3.5t23.5 6t20 9t19 14t13.5 19.5t10 25.5q6 29 14.5 85.5t9.5 64.5q31 166 133.5 257t272.5 91q124 0 223 -59.5t137 -172.5l-170 -51q-14 71 -64 113.5t-122 42.5q-271 0 -271 -430h635v-1020h-168v891h-464v-891h-170v891h-154z " />
<glyph unicode="&#xfb02;" horiz-adv-x="1163" d="M41 889v106q7 1 28.5 2t30 2.5t26 4.5t26 8.5t19.5 13.5t17.5 21t10.5 30q6 28 12.5 80.5t9.5 69.5q30 165 133.5 256.5t272.5 91.5q58 0 123.5 -17t105.5 -47l133 54v-1567h-168v1302q0 67 -60 107.5t-130 40.5q-54 0 -96.5 -15t-70.5 -37.5t-48 -60t-30 -71t-16 -82.5 t-7 -82t-1 -82h293l-37 -129h-256v-891h-167v891h-154z" />
<glyph horiz-adv-x="0" />
<glyph horiz-adv-x="682" />
<glyph unicode=" "  horiz-adv-x="471" />
<glyph unicode="&#x09;" horiz-adv-x="471" />
<glyph unicode="&#xa0;" horiz-adv-x="471" />
<glyph unicode="!" horiz-adv-x="673" d="M203 109q0 57 39 96t96 39q56 0 95.5 -40t39.5 -95q0 -56 -40 -96t-95 -40t-95 40t-40 96zM217 1460q0 29 35 29h168q37 0 37 -31l-60 -1014h-121z" />
<glyph unicode="&#x22;" horiz-adv-x="751" d="M141 1139v364h170v-364q0 -2 -13 -56.5t-27 -114t-15 -65.5h-59q-1 7 -15.5 66t-27.5 113.5t-13 56.5zM440 1139v364h172v-364l-57 -236h-59q-1 7 -15.5 66t-27.5 113.5t-13 56.5z" />
<glyph unicode="#" horiz-adv-x="1310" d="M106 483v133h277l33 248h-256v135h274l64 478h149l-67 -478h229l63 478h146l-66 -478h252v-135h-268l-35 -248h254v-133h-272l-68 -493h-145l67 493h-227l-70 -493h-143l68 493h-259zM528 616h228l35 248h-230z" />
<glyph unicode="$" horiz-adv-x="927" d="M137 59l76 125q47 -34 106 -58t109 -24q84 0 144.5 34t60.5 112q0 46 -26.5 82.5t-68.5 62.5t-93 49.5t-101.5 50.5t-92.5 59t-68.5 81.5t-26.5 111.5q0 91 49 158.5t123.5 101t163.5 37.5l20 213h147l-65 -219q117 -18 194 -65l-59 -131q-40 30 -95.5 51.5t-101.5 21.5 q-79 0 -139.5 -33.5t-60.5 -105.5q0 -46 26.5 -81.5t68.5 -60t93 -47t102.5 -48.5t93.5 -57.5t68.5 -82t26.5 -114.5q0 -140 -91.5 -220.5t-234.5 -91.5l-18 -209h-150l64 211q-65 7 -120 27.5t-124 58.5z" />
<glyph unicode="%" horiz-adv-x="1767" d="M94 1067q0 107 35.5 195t113.5 145t187 57h887l-727 -1491h-131l671 1373h-458q92 -114 92 -279q0 -71 -22 -141.5t-61.5 -129.5t-102.5 -95.5t-138 -36.5q-106 0 -186.5 59t-120 149.5t-39.5 194.5zM248 1059q0 -58 18.5 -118.5t63.5 -108.5t106 -48q46 0 81.5 29t54 74 t27.5 89.5t9 86.5t-9.5 88t-29 91t-55.5 74.5t-82 29.5q-60 0 -104 -52t-62 -115t-18 -120zM1024 393q0 80 20.5 150t61 125.5t106 87.5t148.5 32q103 0 181 -59t115.5 -147.5t37.5 -188.5q0 -72 -22 -142.5t-61.5 -129t-103 -95t-139.5 -36.5q-106 0 -186 59t-119 149.5 t-39 194.5zM1176 385q0 -59 19 -119.5t64.5 -107.5t106.5 -47q46 0 81 28.5t53.5 73.5t27 89.5t8.5 86.5q0 41 -9 87t-28 91.5t-55 75t-82 29.5q-61 0 -105.5 -51.5t-62.5 -114.5t-18 -121z" />
<glyph unicode="&#x26;" horiz-adv-x="1390" d="M104 379q0 69 26.5 134.5t72.5 119t98.5 96t114.5 78.5q-61 82 -90 155t-29 166q0 122 92 197.5t217 75.5q119 0 206 -69t87 -185q0 -58 -22.5 -111t-63.5 -98t-81.5 -77.5t-94.5 -67.5l309 -373q70 142 88 305l127 -29q-25 -211 -127 -381q23 -25 50.5 -56.5t38.5 -44.5 t31 -30t33.5 -22.5t40.5 -12t57.5 -7.5t78.5 -1v-141h-125q-88 0 -161.5 45t-151.5 125q-92 -97 -190.5 -147t-221.5 -50q-165 0 -287.5 120.5t-122.5 285.5zM279 393q0 -115 78 -186.5t194 -71.5q143 0 287 133q-127 150 -353 439q-90 -59 -148 -139.5t-58 -174.5z M463 1133q0 -101 100 -238q176 111 176 246q0 61 -37.5 102t-97.5 41q-63 0 -102 -44t-39 -107z" />
<glyph unicode="'" horiz-adv-x="462" d="M145 1147v364h172v-364q0 -2 -13.5 -56.5t-27.5 -113.5t-16 -66h-59q-1 7 -15.5 66t-27.5 113.5t-13 56.5z" />
<glyph unicode="(" horiz-adv-x="626" d="M90 618q0 246 93.5 478t262.5 426l138 -21q-314 -386 -314 -883q0 -496 314 -882l-138 -19q-168 195 -262 425.5t-94 475.5z" />
<glyph unicode=")" horiz-adv-x="626" d="M43 -264q159 198 237 414t78 468t-78 468.5t-237 414.5l137 21q169 -194 263 -426t94 -478q0 -245 -94.5 -475t-262.5 -426z" />
<glyph unicode="*" horiz-adv-x="1044" d="M147 1161l43 156l263 -125l-27 -74zM240 872l194 213l70 -55l-139 -250zM434 1497h160l-35 -287h-84zM535 1030l67 47l201 -203l-129 -98zM588 1194l248 131l59 -160l-281 -57z" />
<glyph unicode="+" horiz-adv-x="1314" d="M139 440v140h439v438h143v-438h440v-140h-440v-440h-143v440h-439z" />
<glyph unicode="," horiz-adv-x="481" d="M94 131q0 52 37 87.5t90 35.5q71 0 112.5 -51t41.5 -123q0 -99 -58.5 -186.5t-150.5 -153.5q-37 33 -70 70q5 6 23 23.5t28.5 29t23.5 28.5t19.5 33t6.5 31q0 18 -16 36.5t-35.5 33.5t-35.5 43.5t-16 62.5z" />
<glyph unicode="-" horiz-adv-x="641" d="M84 459v153h473v-153h-473z" />
<glyph unicode="." horiz-adv-x="466" d="M86 115q0 57 39 96t96 39q55 0 95 -40t40 -95t-40 -95t-95 -40t-95 40t-40 95z" />
<glyph unicode="/" horiz-adv-x="667" d="M-10 -18l551 1507h137l-547 -1507h-141z" />
<glyph unicode="0" horiz-adv-x="1183" d="M100 508q0 149 58 269t172 192.5t264 72.5q112 0 206 -42t156 -115t96.5 -170t34.5 -207t-34.5 -207.5t-96.5 -170t-156 -115t-206 -42.5q-149 0 -263 73t-172.5 193.5t-58.5 268.5zM285 508q0 -406 309 -406q307 0 307 406q0 405 -307 405q-88 0 -150.5 -33t-96 -92 t-48 -127.5t-14.5 -152.5z" />
<glyph unicode="1" horiz-adv-x="792" d="M53 848l350 170h103v-881h231v-139h-641v139h240v690l-246 -75z" />
<glyph unicode="2" horiz-adv-x="960" d="M70 -2v108l475 476q88 88 88 184q0 62 -39.5 104.5t-101.5 42.5q-130 0 -291 -133l-84 94q74 74 184 121t213 47q131 0 222 -73t91 -201q0 -52 -19 -103t-53.5 -96.5t-68.5 -81t-78 -73.5l-319 -275h622l-41 -141h-800z" />
<glyph unicode="3" horiz-adv-x="839" d="M-113 -291q72 0 159 17.5t177 54.5t164 87.5t121 123.5t47 155q0 92 -49 138.5t-141 46.5q-71 0 -142 -23l-55 115q55 26 113 65t114 89.5t91.5 113.5t35.5 123q0 49 -28 74.5t-76 25.5q-54 0 -122.5 -31t-111.5 -71l-96 80q107 82 187 115.5t196 33.5q108 0 173 -59 t65 -166q0 -50 -27 -104t-70.5 -100.5t-87.5 -83.5t-90 -66l27 2q132 10 206 -78t74 -229q0 -100 -38 -185.5t-103.5 -145t-148 -105t-178 -71.5t-187 -39t-180.5 -13z" />
<glyph unicode="4" horiz-adv-x="1017" d="M25 0v82l567 938h201v-879h206l-36 -141h-170v-379h-170v379h-598zM213 141h410v676z" />
<glyph unicode="5" horiz-adv-x="772" d="M-12 -322q452 142 452 474q0 69 -33 137t-87 122.5t-114 97t-124 71.5l186 438h484l-50 -174h-362l-72 -172q155 -76 256 -211.5t101 -296.5q0 -120 -51.5 -225t-137.5 -178.5t-193 -122t-223 -66.5z" />
<glyph unicode="6" horiz-adv-x="1097" d="M100 481q0 276 151.5 504t403.5 387q152 96 265 127l43 -104q-231 -97 -404.5 -271t-236.5 -399q60 49 136.5 76.5t153.5 27.5q171 0 279 -121t108 -294q0 -193 -125 -317t-317 -124q-103 0 -190.5 42t-145 112.5t-89.5 162t-32 191.5zM289 475q0 -53 9 -103.5t30 -100 t51.5 -86.5t77.5 -60t104 -23q84 0 142.5 46t84 114.5t25.5 151.5q0 115 -67.5 195.5t-180.5 80.5q-141 0 -274 -137q-2 -27 -2 -78z" />
<glyph unicode="7" horiz-adv-x="870" d="M31 864l41 154h757v-86l-569 -1311h-182l553 1243h-600z" />
<glyph unicode="8" horiz-adv-x="1007" d="M96 324q0 51 7.5 94t27 81.5t36.5 65.5t53 62t57.5 54t68.5 58l33 27q-22 24 -65.5 66.5t-66.5 68.5t-50.5 65.5t-39.5 83.5t-12 97q0 144 107 245t252 101q151 0 251.5 -89t100.5 -237q0 -49 -13 -94t-29 -76.5t-49.5 -70.5t-55.5 -61t-66 -62l-18 -19q13 -13 45.5 -44 t49 -47.5t45.5 -47.5t45 -52.5t37 -53.5t31.5 -59t18.5 -60.5t8 -67.5q0 -175 -119.5 -275t-298.5 -100q-102 0 -190.5 41t-144.5 121.5t-56 184.5zM264 330q0 -91 65 -160.5t154 -69.5q103 0 167.5 68.5t64.5 171.5q0 38 -14.5 75.5t-45.5 75t-54 62t-66 64t-56 51.5 l-30 -27q-39 -34 -50 -44t-41 -40t-40.5 -48t-26.5 -48t-21.5 -62t-5.5 -69zM336 1157q0 -26 9.5 -54t21.5 -48.5t36 -49t37.5 -42.5t42.5 -42t37 -36q78 68 125 135.5t47 146.5q0 85 -50.5 145t-133.5 60t-127.5 -64t-44.5 -151z" />
<glyph unicode="9" horiz-adv-x="1097" d="M104 602q0 184 129 312t314 128q109 0 196.5 -39.5t144 -108.5t86.5 -161t30 -198q0 -142 -43 -272t-121 -236.5t-178.5 -194t-225.5 -158.5q-157 -88 -268 -118l-43 114q118 49 214.5 104.5t187.5 130.5t157 173t98 213q-60 -49 -136.5 -77t-153.5 -28 q-163 0 -275.5 125.5t-112.5 290.5zM291 602q0 -115 67.5 -195.5t180.5 -80.5q141 0 274 137q4 27 4 78q0 70 -14 132.5t-44 119t-85 89.5t-129 33q-118 0 -186 -95t-68 -218z" />
<glyph unicode=":" horiz-adv-x="677" d="M197 109q0 55 39.5 95t95.5 40t95.5 -40t39.5 -95q0 -56 -40 -96t-95 -40t-95 40t-40 96zM197 754q0 56 39.5 95.5t95.5 39.5t95.5 -39.5t39.5 -95.5t-40 -96t-95 -40t-95 40t-40 96z" />
<glyph unicode=";" horiz-adv-x="684" d="M186 131q0 52 37 87.5t90 35.5q71 0 112.5 -51t41.5 -123q0 -99 -58.5 -186.5t-150.5 -153.5q-37 33 -70 70q5 6 23 23.5t28.5 29t23.5 28.5t19.5 33t6.5 31q0 18 -16 36.5t-35.5 33.5t-35.5 43.5t-16 62.5zM197 754q0 56 39.5 95.5t95.5 39.5t95.5 -39.5t39.5 -95.5 q0 -57 -39 -96.5t-96 -39.5q-55 0 -95 40t-40 96z" />
<glyph unicode="&#x3c;" horiz-adv-x="1290" d="M135 438v150l1020 442v-158l-829 -362l829 -363v-155z" />
<glyph unicode="=" horiz-adv-x="1290" d="M139 231v144h1022v-144h-1022zM139 627v143h1022v-143h-1022z" />
<glyph unicode="&#x3e;" horiz-adv-x="1290" d="M135 -8v155l830 363l-830 362v158l1020 -442v-150z" />
<glyph unicode="?" horiz-adv-x="897" d="M104 1415q45 32 124 49t147 17q63 0 123 -13.5t113.5 -42t94 -68.5t64 -97.5t23.5 -124.5q0 -125 -84 -230.5t-205 -144.5q-35 -11 -42 -21.5t-7 -42.5v-252h-133v400q120 21 205 92.5t85 185.5q0 105 -74.5 169.5t-181.5 64.5q-49 0 -106 -15.5t-90 -42.5zM246 109 q0 57 39 96t96 39q55 0 95 -40t40 -95q0 -56 -40 -96t-95 -40t-95 40t-40 96z" />
<glyph unicode="@" horiz-adv-x="1701" d="M104 393q0 126 36 251.5t107.5 236t169.5 196t230.5 135.5t280.5 50q136 0 257 -42.5t212.5 -120.5t144.5 -197.5t53 -264.5q0 -98 -27.5 -192t-75.5 -170t-122.5 -122.5t-161.5 -46.5q-155 0 -211 125q-2 2 -6 2q-43 -62 -107 -96.5t-128 -34.5q-65 0 -113.5 24 t-77.5 66.5t-43 95.5t-14 115q0 61 17.5 129t52.5 133.5t83 118t116 85t143 32.5q105 0 172 -74q8 12 32 60h76q-82 -541 -82 -586q0 -106 94 -106q83 0 149 66t99 165.5t33 210.5q0 125 -45 228t-122 170.5t-179.5 104t-218.5 36.5q-131 0 -247 -45t-201.5 -122 t-147.5 -176.5t-93.5 -212.5t-31.5 -227q0 -244 154 -406.5t389 -162.5q80 0 163 22l25 -84q-92 -24 -188 -24q-139 0 -259.5 50t-205 137t-133 208.5t-48.5 259.5zM659 399q0 -51 9 -91.5t38.5 -72.5t77.5 -32q28 0 53.5 9.5t46 30t37.5 41.5t31.5 56.5t25 62t20.5 70 t16 69t13 71.5t9.5 63.5t7.5 58.5q-60 66 -131 66q-63 0 -114 -44t-80 -109.5t-44.5 -130.5t-15.5 -118z" />
<glyph unicode="A" horiz-adv-x="1292" d="M37 0l518 1491h186l516 -1491h-210l-173 512h-491l-174 -512h-172zM430 651h397l-196 590z" />
<glyph unicode="B" horiz-adv-x="1257" d="M145 1491h498q453 0 453 -346q0 -121 -68 -216t-184 -116q149 -23 234 -132.5t85 -262.5q0 -74 -17.5 -135t-47 -104t-74 -75t-93 -51.5t-109.5 -31.5t-118 -16.5t-124 -4.5h-406v1356q0 2 -7 33t-14 64t-8 38zM365 141h227q85 0 149 14t115.5 48t78 95.5t26.5 150.5 q0 75 -32 132t-86 89t-117 47.5t-134 15.5h-227v-592zM365 874h219q152 0 232.5 61.5t80.5 205.5q0 209 -260 209h-272v-476z" />
<glyph unicode="C" horiz-adv-x="1277" d="M94 750q0 161 47 299.5t134.5 241.5t221 161.5t296.5 58.5q121 0 248.5 -41t197.5 -120l-106 -119q-57 63 -155.5 100t-189.5 37q-102 0 -185 -36.5t-138 -97.5t-92.5 -143.5t-53.5 -170.5t-16 -183q0 -123 28 -229t84.5 -192.5t153.5 -136.5t224 -50q92 0 193.5 34.5 t168.5 92.5l88 -137q-82 -68 -210.5 -106t-244.5 -38q-164 0 -297 62t-219 169t-132 246.5t-46 297.5z" />
<glyph unicode="D" horiz-adv-x="1431" d="M147 1491h383q807 0 807 -750q0 -164 -41.5 -298t-122.5 -233.5t-211.5 -154.5t-299.5 -55h-486v1356q0 2 -7 33t-14 64t-8 38zM367 141h270q109 0 195 31.5t143 85.5t94.5 131.5t53.5 165t16 190.5q0 317 -155 461t-468 144h-149v-1209z" />
<glyph unicode="E" horiz-adv-x="1124" d="M147 1491h895v-141h-675v-514h524v-140h-524v-555h675v-141h-866v1356q0 2 -7 33t-14 64t-8 38z" />
<glyph unicode="F" horiz-adv-x="1044" d="M147 1491h826v-141h-606v-514h481v-140h-481v-696h-191v1356q0 2 -7 33t-14 64t-8 38z" />
<glyph unicode="G" horiz-adv-x="1447" d="M96 727q0 166 44 307t128 248t217.5 168t302.5 61q132 0 271 -43.5t219 -126.5l-109 -127q-106 84 -183.5 117t-197.5 33q-104 0 -188 -34.5t-139.5 -92.5t-93 -138t-54 -168t-16.5 -186q0 -93 15 -179t51 -167t88.5 -140.5t134 -95.5t182.5 -36q159 0 256.5 103.5 t97.5 263.5v135h-366l24 139h535v-428q0 -50 3 -107t8 -126t7 -107h-102l-66 156q-90 -96 -193 -138.5t-237 -42.5q-126 0 -231.5 40t-180 110t-126 165.5t-76.5 205.5t-25 231z" />
<glyph unicode="H" horiz-adv-x="1462" d="M150 1491h219v-647h725v647h190v-1491h-190v705h-725v-705h-191v1356q0 2 -6.5 33t-13.5 64t-8 38z" />
<glyph unicode="I" horiz-adv-x="548" d="M150 1491h219v-1491h-191v1356q0 2 -6.5 33t-13.5 64t-8 38z" />
<glyph unicode="J" horiz-adv-x="548" d="M-47 -326q45 6 80.5 25.5t59 44.5t40 62t25.5 71t14.5 79.5t6.5 79t1 77.5v1243l-30 135h221v-1366q0 -93 -9 -165.5t-34.5 -144t-68 -121t-114 -83.5t-168.5 -43z" />
<glyph unicode="K" horiz-adv-x="1193" d="M147 1491h220v-666l591 666h199l-588 -664l625 -827h-238l-589 776v-776h-191v1356q0 2 -7 33t-14 64t-8 38z" />
<glyph unicode="L" horiz-adv-x="1052" d="M147 1491h220v-1350h626v-141h-817v1356q0 2 -7 33t-14 64t-8 38z" />
<glyph unicode="M" horiz-adv-x="1716" d="M152 1491h276l434 -1161l428 1161h248v-1491h-188v1219l-449 -1221h-115l-448 1221v-1219h-156v1356z" />
<glyph unicode="N" horiz-adv-x="1462" d="M150 1491h253l725 -1116v1116h156v-1501h-121l-829 1270v-1260h-156v1356q0 2 -6.5 33t-13.5 64t-8 38z" />
<glyph unicode="O" horiz-adv-x="1509" d="M94 743q0 125 25.5 237.5t79 210t130.5 168.5t186.5 111.5t240.5 40.5q130 0 239 -40.5t186 -112t130 -169t78.5 -210t25.5 -236.5t-25.5 -237t-79 -210t-130.5 -167.5t-186.5 -111t-239.5 -40.5t-239 40.5t-185.5 111.5t-130.5 168t-79.5 209.5t-25.5 236.5zM297 741 q0 -92 14 -177.5t48 -168t85.5 -143.5t131.5 -98t180 -37q101 0 181.5 37t131.5 98t85.5 143.5t48.5 168.5t14 179q0 77 -10.5 149t-32 143.5t-58.5 131t-86.5 105t-119.5 71t-154 25.5q-100 0 -180 -37.5t-131.5 -98.5t-85.5 -144t-48 -169t-14 -178z" />
<glyph unicode="P" horiz-adv-x="1177" d="M145 1491h447q113 0 203 -25.5t158 -78.5t104.5 -141t36.5 -206q0 -145 -68.5 -248.5t-179.5 -152.5t-252 -49h-227v-590h-191v1356zM367 729h223q140 0 222.5 85t82.5 226q0 146 -78.5 228t-224.5 82h-225v-621z" />
<glyph unicode="Q" horiz-adv-x="1509" d="M94 743q0 124 25 236.5t78.5 210t130.5 168.5t186.5 112t241.5 41q131 0 240.5 -41t186 -112.5t129.5 -169t78 -209.5t25 -236q0 -154 -39.5 -289t-133 -250.5t-232.5 -174.5q3 -2 7.5 -4t11.5 -5.5l11 -5.5q654 -338 945 -338q61 0 166.5 20t181.5 44l32 -98 q-96 -36 -142.5 -51t-131.5 -30.5t-176 -15.5q-87 0 -199.5 27.5t-232.5 76t-217 92t-211.5 99t-157.5 74.5q-17 8 -34.5 14.5t-40 13.5t-35.5 11t-42 11t-36.5 8.5t-42 9t-37.5 8.5q-139 31 -243.5 102t-167.5 171.5t-93.5 220.5t-30.5 259zM297 741q0 -93 14.5 -179 t49 -168.5t86 -143t131 -97t178.5 -36.5q100 0 180 36.5t131.5 97t86 142.5t49 169t14.5 181t-14.5 180.5t-49 168.5t-86 142.5t-131.5 97t-180 36.5t-179.5 -37t-131 -97.5t-85.5 -143t-48.5 -169t-14.5 -180.5z" />
<glyph unicode="R" horiz-adv-x="1210" d="M145 1491h445q89 0 161.5 -12t137.5 -41.5t109.5 -75.5t70 -118t25.5 -165q0 -122 -83 -227.5t-202 -142.5l418 -709h-221l-385 674q-47 -4 -154 -4h-102v-670h-191v1356q0 2 -7 33t-14 64t-8 38zM365 809h163q81 0 143.5 13t115 43.5t80.5 87.5t28 139q0 124 -88 191 t-217 67h-225v-541z" />
<glyph unicode="S" horiz-adv-x="1056" d="M66 86l73 168q68 -59 163.5 -95t184.5 -36q53 0 104.5 15t96.5 44.5t72.5 80.5t27.5 116q0 79 -37.5 139t-98 98t-133 71t-145 69.5t-133 81t-98 117t-37.5 167.5q0 93 40 168.5t107 122.5t149.5 72.5t170.5 25.5q201 0 385 -110l-94 -137q-144 102 -293 102 q-116 0 -188 -57t-72 -170q0 -50 23.5 -92t63 -72t90.5 -57t107.5 -53.5t113 -54.5t107.5 -66t90.5 -83.5t63 -110.5t23.5 -144q0 -107 -42 -191t-114 -135.5t-162.5 -78t-193.5 -26.5q-201 0 -415 111z" />
<glyph unicode="T" horiz-adv-x="1183" d="M49 1350v141h1086v-141h-449v-1350h-194v1350h-443z" />
<glyph unicode="U" horiz-adv-x="1447" d="M145 1491h226v-991q0 -181 88.5 -282t267.5 -101q186 0 285.5 111.5t99.5 299.5v963h158v-963q0 -260 -144.5 -406.5t-406.5 -146.5q-259 0 -401 134.5t-142 390.5v856z" />
<glyph unicode="V" horiz-adv-x="1234" d="M43 1491h203l385 -1159l397 1161h164l-516 -1499h-119z" />
<glyph unicode="W" horiz-adv-x="1830" d="M43 1491h201l309 -1143l307 1143h152l307 -1143l309 1143h160l-408 -1501h-157l-305 1118l-304 -1118h-157z" />
<glyph unicode="X" horiz-adv-x="1198" d="M25 0l473 762l-435 729h220l327 -547l340 547h178l-434 -690l480 -801h-224l-366 614l-383 -614h-176z" />
<glyph unicode="Y" horiz-adv-x="1196" d="M66 1491h221l346 -580l321 580h179l-428 -754v-737h-195v737z" />
<glyph unicode="Z" horiz-adv-x="1169" d="M72 0v137l774 1213h-729v141h956v-137l-774 -1213h801l-17 -141h-1011z" />
<glyph unicode="[" horiz-adv-x="718" d="M147 -262v1757h426v-100h-260v-1557h260v-100h-426z" />
<glyph unicode="\" horiz-adv-x="667" d="M-6 1491h141l539 -1491h-137z" />
<glyph unicode="]" horiz-adv-x="716" d="M145 1395v100h426v-1755h-424v100h259v1555h-261z" />
<glyph unicode="^" horiz-adv-x="1265" d="M115 0l440 1018h152l444 -1018h-156l-362 829l-361 -829h-157z" />
<glyph unicode="_" horiz-adv-x="1021" d="M-18 -135h1060v-123h-1060v123z" />
<glyph unicode="`" horiz-adv-x="575" d="M63 1491h252l195 -311h-160z" />
<glyph unicode="a" d="M90 246q0 64 20.5 116.5t53.5 88t81.5 62.5t98 42t111 24.5t111.5 13t108 3.5v109q0 95 -38.5 149.5t-131.5 54.5q-79 0 -161.5 -32.5t-131.5 -88.5l-84 121q167 133 391 133q160 0 243 -87t83 -248v-508q0 -41 9 -59.5t36 -18.5q3 0 45.5 13t50.5 16l35 -107 q-11 -4 -44.5 -18.5t-52.5 -21.5t-48 -14t-52 -7q-60 0 -98 38.5t-47 100.5q-63 -66 -142.5 -105t-164.5 -39q-124 0 -202.5 72.5t-78.5 196.5zM264 252q0 -65 44 -98t118 -33q105 0 176.5 85t71.5 191v66q-40 0 -70 -1t-75 -5.5t-78.5 -12.5t-70.5 -24t-61 -37.5t-39.5 -55 t-15.5 -75.5z" />
<glyph unicode="b" horiz-adv-x="1142" d="M139 1561h199v-635q65 59 132.5 85.5t154.5 26.5q103 0 186 -46t133.5 -121.5t77.5 -167t27 -189.5q0 -106 -28 -201.5t-81.5 -172t-141.5 -122t-198 -45.5q-88 0 -166.5 33t-132.5 98l-37 -106h-102q1 16 2.5 44.5t2.5 52t1 44.5v1303q0 2 -7 29.5t-14 56.5t-8 33z M338 408q0 -140 61.5 -224t194.5 -84q73 0 128.5 40t85 103.5t44 130.5t14.5 134q0 71 -15.5 136t-47.5 122.5t-89 92t-132 34.5q-66 0 -131.5 -31t-112.5 -82v-372z" />
<glyph unicode="c" horiz-adv-x="921" d="M90 508q0 150 56 270t168.5 192t263.5 72q72 0 153 -29.5t141 -74.5l-92 -119q-58 51 -107 70.5t-122 19.5q-70 0 -125.5 -36.5t-87.5 -94.5t-49 -123t-17 -129q0 -53 10 -108t32.5 -110t55 -97.5t82 -69t109.5 -26.5q74 0 125 20.5t123 69.5l78 -129q-96 -59 -164.5 -81 t-171.5 -22t-191.5 46.5t-146.5 122.5t-90.5 171.5t-32.5 194.5z" />
<glyph unicode="d" horiz-adv-x="1142" d="M92 500q0 107 28.5 202.5t83 171.5t143.5 121t200 45q156 0 256 -90v490l-29 121h197v-1268q0 -73 16 -154.5t47 -134.5l-180 -22q-30 67 -39 139q-54 -69 -134 -108.5t-167 -39.5q-103 0 -186 46t-133 122t-76.5 168t-26.5 191zM272 512q0 -58 9.5 -112t31.5 -105 t55 -88.5t83.5 -60.5t113.5 -23q121 0 238 135v344q0 131 -63 215t-189 84q-77 0 -133.5 -34.5t-87 -93t-44.5 -123.5t-14 -138z" />
<glyph unicode="e" d="M90 498q0 81 17 158.5t53 147.5t87 123t124.5 84t160.5 31q178 0 287 -105t109 -282q0 -131 -105 -131h-553v-20q0 -67 18.5 -134t54 -124.5t94 -93t130.5 -35.5q67 0 140.5 26t123.5 68l76 -123q-142 -115 -344 -115q-112 0 -202.5 41t-149 112.5t-90 166.5t-31.5 205z M283 651h428q23 0 28.5 8.5t5.5 34.5q0 92 -53 155.5t-143 63.5q-99 0 -173 -79.5t-93 -182.5z" />
<glyph unicode="f" horiz-adv-x="589" d="M41 891v106q5 0 28 2t30.5 3t26 4.5t26.5 8.5t19.5 13.5t18 21t9.5 29.5q5 23 22 129q31 166 133.5 267.5t266.5 101.5q107 0 198 -51l-47 -127q-27 24 -68 37.5t-79 13.5q-58 0 -102.5 -19t-72.5 -54t-46.5 -75t-27 -93t-11.5 -96t-3 -95h293l-37 -127h-256v-891h-167 v891h-154z" />
<glyph unicode="g" horiz-adv-x="976" d="M43 -213q0 133 158 242q-43 22 -69 62t-26 87q0 7 4 14.5t11.5 16.5t9.5 12q82 111 117 176q-73 50 -115.5 127t-42.5 164q0 148 106.5 251t254.5 103q39 0 113 -14t112 -14q102 0 325 30l-36 -147h-220q68 -89 68 -207q0 -148 -106 -251t-254 -103q-15 0 -40.5 4 t-37.5 4q-29 0 -55.5 -40t-26.5 -73q0 -22 8.5 -37t18.5 -22.5t30.5 -11t32 -4t35.5 -0.5q33 0 100 3t98 3q320 0 320 -215q0 -88 -30 -159.5t-80.5 -119t-119 -79.5t-142.5 -46t-154 -14q-48 0 -96.5 8t-98 27t-87 47.5t-61.5 74t-24 101.5zM219 -178q0 -69 71 -111.5 t150 -42.5q58 0 114 11.5t108 35.5t84 68.5t32 103.5q0 38 -18.5 62t-53 34.5t-64.5 13.5t-73 3q-122 0 -245 -6q-43 -32 -74 -79.5t-31 -92.5zM268 690q0 -97 54 -164t129 -67q76 0 130 66.5t54 162.5q0 97 -54 164.5t-128 67.5q-76 0 -130.5 -67t-54.5 -163z" />
<glyph unicode="h" horiz-adv-x="1120" d="M141 1561h195v-664q154 147 309 147q161 0 235 -96.5t74 -265.5v-682h-168v627q0 46 -2 76.5t-11.5 70t-26.5 63t-50 40t-80 16.5q-117 0 -280 -135v-758h-168v1440q0 2 -6.5 29.5t-13 57.5t-7.5 34z" />
<glyph unicode="i" horiz-adv-x="514" d="M131 1360q0 51 36 88t87 37t88 -37t37 -88q0 -52 -36.5 -88.5t-88.5 -36.5q-51 0 -87 37t-36 88zM147 1018h195v-1018h-170v897q0 2 -6 29.5t-12 57t-7 34.5z" />
<glyph unicode="j" horiz-adv-x="514" d="M23 -385q36 19 63 46t42.5 64.5t25 68t13 80t4.5 76t1 77.5v870q0 2 -6.5 29.5t-13 57.5t-7.5 34h197v-967q0 -478 -291 -518zM133 1360q0 51 37 88t88 37t88 -37t37 -88q0 -52 -36.5 -88.5t-88.5 -36.5t-88.5 36.5t-36.5 88.5z" />
<glyph unicode="k" horiz-adv-x="950" d="M139 1561h197v-963l381 420h182l-391 -428l446 -590h-202l-416 553v-553h-170v1440q0 2 -6.5 29.5t-13 57.5t-7.5 34z" />
<glyph unicode="l" horiz-adv-x="514" d="M145 1561h197v-1561h-170v1442q0 2 -6.5 29t-13 56.5t-7.5 33.5z" />
<glyph unicode="m" horiz-adv-x="1697" d="M98 1012l187 20q30 -72 39 -141q65 63 143.5 107t153.5 44q199 0 280 -170q170 170 318 170q161 0 236 -97t75 -265v-680h-170v625q0 36 -2 63t-7 60t-17 56.5t-30 44.5t-47 31.5t-67 10.5q-112 0 -262 -139q4 -40 4 -72v-680h-170v625q0 45 -2 76.5t-12 70.5t-27 62.5 t-50 40t-79 16.5q-109 0 -258 -135v-756h-170v739q0 68 -17 144.5t-49 128.5z" />
<glyph unicode="n" horiz-adv-x="1120" d="M96 1010l187 24q31 -82 39 -145q67 67 150 110t167 43q161 0 236 -97t75 -265v-680h-168v625q0 47 -2 77.5t-11.5 70t-27 62.5t-51 39.5t-80.5 16.5q-70 0 -143.5 -39t-134.5 -96v-756h-168v721q0 74 -16.5 157.5t-51.5 131.5z" />
<glyph unicode="o" horiz-adv-x="1097" d="M90 508q0 104 30.5 199t87 170.5t145 120t196.5 44.5q110 0 199 -44t145.5 -118.5t86.5 -170t30 -201.5t-30 -201.5t-86.5 -170.5t-145.5 -119t-199 -44q-109 0 -198 44.5t-145 119.5t-86 170.5t-30 200.5zM270 508q0 -65 16.5 -132.5t48 -130.5t87.5 -103t127 -40 q61 0 110.5 26t80.5 67t51.5 95.5t29 108.5t8.5 109q0 69 -15 136.5t-46 129.5t-88 100.5t-131 38.5q-61 0 -110 -25.5t-80 -66.5t-51.5 -95.5t-29 -108.5t-8.5 -109z" />
<glyph unicode="p" horiz-adv-x="1138" d="M102 1010l181 22q30 -67 39 -139q55 68 133.5 107.5t165.5 39.5q84 0 154.5 -30t119.5 -81t83 -119t50 -143t16 -153q0 -85 -17.5 -164t-55 -148t-90.5 -119.5t-128 -80t-165 -29.5q-157 0 -254 90v-385l28 -120h-196v1163q0 74 -16 156t-48 133zM334 412q0 -131 62 -215 t188 -84q62 0 111.5 23.5t80.5 61.5t51.5 89.5t28.5 104.5t8 110q0 59 -9.5 113t-32 105t-55.5 88.5t-84 60t-114 22.5q-122 0 -235 -135v-344z" />
<glyph unicode="q" horiz-adv-x="1138" d="M90 502q0 106 27.5 201t81 172t141 122t197.5 45q89 0 168 -33.5t133 -99.5l36 109h103q-1 -16 -2.5 -44.5t-2.5 -52t-1 -44.5v-1199q0 -2 6 -29.5t12.5 -57.5t7.5 -33h-196v530q-65 -60 -131.5 -86.5t-155.5 -26.5q-103 0 -186 46.5t-133.5 123t-77.5 168.5t-27 189z M272 508q0 -70 15.5 -135.5t48 -123t89.5 -92t132 -34.5q66 0 133.5 31t110.5 82v370q0 140 -61.5 223.5t-194.5 83.5q-73 0 -128.5 -39.5t-85.5 -102.5t-44.5 -129.5t-14.5 -133.5z" />
<glyph unicode="r" horiz-adv-x="714" d="M100 1014l185 22q37 -88 47 -190q55 85 145 137.5t189 52.5l-41 -180q-92 0 -161.5 -47.5t-127.5 -132.5v-676h-170v737q0 69 -17 149t-49 128z" />
<glyph unicode="s" horiz-adv-x="880" d="M104 59l72 125q118 -82 217 -82q52 0 95.5 11t77.5 45t34 88q0 46 -26.5 82.5t-68.5 62t-92.5 49.5t-101.5 51t-93 59.5t-68.5 82t-26.5 112.5q0 97 52.5 166t131.5 100t174 31q157 0 273 -71l-60 -131q-40 31 -94.5 52t-99.5 21q-50 0 -92.5 -11t-76.5 -44t-34 -84 q0 -45 26.5 -81.5t68.5 -62t93 -49t102.5 -51t93.5 -60.5t68.5 -84.5t26.5 -115.5q0 -79 -29.5 -137.5t-81.5 -92.5t-116 -50.5t-139 -16.5q-83 0 -151 20.5t-155 65.5z" />
<glyph unicode="t" horiz-adv-x="669" d="M41 889v102q39 1 72 15.5t56.5 40.5t41.5 55.5t31.5 68t21.5 69.5t15 69h129q-46 -184 -46 -291h267l-37 -129h-230v-651q0 -65 23.5 -97t85.5 -32q47 0 129 20l29 -115q-126 -37 -203 -37q-126 0 -179.5 66.5t-53.5 198.5v647h-152z" />
<glyph unicode="u" horiz-adv-x="1132" d="M137 1018h197v-627q0 -43 2.5 -75t12.5 -70t27.5 -62.5t50 -41.5t77.5 -17q116 0 197 73t81 187v512q0 2 -6 29.5t-12.5 58t-7.5 33.5h196v-819q0 -41 9 -59.5t36 -18.5q3 0 46 13t51 16l34 -107q-12 -5 -45 -18.5t-52 -21t-47.5 -14.5t-51.5 -7q-60 0 -97 38.5 t-47 100.5q-64 -65 -146.5 -106.5t-166.5 -41.5q-161 0 -236 97.5t-75 265.5v561q0 2 -6.5 29.5t-13 57.5t-7.5 34z" />
<glyph unicode="v" horiz-adv-x="931" d="M25 1018h180l272 -774l271 774h159l-364 -1030h-156z" />
<glyph unicode="w" horiz-adv-x="1347" d="M27 1018h176l207 -696l217 696h121l208 -696l215 696h152l-322 -1030h-122l-207 704l-219 -704h-125z" />
<glyph unicode="x" horiz-adv-x="913" d="M20 -2l340 522l-317 498h195l223 -352l235 352h166l-315 -479l346 -541h-195l-252 395l-258 -395h-168z" />
<glyph unicode="y" horiz-adv-x="933" d="M25 1018h184l270 -774l271 774h159l-360 -1022q-156 -440 -393 -440h-78v137h22q49 0 92 21t72.5 50t56.5 76t42.5 82.5t33.5 85.5z" />
<glyph unicode="z" horiz-adv-x="911" d="M66 0v96l526 791h-479v131h708v-98l-528 -791h553l-23 -129h-757z" />
<glyph unicode="{" horiz-adv-x="714" d="M119 569v93q42 0 69.5 17.5t40 49t17 61.5t4.5 70v314q0 162 71.5 247.5t231.5 85.5h45v-96q-113 0 -147.5 -35t-34.5 -145v-348q0 -47 -5 -84t-18.5 -75.5t-41.5 -66.5t-70 -43q42 -15 70 -42.5t41.5 -65.5t18.5 -74.5t5 -83.5v-364q0 -99 39 -131.5t143 -32.5v-96h-51 q-156 0 -226.5 85.5t-70.5 247.5v336q0 74 -31 125t-100 51z" />
<glyph unicode="|" horiz-adv-x="481" d="M168 -219v1751h145v-1751h-145z" />
<glyph unicode="}" horiz-adv-x="714" d="M119 -180q111 0 145.5 35.5t34.5 144.5v348q0 47 5 83.5t18.5 74.5t41.5 65.5t70 42.5q-42 15 -70 43t-41.5 66.5t-18.5 75.5t-5 84v364q0 99 -38.5 131.5t-141.5 32.5v96h14q174 0 253 -78t79 -255v-336q0 -74 31.5 -125t101.5 -51v-93q-42 0 -70.5 -17t-41 -48.5 t-17 -61.5t-4.5 -71v-314q0 -161 -71.5 -247t-229.5 -86h-45v96z" />
<glyph unicode="~" horiz-adv-x="1357" d="M172 502q39 85 116 146t165 61q61 0 128.5 -22t116.5 -49t103.5 -49t91.5 -22q56 0 106.5 41.5t79.5 98.5l107 -97q-49 -77 -131 -136.5t-162 -59.5q-54 0 -115 22t-106.5 48.5t-105.5 48.5t-113 22q-54 0 -99.5 -42.5t-72.5 -100.5z" />
<glyph unicode="&#xa1;" horiz-adv-x="673" d="M201 1122q0 56 40.5 95.5t96.5 39.5t95.5 -39.5t39.5 -95.5q-2 -56 -41 -95.5t-94 -39.5q-57 0 -97 39t-40 96zM219 -225l60 1009h118l62 -1013q0 -14 -11 -21.5t-26 -7.5h-166q-37 0 -37 33z" />
<glyph unicode="&#xa2;" horiz-adv-x="921" d="M84 506q0 216 115 365t325 167l21 215h151l-61 -219q59 -9 121.5 -35.5t109.5 -62.5l-90 -119q-63 52 -109 71t-122 19q-70 0 -125.5 -36.5t-87.5 -94.5t-49 -123t-17 -129q0 -53 10 -108t32.5 -110t55 -97.5t82 -69t109.5 -26.5q74 0 126 20.5t122 69.5l78 -131 q-149 -101 -322 -101h-31l-20 -213h-148l64 230q-114 32 -192.5 112.5t-113 183t-34.5 222.5z" />
<glyph unicode="&#xa3;" horiz-adv-x="1189" d="M115 0v141h190v594h-155v139h155v242q0 186 111.5 290.5t298.5 104.5q110 0 204.5 -53t153.5 -147l-153 -86q-33 64 -86.5 104.5t-120.5 40.5q-104 0 -159.5 -71t-55.5 -179v-246h264v-139h-264v-594h598v-141h-981z" />
<glyph unicode="&#xa4;" horiz-adv-x="1097" d="M96 334l115 115q-64 108 -64 231q0 122 66 231l-117 117q60 57 101 100l110 -112q107 86 238 86q130 0 235 -84l113 110l100 -100l-119 -117q68 -113 68 -231q0 -121 -68 -234l119 -114q-18 -16 -100 -99q-75 71 -111 109q-103 -86 -237 -86q-130 0 -240 86 q-8 -8 -47 -48.5t-61 -60.5q-11 11 -31 31.5t-37 37.5t-33 32zM297 680q0 -130 74 -214.5t174 -84.5q102 0 176 84t74 215q0 124 -72 210.5t-178 86.5q-105 0 -176.5 -86t-71.5 -211z" />
<glyph unicode="&#xa5;" horiz-adv-x="1028" d="M66 1016h186l276 -387l258 387h156l-248 -365h201v-96h-266l-37 -51v-72h303v-98h-303v-334h-166v334h-299v98h299v72l-37 51h-262v96h195z" />
<glyph unicode="&#xa6;" horiz-adv-x="487" d="M172 -236v713h139v-713h-139zM172 805v715h139v-715h-139z" />
<glyph unicode="&#xa7;" horiz-adv-x="1017" d="M109 729q0 102 61 168t164 92q-58 65 -83.5 113t-25.5 119q0 125 93.5 201.5t222.5 76.5q100 0 181.5 -45t133.5 -131l-111 -82q-38 57 -94 97t-116 40q-59 0 -102.5 -38.5t-43.5 -96.5q0 -55 56.5 -119.5t136.5 -129t160.5 -133.5t137 -154.5t56.5 -171.5 q0 -96 -57 -166t-150 -99q54 -61 81.5 -118t27.5 -129q0 -137 -99 -218t-239 -81q-102 0 -196 51.5t-159 136.5l123 96q28 -36 48.5 -59t51.5 -50.5t65.5 -41t72.5 -13.5q69 0 115.5 44.5t46.5 113.5q0 49 -41.5 108.5t-103.5 114t-134.5 119t-134.5 123.5t-103.5 129 t-41.5 133zM264 762q0 -29 23 -68.5t52 -73.5t78.5 -81t80 -73t80.5 -67t57 -47q54 8 98.5 50t44.5 94t-30.5 106t-75.5 92l-246 209q-57 0 -109.5 -40.5t-52.5 -100.5z" />
<glyph unicode="&#xa8;" horiz-adv-x="565" d="M0 1278q0 47 34 82t81 35q49 0 82.5 -33.5t33.5 -83.5q0 -47 -34.5 -82t-81.5 -35t-81 35t-34 82zM334 1278q0 47 34 82t81 35q49 0 82.5 -33.5t33.5 -83.5q0 -47 -34.5 -82t-81.5 -35t-81 35t-34 82z" />
<glyph unicode="&#xa9;" horiz-adv-x="1300" d="M90 512q0 113 44 216t119 178t178 119t216 44q112 0 215 -44.5t178 -119.5t119.5 -178t44.5 -215t-44.5 -215t-119.5 -178t-178 -119.5t-215 -44.5q-113 0 -216 44t-178 119t-119 178t-44 216zM170 512q0 -96 38 -184.5t102 -152.5t152.5 -102t184.5 -38t184.5 38 t152.5 102t102 152.5t38 184.5t-38 184.5t-102 152.5t-152.5 102t-184.5 38t-184.5 -38t-152.5 -102t-102 -152.5t-38 -184.5zM350 514q0 147 86.5 240.5t231.5 93.5q89 0 194 -68l-61 -78q-38 31 -70 43.5t-80 12.5q-57 0 -98.5 -38t-59.5 -89.5t-18 -106.5q0 -57 18 -112 t61 -96.5t103 -41.5q47 0 81.5 13.5t80.5 44.5l53 -88q-64 -36 -109 -50t-112 -14q-140 0 -220.5 96t-80.5 238z" />
<glyph unicode="&#xaa;" horiz-adv-x="645" d="M20 975q0 232 361 237v56q0 56 -19.5 86t-72.5 30q-44 0 -97 -25.5t-86 -60.5l-67 103q113 94 258 94q105 0 159 -59t54 -166v-314q0 -47 14 -47l70 21l31 -90q-8 -3 -41.5 -17.5t-56.5 -21t-44 -6.5q-34 0 -58.5 20.5t-35.5 54.5q-80 -77 -182 -77q-83 0 -135 50 t-52 132zM82 571v103h448v-103h-448zM156 979q0 -32 26.5 -51t59.5 -19q59 0 99 51.5t40 110.5v29q-28 0 -47.5 -1t-48.5 -4.5t-49 -11.5t-40 -20.5t-30 -34t-10 -49.5z" />
<glyph unicode="&#xab;" horiz-adv-x="954" d="M113 688l295 334l124 -23l-237 -311l244 -315l-123 -19zM416 688l297 334l125 -23l-238 -311l242 -315l-121 -19z" />
<glyph unicode="&#xac;" horiz-adv-x="1306" d="M147 571v123h1010v-512h-125v389h-885z" />
<glyph unicode="&#xad;" horiz-adv-x="1302" d="M147 442v125h1008v-125h-1008z" />
<glyph unicode="&#xae;" horiz-adv-x="940" d="M68 1235q0 169 118 287t287 118q168 0 288 -118.5t120 -286.5t-120 -287t-288 -119q-169 0 -287 118.5t-118 287.5zM135 1235q0 -139 99.5 -238.5t238.5 -99.5q140 0 240 99.5t100 238.5t-100 238.5t-240 99.5q-139 0 -238.5 -99.5t-99.5 -238.5zM307 1008v460h180 q160 0 160 -131q0 -41 -26.5 -71.5t-67.5 -44.5l149 -213h-122l-134 196h-36v-196h-103zM410 1280h49q86 0 86 61q0 25 -20.5 38.5t-51.5 13.5h-63v-113z" />
<glyph unicode="&#xaf;" horiz-adv-x="561" d="M-31 1221v131h623v-131h-623z" />
<glyph unicode="&#xb0;" horiz-adv-x="794" d="M90 1214q0 128 90 218t217 90t217.5 -90t90.5 -218q0 -127 -90 -217t-218 -90q-127 0 -217 89.5t-90 217.5zM217 1214q0 -76 52 -130t128 -54t127 54t51 130t-51 130.5t-127 54.5t-128 -54.5t-52 -130.5z" />
<glyph unicode="&#xb1;" horiz-adv-x="1294" d="M139 -2v143h1022v-143h-1022zM139 537v143h439v336h143v-336h440v-143h-440v-338h-143v338h-439z" />
<glyph unicode="&#xb2;" horiz-adv-x="935" d="M119 889v78q11 8 29.5 23t72 61.5t102.5 93.5t108.5 112.5t102 125t72 126t29.5 119.5q0 68 -43.5 111t-118.5 43q-39 0 -80 -11t-71.5 -27t-55.5 -32.5t-38 -27.5l-13 -11l-65 96q5 5 15.5 14t45.5 32t73.5 40t99 31.5t122.5 14.5q81 0 141.5 -23t94 -62t49.5 -83 t16 -93q0 -63 -25 -130.5t-65.5 -125.5t-89.5 -113.5t-97.5 -98.5t-89 -76t-65.5 -50l-25 -18h479l-38 -139h-672z" />
<glyph unicode="&#xb3;" horiz-adv-x="935" d="M129 971q246 12 380 84.5t134 185.5q0 38 -14.5 66.5t-37 44t-55 25t-61.5 12t-65 2.5l-72 -5l-16 97q282 57 282 203q0 47 -38 71.5t-105 24.5q-61 0 -134 -31t-124 -72l-66 95q69 56 171 91.5t192 35.5q50 0 93.5 -9t83 -29.5t62.5 -58t23 -88.5q0 -81 -57 -137 t-138 -88q102 -11 171 -73.5t69 -160.5q0 -34 -8 -68t-28.5 -72t-52.5 -71.5t-84 -65t-118.5 -55.5t-160.5 -39.5t-205 -19.5z" />
<glyph unicode="&#xb4;" horiz-adv-x="575" d="M63 1169l197 312h250l-287 -312h-160z" />
<glyph unicode="&#xb5;" horiz-adv-x="1136" d="M139 1018h195v-627q0 -42 2.5 -74.5t13 -70.5t28 -63t50 -41.5t76.5 -16.5q69 0 147 40t133 95v637q0 2 -6 29.5t-12.5 58t-7.5 33.5h194v-819q0 -41 9 -59.5t36 -18.5q3 0 46 13t51 16l34 -107q-12 -5 -45 -18.5t-52 -21t-47.5 -14.5t-51.5 -7q-60 0 -97 38.5t-47 100.5 q-64 -61 -150 -104.5t-163 -43.5q-66 0 -135 29v-385h-174v1280q0 2 -6.5 29.5t-13 57.5t-7.5 34z" />
<glyph unicode="&#xb6;" horiz-adv-x="1024" d="M82 1065q0 200 126.5 302.5t330.5 102.5h393v-110h-115v-1340q0 -94 -66.5 -160.5t-160.5 -66.5q-11 0 -35 4q-30 -55 -83.5 -88t-117.5 -33q-94 0 -160.5 67t-66.5 161t66.5 160.5t160.5 66.5v-111q-47 0 -81.5 -34.5t-34.5 -81.5t34.5 -82t81.5 -35t81 35t34 82v776 q-161 0 -274 110.5t-113 274.5zM582 -96h8q47 0 82 34.5t35 81.5v1340h-125v-1456z" />
<glyph unicode="&#xb7;" horiz-adv-x="600" d="M166 532q0 57 39 97.5t96 40.5q55 0 95 -41t40 -97q0 -55 -39.5 -94t-95.5 -39t-95.5 39t-39.5 94z" />
<glyph unicode="&#xb8;" horiz-adv-x="573" d="M66 -393l49 94q85 -47 131 -47q36 0 63 23t27 57q0 33 -21 52t-57 19h-96q-14 0 -20.5 9.5t-6.5 18.5v9l98 176h97l-60 -112h23q39 0 75 -9.5t68 -28t51 -52t19 -76.5q0 -46 -16.5 -80.5t-42 -55t-62 -33.5t-71 -17.5t-74.5 -4.5q-83 0 -174 58z" />
<glyph unicode="&#xb9;" horiz-adv-x="935" d="M156 1745q180 61 346 135h102v-870h205v-121h-623v121h254v706q-41 -12 -123.5 -35t-123.5 -36q-6 19 -20.5 56.5t-16.5 43.5z" />
<glyph unicode="&#xba;" horiz-adv-x="679" d="M27 1159q0 146 84.5 248t228.5 102q145 0 229 -101t84 -249t-84 -249t-229 -101t-229 101t-84 249zM117 571v103h448v-103h-448zM168 1159q0 -55 17 -108t57.5 -94.5t97.5 -41.5q45 0 79.5 23t53.5 60.5t28 78t9 82.5q0 57 -15.5 110t-55.5 93.5t-99 40.5 q-46 0 -81 -22.5t-54 -60t-28 -78t-9 -83.5z" />
<glyph unicode="&#xbb;" horiz-adv-x="954" d="M113 367l241 317l-237 309l125 25l297 -334l-306 -334zM416 367l243 317l-237 309l125 25l295 -334l-303 -334z" />
<glyph unicode="&#xbc;" horiz-adv-x="2240" d="M156 1364q180 61 346 135h102v-870h205v-121h-623v121h254v706l-247 -71q-6 19 -20.5 56.5t-16.5 43.5zM735 -45q392 981 631 1587h129l-633 -1587h-127zM1227 225v82q25 36 469 682h164v-643h153q-2 -9 -35 -121h-118v-225h-164v225h-469zM1401 346h295v246q0 35 3 117 t3 106q-32 -64 -76.5 -135t-125.5 -189t-99 -145z" />
<glyph unicode="&#xbd;" horiz-adv-x="2279" d="M156 1364q180 61 346 135h102v-870h205v-121h-623v121h254v706l-247 -71q-6 19 -20.5 56.5t-16.5 43.5zM735 -45q392 981 631 1587h129l-633 -1587h-127zM1382 0v78q2 1 7 5t15 12.5t19 15.5q55 47 104.5 92t121.5 119.5t123 140t88.5 139.5t37.5 131q0 67 -43.5 108.5 t-117.5 41.5q-127 0 -256 -103l-66 99q171 133 359 133q152 0 227.5 -76t75.5 -188q0 -76 -41.5 -162.5t-95.5 -152.5t-125.5 -133t-111 -98.5t-71.5 -54.5h461l-39 -147h-672z" />
<glyph unicode="&#xbe;" horiz-adv-x="2203" d="M129 588q245 12 378.5 85t133.5 185q0 38 -14.5 66.5t-37 44t-55 25t-61.5 12t-65 2.5l-70 -4l-16 96q276 56 276 205q0 45 -36.5 69.5t-100.5 24.5q-62 0 -135.5 -31t-122.5 -72q-63 91 -66 95q69 56 170 91.5t193 35.5q49 0 92.5 -9t83 -29.5t63 -58t23.5 -88.5 q0 -81 -57.5 -137t-139.5 -88q104 -11 173 -73t69 -161q0 -34 -8 -68t-28.5 -72t-52.5 -71.5t-84 -65t-118.5 -55.5t-160.5 -39.5t-205 -19.5zM680 -45q120 302 340 855.5t291 731.5h127q-71 -178 -291 -731.5t-340 -855.5h-127zM1174 225v82l466 682h166v-643h154 q-33 -113 -35 -121h-119v-225h-164v225h-468zM1346 346h296v246q0 35 3.5 117t3.5 106q-67 -130 -303 -469z" />
<glyph unicode="&#xbf;" horiz-adv-x="882" d="M98 88q0 125 84 230.5t205 144.5q35 12 42 21.5t7 41.5v252h133v-399q-120 -21 -205 -93t-85 -186q0 -105 74.5 -169t181.5 -64q50 0 106.5 15t89.5 42l55 -117q-45 -32 -123 -48.5t-147 -16.5q-63 0 -123 13.5t-113.5 42t-94 68.5t-64 97.5t-23.5 124.5zM375 1114 q0 56 39.5 95.5t95.5 39.5t95.5 -39.5t39.5 -95.5q0 -57 -39 -96t-96 -39q-56 0 -95.5 39.5t-39.5 95.5z" />
<glyph unicode="&#xc0;" horiz-adv-x="1292" d="M37 0l518 1372h186l516 -1372h-210l-168 465h-498l-172 -465h-172zM317 1788h252l195 -311h-160zM434 604h393l-196 533z" />
<glyph unicode="&#xc1;" horiz-adv-x="1292" d="M47 0l518 1372h187l516 -1372h-211l-168 465h-498l-172 -465h-172zM444 604h394l-197 533zM565 1466l197 310h250l-287 -310h-160z" />
<glyph unicode="&#xc2;" horiz-adv-x="1292" d="M37 0l518 1372h186l516 -1372h-210l-168 465h-498l-172 -465h-172zM350 1425l209 318h170l217 -318h-143l-160 168l-156 -168h-137zM434 604h393l-196 533z" />
<glyph unicode="&#xc3;" horiz-adv-x="1292" d="M37 0l518 1372h186l516 -1372h-210l-168 465h-498l-172 -465h-172zM338 1460q12 82 63 143.5t129 61.5q59 0 155.5 -40t133.5 -40q25 0 44.5 15t27.5 38h98q-9 -78 -54.5 -140t-119.5 -62q-59 0 -157 40t-150 40q-23 0 -42.5 -17t-25.5 -39h-102zM434 604h393l-196 533z " />
<glyph unicode="&#xc4;" horiz-adv-x="1292" d="M37 0l518 1372h186l516 -1372h-210l-168 465h-498l-172 -465h-172zM369 1585q0 47 34.5 82t81.5 35t82 -35t35 -82t-35 -82t-82 -35t-81.5 35t-34.5 82zM434 604h393l-196 533zM702 1585q0 47 35 82t82 35t82 -35t35 -82t-35 -82t-82 -35t-82 35t-35 82z" />
<glyph unicode="&#xc5;" horiz-adv-x="1292" d="M37 0l502 1331q-45 26 -72 73.5t-27 100.5q0 85 59 144t144 59q84 0 141.5 -59t57.5 -144q0 -51 -23 -96.5t-65 -71.5l503 -1337h-210l-168 463h-498l-172 -463h-172zM434 602h393l-196 533zM543 1505q0 -40 29 -69t69 -29q41 0 69.5 28.5t28.5 69.5q0 40 -29 69.5 t-69 29.5t-69 -29.5t-29 -69.5z" />
<glyph unicode="&#xc6;" horiz-adv-x="1626" d="M25 0l616 1358l-29 133h918v-139h-543v-512h479v-148h-479v-547h543v-145h-731v508h-367l-233 -508h-174zM498 655h301v658z" />
<glyph unicode="&#xc7;" horiz-adv-x="1277" d="M94 750q0 161 47 299.5t134.5 241.5t221 161.5t296.5 58.5q121 0 248.5 -41t197.5 -120l-106 -119q-57 63 -155.5 100t-189.5 37q-102 0 -185 -36.5t-138 -97.5t-92.5 -143.5t-53.5 -170.5t-16 -183q0 -123 28 -229t84.5 -192.5t153.5 -136.5t224 -50q92 0 193.5 34.5 t168.5 92.5l88 -137q-82 -68 -211.5 -106t-247.5 -38l-36 -69h24q84 0 148.5 -41.5t64.5 -124.5q0 -56 -24 -96t-65.5 -59.5t-84 -27.5t-92.5 -8q-85 0 -176 58l51 94q81 -47 131 -47q35 0 62.5 23t27.5 57q0 33 -21.5 52t-56.5 19h-98q-11 0 -21 7.5t-10 17.5q0 4 4 12 l78 140q-187 23 -324 133.5t-204.5 274.5t-67.5 360z" />
<glyph unicode="&#xc8;" horiz-adv-x="1124" d="M147 1368h895v-139h-673v-459h522v-143h-522v-486h673v-141h-866v1235q0 2 -7 32.5t-14 63t-8 37.5zM266 1788h250l195 -311h-158z" />
<glyph unicode="&#xc9;" horiz-adv-x="1124" d="M147 1368h895v-139h-673v-459h522v-143h-522v-486h673v-141h-866v1235q0 2 -7 32.5t-14 63t-8 37.5zM530 1468l195 312h252l-287 -312h-160z" />
<glyph unicode="&#xca;" horiz-adv-x="1124" d="M147 1370h895v-139h-673v-459h522v-143h-522v-488h673v-141h-866v1237q0 2 -7 32.5t-14 63t-8 37.5zM315 1425l209 318h172l217 -318h-143l-160 168l-157 -168h-138z" />
<glyph unicode="&#xcb;" horiz-adv-x="1124" d="M143 1370h895v-139h-673v-459h522v-143h-522v-488h673v-141h-866v1237q0 2 -7 32.5t-14 63t-8 37.5zM338 1593q0 47 35 82t82 35t80.5 -34.5t33.5 -82.5q0 -47 -33.5 -81.5t-80.5 -34.5q-50 0 -83.5 33.5t-33.5 82.5zM672 1593q0 47 34.5 82t81.5 35t82 -35t35 -82 t-35 -81.5t-82 -34.5q-50 0 -83 33.5t-33 82.5z" />
<glyph unicode="&#xcc;" horiz-adv-x="548" d="M-74 1784h250l195 -311h-158zM147 1368h224v-1368h-195v1233q0 2 -7 33t-14 64t-8 38z" />
<glyph unicode="&#xcd;" horiz-adv-x="552" d="M143 1466l195 310h252l-287 -310h-160zM145 1370h224v-1370h-193v1235z" />
<glyph unicode="&#xce;" horiz-adv-x="552" d="M-31 1425l209 318h172l217 -318h-143l-160 168l-155 -168h-140zM145 1368h226v-1368h-195v1233z" />
<glyph unicode="&#xcf;" horiz-adv-x="552" d="M-14 1593q0 47 34.5 82t81.5 35t82 -35t35 -82t-35 -81.5t-82 -34.5t-81.5 34.5t-34.5 81.5zM145 1368h224v-1368h-195v1233q0 2 -7 33t-14 64t-8 38zM319 1593q0 47 35 82t82 35t82 -35t35 -82q0 -49 -33.5 -82.5t-83.5 -33.5q-47 0 -82 34.5t-35 81.5z" />
<glyph unicode="&#xd0;" horiz-adv-x="1462" d="M16 678v131h166v547q0 2 -6.5 33t-13.5 64t-8 38h383q191 0 337 -42t252.5 -130.5t161.5 -233.5t55 -344q0 -164 -41.5 -298t-122.5 -233.5t-211.5 -154.5t-299.5 -55h-486v678h-166zM373 141h270q109 0 195 31.5t143 85.5t94.5 131.5t53.5 165t16 190.5q0 317 -155 461 t-468 144h-149v-541h317v-131h-317v-537z" />
<glyph unicode="&#xd1;" horiz-adv-x="1462" d="M150 1368h253l725 -999v999h156v-1380h-121l-827 1153v-1141h-158v1233q0 2 -6.5 33t-13.5 64t-8 38zM432 1460q10 82 61.5 143.5t129.5 61.5q59 0 154 -41t134 -41q25 0 46 15t28 38h96q-9 -78 -54.5 -140t-119.5 -62q-60 0 -157.5 39.5t-147.5 39.5q-23 0 -42.5 -15.5 t-27.5 -37.5h-100z" />
<glyph unicode="&#xd2;" horiz-adv-x="1509" d="M96 680q0 190 82 351t234.5 259.5t343.5 98.5q144 0 269 -57.5t209.5 -154t132.5 -226t48 -271.5q0 -141 -48.5 -270t-133 -225.5t-209 -154t-268.5 -57.5q-143 0 -267.5 57.5t-209.5 154.5t-134 225.5t-49 269.5zM297 682q0 -104 29.5 -203.5t85 -182t145 -133 t199.5 -50.5q89 0 165 33t129 89t90.5 129.5t55.5 154t18 163.5q0 104 -29.5 203.5t-84.5 181.5t-144.5 132t-199.5 50q-109 0 -198.5 -50t-145 -132.5t-85.5 -181.5t-30 -203zM395 1786h252l195 -311h-160z" />
<glyph unicode="&#xd3;" horiz-adv-x="1509" d="M96 682q0 190 82 351t234.5 259.5t343.5 98.5q144 0 268.5 -57.5t209 -154.5t133 -226.5t48.5 -270.5t-48.5 -270t-133 -225.5t-209 -154t-268.5 -57.5q-191 0 -343.5 98t-234.5 258.5t-82 350.5zM297 682q0 -104 30 -203t85.5 -181.5t145 -132.5t198.5 -50 q110 0 199.5 50t144.5 132t84.5 181.5t29.5 203.5q0 83 -18 163.5t-55.5 154t-90.5 129.5t-129 89t-165 33q-110 0 -199.5 -50.5t-145 -133t-85 -182t-29.5 -203.5zM633 1470l194 312h252l-286 -312h-160z" />
<glyph unicode="&#xd4;" horiz-adv-x="1509" d="M96 680q0 190 82 351t234.5 259.5t343.5 98.5q144 0 269 -57.5t209.5 -154t132.5 -226t48 -271.5q0 -141 -48.5 -270t-133 -225.5t-209 -154t-268.5 -57.5q-143 0 -267.5 57.5t-209.5 154.5t-134 225.5t-49 269.5zM297 682q0 -104 29.5 -203.5t85 -182t145 -133 t199.5 -50.5q89 0 165 33t129 89t90.5 129.5t55.5 154t18 163.5q0 104 -29.5 203.5t-84.5 181.5t-144.5 132t-199.5 50q-109 0 -198.5 -50t-145 -132.5t-85.5 -181.5t-30 -203zM453 1421l209 318h169l218 -318h-142l-162 168l-155 -168h-137z" />
<glyph unicode="&#xd5;" horiz-adv-x="1507" d="M94 682q0 190 82 351t234.5 259.5t343.5 98.5q144 0 268.5 -57.5t209 -154.5t133 -226.5t48.5 -270.5t-48.5 -270t-133 -225.5t-209 -154t-268.5 -57.5q-191 0 -343.5 98t-234.5 258.5t-82 350.5zM295 682q0 -104 30 -203t85.5 -181.5t145 -132.5t198.5 -50 q110 0 199.5 50t144.5 132t84.5 181.5t29.5 203.5q0 83 -18 163.5t-55.5 154t-90.5 129.5t-129 89t-165 33q-110 0 -199.5 -50.5t-145 -133t-85 -182t-29.5 -203.5zM442 1462q10 82 61.5 143.5t131.5 61.5q58 0 155 -40t132 -40q25 0 45 15t28 38h99q-10 -79 -56.5 -140.5 t-119.5 -61.5q-60 0 -158 40t-148 40q-46 0 -69 -56h-101z" />
<glyph unicode="&#xd6;" horiz-adv-x="1509" d="M96 682q0 190 82 351t234.5 259.5t343.5 98.5q144 0 268.5 -57.5t209 -154.5t133 -226.5t48.5 -270.5t-48.5 -270t-133 -225.5t-209 -154t-268.5 -57.5q-191 0 -343.5 98t-234.5 258.5t-82 350.5zM297 682q0 -104 30 -203t85.5 -181.5t145 -132.5t198.5 -50 q110 0 199.5 50t144.5 132t84.5 181.5t29.5 203.5q0 83 -18 163.5t-55.5 154t-90.5 129.5t-129 89t-165 33q-110 0 -199.5 -50.5t-145 -133t-85 -182t-29.5 -203.5zM467 1585q0 47 35 82t82 35t81.5 -35t34.5 -82t-34.5 -82t-81.5 -35t-82 35t-35 82zM801 1585q0 47 35 82 t82 35t81.5 -35t34.5 -82t-34.5 -82t-81.5 -35t-82 35t-35 82z" />
<glyph unicode="&#xd7;" horiz-adv-x="1093" d="M145 193l314 311l-314 311l91 90l311 -311l311 311l90 -90l-313 -311l313 -311l-90 -91l-311 312l-311 -312z" />
<glyph unicode="&#xd8;" horiz-adv-x="1507" d="M94 743q0 126 26 239t79.5 209.5t131.5 166.5t187.5 109.5t241.5 39.5q199 0 344 -94l102 158l111 -64l-113 -172q109 -110 159 -266t50 -330q0 -124 -26.5 -237t-81 -209.5t-132 -167.5t-187 -111.5t-238.5 -40.5q-208 0 -361 107l-129 -197l-106 68l139 209 q-197 212 -197 583zM295 750q0 -262 98 -426q313 476 621 954q-106 90 -260 90q-100 0 -179.5 -36.5t-131 -96.5t-85.5 -141.5t-48.5 -166.5t-14.5 -177zM475 219q112 -106 283 -106q99 0 178 36.5t130 95.5t84.5 140.5t47.5 166t14 175.5q0 283 -108 451 q-73 -110 -629 -959z" />
<glyph unicode="&#xd9;" horiz-adv-x="1447" d="M145 1368h226v-870q0 -181 88.5 -282t267.5 -101q185 0 285 112t100 299v842h158v-842q0 -260 -144.5 -406.5t-406.5 -146.5q-259 0 -401 134.5t-142 390.5v737q0 2 -7.5 33t-15 63.5t-8.5 36.5zM383 1786h250l194 -309h-157z" />
<glyph unicode="&#xda;" horiz-adv-x="1447" d="M145 1370h226v-870q0 -181 88.5 -282t267.5 -101q185 0 285 112t100 299v842h158v-842q0 -260 -144.5 -406.5t-406.5 -146.5q-259 0 -401 134.5t-142 390.5v737q0 2 -7.5 33t-15 63.5t-8.5 36.5zM645 1468l195 310h250l-287 -310h-158z" />
<glyph unicode="&#xdb;" horiz-adv-x="1447" d="M145 1370h226v-870q0 -181 88.5 -282t267.5 -101q185 0 285 112t100 299v842h158v-842q0 -260 -144.5 -406.5t-406.5 -146.5q-259 0 -401 134.5t-142 390.5v737q0 2 -7.5 33t-15 63.5t-8.5 36.5zM438 1425l209 316h172l213 -316h-139l-160 166l-155 -166h-140z" />
<glyph unicode="&#xdc;" horiz-adv-x="1447" d="M145 1370h226v-870q0 -181 88.5 -282t267.5 -101q185 0 285 112t100 299v842h158v-842q0 -260 -144.5 -406.5t-406.5 -146.5q-261 0 -402 134t-141 391v737q0 2 -7.5 33t-15 63.5t-8.5 36.5zM463 1585q0 47 34 82t81 35t81.5 -35t34.5 -82t-34.5 -82t-81.5 -35t-81 35 t-34 82zM797 1585q0 47 34.5 82t81.5 35t81 -35t34 -82t-34 -82t-81 -35t-81.5 35t-34.5 82z" />
<glyph unicode="&#xdd;" horiz-adv-x="1196" d="M66 1370h219l346 -582l321 582h181l-431 -756v-614h-194v614zM547 1468l194 310h250l-286 -310h-158z" />
<glyph unicode="&#xde;" horiz-adv-x="1177" d="M152 1491h223v-240h203q90 0 165.5 -14.5t141 -46.5t111 -81.5t71 -123t25.5 -166.5q0 -112 -41 -198.5t-112.5 -139t-162.5 -79.5t-196 -27h-207v-373h-191v1354zM373 514h219q137 0 218 84.5t81 220.5q0 137 -76.5 214t-220.5 77h-221v-596z" />
<glyph unicode="&#xdf;" horiz-adv-x="1130" d="M57 889v112q49 0 78.5 7.5t49 29t30 48.5t21.5 77q79 355 391 355q161 0 252.5 -83.5t91.5 -240.5q0 -37 -6 -68.5t-14 -55t-25.5 -46t-30 -36.5t-39 -32.5t-41.5 -27.5t-47.5 -27.5t-48.5 -28.5q-4 -2 -10.5 -6t-10 -6t-9 -5t-8.5 -5t-7 -5t-6.5 -5t-4.5 -4.5t-3 -4.5 t-1 -4q0 -7 5.5 -13t21.5 -15.5t26.5 -15t39.5 -19.5q35 -17 57 -27.5t54.5 -28t53.5 -31.5t48 -34.5t44 -39.5t35 -45t28.5 -52.5t17 -59.5t6.5 -69q0 -183 -108.5 -292.5t-289.5 -109.5q-112 0 -215 41l58 119q97 -26 141 -26q93 0 163 65t70 172q0 57 -22.5 103.5t-58 78 t-79 59t-86.5 52t-78.5 49t-58 58t-22.5 73.5q0 37 29 70t70 61t82.5 59t70.5 78t29 105q0 182 -164 182q-59 0 -105 -27t-72 -68t-43 -97t-22.5 -106.5t-5.5 -104.5v-971h-170v889h-152z" />
<glyph unicode="&#xe0;" horiz-adv-x="1005" d="M90 246q0 64 20.5 116.5t53.5 88t81.5 62.5t98 42t111 24.5t111.5 13t108 3.5v109q0 95 -38.5 149.5t-131.5 54.5q-79 0 -161.5 -32.5t-131.5 -88.5l-84 121q167 133 391 133q160 0 243 -87t83 -248v-508q0 -41 9 -59.5t36 -18.5q3 0 45.5 13t50.5 16l35 -107 q-11 -4 -44.5 -18.5t-52.5 -21.5t-48 -14t-52 -7q-60 0 -98 38.5t-47 100.5q-63 -66 -142.5 -105t-164.5 -39q-124 0 -202.5 72.5t-78.5 196.5zM156 1491h252l194 -311h-160zM264 252q0 -65 44 -98t118 -33q105 0 176.5 85t71.5 191v66q-40 0 -70 -1t-75 -5.5t-78.5 -12.5 t-70.5 -24t-61 -37.5t-39.5 -55t-15.5 -75.5z" />
<glyph unicode="&#xe1;" d="M90 246q0 64 20.5 116.5t53.5 88t81.5 62.5t98 42t111 24.5t111.5 13t108 3.5v109q0 95 -38.5 149.5t-131.5 54.5q-79 0 -161.5 -32.5t-131.5 -88.5l-84 121q167 133 391 133q160 0 243 -87t83 -248v-508q0 -41 9 -59.5t36 -18.5q3 0 45.5 13t50.5 16l35 -107 q-11 -4 -44.5 -18.5t-52.5 -21.5t-48 -14t-52 -7q-60 0 -98 38.5t-47 100.5q-63 -66 -142.5 -105t-164.5 -39q-124 0 -202.5 72.5t-78.5 196.5zM264 252q0 -65 44 -98t118 -33q105 0 176.5 85t71.5 191v66q-40 0 -70 -1t-75 -5.5t-78.5 -12.5t-70.5 -24t-61 -37.5t-39.5 -55 t-15.5 -75.5zM420 1182l196 311h250l-286 -311h-160z" />
<glyph unicode="&#xe2;" d="M90 246q0 64 20.5 116.5t53.5 88t81.5 62.5t98 42t111 24.5t111.5 13t108 3.5v109q0 95 -38.5 149.5t-131.5 54.5q-79 0 -161.5 -32.5t-131.5 -88.5l-84 121q167 133 391 133q160 0 243 -87t83 -248v-508q0 -41 9 -59.5t36 -18.5q3 0 45.5 13t50.5 16l35 -107 q-11 -4 -44.5 -18.5t-52.5 -21.5t-48 -14t-52 -7q-60 0 -98 38.5t-47 100.5q-63 -66 -142.5 -105t-164.5 -39q-124 0 -202.5 72.5t-78.5 196.5zM203 1178l209 315h170l217 -317h-142l-161 167l-156 -165h-137zM264 252q0 -65 44 -98t118 -33q105 0 176.5 85t71.5 191v66 q-40 0 -70 -1t-75 -5.5t-78.5 -12.5t-70.5 -24t-61 -37.5t-39.5 -55t-15.5 -75.5z" />
<glyph unicode="&#xe3;" d="M90 246q0 64 20.5 116.5t53.5 88t81.5 62.5t98 42t111 24.5t111.5 13t108 3.5v109q0 95 -38.5 149.5t-131.5 54.5q-79 0 -161.5 -32.5t-131.5 -88.5l-84 121q167 133 391 133q160 0 243 -87t83 -248v-508q0 -41 9 -59.5t36 -18.5q3 0 45.5 13t50.5 16l35 -107 q-11 -4 -44.5 -18.5t-52.5 -21.5t-48 -14t-52 -7q-60 0 -98 38.5t-47 100.5q-63 -66 -142.5 -105t-164.5 -39q-124 0 -202.5 72.5t-78.5 196.5zM195 1198q10 82 61 143.5t131 61.5q58 0 153.5 -40t133.5 -40q25 0 46 15t28 38h96q-9 -78 -54.5 -140t-119.5 -62 q-60 0 -157.5 39.5t-147.5 39.5q-47 0 -70 -55h-100zM264 252q0 -65 44 -98t118 -33q105 0 176.5 85t71.5 191v66q-40 0 -70 -1t-75 -5.5t-78.5 -12.5t-70.5 -24t-61 -37.5t-39.5 -55t-15.5 -75.5z" />
<glyph unicode="&#xe4;" d="M90 246q0 64 20.5 116.5t53.5 88t81.5 62.5t98 42t111 24.5t111.5 13t108 3.5v109q0 95 -38.5 149.5t-131.5 54.5q-79 0 -161.5 -32.5t-131.5 -88.5l-84 121q167 133 391 133q160 0 243 -87t83 -248v-508q0 -41 9 -59.5t36 -18.5q3 0 45.5 13t50.5 16l35 -107 q-11 -4 -44.5 -18.5t-52.5 -21.5t-48 -14t-52 -7q-60 0 -98 38.5t-47 100.5q-63 -66 -142.5 -105t-164.5 -39q-124 0 -202.5 72.5t-78.5 196.5zM231 1278q0 47 34 82t81 35q50 0 83.5 -33.5t33.5 -83.5q0 -47 -35 -82t-82 -35t-81 35t-34 82zM264 252q0 -65 44 -98t118 -33 q105 0 176.5 85t71.5 191v66q-40 0 -70 -1t-75 -5.5t-78.5 -12.5t-70.5 -24t-61 -37.5t-39.5 -55t-15.5 -75.5zM565 1278q0 47 34 82t81 35q50 0 83.5 -33.5t33.5 -83.5q0 -47 -35 -82t-82 -35t-81 35t-34 82z" />
<glyph unicode="&#xe5;" horiz-adv-x="1032" d="M90 246q0 64 20.5 116.5t53.5 88t81.5 62.5t98 42t111 24.5t111.5 13t108 3.5v109q0 95 -38.5 149.5t-131.5 54.5q-79 0 -161.5 -32.5t-131.5 -88.5l-84 121q167 133 391 133q160 0 243 -87t83 -248v-508q0 -41 9 -59.5t36 -18.5q3 0 45.5 13t50.5 16l35 -107 q-11 -4 -44.5 -18.5t-52.5 -21.5t-48 -14t-52 -7q-60 0 -98 38.5t-47 100.5q-63 -66 -142.5 -105t-164.5 -39q-124 0 -202.5 72.5t-78.5 196.5zM264 252q0 -65 44 -98t118 -33q105 0 176.5 85t71.5 191v66q-40 0 -70 -1t-75 -5.5t-78.5 -12.5t-70.5 -24t-61 -37.5t-39.5 -55 t-15.5 -75.5zM315 1331q0 83 60 144t143 61q85 0 144 -60t59 -145q0 -83 -60 -143t-143 -60t-143 60t-60 143zM420 1331q0 -41 28.5 -69.5t69.5 -28.5q40 0 69 29t29 69t-29 69.5t-69 29.5q-41 0 -69.5 -29t-28.5 -70z" />
<glyph unicode="&#xe6;" horiz-adv-x="1536" d="M84 250q0 65 19.5 118.5t53 91t80.5 67t98 47t111 28.5t113.5 15t110.5 4q2 16 2 49q0 46 -8 85.5t-26 75.5t-53.5 57t-84.5 21q-79 0 -162 -32.5t-133 -88.5l-84 119q52 61 172.5 98t214.5 37q89 0 165 -32.5t118 -100.5q55 61 137 97t164 36q187 0 285 -102.5 t98 -290.5q0 -75 -27 -115t-98 -40h-521v-35q0 -61 21 -122t57.5 -110t92.5 -79.5t120 -30.5q68 0 143 25t123 67l82 -125q-68 -52 -160 -81.5t-180 -29.5q-243 0 -393 201q-71 -105 -156.5 -152t-211.5 -47q-129 0 -206 73.5t-77 201.5zM260 262q0 -68 45 -104.5t115 -36.5 q77 0 135 44.5t85.5 111t27.5 141.5v71h-29q-48 0 -95.5 -5.5t-100 -21.5t-92 -40.5t-65.5 -65.5t-26 -94zM842 621h418q27 0 38 9t11 36q0 68 -17.5 121t-63.5 89.5t-116 36.5q-113 0 -183 -86t-87 -206z" />
<glyph unicode="&#xe7;" horiz-adv-x="921" d="M90 508q0 150 56 270t168.5 192t263.5 72q72 0 153 -29.5t141 -74.5l-92 -119q-58 51 -107 70.5t-122 19.5q-70 0 -125.5 -36.5t-87.5 -94.5t-49 -123t-17 -129q0 -53 10 -108t32.5 -110t55 -97.5t82 -69t109.5 -26.5q74 0 125 20.5t123 69.5l78 -129q-96 -59 -165 -81 t-173 -22l-37 -67h25q39 0 75 -9.5t68 -28t51 -52t19 -76.5q0 -46 -16 -80.5t-41 -55t-61 -33.5t-70 -17.5t-73 -4.5q-89 0 -180 58l49 94q85 -47 131 -47q36 0 63.5 23t27.5 57q0 33 -21.5 52t-56.5 19h-96q-14 0 -23.5 7.5t-9.5 17.5q0 4 4 12l80 142q-111 25 -196 106 t-128 190.5t-43 227.5z" />
<glyph unicode="&#xe8;" d="M90 498q0 81 17 158.5t53 147.5t87 123t124.5 84t160.5 31q178 0 287 -105t109 -282q0 -131 -105 -131h-553v-20q0 -67 18.5 -134t54 -124.5t94 -93t130.5 -35.5q67 0 140.5 26t123.5 68l76 -123q-142 -115 -344 -115q-112 0 -202.5 41t-149 112.5t-90 166.5t-31.5 205z M186 1491h252l195 -311h-160zM283 651h428q23 0 28.5 8.5t5.5 34.5q0 92 -53 155.5t-143 63.5q-99 0 -173 -79.5t-93 -182.5z" />
<glyph unicode="&#xe9;" d="M90 498q0 81 17 158.5t53 147.5t87 123t124.5 84t160.5 31q178 0 287 -105t109 -282q0 -131 -105 -131h-553v-20q0 -67 18.5 -134t54 -124.5t94 -93t130.5 -35.5q67 0 140.5 26t123.5 68l76 -123q-142 -115 -344 -115q-112 0 -202.5 41t-149 112.5t-90 166.5t-31.5 205z M283 651h428q23 0 28.5 8.5t5.5 34.5q0 92 -53 155.5t-143 63.5q-99 0 -173 -79.5t-93 -182.5zM449 1180l196 311h250l-287 -311h-159z" />
<glyph unicode="&#xea;" d="M90 498q0 81 17 158.5t53 147.5t87 123t124.5 84t160.5 31q178 0 287 -105t109 -282q0 -131 -105 -131h-553v-20q0 -67 18.5 -134t54 -124.5t94 -93t130.5 -35.5q67 0 140.5 26t123.5 68l76 -123q-142 -115 -344 -115q-112 0 -202.5 41t-149 112.5t-90 166.5t-31.5 205z M236 1176l208 315h170l217 -317h-141l-162 167l-155 -165h-137zM283 651h428q23 0 28.5 8.5t5.5 34.5q0 92 -53 155.5t-143 63.5q-99 0 -173 -79.5t-93 -182.5z" />
<glyph unicode="&#xeb;" d="M90 498q0 81 17 158.5t53 147.5t87 123t124.5 84t160.5 31q178 0 287 -105t109 -282q0 -131 -105 -131h-553v-20q0 -67 18.5 -134t54 -124.5t94 -93t130.5 -35.5q67 0 140.5 26t123.5 68l76 -123q-142 -115 -344 -115q-112 0 -202.5 41t-149 112.5t-90 166.5t-31.5 205z M262 1278q0 47 34 82t81 35q49 0 83 -33.5t34 -83.5q0 -47 -35 -82t-82 -35t-81 35t-34 82zM283 651h428q23 0 28.5 8.5t5.5 34.5q0 92 -53 155.5t-143 63.5q-99 0 -173 -79.5t-93 -182.5zM596 1278q0 47 34 82t81 35q49 0 82.5 -33.5t33.5 -83.5q0 -47 -34.5 -82t-81.5 -35 t-81 35t-34 82z" />
<glyph unicode="&#xec;" horiz-adv-x="512" d="M-98 1491h252l194 -311h-160zM147 1018h195v-1018h-170v897q0 2 -6 29.5t-12 57t-7 34.5z" />
<glyph unicode="&#xed;" horiz-adv-x="512" d="M139 1180l197 311h250l-287 -311h-160zM147 1018h195v-1018h-170v897q0 2 -6 29.5t-12 57t-7 34.5z" />
<glyph unicode="&#xee;" horiz-adv-x="512" d="M-43 1178l209 315h170l217 -317h-141l-162 167l-156 -165h-137zM147 1018h195v-1018h-170v897q0 2 -6 29.5t-12 57t-7 34.5z" />
<glyph unicode="&#xef;" horiz-adv-x="512" d="M-25 1278q0 47 34 82t81 35q50 0 83.5 -33.5t33.5 -83.5q0 -47 -35 -82t-82 -35t-81 35t-34 82zM147 1018h195v-1018h-170v897q0 2 -6 29.5t-12 57t-7 34.5zM309 1278q0 47 34 82t81 35q50 0 83.5 -33.5t33.5 -83.5q0 -47 -35 -82t-82 -35t-81 35t-34 82z" />
<glyph unicode="&#xf0;" horiz-adv-x="1097" d="M92 506q0 143 52.5 261.5t158 192.5t246.5 74q70 0 137 -26q-80 156 -197 303l-215 -119l-63 82l213 119q-48 55 -117 120l113 68q85 -79 123 -123l219 121l57 -86l-207 -115q60 -72 112.5 -145t106 -164t91 -179.5t61 -189t23.5 -194.5q0 -143 -52 -261t-157.5 -191.5 t-247.5 -73.5t-247.5 73.5t-157.5 191.5t-52 261zM272 506q0 -53 8 -105.5t28.5 -107.5t51 -96.5t79.5 -68t110 -26.5q76 0 133 39t86.5 102t43 129t13.5 134q0 53 -8 106t-28 108t-50 96.5t-79 68t-111 26.5q-61 0 -110 -27t-79.5 -69t-51 -97t-28.5 -107.5t-8 -104.5z" />
<glyph unicode="&#xf1;" horiz-adv-x="1120" d="M96 1010l187 24q31 -82 39 -145q67 67 150 110t167 43q161 0 236 -97t75 -265v-680h-168v625q0 47 -2 77.5t-11.5 70t-27 62.5t-51 39.5t-80.5 16.5q-70 0 -143.5 -39t-134.5 -96v-756h-168v721q0 74 -16.5 157.5t-51.5 131.5zM240 1198q12 82 63 143.5t129 61.5 q59 0 155.5 -40t133.5 -40q47 0 74 53h96q-9 -78 -54.5 -140t-119.5 -62q-60 0 -157.5 39.5t-147.5 39.5q-23 0 -43.5 -16t-26.5 -39h-102z" />
<glyph unicode="&#xf2;" horiz-adv-x="1097" d="M90 508q0 104 30.5 199t87 170.5t145 120t196.5 44.5q110 0 199 -44t145.5 -118.5t86.5 -170t30 -201.5t-30 -201.5t-86.5 -170.5t-145.5 -119t-199 -44q-109 0 -198 44.5t-145 119.5t-86 170.5t-30 200.5zM197 1489h249l197 -311h-160zM270 508q0 -65 16.5 -132.5 t48 -130.5t87.5 -103t127 -40q61 0 110.5 26t80.5 67t51.5 95.5t29 108.5t8.5 109q0 69 -15 136.5t-46 129.5t-88 100.5t-131 38.5q-61 0 -110 -25.5t-80 -66.5t-51.5 -95.5t-29 -108.5t-8.5 -109z" />
<glyph unicode="&#xf3;" horiz-adv-x="1097" d="M90 508q0 104 30.5 199t87 170.5t145 120t196.5 44.5q110 0 199 -44t145.5 -118.5t86.5 -170t30 -201.5t-30 -201.5t-86.5 -170.5t-145.5 -119t-199 -44q-109 0 -198 44.5t-145 119.5t-86 170.5t-30 200.5zM270 508q0 -65 16.5 -132.5t48 -130.5t87.5 -103t127 -40 q61 0 110.5 26t80.5 67t51.5 95.5t29 108.5t8.5 109q0 69 -15 136.5t-46 129.5t-88 100.5t-131 38.5q-61 0 -110 -25.5t-80 -66.5t-51.5 -95.5t-29 -108.5t-8.5 -109zM469 1178l195 311h251l-286 -311h-160z" />
<glyph unicode="&#xf4;" horiz-adv-x="1097" d="M90 508q0 104 30.5 199t87 170.5t145 120t196.5 44.5q110 0 199 -44t145.5 -118.5t86.5 -170t30 -201.5t-30 -201.5t-86.5 -170.5t-145.5 -119t-199 -44q-109 0 -198 44.5t-145 119.5t-86 170.5t-30 200.5zM254 1174l209 315h170l217 -318h-141l-162 168l-156 -165h-137z M270 508q0 -65 16.5 -132.5t48 -130.5t87.5 -103t127 -40q61 0 110.5 26t80.5 67t51.5 95.5t29 108.5t8.5 109q0 69 -15 136.5t-46 129.5t-88 100.5t-131 38.5q-61 0 -110 -25.5t-80 -66.5t-51.5 -95.5t-29 -108.5t-8.5 -109z" />
<glyph unicode="&#xf5;" horiz-adv-x="1097" d="M90 508q0 104 30.5 199t87 170.5t145 120t196.5 44.5q110 0 199 -44t145.5 -118.5t86.5 -170t30 -201.5t-30 -201.5t-86.5 -170.5t-145.5 -119t-199 -44q-109 0 -198 44.5t-145 119.5t-86 170.5t-30 200.5zM248 1198q10 82 61 143.5t131 61.5q58 0 153.5 -40t133.5 -40 q25 0 46 15t28 38h96q-9 -78 -54.5 -140t-119.5 -62q-60 0 -157.5 39.5t-147.5 39.5q-47 0 -70 -55h-100zM270 508q0 -65 16.5 -132.5t48 -130.5t87.5 -103t127 -40q61 0 110.5 26t80.5 67t51.5 95.5t29 108.5t8.5 109q0 69 -15 136.5t-46 129.5t-88 100.5t-131 38.5 q-61 0 -110 -25.5t-80 -66.5t-51.5 -95.5t-29 -108.5t-8.5 -109z" />
<glyph unicode="&#xf6;" horiz-adv-x="1097" d="M90 508q0 104 30.5 199t87 170.5t145 120t196.5 44.5q110 0 199 -44t145.5 -118.5t86.5 -170t30 -201.5t-30 -201.5t-86.5 -170.5t-145.5 -119t-199 -44q-109 0 -198 44.5t-145 119.5t-86 170.5t-30 200.5zM270 508q0 -65 16.5 -132.5t48 -130.5t87.5 -103t127 -40 q61 0 110.5 26t80.5 67t51.5 95.5t29 108.5t8.5 109q0 69 -15 136.5t-46 129.5t-88 100.5t-131 38.5q-61 0 -110 -25.5t-80 -66.5t-51.5 -95.5t-29 -108.5t-8.5 -109zM272 1278q0 47 35 82t82 35t81 -35t34 -82t-34 -82t-81 -35t-82 35t-35 82zM606 1278q0 47 35 82t82 35 t82 -35t35 -82t-35 -82t-82 -35t-82 35t-35 82z" />
<glyph unicode="&#xf7;" horiz-adv-x="1290" d="M139 432v143h1022v-143h-1022zM522 164q0 51 37 87t88 36t87 -36t36 -87t-36 -87t-87 -36t-88 36t-37 87zM522 846q0 51 37 88t88 37t87 -37t36 -88t-36 -87t-87 -36t-88 36t-37 87z" />
<glyph unicode="&#xf8;" horiz-adv-x="1099" d="M90 508q0 104 30.5 199t87 170.5t145 120t196.5 44.5q117 0 221 -55l90 146l103 -56l-101 -164q75 -76 111.5 -183t36.5 -222q0 -106 -30 -201.5t-86.5 -170.5t-145.5 -119t-199 -44q-124 0 -227 62l-115 -176l-96 63l120 187q-72 76 -106.5 180.5t-34.5 218.5zM264 508 q0 -146 60 -248l370 604q-65 49 -145 49q-75 0 -133 -38t-89.5 -99.5t-47 -129.5t-15.5 -138zM397 162q66 -60 152 -60q76 0 133.5 38t89.5 100t47 129.5t15 138.5q0 151 -60 260z" />
<glyph unicode="&#xf9;" horiz-adv-x="1132" d="M137 1018h197v-627q0 -43 2.5 -75t12.5 -70t27.5 -62.5t50 -41.5t77.5 -17q116 0 197 73t81 187v512q0 2 -6 29.5t-12.5 58t-7.5 33.5h196v-819q0 -41 9 -59.5t36 -18.5q3 0 46 13t51 16l34 -107q-12 -5 -45 -18.5t-52 -21t-47.5 -14.5t-51.5 -7q-60 0 -97 38.5 t-47 100.5q-64 -65 -146.5 -106.5t-166.5 -41.5q-161 0 -236 97.5t-75 265.5v561q0 2 -6.5 29.5t-13 57.5t-7.5 34zM195 1489h251l195 -311h-160z" />
<glyph unicode="&#xfa;" horiz-adv-x="1132" d="M137 1018h197v-627q0 -43 2.5 -75t12.5 -70t27.5 -62.5t50 -41.5t77.5 -17q116 0 197 73t81 187v512q0 2 -6 29.5t-12.5 58t-7.5 33.5h196v-819q0 -41 9 -59.5t36 -18.5q3 0 46 13t51 16l34 -107q-12 -5 -45 -18.5t-52 -21t-47.5 -14.5t-51.5 -7q-60 0 -97 38.5 t-47 100.5q-64 -65 -146.5 -106.5t-166.5 -41.5q-161 0 -236 97.5t-75 265.5v561q0 2 -6.5 29.5t-13 57.5t-7.5 34zM465 1178l194 311h250l-286 -311h-158z" />
<glyph unicode="&#xfb;" horiz-adv-x="1132" d="M137 1018h197v-627q0 -43 2.5 -75t12.5 -70t27.5 -62.5t50 -41.5t77.5 -17q116 0 197 73t81 187v512q0 2 -6 29.5t-12.5 58t-7.5 33.5h196v-819q0 -41 9 -59.5t36 -18.5q3 0 46 13t51 16l34 -107q-12 -5 -45 -18.5t-52 -21t-47.5 -14.5t-51.5 -7q-60 0 -97 38.5 t-47 100.5q-64 -65 -146.5 -106.5t-166.5 -41.5q-161 0 -236 97.5t-75 265.5v561q0 2 -6.5 29.5t-13 57.5t-7.5 34zM246 1159l209 316h172l217 -318h-144l-159 168l-156 -166h-139z" />
<glyph unicode="&#xfc;" horiz-adv-x="1132" d="M137 1018h197v-627q0 -43 2.5 -75t12.5 -70t27.5 -62.5t50 -41.5t77.5 -17q116 0 197 73t81 187v512q0 2 -6 29.5t-12.5 58t-7.5 33.5h196v-819q0 -41 9 -59.5t36 -18.5q3 0 46 13t51 16l34 -107q-12 -5 -45 -18.5t-52 -21t-47.5 -14.5t-51.5 -7q-60 0 -97 38.5 t-47 100.5q-64 -65 -146.5 -106.5t-166.5 -41.5q-161 0 -236 97.5t-75 265.5v561q0 2 -6.5 29.5t-13 57.5t-7.5 34zM264 1278q0 50 34 83.5t83 33.5q47 0 81 -35t34 -82t-34 -82t-81 -35t-82 35t-35 82zM598 1278q0 50 34 83.5t83 33.5q47 0 81.5 -35t34.5 -82t-34.5 -82 t-81.5 -35t-82 35t-35 82z" />
<glyph unicode="&#xfd;" horiz-adv-x="933" d="M25 1018h184l270 -774l271 774h159l-360 -1022q-156 -440 -393 -440h-78v137h22q49 0 92 21t72.5 50t56.5 76t42.5 82.5t33.5 85.5zM408 1169l196 312h250l-287 -312h-159z" />
<glyph unicode="&#xfe;" horiz-adv-x="1140" d="M143 1561h197v-664q135 135 309 135q78 0 144.5 -29.5t112.5 -80t78.5 -116.5t47.5 -139t15 -149q0 -108 -30 -205.5t-85.5 -172.5t-141 -119t-188.5 -44q-157 0 -262 111v-522h-168v1876q0 2 -7 29.5t-14 56.5t-8 33zM340 418q0 -136 68 -227t188 -91q60 0 108 27 t77.5 69t49.5 98t27.5 109.5t7.5 106.5q0 69 -14 133t-43.5 123t-84.5 95t-128 36q-71 0 -139 -38t-117 -97v-344z" />
<glyph unicode="&#xff;" horiz-adv-x="933" d="M25 1018h184l270 -774l271 774h159l-360 -1022q-156 -440 -393 -440h-78v137h22q49 0 92 21t72.5 50t56.5 76t42.5 82.5t33.5 85.5zM201 1286q0 47 34.5 82t81.5 35q49 0 83 -33.5t34 -83.5q0 -47 -35 -82t-82 -35t-81.5 35t-34.5 82zM537 1286q0 48 33.5 82.5t80.5 34.5 q49 0 83 -33.5t34 -83.5q0 -47 -35 -82t-82 -35t-80.5 34.5t-33.5 82.5z" />
<glyph unicode="&#x152;" horiz-adv-x="2146" d="M104 745q0 126 26 239t79.5 209.5t131.5 166.5t187.5 109.5t241.5 39.5q292 0 457 -213v195h864v-143h-674v-508h522v-148h-522v-547h674v-145h-866v193q-179 -218 -467 -218q-130 0 -238.5 41t-184.5 113t-128.5 170t-77.5 210t-25 236zM305 743q0 -92 14 -177.5 t48 -168t85.5 -143.5t131.5 -98t180 -37q101 0 181.5 37t131.5 98t85.5 143.5t48.5 168.5t14 179q0 77 -10.5 149t-32 143.5t-58.5 131t-86.5 105t-119.5 71t-154 25.5q-100 0 -180 -37.5t-131.5 -98.5t-85.5 -144t-48 -169t-14 -178z" />
<glyph unicode="&#x153;" horiz-adv-x="1724" d="M90 508q0 83 19 161t58 145.5t93 118.5t129 80t162 29q117 0 213.5 -52t157.5 -150q58 93 150.5 147.5t199.5 54.5q171 0 277 -108t106 -279q0 -131 -96 -131h-547q1 -62 11.5 -118.5t34 -110t58.5 -92.5t89 -62.5t120 -23.5q62 0 132 27t118 69l72 -125 q-131 -115 -342 -115q-118 0 -220.5 52t-164.5 147q-61 -96 -157 -147.5t-212 -51.5q-88 0 -163.5 29t-129.5 80t-92.5 118.5t-57 146t-18.5 161.5zM266 508q0 -66 17 -134t49.5 -130.5t89.5 -102t129 -39.5q76 0 133.5 38t88.5 100t46 129.5t15 138.5q0 69 -15.5 136.5 t-47 129.5t-89 100.5t-131.5 38.5q-61 0 -110.5 -25.5t-81.5 -66.5t-53.5 -95.5t-30.5 -108.5t-9 -109zM1026 651h414q19 0 27.5 1.5t15 9.5t6.5 26q0 97 -53 161t-148 64q-98 0 -172 -80t-90 -182z" />
<glyph unicode="&#x178;" horiz-adv-x="1196" d="M66 1370h219l346 -582l321 582h181l-431 -756v-614h-194v614zM334 1585q0 49 34 83t83 34t82.5 -33.5t33.5 -83.5t-33.5 -83.5t-82.5 -33.5t-83 34t-34 83zM668 1585q0 47 34.5 82t81.5 35q50 0 83.5 -34t33.5 -83t-33.5 -83t-83.5 -34q-47 0 -81.5 35t-34.5 82z" />
<glyph unicode="&#x2c6;" horiz-adv-x="563" d="M-16 1159l209 316h169l218 -318h-142l-162 168l-155 -166h-137z" />
<glyph unicode="&#x2dc;" horiz-adv-x="722" d="M33 1198q10 82 61 143.5t131 61.5q58 0 153.5 -40t133.5 -40q25 0 46 15t28 38h96q-9 -78 -54.5 -140t-119.5 -62q-60 0 -157.5 39.5t-147.5 39.5q-47 0 -70 -55h-100z" />
<glyph unicode="&#x2000;" horiz-adv-x="950" />
<glyph unicode="&#x2001;" horiz-adv-x="1901" />
<glyph unicode="&#x2002;" horiz-adv-x="950" />
<glyph unicode="&#x2003;" horiz-adv-x="1901" />
<glyph unicode="&#x2004;" horiz-adv-x="633" />
<glyph unicode="&#x2005;" horiz-adv-x="475" />
<glyph unicode="&#x2006;" horiz-adv-x="316" />
<glyph unicode="&#x2007;" horiz-adv-x="316" />
<glyph unicode="&#x2008;" horiz-adv-x="237" />
<glyph unicode="&#x2009;" horiz-adv-x="380" />
<glyph unicode="&#x200a;" horiz-adv-x="105" />
<glyph unicode="&#x2010;" horiz-adv-x="641" d="M84 459v153h473v-153h-473z" />
<glyph unicode="&#x2011;" horiz-adv-x="641" d="M84 459v153h473v-153h-473z" />
<glyph unicode="&#x2012;" horiz-adv-x="641" d="M84 459v153h473v-153h-473z" />
<glyph unicode="&#x2013;" horiz-adv-x="1028" d="M16 471v127h994v-127h-994z" />
<glyph unicode="&#x2014;" horiz-adv-x="1744" d="M16 471v125h1710v-125h-1710z" />
<glyph unicode="&#x2018;" horiz-adv-x="585" d="M145 1161q0 99 58.5 186.5t150.5 153.5q41 -36 70 -69l-23 -23t-28 -30t-23 -28.5t-20 -33.5t-6 -31q0 -18 16 -36.5t35 -33.5t35 -43.5t16 -62.5q0 -52 -36 -87.5t-89 -35.5q-71 0 -113.5 51t-42.5 123z" />
<glyph unicode="&#x2019;" horiz-adv-x="585" d="M154 1378q0 52 37 87.5t90 35.5q71 0 112 -50.5t41 -123.5q0 -99 -58.5 -186.5t-150.5 -153.5q-33 29 -69 70q5 5 23 23.5t28 29.5t23 28t19.5 33t6.5 31q0 18 -16 36.5t-35 33.5t-35 43.5t-16 62.5z" />
<glyph unicode="&#x201a;" horiz-adv-x="565" d="M141 131q0 52 37 87.5t90 35.5q71 0 112.5 -51t41.5 -123q0 -99 -58.5 -186.5t-150.5 -153.5q-37 33 -70 70q5 6 23 23.5t28.5 29t23.5 28.5t19.5 33t6.5 31q0 18 -16 36.5t-35.5 33.5t-35.5 43.5t-16 62.5z" />
<glyph unicode="&#x201c;" horiz-adv-x="997" d="M145 1161q0 99 58.5 186.5t150.5 153.5q41 -36 70 -69l-23 -23t-28 -30t-23 -28.5t-20 -33.5t-6 -31q0 -18 16 -36.5t35 -33.5t35 -43.5t16 -62.5q0 -52 -36 -87.5t-89 -35.5q-71 0 -113.5 51t-42.5 123zM545 1161q0 99 58.5 186.5t150.5 153.5q37 -32 69 -69l-23 -23 t-28 -30t-23 -28.5t-20 -33.5t-6 -31q0 -18 16 -36.5t35 -33.5t35 -43.5t16 -62.5q0 -52 -36 -87.5t-89 -35.5q-71 0 -113 51t-42 123z" />
<glyph unicode="&#x201d;" horiz-adv-x="997" d="M162 1378q0 52 37 87.5t90 35.5q71 0 112 -50.5t41 -123.5q0 -99 -58.5 -186.5t-150.5 -153.5q-33 29 -69 70q5 5 23 23.5t28 29.5t23 28t19.5 33t6.5 31q0 18 -16 36.5t-35 33.5t-35 43.5t-16 62.5zM561 1378q0 52 37 87.5t90 35.5q71 0 112.5 -51t41.5 -123 q0 -99 -58.5 -186.5t-150.5 -153.5q-37 33 -70 70q5 6 23 23.5t28.5 29t23.5 28.5t19.5 33t6.5 31q0 18 -16 36.5t-35.5 33.5t-35.5 43.5t-16 62.5z" />
<glyph unicode="&#x201e;" horiz-adv-x="976" d="M154 131q0 52 37 87.5t90 35.5q71 0 112 -50.5t41 -123.5q0 -99 -58.5 -186.5t-150.5 -153.5q-33 29 -69 70q5 5 23 23.5t28 29.5t23 28t19.5 33t6.5 31q0 18 -16 36.5t-35 33.5t-35 43.5t-16 62.5zM541 131q0 52 37 87.5t90 35.5q71 0 112 -50.5t41 -123.5 q0 -99 -58.5 -186.5t-150.5 -153.5q-33 29 -69 70q5 5 23 23.5t28 29.5t23 28t19.5 33t6.5 31q0 18 -16 36.5t-35 33.5t-35 43.5t-16 62.5z" />
<glyph unicode="&#x2022;" horiz-adv-x="903" d="M123 731q0 137 96.5 233.5t233.5 96.5q136 0 231.5 -96.5t95.5 -233.5t-95.5 -233.5t-231.5 -96.5q-137 0 -233.5 96.5t-96.5 233.5z" />
<glyph unicode="&#x2026;" horiz-adv-x="1462" d="M168 109q0 57 39 96t96 39q55 0 95 -40t40 -95q0 -56 -40 -96t-95 -40t-95 40t-40 96zM600 109q0 57 39 96t96 39q55 0 95 -40t40 -95q0 -56 -40 -96t-95 -40t-95 40t-40 96zM1032 109q0 57 39 96t96 39q56 0 96 -40t40 -95t-40.5 -95.5t-95.5 -40.5t-95 40t-40 96z" />
<glyph unicode="&#x202f;" horiz-adv-x="380" />
<glyph unicode="&#x2039;" horiz-adv-x="610" d="M92 682l297 336l125 -25l-238 -311l242 -315l-121 -17z" />
<glyph unicode="&#x203a;" horiz-adv-x="673" d="M123 362l244 316l-238 311l125 25l295 -336l-303 -332z" />
<glyph unicode="&#x205f;" horiz-adv-x="475" />
<glyph unicode="&#x20ac;" horiz-adv-x="1073" d="M27 362l18 87h162q-4 25 -4 73q0 44 2 64h-129l18 86h123q41 176 174 282.5t338 106.5q107 0 217 -35l-31 -133q-78 41 -186 41q-138 0 -219 -71.5t-111 -190.5h467l-18 -86h-465q-2 -43 -2 -66q0 -25 4 -71h432l-18 -87h-396q33 -114 116.5 -182.5t217.5 -68.5 q102 0 181 39l45 -130q-107 -40 -230 -40q-206 0 -338.5 104t-173.5 278h-194z" />
<glyph unicode="&#x2122;" horiz-adv-x="1163" d="M100 1395v75h396v-75h-148v-383h-102v383h-146zM541 1010v460h135l112 -296l113 296h131v-460h-100v309q-44 -117 -111 -283l-10 -26h-61l-123 317v-317h-86z" />
<glyph unicode="&#x25fc;" horiz-adv-x="1013" d="M0 0v1014h1014v-1014h-1014z" />
</font>
</defs>
</svg>
