<?xml version="1.0" standalone="no"?>
<!DOCTYPE svg PUBLIC "-//W3C//DTD SVG 1.1//EN" "http://www.w3.org/Graphics/SVG/1.1/DTD/svg11.dtd" >
<svg xmlns="http://www.w3.org/2000/svg" xmlns:xlink="http://www.w3.org/1999/xlink" version="1.1">
<metadata></metadata>
<defs>
<font id="rosariobold" horiz-adv-x="1011" >
<font-face units-per-em="2048" ascent="1638" descent="-410" />
<missing-glyph horiz-adv-x="471" />
<glyph unicode="&#xfb01;" horiz-adv-x="1128" d="M6 854v141q33 0 59 6t44 14t32.5 23.5t22.5 29t15.5 35.5t11 37.5t9 41t9.5 39.5q44 178 146.5 272t287.5 94q85 0 156 -28t134 -96t103 -173l-231 -61q-10 85 -59.5 138.5t-104.5 53.5q-54 0 -93 -20.5t-62.5 -54t-37.5 -87.5t-19.5 -109.5t-6.5 -131.5h608v-1018h-246 v854h-362v-854h-248v854h-168z" />
<glyph unicode="&#xfb02;" horiz-adv-x="1159" d="M6 854v141q41 0 72 11.5t50.5 28t35.5 49.5t24.5 61t20.5 76q16 69 36 120.5t53.5 99t77.5 78t108.5 48.5t146.5 18q91 0 203 -59l198 69v-1595h-250v1262q0 63 -40.5 111t-114.5 48q-42 0 -75.5 -16.5t-54.5 -40.5t-36.5 -61.5t-23 -69.5t-12 -76t-5 -68.5t-0.5 -58.5 v-12h250l-47 -164h-203v-854h-246v854h-168z" />
<glyph horiz-adv-x="0" />
<glyph horiz-adv-x="682" />
<glyph unicode=" "  horiz-adv-x="471" />
<glyph unicode="&#x09;" horiz-adv-x="471" />
<glyph unicode="&#xa0;" horiz-adv-x="471" />
<glyph unicode="!" horiz-adv-x="673" d="M205 127q0 62 45 107t106 45q63 0 108.5 -44.5t45.5 -107.5t-45.5 -107.5t-108.5 -44.5q-62 0 -106.5 44.5t-44.5 107.5zM205 1423q0 31 22 46.5t56 15.5h145q35 0 57.5 -18t22.5 -54l-59 -964h-185z" />
<glyph unicode="&#x22;" horiz-adv-x="751" d="M129 1145v354h193v-354l-74 -225h-43q-2 7 -21 63t-37 108.5t-18 53.5zM430 1145v354h193v-354l-74 -225h-45z" />
<glyph unicode="#" horiz-adv-x="1310" d="M123 426v182h242l36 262h-225v183h250l59 446h183l-60 -446h193l59 446h182l-59 -446h209v-183h-234l-36 -262h217v-182h-242l-57 -426h-183l58 426h-193l-57 -426h-182l57 426h-217zM547 608h192l37 262h-192z" />
<glyph unicode="$" horiz-adv-x="880" d="M66 59l88 168q140 -82 231 -82q66 0 110 33.5t44 97.5q0 41 -25 71t-64.5 49t-87.5 36.5t-95.5 40t-87 52t-64.5 81t-25 119.5q0 74 31 134.5t83 98.5t116 60t135 26l20 234h148l-64 -238q138 -15 225 -59l-86 -172q-90 70 -202 70q-57 0 -98.5 -27.5t-41.5 -81.5 q0 -38 25 -65.5t64.5 -45.5t87 -35t95.5 -40.5t87.5 -55t64.5 -85.5t25 -126q0 -146 -102.5 -238t-251.5 -106l-21 -229h-149l65 231q-70 6 -145.5 28.5t-134.5 55.5z" />
<glyph unicode="%" horiz-adv-x="1767" d="M68 1042q0 89 21.5 163.5t64.5 132t113.5 90t162.5 32.5q86 0 152 -28h729l-709 -1457h-137l659 1346h-407q76 -113 76 -279q0 -119 -37.5 -211.5t-121 -150t-204.5 -57.5q-92 0 -162.5 32.5t-113.5 90.5t-64.5 132.5t-21.5 163.5zM291 1042q0 -258 139 -258t139 258 q0 256 -139 256t-139 -256zM999 412q0 184 91.5 300.5t271.5 116.5q122 0 205 -57t120 -148.5t37 -211.5q0 -89 -21.5 -163.5t-64.5 -132.5t-113.5 -91t-162.5 -33t-162.5 33t-114 91t-65 132.5t-21.5 163.5zM1223 412q0 -258 139 -258t139 258q0 256 -139 256t-139 -256z " />
<glyph unicode="&#x26;" horiz-adv-x="1390" d="M63 379q0 242 267 416q-111 154 -111 278q0 146 105.5 243t253.5 97q141 0 236 -74.5t95 -212.5q0 -54 -19.5 -104t-57 -92t-74 -73t-86.5 -66q38 -40 78 -86t91 -106t77 -89q65 140 65 270l160 -39q0 -186 -96 -376l12 -15q36 -40 50.5 -55.5t38.5 -36t35 -25t37.5 -11 t48.5 -7t66 -0.5h56v-215h-152q-102 0 -174.5 39t-157.5 123q-180 -187 -405 -187q-121 0 -220 47.5t-159 141t-60 215.5zM303 418q0 -95 64 -151t161 -56q126 0 238 94l-311 340q-152 -109 -152 -227zM434 1116q0 -52 28 -95.5t79 -94.5q31 20 53 36.5t47 41t38 53.5t13 61 q0 58 -33 94.5t-90 36.5q-55 0 -95 -39t-40 -94z" />
<glyph unicode="'" horiz-adv-x="462" d="M129 1145v354h193v-354l-74 -225h-43q-2 7 -21 63t-37 108.5t-18 53.5z" />
<glyph unicode="(" horiz-adv-x="626" d="M72 610q0 478 391 912l194 -33q-177 -212 -258.5 -416t-81.5 -463t81.5 -462.5t258.5 -413.5l-194 -33q-391 434 -391 909z" />
<glyph unicode=")" horiz-adv-x="626" d="M25 -266q177 210 258.5 413.5t81.5 462.5t-81.5 463t-258.5 416l194 33q391 -434 391 -912q0 -475 -391 -909z" />
<glyph unicode="*" horiz-adv-x="1044" d="M115 1130l61 220l287 -152l-60 320h228l-51 -320l274 160l84 -221l-324 -56l236 -217l-182 -141l-146 289l-145 -283l-176 131l227 227z" />
<glyph unicode="+" horiz-adv-x="1314" d="M137 418v180h420v420h180v-418h420v-180h-420v-420h-180v418h-420z" />
<glyph unicode="," horiz-adv-x="481" d="M68 141q0 59 41 101.5t100 42.5q76 0 121 -56.5t45 -134.5q0 -108 -62 -202.5t-161 -165.5q-55 55 -80 84q31 29 62.5 74.5t31.5 74.5q0 16 -15.5 34t-33.5 33.5t-33.5 46t-15.5 68.5z" />
<glyph unicode="-" horiz-adv-x="641" d="M100 430v195h453v-195h-453z" />
<glyph unicode="." horiz-adv-x="466" d="M59 133q0 66 46 113t112 47t112 -47t46 -113q0 -65 -46 -111.5t-112 -46.5t-112 46.5t-46 111.5z" />
<glyph unicode="/" horiz-adv-x="667" d="M-37 0l551 1499h193l-553 -1499h-191z" />
<glyph unicode="0" horiz-adv-x="1183" d="M59 510q0 257 138.5 395.5t394.5 138.5q255 0 393.5 -139.5t138.5 -394.5q0 -251 -141 -393t-391 -142t-391.5 142t-141.5 393zM328 510q0 -62 5.5 -110.5t22.5 -99t45 -84t76.5 -54.5t114.5 -21t115 21.5t76.5 54.5t44 83.5t21.5 99t5 110.5q0 369 -262 369 q-62 0 -109.5 -21.5t-76.5 -56.5t-47 -84.5t-24.5 -99t-6.5 -107.5z" />
<glyph unicode="1" horiz-adv-x="782" d="M31 846l354 174h160v-817h213v-203h-684v203h223v571l-223 -59z" />
<glyph unicode="2" horiz-adv-x="950" d="M59 0v111q85 90 246 272.5t199 224.5q67 71 67 140q0 53 -34.5 83.5t-87.5 30.5q-118 0 -259 -135l-122 131q210 191 450 191q89 0 166 -29t129.5 -94.5t52.5 -157.5q0 -129 -112 -244q-37 -39 -84 -84.5t-80 -76t-91.5 -83.5t-84.5 -77h534l-43 -203h-846z" />
<glyph unicode="3" horiz-adv-x="839" d="M-158 -262q70 2 138 11t146 26.5t142.5 49t118.5 75t84.5 108.5t30.5 144q0 151 -148 151q-65 0 -143 -29l-72 148q51 23 104 60.5t102 85.5t79.5 107t30.5 116q0 38 -19.5 62t-56.5 24q-49 0 -105 -30.5t-98 -70.5l-115 115q63 73 173 114.5t215 41.5q44 0 84 -6.5 t78 -23t66 -41t45 -62.5t17 -85q0 -57 -32.5 -116t-85.5 -107t-106.5 -84.5t-108.5 -64.5q40 4 63 4q142 0 230.5 -71t88.5 -210q0 -89 -30.5 -167.5t-83 -137t-124 -106.5t-151 -80t-167 -54t-170 -31.5t-160.5 -9.5h-31z" />
<glyph unicode="4" horiz-adv-x="1017" d="M4 -2v119l586 903h268v-817h219l-57 -205h-162v-375h-256v375h-598zM297 203h305v471z" />
<glyph unicode="5" horiz-adv-x="761" d="M-57 -297q69 20 130.5 46.5t123 67t105.5 88.5t71.5 113.5t27.5 139.5q0 65 -35 129.5t-91.5 115.5t-116.5 90t-121 66l209 461h567l-72 -248h-385l-45 -102q74 -41 136 -91t114 -112.5t81.5 -139t29.5 -159.5q0 -103 -41.5 -194t-109.5 -157t-158 -117t-184.5 -81 t-190.5 -43z" />
<glyph unicode="6" horiz-adv-x="1097" d="M49 500q0 147 49 281.5t136.5 243t196.5 195t241 156.5q156 85 289 119l57 -133q-198 -67 -376 -227t-267 -349q64 41 116 58.5t121 17.5q191 0 314 -119t123 -309q0 -130 -68 -236.5t-179.5 -164.5t-240.5 -58q-230 0 -371 147t-141 378zM326 475q0 -56 12.5 -111.5 t38.5 -106t72.5 -81.5t107.5 -31q72 0 122.5 43t71.5 103.5t21 130.5q0 110 -54 187t-159 77q-127 0 -225 -108q-8 -37 -8 -103z" />
<glyph unicode="7" horiz-adv-x="870" d="M-23 791l66 227h834v-129l-584 -1276h-279l553 1178h-590z" />
<glyph unicode="8" horiz-adv-x="944" d="M57 348q0 39 7 74.5t15 62t27.5 57t32 48t43 46.5t44.5 41.5t52 44.5t52 44l-25 22q-46 43 -68.5 65t-54 59.5t-45.5 69t-24.5 77t-10.5 98.5q0 81 35.5 147t94.5 108t131 64.5t149 22.5q168 0 278.5 -89.5t110.5 -252.5q0 -44 -10 -83.5t-21 -65.5t-39.5 -60t-43 -49 t-56 -52.5t-55.5 -51.5l33 -31q43 -40 63.5 -59.5t55 -56.5t51.5 -64.5t36 -66t27 -80.5t8 -89q0 -92 -38 -165t-102.5 -117.5t-144 -67.5t-167.5 -23q-86 0 -164 24t-140.5 69.5t-99.5 118t-37 161.5zM285 354q0 -93 54 -153t146 -60q89 0 139 59t50 150q0 33 -11.5 64 t-38.5 64t-44 51.5t-57 54t-48 43.5q-8 -7 -43.5 -36.5t-46.5 -40t-36.5 -38.5t-35 -47.5t-19 -49t-9.5 -61.5zM379 1161q0 -21 3.5 -40.5t15 -39t18 -31.5t26.5 -33t26 -27.5t31.5 -29.5t28.5 -26l9 8q34 28 52 44.5t40.5 44t32.5 57.5t10 67q0 76 -37.5 129t-110.5 53 q-69 0 -107 -51.5t-38 -124.5z" />
<glyph unicode="9" horiz-adv-x="1097" d="M51 588q0 130 67.5 236.5t179 164.5t241.5 58q228 0 369 -147t141 -378q0 -145 -53 -280.5t-142.5 -242t-208.5 -195t-250 -148.5t-268 -94l-55 133q206 70 383 213.5t268 327.5q-63 -40 -116 -58t-122 -18q-190 0 -312 118.5t-122 309.5zM326 600q0 -70 21.5 -128 t71.5 -97t122 -39q127 0 225 108q6 52 6 103q0 57 -12.5 112t-38 105.5t-72.5 81.5t-108 31q-72 0 -122.5 -43t-71.5 -103.5t-21 -130.5z" />
<glyph unicode=":" horiz-adv-x="677" d="M180 133q0 66 46.5 113t111.5 47q66 0 113 -47t47 -113q0 -65 -47 -111.5t-111 -46.5q-66 0 -113 46.5t-47 111.5zM180 725q0 65 47 111.5t111 46.5q66 0 113 -46.5t47 -111.5q0 -66 -46.5 -113t-111.5 -47q-66 0 -113 47t-47 113z" />
<glyph unicode=";" horiz-adv-x="684" d="M184 725q0 65 46 111.5t112 46.5t112 -46.5t46 -111.5q0 -66 -46 -113t-112 -47t-112 47t-46 113zM190 141q0 59 41.5 101.5t100.5 42.5q76 0 121 -56.5t45 -134.5q0 -108 -62.5 -202.5t-161.5 -165.5q-48 48 -79 84q31 29 62.5 74.5t31.5 74.5q0 16 -15.5 34t-34 33.5 t-34 46t-15.5 68.5z" />
<glyph unicode="&#x3c;" horiz-adv-x="1290" d="M135 457v106l1020 479v-184l-754 -348l754 -354v-181z" />
<glyph unicode="=" horiz-adv-x="1290" d="M137 223v180h1020v-180h-1020zM137 618v181h1020v-181h-1020z" />
<glyph unicode="&#x3e;" horiz-adv-x="1290" d="M135 -25v181l754 354l-754 348v184l1020 -479v-106z" />
<glyph unicode="?" horiz-adv-x="897" d="M41 1389q140 90 334 90q67 0 131 -14t122 -43.5t101.5 -71.5t69.5 -103t26 -133q0 -75 -24.5 -137t-70 -107.5t-97 -77.5t-119.5 -61q-17 -7 -22 -15.5t-5 -27.5v-244h-219v420q49 4 99 21t94 45t72 72.5t28 97.5q0 83 -63.5 131.5t-149.5 48.5q-108 0 -213 -72zM219 133 q0 66 46 113t112 47t112 -47t46 -113q0 -65 -46 -111.5t-112 -46.5t-112 46.5t-46 111.5z" />
<glyph unicode="@" horiz-adv-x="1703" d="M92 393q0 128 36.5 255t109.5 239.5t172 199t234 137t286 50.5q140 0 263.5 -43.5t216.5 -123t147.5 -201.5t54.5 -269q0 -98 -28 -192.5t-78.5 -170.5t-128 -123t-167.5 -47q-157 0 -221 115q-42 -55 -108 -86t-125 -31q-88 0 -149 47t-87 117t-26 156q0 60 17 125.5 t53 128.5t84.5 113t117.5 81t147 31q42 0 93 -19.5t84 -56.5l34 62h97q-78 -485 -78 -555q0 -57 18 -85t58 -28q77 0 138 62t92.5 157t31.5 199q0 122 -43.5 222.5t-119 166t-175.5 101.5t-213 36q-127 0 -241 -44t-197.5 -119.5t-145 -174t-92.5 -209.5t-31 -223 q0 -157 67.5 -284.5t189 -201t272.5 -73.5q83 0 172 25l30 -109q-95 -26 -202 -26q-189 0 -340.5 88t-235.5 240.5t-84 340.5zM680 422q0 -191 111 -191q37 0 68.5 20t54.5 59t40.5 81.5t31.5 103.5t22.5 108.5t17.5 111.5q-62 59 -125 59q-55 0 -100 -39t-70 -96.5 t-38 -114.5t-13 -102z" />
<glyph unicode="A" horiz-adv-x="1292" d="M4 0l531 1499h223l530 -1499h-303l-147 430h-443l-153 -430h-238zM465 631h305q-104 320 -156 512q-69 -255 -149 -512z" />
<glyph unicode="B" horiz-adv-x="1257" d="M109 1499h532q76 0 142 -9t131.5 -33t112 -62t75 -101t28.5 -145q0 -129 -88 -221t-217 -111q157 -26 266 -135.5t109 -265.5q0 -89 -31 -161t-82.5 -118.5t-121.5 -78t-145.5 -45t-157.5 -13.5h-525v1374q0 2 -6.5 30.5t-13.5 59.5t-8 35zM420 203h223q116 0 188 65.5 t72 180.5q0 129 -94 195.5t-229 66.5h-160v-508zM420 913h211q88 0 145.5 54.5t57.5 142.5q0 94 -56.5 140t-152.5 46h-205v-383z" />
<glyph unicode="C" horiz-adv-x="1277" d="M41 760q0 218 85 391t250 275t384 102q125 0 265 -37.5t220 -108.5l-147 -188q-55 62 -147.5 98.5t-180.5 36.5q-93 0 -166.5 -32.5t-121 -86t-79 -127.5t-44.5 -152t-13 -165q0 -78 15.5 -158.5t49.5 -160t82.5 -141t121.5 -100t159 -38.5q190 0 350 154l129 -195 q-129 -80 -240.5 -116t-254.5 -36q-174 0 -311.5 59t-225.5 164.5t-134 248t-46 313.5z" />
<glyph unicode="D" horiz-adv-x="1431" d="M104 1499h568q225 0 389 -95t248 -264t84 -392q0 -158 -53 -304t-158 -249q-195 -195 -512 -195h-533v1374q0 2 -15 60t-18 65zM420 203h237q112 0 198 44.5t136 121t74.5 170t24.5 200.5q0 108 -24.5 204t-74.5 177t-137 128.5t-201 47.5h-233v-1093z" />
<glyph unicode="E" horiz-adv-x="1124" d="M106 1499h943v-203h-631v-424h483v-202h-483v-467h631v-203h-912v1374z" />
<glyph unicode="F" horiz-adv-x="1044" d="M109 1499h878v-203h-565v-424h436v-202h-436v-670h-285v1374q0 2 -6.5 30.5t-13.5 59.5t-8 35z" />
<glyph unicode="G" horiz-adv-x="1447" d="M43 735q0 176 50.5 321.5t145 249t236.5 161t318 57.5q139 0 290 -40.5t236 -121.5l-150 -168q-108 79 -180.5 108t-195.5 29q-99 0 -177.5 -32t-129.5 -85.5t-84.5 -128.5t-47.5 -156.5t-14 -174.5q0 -79 14 -157.5t45.5 -155.5t78 -135.5t118 -95t158.5 -36.5 q146 0 234.5 85.5t88.5 232.5v126h-311l27 181h569q-4 -250 -4 -377q0 -248 10 -424h-145l-70 156q-102 -95 -204.5 -136t-241.5 -41q-162 0 -290.5 59.5t-209 163.5t-122.5 240t-42 295z" />
<glyph unicode="H" horiz-adv-x="1462" d="M109 1499h311v-627h629v627h282v-1499h-282v670h-629v-670h-283v1374q0 2 -6.5 30.5t-13.5 59.5t-8 35z" />
<glyph unicode="I" horiz-adv-x="548" d="M106 1499h312v-1499h-283v1374q0 2 -7 31t-14 59.5t-8 34.5z" />
<glyph unicode="J" horiz-adv-x="548" d="M-78 -268q42 5 74.5 19.5t55 34t38.5 48.5t25 56.5t14 65.5t6.5 68.5t1.5 71.5v1278q0 2 -6.5 30.5t-13.5 59.5t-8 35h311v-1298q0 -80 -4 -142.5t-16 -129t-32.5 -115.5t-55.5 -94.5t-82.5 -75.5t-114.5 -49t-152 -23z" />
<glyph unicode="K" horiz-adv-x="1193" d="M106 1499h312v-670l500 670h262l-488 -655l531 -844h-328l-477 760v-760h-283v1374q0 2 -7 31t-14 59.5t-8 34.5z" />
<glyph unicode="L" horiz-adv-x="1052" d="M109 1499h311v-1296h588v-203h-873v1374q0 2 -6 30.5t-12.5 60t-7.5 34.5z" />
<glyph unicode="M" horiz-adv-x="1716" d="M109 1499h393l319 -860q26 -68 60 -248q7 30 15.5 78.5t17.5 87.5t22 74l313 868h361v-1497h-277v1016q0 30 10 147q-40 -122 -49 -147l-366 -1018h-152l-377 1018q-9 24 -49 147q1 -18 5.5 -68.5t4.5 -78.5v-1016h-223v1372q0 2 -6.5 30.5t-13.5 59.5t-8 35z" />
<glyph unicode="N" horiz-adv-x="1462" d="M106 1497h336l590 -897q23 -34 84 -135q-1 16 -4.5 49t-5.5 59.5t-2 49.5v874h227v-1507h-221l-674 1028q-55 85 -86 137q1 -15 4.5 -43t5.5 -51t2 -43v-1018h-227v1372q0 2 -7 31t-14 59.5t-8 34.5z" />
<glyph unicode="O" horiz-adv-x="1509" d="M39 752q0 165 47 305t135.5 244t224.5 162.5t304 58.5q228 0 392.5 -100.5t246 -273.5t81.5 -400q0 -221 -84.5 -394.5t-250 -275t-387.5 -101.5q-168 0 -303.5 60t-223.5 165t-135 245.5t-47 304.5zM340 760q0 -85 12 -164.5t42 -158t76 -136t119.5 -93.5t166.5 -36 q91 0 163.5 34t118 89t75.5 130t42 152.5t12 161.5q0 85 -11.5 164t-41.5 157.5t-75.5 136.5t-119.5 94t-167 36q-91 0 -163.5 -34t-118 -89t-76 -130.5t-42.5 -152.5t-12 -161z" />
<glyph unicode="P" horiz-adv-x="1177" d="M104 1499h476q117 0 211.5 -23t171 -73.5t119 -139.5t42.5 -212q0 -91 -29.5 -166.5t-80 -127t-120 -87t-147.5 -52t-163 -16.5h-168v-602h-281v1374q0 3 -14 60.5t-17 64.5zM418 801h172q111 0 173 69t62 181q0 115 -59 180t-174 65h-174v-495z" />
<glyph unicode="Q" horiz-adv-x="1509" d="M39 745q0 123 27.5 236t85.5 212.5t141.5 172.5t202.5 115.5t260 42.5t260 -42.5t201.5 -116t140.5 -173t85 -212.5t27 -235q0 -102 -20.5 -198.5t-63 -188.5t-116 -171t-172.5 -132l24 -12q92 -45 153 -73.5t170.5 -75t193 -74t183 -49t177.5 -21.5q60 0 168 20.5 t211 51.5l47 -156q-202 -69 -286 -88.5t-224 -19.5q-73 0 -166 19t-174 44.5t-189.5 69t-178 74.5t-177 80.5t-151.5 68.5q-20 9 -43 17t-41 13.5t-46 12t-43 9.5t-46.5 9.5t-43.5 8.5q-152 32 -265.5 105t-180.5 175.5t-99 222t-32 258.5zM342 743q0 -110 23.5 -208 t71 -181t129.5 -131.5t190 -48.5q87 0 158 32.5t117.5 87t78.5 128.5t45.5 154.5t13.5 168.5q0 111 -23 211t-70 185t-129.5 135.5t-190.5 50.5q-87 0 -157.5 -34t-117.5 -90t-79 -132.5t-46 -158t-14 -169.5z" />
<glyph unicode="R" horiz-adv-x="1210" d="M104 1499h514q107 0 194.5 -21t159.5 -66.5t112 -127t40 -194.5q0 -127 -95.5 -237t-223.5 -142l459 -711h-320l-416 668h-112v-668h-281v1374q0 3 -14 60.5t-17 64.5zM416 868h131q132 0 206 51t74 173q0 97 -67 149.5t-168 52.5h-176v-426z" />
<glyph unicode="S" horiz-adv-x="1056" d="M8 94l96 228q73 -68 168 -109t191 -41q104 0 179 57.5t75 159.5q0 51 -22.5 92.5t-61 71.5t-88 57t-104 52t-109 52t-104 62.5t-88 78.5t-61 104.5t-22.5 136.5q0 142 70 239.5t188.5 143t278.5 45.5q92 0 212.5 -37t184.5 -86l-141 -176q-54 48 -131.5 75t-151.5 27 q-87 0 -149 -44.5t-62 -127.5q0 -49 22.5 -89t61 -69.5t88 -55.5t104 -51t109 -53t104 -65t88 -81.5t61 -108.5t22.5 -142q0 -110 -43 -199.5t-116 -146.5t-167.5 -88t-200.5 -31q-280 0 -481 119z" />
<glyph unicode="T" horiz-adv-x="1183" d="M27 1296v203h1130v-203h-422v-1296h-293v1296h-415z" />
<glyph unicode="U" horiz-adv-x="1447" d="M106 1499h322v-997q0 -150 90 -240t240 -90q152 0 240.5 88t88.5 242v997h232v-930q0 -126 -29.5 -226.5t-81.5 -168t-127 -112.5t-162 -65t-190 -20q-286 0 -438 153t-152 439v807z" />
<glyph unicode="V" horiz-adv-x="1234" d="M0 1497h299q13 -38 125 -362t168 -494q30 -90 59 -233q28 136 80 280l277 809h227l-518 -1501h-201z" />
<glyph unicode="W" horiz-adv-x="1830" d="M-29 1499h283q23 -83 75.5 -269t91 -326.5t71.5 -270.5q28 -120 47 -260q19 137 71 336l215 790h238q26 -93 77.5 -272.5t91 -323.5t71.5 -274q26 -109 43 -256q25 177 69 336l217 790h228l-416 -1503h-254q-22 81 -74.5 264.5t-90 321.5t-67.5 266q-29 123 -40 229 q-24 -174 -70 -338l-203 -743h-262z" />
<glyph unicode="X" horiz-adv-x="1198" d="M-25 0l469 760l-440 739h326l280 -469l291 469h264l-424 -692l482 -807h-328l-317 545l-338 -545h-265z" />
<glyph unicode="Y" horiz-adv-x="1196" d="M20 1499h304l299 -557l307 557h246l-445 -817v-682h-272v682z" />
<glyph unicode="Z" horiz-adv-x="1169" d="M27 0v168l718 1130h-669v201h1030v-149l-733 -1147h770l-25 -203h-1091z" />
<glyph unicode="[" horiz-adv-x="718" d="M190 -270v1769h447v-121h-203v-1528h203v-120h-447z" />
<glyph unicode="\" horiz-adv-x="667" d="M-37 1499h191l553 -1499h-193z" />
<glyph unicode="]" horiz-adv-x="716" d="M82 -150h203v1528h-203v121h446v-1769h-446v120z" />
<glyph unicode="^" horiz-adv-x="1265" d="M141 0l482 1020h106l481 -1020h-186l-348 754l-354 -754h-181z" />
<glyph unicode="_" horiz-adv-x="1021" d="M-8 -96h1040v-197h-1040v197z" />
<glyph unicode="`" horiz-adv-x="575" d="M8 1546h297l223 -338h-211z" />
<glyph unicode="a" d="M61 240q0 85 36 150.5t91 103.5t131.5 62t147.5 32t149 8v133q0 80 -34 111.5t-113 31.5q-108 0 -262 -118l-101 161q186 127 414 127q165 0 253.5 -83.5t88.5 -247.5v-445q0 -20 1 -32.5t5 -31.5t15 -28.5t28 -9.5q11 0 26 3t26 6t27.5 8t23.5 7l43 -149 q-15 -4 -71 -21.5t-94 -25.5t-73 -8q-62 0 -105 38t-57 99q-103 -144 -307 -144q-125 0 -207 70.5t-82 192.5zM317 264q0 -45 36.5 -71.5t82.5 -26.5q80 0 130 67t50 148v47q-35 0 -62.5 -1.5t-65.5 -6.5t-65.5 -16.5t-53 -28.5t-39 -45.5t-13.5 -65.5z" />
<glyph unicode="b" horiz-adv-x="1142" d="M111 1573h274v-496q0 -48 -2 -92.5t-2 -48.5q121 104 289 104q80 0 149 -31.5t117 -83.5t82 -120.5t50.5 -142.5t16.5 -148q0 -108 -32.5 -205t-92.5 -172t-152 -118.5t-204 -43.5q-187 0 -303 142l-43 -119h-127q8 90 8 135v1327q0 2 -12.5 54t-15.5 59zM385 420 q0 -54 11 -101.5t35 -88t66.5 -64t100.5 -23.5q62 0 107.5 36t68.5 94t33 115t10 114q0 56 -12.5 113.5t-38 112.5t-72.5 89.5t-108 34.5q-55 0 -108.5 -27.5t-92.5 -70.5v-334z" />
<glyph unicode="c" horiz-adv-x="921" d="M53 510q0 239 144.5 386.5t382.5 147.5q76 0 162 -27t147 -71l-123 -155q-54 40 -101.5 59.5t-107.5 19.5q-51 0 -92 -23.5t-66.5 -61t-43 -85.5t-24.5 -94.5t-7 -91.5q0 -67 14 -129t43 -117t82.5 -88t124.5 -33q59 0 106.5 25.5t106.5 75.5l104 -176 q-104 -52 -179 -74.5t-175 -22.5q-237 0 -367.5 147t-130.5 388z" />
<glyph unicode="d" horiz-adv-x="1142" d="M57 502q0 112 30.5 209t88.5 171.5t149.5 117t206.5 42.5q60 0 124.5 -16.5t103.5 -48.5q-2 55 -2 125v360l-31 111h277v-1282q0 -72 12.5 -154t38.5 -131l-248 -24q-18 51 -31 122q-41 -60 -122 -94.5t-160 -34.5q-85 0 -157 29.5t-123 80.5t-87 118.5t-53 143 t-17 155.5zM326 512q0 -60 12 -118t37.5 -113t74 -89t113.5 -34q55 0 109.5 30t85.5 76v334q0 54 -10 99.5t-32.5 85.5t-63.5 62.5t-97 22.5q-64 0 -111 -35t-71.5 -91t-35.5 -113.5t-11 -116.5z" />
<glyph unicode="e" d="M53 502q0 109 32 206.5t91 173.5t150.5 120.5t203.5 44.5q201 0 312.5 -121t111.5 -324q0 -59 -23 -91t-81 -32h-537q0 -82 27.5 -157t90 -128t147.5 -53q63 0 131.5 31t115.5 78l105 -164q-64 -53 -167.5 -81t-197.5 -28q-237 0 -374.5 143.5t-137.5 381.5zM319 641h345 q21 0 27.5 11t6.5 34q0 83 -42.5 138t-123.5 55q-82 0 -145 -76.5t-68 -161.5z" />
<glyph unicode="f" horiz-adv-x="589" d="M6 854v145q153 0 172 91q6 29 15.5 79.5t15 74t17.5 63t26.5 65t40 58.5t59.5 65q53 47 128.5 70.5t152.5 23.5q51 0 108.5 -12t94.5 -35l-66 -166q-63 45 -127 45q-43 0 -78 -13t-58 -33.5t-39.5 -52t-25.5 -62t-14 -71.5t-6.5 -71.5t-1.5 -70.5v-29h250l-47 -164h-203 v-856h-246v856h-168z" />
<glyph unicode="g" horiz-adv-x="976" d="M0 -215q0 87 51.5 157.5t128.5 104.5v8q-36 9 -65 51.5t-29 88.5q0 16 21 37t61.5 64.5t73.5 98.5q-87 48 -135 125.5t-48 175.5q0 103 53.5 185t141.5 125t192 43q44 0 114 -15.5t106 -15.5q102 0 364 22l-45 -170h-174q-9 0 -47 11q65 -83 65 -183q0 -104 -55 -186 t-144 -125t-194 -43q-38 0 -67 -26.5t-29 -65.5q0 -66 168 -66h94q51 0 87 -2t82.5 -9.5t78.5 -23t61 -40.5t43.5 -65t14.5 -93q0 -85 -34 -157t-89.5 -120t-129 -82t-151 -49.5t-155.5 -15.5q-54 0 -106 6t-109 23.5t-98.5 45t-69 74t-27.5 107.5zM250 -168q0 -45 32.5 -75 t73 -41t84.5 -11q54 0 101 8t93.5 28t73.5 60t27 97q0 35 -19 57t-54 31t-61.5 11.5t-63.5 2.5h-187q-42 -24 -71 -71.5t-29 -96.5zM315 690q0 -88 34.5 -145.5t94.5 -57.5t95.5 58t35.5 145q0 88 -35.5 146.5t-95.5 58.5t-94.5 -58.5t-34.5 -146.5z" />
<glyph unicode="h" horiz-adv-x="1120" d="M119 1575h268v-653q152 125 295 125q167 0 235 -93t68 -266v-688h-248v664q0 33 -2 56t-9.5 50t-20.5 43.5t-38 27.5t-59 11q-44 0 -115.5 -38t-105.5 -75v-739h-244v1464z" />
<glyph unicode="i" horiz-adv-x="514" d="M100 1389q0 64 46.5 109.5t111.5 45.5t110.5 -45.5t45.5 -109.5q0 -65 -46 -111.5t-110 -46.5t-111 46.5t-47 111.5zM111 1018h268v-1018h-246v907q0 1 -22 111z" />
<glyph unicode="j" horiz-adv-x="514" d="M-23 -346q32 17 57.5 42.5t41.5 50.5t27.5 62.5t17 64.5t8.5 71t3.5 68t0.5 69v827q0 2 -5.5 26.5t-11.5 52t-7 30.5h270v-883q0 -63 -3 -114.5t-12.5 -111.5t-25 -107.5t-42.5 -94t-63.5 -79t-90 -56t-119.5 -31.5zM98 1389q0 64 46.5 109.5t111.5 45.5t110.5 -45.5 t45.5 -109.5q0 -65 -46 -111.5t-110 -46.5t-111 46.5t-47 111.5z" />
<glyph unicode="k" horiz-adv-x="950" d="M113 1575h278v-977l316 420h239l-330 -430l390 -588h-277l-338 522v-522h-252v1464z" />
<glyph unicode="l" horiz-adv-x="514" d="M106 1575h273v-1575h-250v1464q0 2 -5 27t-11 53t-7 31z" />
<glyph unicode="m" horiz-adv-x="1697" d="M90 1010l258 30q25 -56 35 -131q78 68 149.5 101.5t163.5 33.5q191 0 254 -149q149 149 332 149q66 0 116 -17.5t82 -47.5t52.5 -75t28.5 -96t8 -114v-694h-246v680q0 84 -28 128t-107 44q-47 0 -105 -34.5t-100 -76.5v-741h-248v686q0 166 -129 166q-50 0 -108 -34 t-99 -79v-739h-245v729q0 71 -15.5 156.5t-48.5 124.5z" />
<glyph unicode="n" horiz-adv-x="1120" d="M88 1010l258 30q25 -56 35 -131q67 60 149 99t162 39q167 0 235 -93t68 -266v-688h-247v664q0 33 -2 56.5t-9.5 50t-21 43t-38.5 27.5t-59 11q-44 0 -115.5 -38t-105.5 -75v-739h-245v729q0 71 -15.5 156.5t-48.5 124.5z" />
<glyph unicode="o" horiz-adv-x="1097" d="M53 510q0 147 59.5 268t174 193.5t262.5 72.5q150 0 264 -72.5t172.5 -192.5t58.5 -269t-58.5 -269.5t-172.5 -193t-264 -72.5t-264.5 72.5t-173 193.5t-58.5 269zM324 508q0 -61 9.5 -119t32.5 -117.5t70 -96t113 -36.5q68 0 115.5 35t70 95t31 117t8.5 122t-8.5 122 t-31 117t-70 95t-115.5 35q-66 0 -113 -36.5t-70 -96t-32.5 -117.5t-9.5 -119z" />
<glyph unicode="p" horiz-adv-x="1138" d="M78 1010l256 30q22 -62 31 -122q42 59 124 94t158 35q106 0 191.5 -45t138 -120t80.5 -168t28 -194q0 -112 -31 -209t-89 -171.5t-150 -117t-207 -42.5q-58 0 -122.5 16.5t-104.5 48.5q4 -84 4 -119v-258q25 -102 29 -112h-277v1175q0 71 -14.5 152.5t-44.5 126.5z M385 424q0 -54 10 -99.5t32 -85.5t63 -62.5t98 -22.5q64 0 111 35t71.5 91t35.5 113.5t11 116.5q0 60 -12 118t-37.5 113t-74 89t-113.5 34q-55 0 -109.5 -30t-85.5 -76v-334z" />
<glyph unicode="q" horiz-adv-x="1138" d="M55 504q0 109 32.5 206t92 171t151.5 117.5t204 43.5q188 0 303 -139l43 115h127q-7 -79 -7 -131v-1219q0 -2 6.5 -27.5t13 -53t7.5 -31.5h-274v372q0 51 2 94t2 62q-126 -107 -289 -107q-80 0 -148.5 31.5t-116.5 84t-82.5 121t-50.5 142.5t-16 148zM322 500 q0 -56 12.5 -112.5t38 -110t72.5 -87.5t108 -34q55 0 109 28t92 72v344q0 43 -6.5 81.5t-22.5 75t-39.5 62.5t-60 42t-82.5 16q-51 0 -90.5 -24.5t-63.5 -62.5t-39.5 -89.5t-21.5 -100.5t-6 -100z" />
<glyph unicode="r" horiz-adv-x="714" d="M74 1018l260 20q46 -99 49 -215q54 91 146.5 153t191.5 62l-41 -243h-8q-90 0 -156.5 -50t-130.5 -139v-606h-246v743q0 71 -16 150.5t-49 124.5z" />
<glyph unicode="s" horiz-adv-x="880" d="M66 59l88 168q140 -82 231 -82q66 0 110 33.5t44 97.5q0 42 -25 72t-64.5 49t-87.5 36.5t-95.5 39.5t-87 52t-64.5 81t-25 119q0 78 34 140.5t90.5 100.5t125.5 58t143 20q75 0 157.5 -16t143.5 -47l-86 -172q-90 70 -202 70q-57 0 -98.5 -27.5t-41.5 -81.5 q0 -38 25 -65.5t64.5 -45.5t87 -35t95.5 -40.5t87.5 -55t64.5 -85.5t25 -126q0 -105 -58 -185.5t-147.5 -120.5t-193.5 -40q-82 0 -175 24t-165 64z" />
<glyph unicode="t" horiz-adv-x="669" d="M4 856v135q48 1 90.5 22t72.5 53t54 75.5t39 85.5t25 88h178q-41 -171 -41 -297h248l-49 -162h-199v-563q0 -137 86 -137q47 0 133 20l29 -153q-135 -43 -242 -43q-132 0 -194 62t-62 196v618h-168z" />
<glyph unicode="u" horiz-adv-x="1132" d="M113 1018h272v-645q0 -42 4.5 -73t17 -63.5t41 -50.5t70.5 -18q89 0 153 55.5t64 143.5v540q0 2 -5.5 27t-11.5 53t-7 31h274v-748q0 -106 51 -106q14 0 30 4t36.5 11t30.5 9l43 -149q-17 -5 -72.5 -22t-94 -25t-73.5 -8q-62 0 -105 38t-55 99q-68 -69 -155.5 -109.5 t-180.5 -40.5q-167 0 -236 93t-69 266v577z" />
<glyph unicode="v" horiz-adv-x="931" d="M-4 1018h264l186 -537q19 -54 43 -172q2 13 7 42t8 46t8.5 41t11.5 43l191 537h221l-361 -1026h-221z" />
<glyph unicode="w" horiz-adv-x="1347" d="M-25 1018h258l138 -461q6 -19 10 -39t7.5 -43t5.5 -38t5 -43t4 -40q2 15 7.5 63t11.5 78.5t16 61.5l148 461h227l137 -461q9 -31 14.5 -61.5t11 -76.5t7.5 -63q17 145 33 201l145 461h211l-323 -1026h-191q-16 55 -51 165.5t-55 177.5t-44 162t-38 177 q-14 -83 -38.5 -178.5t-46 -161.5t-58.5 -177t-54 -165h-194z" />
<glyph unicode="x" horiz-adv-x="913" d="M-29 0l357 535l-312 483h277l176 -273l178 273h244l-305 -457l356 -561h-274l-224 348l-231 -348h-242z" />
<glyph unicode="y" horiz-adv-x="933" d="M-4 1018h264q23 -65 64 -178t74.5 -208t60.5 -179q8 -27 16.5 -83.5t11.5 -70.5q20 125 29 154q26 85 58.5 177.5t75.5 211t63 176.5h225l-363 -1024q-157 -447 -444 -447h-76v174q24 -6 54 -6q45 0 83 19.5t63 46t48 69.5t35 74.5t27 77.5z" />
<glyph unicode="z" horiz-adv-x="911" d="M35 0v125l479 723h-428v170h762v-127l-486 -721h515l-29 -170h-813z" />
<glyph unicode="{" horiz-adv-x="714" d="M106 545v125q37 0 64 16t41 44t20.5 58t6.5 64v313q0 159 73 253.5t228 94.5h120v-127q-107 0 -143.5 -34.5t-36.5 -137.5v-340q0 -208 -112 -268q110 -58 110 -266v-340q0 -59 6.5 -91.5t29 -51.5t54 -24t92.5 -5v-129h-94q-325 0 -325 350v326q0 68 -34.5 119t-99.5 51 z" />
<glyph unicode="|" horiz-adv-x="481" d="M143 -238v1764h201v-1764h-201z" />
<glyph unicode="}" horiz-adv-x="714" d="M55 -174q119 0 150 30t31 144v340q0 206 112 266q-110 58 -110 268v340q0 102 -38.5 136t-144.5 34v129h121q105 0 173.5 -46.5t97 -122t28.5 -179.5v-313q0 -73 32 -126.5t101 -53.5v-125q-65 0 -98 -51t-33 -121v-326q0 -172 -79 -261t-248 -89h-95v127z" />
<glyph unicode="~" horiz-adv-x="1357" d="M158 500q41 92 123.5 158.5t175.5 66.5q61 0 129.5 -22.5t117.5 -49t103.5 -49t91.5 -22.5q98 0 182 149l129 -119q-55 -84 -140.5 -149.5t-170.5 -65.5q-55 0 -117.5 22.5t-109 49.5t-105.5 49.5t-110 22.5q-90 0 -166 -154z" />
<glyph unicode="&#xa1;" horiz-adv-x="673" d="M180 1104q0 63 45.5 107t108.5 44q62 0 106.5 -44.5t44.5 -106.5q0 -63 -44.5 -107.5t-106.5 -44.5q-63 0 -108.5 44.5t-45.5 107.5zM182 -182l60 964h182l61 -970q0 -33 -21 -49.5t-56 -16.5h-146q-34 0 -57 18t-23 54z" />
<glyph unicode="&#xa2;" horiz-adv-x="921" d="M53 510q0 222 125 367t344 165l19 232h151l-57 -234q63 -6 132.5 -31.5t121.5 -62.5l-123 -155q-54 40 -101.5 59.5t-107.5 19.5q-51 0 -92 -23.5t-66.5 -61t-43 -85.5t-24.5 -94.5t-7 -91.5q0 -67 14 -129t43 -117t82.5 -88t124.5 -33q59 0 106.5 25.5t106.5 75.5 l104 -176q-104 -56 -189 -76.5t-192 -20.5l-22 -237h-148l66 252q-125 28 -209 105t-121 181.5t-37 233.5z" />
<glyph unicode="&#xa3;" horiz-adv-x="1189" d="M70 0v205h190v495h-158v203h158v199q0 199 126 310.5t327 111.5q133 0 230 -59t171 -177l-201 -110q-34 66 -85 107.5t-117 41.5q-84 0 -129 -55t-45 -142v-227h266v-203h-266v-495h600v-205h-1067z" />
<glyph unicode="&#xa4;" horiz-adv-x="1097" d="M76 354l114 113q-51 97 -51 213t51 213l-114 117l141 141l107 -109q98 70 221 70t221 -70l108 109l142 -141l-117 -117q53 -101 53 -213q0 -113 -53 -211l117 -115l-142 -141l-106 104q-97 -69 -223 -69t-223 69l-105 -104zM334 680q0 -64 19.5 -115.5t51 -82t67.5 -46.5 t73 -16q86 0 149.5 67t63.5 197q0 108 -58 182t-153 74t-154 -73.5t-59 -186.5z" />
<glyph unicode="&#xa5;" horiz-adv-x="1028" d="M49 1018h299l193 -338l186 338h252l-209 -363h205v-100h-264l-66 -113v-10h330v-100h-330v-332h-248v332h-346v100h346v10l-69 113h-277v100h217z" />
<glyph unicode="&#xa6;" horiz-adv-x="487" d="M143 -238v723h201v-723h-201zM143 803v723h201v-723h-201z" />
<glyph unicode="&#xa7;" horiz-adv-x="1030" d="M59 731q0 173 162 275q-57 73 -57 184q0 71 24.5 127.5t66 94t99.5 62.5t122.5 35.5t137.5 10.5q98 0 196.5 -31t139.5 -66l-119 -178q-36 28 -99 53t-130 25q-79 0 -131.5 -30t-52.5 -85q0 -41 30.5 -73t79.5 -55.5t107.5 -47t117.5 -55t108 -72t79.5 -106.5t30.5 -150 q0 -173 -164 -274q59 -75 59 -185q0 -88 -36.5 -153.5t-100.5 -103t-142 -55t-171 -17.5q-98 0 -196.5 31t-139.5 65l119 178q36 -28 99 -53t130 -25q79 0 131.5 30t52.5 85q0 41 -30.5 73t-79.5 55.5t-107.5 47t-117.5 55t-108 72t-79.5 106.5t-30.5 150zM311 770 q0 -46 18 -82t57.5 -64.5t72.5 -45t95.5 -43t92.5 -41.5q36 22 54 54t18 62q0 39 -15 71.5t-37 54.5t-59.5 44.5t-68.5 36t-79.5 34.5t-78.5 36q-35 -23 -52.5 -55t-17.5 -62z" />
<glyph unicode="&#xa8;" horiz-adv-x="565" d="M4 1276q0 50 34 83.5t83 33.5t83 -33.5t34 -83.5t-34 -83.5t-83 -33.5t-83 33.5t-34 83.5zM332 1276q0 47 35 82t82 35q50 0 84 -34t34 -83t-34 -83t-84 -34q-47 0 -82 35t-35 82z" />
<glyph unicode="&#xa9;" horiz-adv-x="1300" d="M80 512q0 154 76 284.5t206.5 206.5t284.5 76q153 0 283.5 -76.5t207 -207t76.5 -283.5t-76.5 -283.5t-207 -207t-283.5 -76.5q-154 0 -284.5 76t-206.5 206.5t-76 284.5zM162 512q0 -132 65 -243.5t176.5 -176.5t243.5 -65t244 65t177 176.5t65 243.5t-65 243.5 t-177 176.5t-244 65t-243.5 -65t-176.5 -176.5t-65 -243.5zM330 512q0 156 94 253t248 97q51 0 109 -20t100 -51l-90 -115q-68 55 -134 55q-48 0 -81 -38t-44.5 -84.5t-11.5 -94.5q0 -55 13.5 -102t50.5 -83t94 -36q71 0 135 67l78 -131q-69 -35 -119 -50t-119 -15 q-154 0 -238.5 95.5t-84.5 252.5z" />
<glyph unicode="&#xaa;" horiz-adv-x="645" d="M-6 975q0 69 35 118t95 73t121.5 34t133.5 10v76q0 52 -27.5 73t-81.5 21q-82 0 -180 -77l-67 106q125 84 272 84q242 0 242 -219v-291q0 -70 43 -70q25 0 59 17l29 -99q-77 -36 -146 -36q-46 0 -76.5 25t-39.5 65q-91 -94 -209 -94q-90 0 -146.5 50.5t-56.5 133.5z M61 557v119h490v-119h-490zM162 991q0 -33 20.5 -54.5t57.5 -21.5q57 0 98 42t41 100v43q-217 0 -217 -109z" />
<glyph unicode="&#xab;" horiz-adv-x="954" d="M74 680l311 352l158 -28l-244 -324l250 -326l-156 -22zM418 680l311 352l160 -28l-246 -324l252 -326l-158 -22z" />
<glyph unicode="&#xac;" horiz-adv-x="1306" d="M143 547v170h1020v-555h-176v385h-844z" />
<glyph unicode="&#xad;" horiz-adv-x="641" d="M100 430v195h453v-195h-453z" />
<glyph unicode="&#xae;" horiz-adv-x="940" d="M43 1249q0 179 126 305.5t304 126.5q117 0 216.5 -58t157.5 -157.5t58 -216.5t-58 -216.5t-157.5 -157.5t-216.5 -58q-178 0 -304 126.5t-126 305.5zM115 1249q0 -149 105 -253.5t253 -104.5q150 0 255.5 104.5t105.5 253.5q0 148 -106 253.5t-255 105.5 q-148 0 -253 -105t-105 -254zM299 1018v481h190q170 0 170 -141q0 -41 -25 -73t-63 -48l152 -219h-145l-136 196h-20v-196h-123zM422 1311h39q76 0 76 51q0 41 -62 41h-53v-92z" />
<glyph unicode="&#xaf;" horiz-adv-x="561" d="M-23 1190v151h605v-151h-605z" />
<glyph unicode="&#xb0;" horiz-adv-x="794" d="M100 1214q0 123 87 210t210 87q124 0 211.5 -86.5t87.5 -210.5t-87 -210t-212 -86q-123 0 -210 86.5t-87 209.5zM238 1214q0 -68 45.5 -116.5t113.5 -48.5t115 48.5t47 116.5t-47.5 117t-114.5 49t-113 -49t-46 -117z" />
<glyph unicode="&#xb1;" horiz-adv-x="1294" d="M137 2v178h1020v-178h-1020zM137 545v174h420v299h180v-297h420v-174h-420v-301h-180v299h-420z" />
<glyph unicode="&#xb2;" horiz-adv-x="931" d="M88 897v104q10 8 28 22.5t69.5 59.5t98 90t103.5 107.5t98 118.5t69 117.5t28 109.5q0 58 -35.5 92.5t-93.5 34.5q-55 0 -118.5 -30t-99.5 -59l-36 -30l-90 135q6 6 18 16t51 35t81.5 44t107.5 35t131 16q159 0 242 -76.5t83 -191.5q0 -61 -22.5 -124.5t-58.5 -116.5 t-79 -102.5t-86.5 -87.5t-79.5 -66t-59 -43l-22 -15h442l-55 -195h-715z" />
<glyph unicode="&#xb3;" horiz-adv-x="931" d="M98 1012q241 12 370.5 77t129.5 166q0 40 -20 66t-56 37t-66 14.5t-69 3.5l-72 -4l-22 119q41 8 71.5 16.5t70.5 24.5t66 35t44 48.5t18 65.5q0 33 -29.5 52.5t-70.5 19.5q-66 0 -139.5 -30t-126.5 -72l-88 125q75 60 183 99.5t204 39.5q56 0 104 -9t91.5 -30t69 -60.5 t25.5 -93.5q0 -75 -46.5 -128.5t-127.5 -82.5q102 -18 160.5 -77t58.5 -160q0 -32 -7.5 -64t-28 -71t-53 -73.5t-87.5 -69t-126 -60t-174 -43.5t-226 -23z" />
<glyph unicode="&#xb4;" horiz-adv-x="575" d="M68 1208l223 338h297l-309 -338h-211z" />
<glyph unicode="&#xb5;" horiz-adv-x="1124" d="M115 1020h270v-637q0 -43 4.5 -75t17.5 -65.5t41.5 -52t71.5 -18.5q122 0 215 96v643q0 2 -5.5 26.5t-11.5 52t-7 30.5h272v-750q0 -106 51 -106q14 0 30.5 4t38 11t30.5 9l43 -149q-17 -5 -72.5 -22t-94 -25t-73.5 -8q-61 0 -103.5 37.5t-56.5 97.5q-49 -58 -117 -98.5 t-135 -40.5q-68 0 -133 30v-391h-254v1292q0 2 -5 26t-11 53t-6 30z" />
<glyph unicode="&#xb6;" horiz-adv-x="1024" d="M82 1065q0 200 126.5 302.5t330.5 102.5h393v-110h-115v-1340q0 -94 -66.5 -160.5t-160.5 -66.5q-11 0 -35 4q-30 -55 -83.5 -88t-117.5 -33q-94 0 -160.5 67t-66.5 161t66.5 160.5t160.5 66.5v-111q-47 0 -81.5 -34.5t-34.5 -81.5t34.5 -82t81.5 -35t81 35t34 82v776 q-161 0 -274 110.5t-113 274.5zM582 -96h8q47 0 82 34.5t35 81.5v1340h-125v-1456z" />
<glyph unicode="&#xb7;" horiz-adv-x="600" d="M145 526q0 64 45.5 110t108.5 46q64 0 110 -45.5t46 -108.5q0 -64 -45.5 -109.5t-108.5 -45.5q-64 0 -110 45t-46 108z" />
<glyph unicode="&#xb8;" horiz-adv-x="573" d="M51 -389l58 102q82 -45 137 -45q33 0 56.5 19.5t23.5 48.5q0 27 -18.5 43t-49.5 16h-96q-20 0 -29.5 10.5t-9.5 24.5q0 11 6 20l98 168h121l-65 -116h8q59 0 106.5 -13t83 -50.5t35.5 -96.5q0 -58 -25.5 -98t-69 -59.5t-87 -27.5t-94.5 -8q-84 0 -189 62z" />
<glyph unicode="&#xb9;" horiz-adv-x="931" d="M92 1751q189 57 367 141h174v-833h219v-162h-725v162h272v620l-256 -71z" />
<glyph unicode="&#xba;" horiz-adv-x="679" d="M8 1147q0 158 91 258t247 100t246 -100t90 -258q0 -157 -90.5 -256.5t-247.5 -99.5q-156 0 -246 99t-90 257zM98 557v119h490v-119h-490zM190 1147q0 -43 6.5 -82t22.5 -77.5t48.5 -61.5t78.5 -23t78 23t47.5 62t22 77.5t6.5 81.5t-6.5 81.5t-22.5 78t-48.5 63 t-78.5 23.5t-78 -23.5t-47.5 -63t-22 -78t-6.5 -81.5z" />
<glyph unicode="&#xbb;" horiz-adv-x="954" d="M74 354l252 326l-246 324l160 28l311 -352l-320 -348zM420 354l250 326l-244 324l158 28l311 -352l-320 -348z" />
<glyph unicode="&#xbc;" horiz-adv-x="2148" d="M92 1358q189 57 367 141h174v-833h219v-162h-725v162h272v620l-256 -72zM745 -55l637 1597h172l-639 -1597h-170zM1249 207v106l463 682h232v-626h147l-51 -162h-96v-207h-234v207h-461zM1485 369h225v239q0 18 4 64t8 82l4 37q-20 -64 -39 -104.5t-63 -106.5z" />
<glyph unicode="&#xbd;" horiz-adv-x="2246" d="M92 1358q189 57 367 141h174v-833h219v-162h-725v162h272v620l-256 -72zM745 -55l637 1597h172l-639 -1597h-170zM1405 0v106l18 17q63 57 106.5 97t119.5 118.5t124 138t85.5 128t37.5 116.5q0 54 -37 85.5t-92 31.5q-57 0 -127 -32.5t-124 -74.5l-91 141 q191 146 396 146q68 0 126 -15.5t105.5 -47t74.5 -86t27 -126.5q0 -74 -35 -152.5t-93.5 -147.5t-119.5 -124.5t-126 -101.5h393l-57 -217h-711z" />
<glyph unicode="&#xbe;" horiz-adv-x="2056" d="M98 618q240 12 370 77t130 167q0 40 -20 66t-56 37t-66 14.5t-69 3.5l-72 -4l-22 119q41 8 71.5 16.5t70.5 24.5t66 35t44 48.5t18 65.5q0 33 -29.5 52.5t-70.5 19.5q-65 0 -139 -30t-127 -73l-88 125q76 60 183.5 100t203.5 40q56 0 104 -9t91.5 -30t69 -60.5 t25.5 -93.5q0 -75 -46.5 -128.5t-127.5 -82.5q102 -18 160.5 -77t58.5 -160q0 -32 -7.5 -64t-28 -71t-53 -73.5t-87.5 -69t-126 -60t-174 -43.5t-226 -23zM653 -55l637 1597h172l-639 -1597h-170zM1157 207v106l463 682h231v-626h148l-51 -162h-97v-207h-233v207h-461z M1393 369h225v239q0 18 4 64t8 82l4 37q-20 -64 -39 -104.5t-63 -106.5z" />
<glyph unicode="&#xbf;" horiz-adv-x="882" d="M53 115q0 76 24 138.5t69 107.5t97.5 77t121.5 60q16 6 21 14.5t5 28.5v243h219v-419q-49 -4 -99 -21t-94 -45t-72 -72t-28 -96q0 -84 63 -133t150 -49q109 0 213 71l95 -180q-140 -90 -334 -90q-68 0 -132 14t-122 43.5t-102 71.5t-69.5 103t-25.5 133zM342 1096 q0 66 47 111.5t113 45.5q65 0 111 -45.5t46 -111.5t-46 -112t-111 -46q-66 0 -113 46t-47 112z" />
<glyph unicode="&#xc0;" horiz-adv-x="1292" d="M4 0l526 1393h228l530 -1393h-295l-145 389h-459l-147 -389h-238zM262 1806h299l223 -338h-213zM465 590h305q-62 186 -152 514q-62 -229 -153 -514z" />
<glyph unicode="&#xc1;" horiz-adv-x="1292" d="M4 0l526 1393h228l530 -1393h-295l-145 389h-459l-147 -389h-238zM465 590h305q-62 186 -152 514q-62 -229 -153 -514zM500 1468l223 336h299l-309 -336h-213z" />
<glyph unicode="&#xc2;" horiz-adv-x="1292" d="M4 0l526 1393h228l530 -1393h-295l-145 389h-459l-147 -389h-238zM342 1462l197 295h200l203 -297h-160l-143 152l-141 -150h-156zM465 590h305q-62 186 -152 514q-62 -229 -153 -514z" />
<glyph unicode="&#xc3;" horiz-adv-x="1292" d="M4 0l526 1393h228l530 -1393h-295l-145 389h-459l-147 -389h-238zM301 1481q0 102 58 170.5t159 68.5q49 0 99.5 -20.5t93 -41t73.5 -20.5t57.5 16.5t26.5 45.5h133q0 -102 -59 -171t-160 -69q-61 0 -146 41t-120 41q-31 0 -56.5 -15.5t-25.5 -45.5h-133zM465 590h305 q-62 186 -152 514q-62 -229 -153 -514z" />
<glyph unicode="&#xc4;" horiz-adv-x="1292" d="M4 0l526 1393h228l530 -1393h-295l-145 389h-459l-147 -389h-238zM367 1622q0 48 33.5 82.5t82.5 34.5t83 -34.5t34 -82.5q0 -50 -34 -83.5t-83 -33.5t-82.5 33.5t-33.5 83.5zM465 590h305q-62 186 -152 514q-62 -229 -153 -514zM694 1622q0 47 35 82t82 35 q50 0 84.5 -34t34.5 -83t-34.5 -83t-84.5 -34q-48 0 -82.5 34t-34.5 83z" />
<glyph unicode="&#xc5;" horiz-adv-x="1292" d="M4 0l514 1360q-44 31 -69 78t-25 100q0 91 63.5 152t153.5 61q92 0 156.5 -60.5t64.5 -150.5q0 -54 -24.5 -100.5t-67.5 -77.5l518 -1362h-295l-145 389h-459l-147 -389h-238zM465 590h305q-62 186 -152 514q-62 -229 -153 -514zM559 1540q0 -34 24 -59t58 -25t59 25 t25 59q0 32 -25 57t-59 25q-33 0 -57.5 -24.5t-24.5 -57.5z" />
<glyph unicode="&#xc6;" horiz-adv-x="1892" d="M-4 0l694 1372l-28 127h1155v-203h-629v-424h481v-202h-481v-467h629v-203h-912v430h-440l-219 -430h-250zM569 631h336v665z" />
<glyph unicode="&#xc7;" horiz-adv-x="1277" d="M41 760q0 218 85 391t250 275t384 102q125 0 265 -37.5t220 -108.5l-147 -188q-55 62 -147.5 98.5t-180.5 36.5q-93 0 -166.5 -32.5t-121 -86t-79 -127.5t-44.5 -152t-13 -165q0 -78 15.5 -158.5t49.5 -160t82.5 -141t121.5 -100t159 -38.5q190 0 350 154l129 -195 q-130 -81 -241 -116.5t-258 -35.5l-41 -73h8q40 0 77 -8t71.5 -25t55.5 -49.5t21 -77.5q0 -58 -25.5 -98t-69 -59.5t-87 -27.5t-94.5 -8q-84 0 -189 62l58 102q82 -45 137 -45q33 0 56.5 19.5t23.5 48.5q0 27 -18.5 43t-49.5 16h-96q-20 0 -29.5 10.5t-9.5 24.5q0 11 6 20 l78 134q-193 25 -329 132.5t-201.5 271.5t-65.5 372z" />
<glyph unicode="&#xc8;" horiz-adv-x="1124" d="M111 1380h940v-202h-629v-377h481v-203h-481v-395h629v-203h-912v1255q0 2 -6.5 30.5t-13.5 59.5t-8 35zM229 1804h297l224 -336h-211z" />
<glyph unicode="&#xc9;" horiz-adv-x="1124" d="M111 1380h940v-202h-629v-377h481v-203h-481v-395h629v-203h-912v1255q0 2 -6.5 30.5t-13.5 59.5t-8 35zM444 1468l224 336h299l-310 -336h-213z" />
<glyph unicode="&#xca;" horiz-adv-x="1124" d="M111 1380h940v-202h-629v-377h481v-203h-481v-395h629v-203h-912v1255q0 2 -6.5 30.5t-13.5 59.5t-8 35zM305 1468l197 297h200l203 -297h-160l-143 152l-141 -152h-156z" />
<glyph unicode="&#xcb;" horiz-adv-x="1124" d="M111 1380h940v-202h-629v-377h481v-203h-481v-395h629v-203h-912v1255q0 2 -6.5 30.5t-13.5 59.5t-8 35zM330 1622q0 48 33.5 82.5t82.5 34.5t83 -34.5t34 -82.5q0 -50 -33.5 -83.5t-83.5 -33.5q-49 0 -82.5 33.5t-33.5 83.5zM657 1622q0 48 34 82.5t83 34.5 q50 0 84.5 -34t34.5 -83t-34.5 -83t-84.5 -34t-83.5 33.5t-33.5 83.5z" />
<glyph unicode="&#xcc;" horiz-adv-x="534" d="M-102 1804h297l223 -336h-211zM109 1380h311v-1380h-283v1255q0 2 -6.5 30.5t-13.5 59.5t-8 35z" />
<glyph unicode="&#xcd;" horiz-adv-x="534" d="M94 1466l223 338h297l-309 -338h-211zM106 1380h312v-1380h-283v1255q0 2 -7 31t-14 59.5t-8 34.5z" />
<glyph unicode="&#xce;" horiz-adv-x="534" d="M-23 1462l197 295h201l203 -297h-160l-144 152l-141 -150h-156zM109 1380h311v-1380h-283v1255q0 2 -6.5 30.5t-13.5 59.5t-8 35z" />
<glyph unicode="&#xcf;" horiz-adv-x="534" d="M-6 1622q0 48 34 82.5t83 34.5t82.5 -34.5t33.5 -82.5q0 -50 -33.5 -83.5t-82.5 -33.5t-83 33.5t-34 83.5zM109 1380h311v-1380h-283v1255q0 2 -6.5 30.5t-13.5 59.5t-8 35zM322 1622q0 47 34.5 82t81.5 35q50 0 84.5 -34t34.5 -83t-34.5 -83t-84.5 -34q-48 0 -82 34 t-34 83z" />
<glyph unicode="&#xd0;" horiz-adv-x="1464" d="M-33 664v180h170v532q-2 5 -16.5 61.5t-16.5 61.5h568q225 0 389 -95t248 -264t84 -392q0 -158 -53 -304t-158 -249q-195 -195 -512 -195h-533v664h-170zM420 203h237q112 0 198 44.5t136 121t74.5 170t24.5 200.5q0 108 -24.5 204t-74.5 177t-137 128.5t-201 47.5h-233 v-452h307v-180h-307v-461z" />
<glyph unicode="&#xd1;" horiz-adv-x="1462" d="M145 1380h301l625 -827q18 -24 50 -77.5t34 -57.5q-1 16 -4.5 49t-5.5 59t-2 49v805h227v-1390h-205l-690 909q-18 24 -48.5 75t-37.5 62q1 -15 4.5 -43t5.5 -51t2 -43v-899h-227v1255q0 2 -7 31t-14 59.5t-8 34.5zM446 1481q0 102 58.5 170.5t159.5 68.5q61 0 146 -41 t120 -41q30 0 56 17t26 45h133q0 -102 -58 -171t-159 -69q-61 0 -146 41t-120 41q-31 0 -56.5 -15.5t-25.5 -45.5h-134z" />
<glyph unicode="&#xd2;" horiz-adv-x="1507" d="M39 688q0 321 196.5 517t518.5 196q323 0 519.5 -195.5t196.5 -517.5q0 -321 -196 -517t-518 -196q-323 0 -520 195.5t-197 517.5zM334 1804h297l223 -336h-211zM338 690q0 -81 14 -155t46.5 -141t79.5 -116t117.5 -77.5t156.5 -28.5q87 0 158 28.5t118.5 77.5 t79.5 115.5t46.5 140t14.5 154.5q0 83 -14.5 157t-46.5 141t-79 115t-117 76.5t-156 28.5q-87 0 -158 -28.5t-118.5 -77.5t-80 -115.5t-47 -140t-14.5 -154.5z" />
<glyph unicode="&#xd3;" horiz-adv-x="1507" d="M39 688q0 321 196.5 517t518.5 196q323 0 519.5 -195.5t196.5 -517.5q0 -321 -196 -517t-518 -196q-323 0 -520 195.5t-197 517.5zM338 690q0 -81 14 -155t46.5 -141t79.5 -116t117.5 -77.5t156.5 -28.5q87 0 158 28.5t118.5 77.5t79.5 115.5t46.5 140t14.5 154.5 q0 83 -14.5 157t-46.5 141t-79 115t-117 76.5t-156 28.5q-87 0 -158 -28.5t-118.5 -77.5t-80 -115.5t-47 -140t-14.5 -154.5zM647 1464l223 336h297l-309 -336h-211z" />
<glyph unicode="&#xd4;" horiz-adv-x="1507" d="M39 688q0 321 196.5 517t518.5 196q323 0 519.5 -195.5t196.5 -517.5q0 -321 -196 -517t-518 -196q-323 0 -520 195.5t-197 517.5zM338 690q0 -81 14 -155t46.5 -141t79.5 -116t117.5 -77.5t156.5 -28.5q87 0 158 28.5t118.5 77.5t79.5 115.5t46.5 140t14.5 154.5 q0 83 -14.5 157t-46.5 141t-79 115t-117 76.5t-156 28.5q-87 0 -158 -28.5t-118.5 -77.5t-80 -115.5t-47 -140t-14.5 -154.5zM451 1468l196 297h201l203 -297h-160l-143 152l-142 -152h-155z" />
<glyph unicode="&#xd5;" horiz-adv-x="1507" d="M39 688q0 321 196.5 517t518.5 196q323 0 519.5 -195.5t196.5 -517.5q0 -321 -196 -517t-518 -196q-323 0 -520 195.5t-197 517.5zM338 690q0 -81 14 -155t46.5 -141t79.5 -116t117.5 -77.5t156.5 -28.5q87 0 158 28.5t118.5 77.5t79.5 115.5t46.5 140t14.5 154.5 q0 83 -14.5 157t-46.5 141t-79 115t-117 76.5t-156 28.5q-87 0 -158 -28.5t-118.5 -77.5t-80 -115.5t-47 -140t-14.5 -154.5zM420 1481q0 102 59 170.5t160 68.5q61 0 146 -41t120 -41q30 0 56 17t26 45h133q0 -102 -58 -171t-159 -69q-49 0 -99.5 20.5t-93 41t-73.5 20.5 q-32 0 -58 -15.5t-26 -45.5h-133z" />
<glyph unicode="&#xd6;" horiz-adv-x="1507" d="M39 688q0 321 196.5 517t518.5 196q323 0 519.5 -195.5t196.5 -517.5q0 -321 -196 -517t-518 -196q-323 0 -520 195.5t-197 517.5zM338 690q0 -81 14 -155t46.5 -141t79.5 -116t117.5 -77.5t156.5 -28.5q87 0 158 28.5t118.5 77.5t79.5 115.5t46.5 140t14.5 154.5 q0 83 -14.5 157t-46.5 141t-79 115t-117 76.5t-156 28.5q-87 0 -158 -28.5t-118.5 -77.5t-80 -115.5t-47 -140t-14.5 -154.5zM465 1622q0 47 35 82t82 35q49 0 82.5 -34.5t33.5 -82.5q0 -50 -33.5 -83.5t-82.5 -33.5q-48 0 -82.5 34t-34.5 83zM793 1622q0 47 34.5 82 t81.5 35q50 0 84.5 -34t34.5 -83t-34.5 -83t-84.5 -34q-48 0 -82 34t-34 83z" />
<glyph unicode="&#xd7;" horiz-adv-x="1093" d="M123 213l297 295l-297 297l127 127l297 -295l297 295l127 -127l-297 -297l297 -295l-127 -127l-297 295l-297 -295z" />
<glyph unicode="&#xd8;" horiz-adv-x="1507" d="M39 752q0 165 47 305t135 244t223.5 162.5t303.5 58.5q205 0 366 -84l100 153l109 -67l-104 -158q129 -108 189 -270t60 -348q0 -165 -49.5 -306t-140.5 -244.5t-228.5 -162t-304.5 -58.5q-207 0 -370 95l-121 -187l-109 64l129 198q-123 108 -179 265.5t-56 339.5z M340 760q0 -235 82 -385l565 870q-98 82 -235 82q-91 0 -163.5 -34t-118 -89t-76 -130.5t-42.5 -152.5t-12 -161zM502 268q102 -96 252 -96q91 0 163.5 34t118 89t75.5 130t42 152.5t12 161.5q0 252 -92 404z" />
<glyph unicode="&#xd9;" horiz-adv-x="1447" d="M106 1380h322v-878q0 -150 90 -240t240 -90q152 0 240.5 88t88.5 242v878h232v-829q0 -151 -44 -263t-124.5 -179t-185.5 -99.5t-236 -32.5q-286 0 -438 153t-152 439v688zM362 1804h297l224 -338h-211z" />
<glyph unicode="&#xda;" horiz-adv-x="1447" d="M106 1380h322v-878q0 -150 90 -240t240 -90q152 0 240.5 88t88.5 242v878h232v-829q0 -151 -44 -263t-124.5 -179t-185.5 -99.5t-236 -32.5q-286 0 -438 153t-152 439v688zM657 1466l224 338h299l-310 -338h-213z" />
<glyph unicode="&#xdb;" horiz-adv-x="1447" d="M106 1380h322v-878q0 -150 90 -240t240 -90q152 0 240.5 88t88.5 242v878h232v-829q0 -151 -44 -263t-124.5 -179t-185.5 -99.5t-236 -32.5q-286 0 -438 153t-152 439v688zM459 1470l196 297h201l203 -297h-160l-143 152l-142 -152h-155z" />
<glyph unicode="&#xdc;" horiz-adv-x="1447" d="M106 1380h322v-878q0 -150 90 -240t240 -90q152 0 240.5 88t88.5 242v878h232v-829q0 -151 -44 -263t-124.5 -179t-185.5 -99.5t-236 -32.5q-286 0 -438 153t-152 439v688zM477 1622q0 48 34 82.5t83 34.5t83 -34.5t34 -82.5q0 -50 -33.5 -83.5t-83.5 -33.5t-83.5 33.5 t-33.5 83.5zM805 1622q0 47 35 82t82 35q50 0 84 -34t34 -83t-34 -83t-84 -34q-48 0 -82.5 34t-34.5 83z" />
<glyph unicode="&#xdd;" horiz-adv-x="1196" d="M20 1380h304l299 -559l307 559h246l-445 -819v-561h-272v561zM528 1466l224 338h297l-310 -338h-211z" />
<glyph unicode="&#xde;" horiz-adv-x="1177" d="M109 1499h311v-235h160q117 0 211.5 -23.5t171 -74t119 -139.5t42.5 -212q0 -113 -44.5 -201t-121.5 -141t-171.5 -79.5t-202.5 -26.5h-168v-367h-281v1374q0 2 -6 30.5t-12.5 60t-7.5 34.5zM418 565h172q111 0 173 69t62 181q0 115 -59.5 180.5t-173.5 65.5h-174v-496z " />
<glyph unicode="&#xdf;" horiz-adv-x="1208" d="M0 852v176q151 0 168 76q22 98 57 171.5t88.5 131.5t132.5 88.5t181 30.5q85 0 158.5 -20.5t133 -61.5t94 -109.5t34.5 -156.5q0 -63 -20.5 -112.5t-51.5 -77t-67.5 -50.5t-67.5 -36.5t-51.5 -31.5t-20.5 -39q0 -20 30 -38.5t74.5 -34t97 -44.5t97 -66.5t74.5 -105.5 t30 -155q0 -187 -127 -298.5t-317 -111.5q-132 0 -266 62l80 158q99 -35 161 -35q73 0 134 57t61 129q0 75 -23.5 122.5t-85.5 82.5q-19 10 -65 30.5t-82 38.5t-74.5 42.5t-60 55.5t-21.5 66q0 49 21.5 86.5t53 59.5t69 47.5t69 49t53 65t21.5 94.5q0 56 -43.5 97.5 t-99.5 41.5t-98 -25.5t-65 -63.5t-37.5 -91.5t-18.5 -98.5t-4 -96v-952h-252v852h-154z" />
<glyph unicode="&#xe0;" d="M61 240q0 85 36 150.5t91 103.5t131.5 62t147.5 32t149 8v133q0 80 -34 111.5t-113 31.5q-108 0 -262 -118l-101 161q186 127 414 127q165 0 253.5 -83.5t88.5 -247.5v-445q0 -20 1 -32.5t5 -31.5t15 -28.5t28 -9.5q11 0 26 3t26 6t27.5 8t23.5 7l43 -149 q-15 -4 -71 -21.5t-94 -25.5t-73 -8q-62 0 -105 38t-57 99q-103 -144 -307 -144q-125 0 -207 70.5t-82 192.5zM115 1546h297l223 -338h-211zM317 264q0 -45 36.5 -71.5t82.5 -26.5q80 0 130 67t50 148v47q-35 0 -62.5 -1.5t-65.5 -6.5t-65.5 -16.5t-53 -28.5t-39 -45.5 t-13.5 -65.5z" />
<glyph unicode="&#xe1;" d="M61 240q0 85 36 150.5t91 103.5t131.5 62t147.5 32t149 8v133q0 80 -34 111.5t-113 31.5q-108 0 -262 -118l-101 161q186 127 414 127q165 0 253.5 -83.5t88.5 -247.5v-445q0 -20 1 -32.5t5 -31.5t15 -28.5t28 -9.5q11 0 26 3t26 6t27.5 8t23.5 7l43 -149 q-15 -4 -71 -21.5t-94 -25.5t-73 -8q-62 0 -105 38t-57 99q-103 -144 -307 -144q-125 0 -207 70.5t-82 192.5zM317 264q0 -45 36.5 -71.5t82.5 -26.5q80 0 130 67t50 148v47q-35 0 -62.5 -1.5t-65.5 -6.5t-65.5 -16.5t-53 -28.5t-39 -45.5t-13.5 -65.5zM414 1208l223 338 h297l-309 -338h-211z" />
<glyph unicode="&#xe2;" d="M61 240q0 85 36 150.5t91 103.5t131.5 62t147.5 32t149 8v133q0 80 -34 111.5t-113 31.5q-108 0 -262 -118l-101 161q186 127 414 127q165 0 253.5 -83.5t88.5 -247.5v-445q0 -20 1 -32.5t5 -31.5t15 -28.5t28 -9.5q11 0 26 3t26 6t27.5 8t23.5 7l43 -149 q-15 -4 -71 -21.5t-94 -25.5t-73 -8q-62 0 -105 38t-57 99q-103 -144 -307 -144q-125 0 -207 70.5t-82 192.5zM219 1204l197 297h200l203 -297h-160l-143 152l-141 -152h-156zM317 264q0 -45 36.5 -71.5t82.5 -26.5q80 0 130 67t50 148v47q-35 0 -62.5 -1.5t-65.5 -6.5 t-65.5 -16.5t-53 -28.5t-39 -45.5t-13.5 -65.5z" />
<glyph unicode="&#xe3;" d="M61 240q0 85 36 150.5t91 103.5t131.5 62t147.5 32t149 8v133q0 80 -34 111.5t-113 31.5q-108 0 -262 -118l-101 161q186 127 414 127q165 0 253.5 -83.5t88.5 -247.5v-445q0 -20 1 -32.5t5 -31.5t15 -28.5t28 -9.5q11 0 26 3t26 6t27.5 8t23.5 7l43 -149 q-15 -4 -71 -21.5t-94 -25.5t-73 -8q-62 0 -105 38t-57 99q-103 -144 -307 -144q-125 0 -207 70.5t-82 192.5zM170 1178q0 102 58 170.5t159 68.5q61 0 146 -41t120 -41q30 0 56.5 17t27.5 45h131q0 -102 -58 -171t-159 -69q-61 0 -146 41t-120 41q-30 0 -56 -16.5 t-26 -44.5h-133zM317 264q0 -45 36.5 -71.5t82.5 -26.5q80 0 130 67t50 148v47q-35 0 -62.5 -1.5t-65.5 -6.5t-65.5 -16.5t-53 -28.5t-39 -45.5t-13.5 -65.5z" />
<glyph unicode="&#xe4;" d="M61 240q0 85 36 150.5t91 103.5t131.5 62t147.5 32t149 8v133q0 80 -34 111.5t-113 31.5q-108 0 -262 -118l-101 161q186 127 414 127q165 0 253.5 -83.5t88.5 -247.5v-445q0 -20 1 -32.5t5 -31.5t15 -28.5t28 -9.5q11 0 26 3t26 6t27.5 8t23.5 7l43 -149 q-15 -4 -71 -21.5t-94 -25.5t-73 -8q-62 0 -105 38t-57 99q-103 -144 -307 -144q-125 0 -207 70.5t-82 192.5zM227 1290q0 50 33.5 83.5t83.5 33.5t83.5 -33.5t33.5 -83.5q0 -49 -33.5 -82.5t-83.5 -33.5t-83.5 33.5t-33.5 82.5zM317 264q0 -45 36.5 -71.5t82.5 -26.5 q80 0 130 67t50 148v47q-35 0 -62.5 -1.5t-65.5 -6.5t-65.5 -16.5t-53 -28.5t-39 -45.5t-13.5 -65.5zM555 1290q0 47 35 82t82 35q50 0 84.5 -34t34.5 -83t-34.5 -82.5t-84.5 -33.5q-47 0 -82 34.5t-35 81.5z" />
<glyph unicode="&#xe5;" d="M61 240q0 85 36 150.5t91 103.5t131.5 62t147.5 32t149 8v133q0 80 -34 111.5t-113 31.5q-108 0 -262 -118l-101 161q186 127 414 127q165 0 253.5 -83.5t88.5 -247.5v-445q0 -20 1 -32.5t5 -31.5t15 -28.5t28 -9.5q11 0 26 3t26 6t27.5 8t23.5 7l43 -149 q-15 -4 -71 -21.5t-94 -25.5t-73 -8q-62 0 -105 38t-57 99q-103 -144 -307 -144q-125 0 -207 70.5t-82 192.5zM293 1348q0 90 64.5 154.5t154.5 64.5q91 0 156 -65t65 -154q0 -91 -65 -155.5t-156 -64.5t-155 64.5t-64 155.5zM317 264q0 -45 36.5 -71.5t82.5 -26.5 q80 0 130 67t50 148v47q-35 0 -62.5 -1.5t-65.5 -6.5t-65.5 -16.5t-53 -28.5t-39 -45.5t-13.5 -65.5zM428 1346q0 -35 23.5 -58.5t58.5 -23.5t59.5 23.5t24.5 58.5t-24.5 59.5t-59.5 24.5t-58.5 -24.5t-23.5 -59.5z" />
<glyph unicode="&#xe6;" horiz-adv-x="1536" d="M57 254q0 72 24 130.5t67 97t96 66.5t118 42.5t125 21t125 6.5v111q0 80 -34 111.5t-113 31.5q-108 0 -262 -118l-101 161q186 127 414 127q189 0 272 -108q50 54 131.5 83.5t161.5 29.5q105 0 186.5 -35t133 -97.5t78 -147.5t26.5 -187q0 -60 -23 -91.5t-81 -31.5h-537 q0 -124 72.5 -220t191.5 -96q63 0 132 31t116 78l105 -164q-63 -52 -167.5 -80.5t-197.5 -28.5q-271 0 -399 173q-119 -173 -371 -173q-122 0 -205.5 78t-83.5 199zM313 274q0 -53 33 -80.5t88 -27.5q46 0 80.5 19.5t52.5 47.5t28.5 70t13.5 76.5t3 77.5q-39 0 -76.5 -4 t-79 -16.5t-72.5 -32t-51 -53t-20 -77.5zM870 618h344q15 0 22.5 6.5t9 15t1.5 24.5q0 213 -162 213q-61 0 -112 -40.5t-77 -99.5t-26 -119z" />
<glyph unicode="&#xe7;" horiz-adv-x="921" d="M53 510q0 239 144.5 386.5t382.5 147.5q76 0 162 -27t147 -71l-123 -155q-54 40 -101.5 59.5t-107.5 19.5q-51 0 -92 -23.5t-66.5 -61t-43 -85.5t-24.5 -94.5t-7 -91.5q0 -67 14 -129t43 -117t82.5 -88t124.5 -33q59 0 106.5 25.5t106.5 75.5l104 -176 q-104 -52 -179 -74.5t-177 -22.5l-41 -73h8q40 0 77 -8t71.5 -25t55.5 -49.5t21 -77.5q0 -58 -25.5 -98t-69 -59.5t-87 -27.5t-94.5 -8q-84 0 -189 62l58 102q82 -45 137 -45q33 0 56.5 19.5t23.5 48.5q0 27 -18.5 43t-49.5 16h-96q-20 0 -29.5 10.5t-9.5 24.5q0 11 6 20 l80 136q-184 35 -282.5 174.5t-98.5 349.5z" />
<glyph unicode="&#xe8;" d="M53 502q0 109 32 206.5t91 173.5t150.5 120.5t203.5 44.5q201 0 312.5 -121t111.5 -324q0 -59 -23 -91t-81 -32h-537q0 -82 27.5 -157t90 -128t147.5 -53q63 0 131.5 31t115.5 78l105 -164q-64 -53 -167.5 -81t-197.5 -28q-237 0 -374.5 143.5t-137.5 381.5zM133 1546 h299l223 -338h-213zM319 641h345q21 0 27.5 11t6.5 34q0 83 -42.5 138t-123.5 55q-82 0 -145 -76.5t-68 -161.5z" />
<glyph unicode="&#xe9;" d="M53 502q0 109 32 206.5t91 173.5t150.5 120.5t203.5 44.5q201 0 312.5 -121t111.5 -324q0 -59 -23 -91t-81 -32h-537q0 -82 27.5 -157t90 -128t147.5 -53q63 0 131.5 31t115.5 78l105 -164q-64 -53 -167.5 -81t-197.5 -28q-237 0 -374.5 143.5t-137.5 381.5zM319 641h345 q21 0 27.5 11t6.5 34q0 83 -42.5 138t-123.5 55q-82 0 -145 -76.5t-68 -161.5zM449 1208l223 338h297l-310 -338h-210z" />
<glyph unicode="&#xea;" d="M53 502q0 109 32 206.5t91 173.5t150.5 120.5t203.5 44.5q201 0 312.5 -121t111.5 -324q0 -59 -23 -91t-81 -32h-537q0 -82 27.5 -157t90 -128t147.5 -53q63 0 131.5 31t115.5 78l105 -164q-64 -53 -167.5 -81t-197.5 -28q-237 0 -374.5 143.5t-137.5 381.5zM258 1206 l197 295h200l203 -297h-160l-143 152l-141 -150h-156zM319 641h345q21 0 27.5 11t6.5 34q0 83 -42.5 138t-123.5 55q-82 0 -145 -76.5t-68 -161.5z" />
<glyph unicode="&#xeb;" d="M53 502q0 109 32 206.5t91 173.5t150.5 120.5t203.5 44.5q201 0 312.5 -121t111.5 -324q0 -59 -23 -91t-81 -32h-537q0 -82 27.5 -157t90 -128t147.5 -53q63 0 131.5 31t115.5 78l105 -164q-64 -53 -167.5 -81t-197.5 -28q-237 0 -374.5 143.5t-137.5 381.5zM262 1288 q0 49 34.5 83t82.5 34q49 0 83 -33.5t34 -83.5t-34 -83.5t-83 -33.5q-48 0 -82.5 34t-34.5 83zM319 641h345q21 0 27.5 11t6.5 34q0 83 -42.5 138t-123.5 55q-82 0 -145 -76.5t-68 -161.5zM590 1288q0 47 35 82t82 35q50 0 84 -34t34 -83t-34 -83t-84 -34q-47 0 -82 35 t-35 82z" />
<glyph unicode="&#xec;" horiz-adv-x="514" d="M-139 1546h297l223 -338h-211zM113 1018h268v-1018h-246v907q0 1 -22 111z" />
<glyph unicode="&#xed;" horiz-adv-x="514" d="M111 1018h268v-1018h-246v907q0 1 -22 111zM113 1208l223 338h297l-309 -338h-211z" />
<glyph unicode="&#xee;" horiz-adv-x="514" d="M-45 1204l197 297h200l203 -297h-160l-143 152l-141 -152h-156zM111 1018h268v-1018h-246v907q0 1 -22 111z" />
<glyph unicode="&#xef;" horiz-adv-x="514" d="M-25 1290q0 50 33.5 83.5t83.5 33.5t83.5 -33.5t33.5 -83.5q0 -49 -33.5 -82.5t-83.5 -33.5t-83.5 33.5t-33.5 82.5zM111 1018h268v-1018h-246v907q0 1 -22 111zM303 1290q0 47 35 82t82 35q50 0 84.5 -34t34.5 -83t-34.5 -82.5t-84.5 -33.5q-47 0 -82 34.5t-35 81.5z " />
<glyph unicode="&#xf0;" horiz-adv-x="1097" d="M53 510q0 147 59.5 268t174 193.5t262.5 72.5q25 0 65 -4q-74 132 -147 228l-191 -105l-92 119l189 104q-37 41 -107 111l180 107q35 -33 115 -113l205 113l82 -123l-186 -105q77 -93 141 -188.5t120.5 -207.5t88.5 -233t32 -237q0 -148 -58.5 -268.5t-172.5 -192.5 t-264 -72t-264.5 72t-173 192.5t-58.5 268.5zM324 508q0 -48 5.5 -93t20.5 -95.5t39 -87t65.5 -61t94.5 -24.5q68 0 115.5 34t70 92t31 114t8.5 121t-8.5 122t-31 117t-70 95t-115.5 35q-66 0 -113 -36.5t-70 -96t-32.5 -117.5t-9.5 -119z" />
<glyph unicode="&#xf1;" horiz-adv-x="1120" d="M88 1010l258 30q25 -56 35 -131q67 60 149 99t162 39q167 0 235 -93t68 -266v-688h-247v664q0 33 -2 56.5t-9.5 50t-21 43t-38.5 27.5t-59 11q-44 0 -115.5 -38t-105.5 -75v-739h-245v729q0 71 -15.5 156.5t-48.5 124.5zM250 1190q0 102 58 171t159 69q61 0 146 -41 t120 -41q30 0 56.5 16.5t27.5 44.5h131q0 -102 -58 -171t-159 -69q-61 0 -146 41t-120 41q-30 0 -56 -16.5t-26 -44.5h-133z" />
<glyph unicode="&#xf2;" horiz-adv-x="1097" d="M53 510q0 147 59.5 268t174 193.5t262.5 72.5q150 0 264 -72.5t172.5 -192.5t58.5 -269t-58.5 -269.5t-172.5 -193t-264 -72.5t-264.5 72.5t-173 193.5t-58.5 269zM145 1546h297l224 -338h-211zM324 508q0 -61 9.5 -119t32.5 -117.5t70 -96t113 -36.5q68 0 115.5 35 t70 95t31 117t8.5 122t-8.5 122t-31 117t-70 95t-115.5 35q-66 0 -113 -36.5t-70 -96t-32.5 -117.5t-9.5 -119z" />
<glyph unicode="&#xf3;" horiz-adv-x="1097" d="M53 510q0 147 59.5 268t174 193.5t262.5 72.5q150 0 264 -72.5t172.5 -192.5t58.5 -269t-58.5 -269.5t-172.5 -193t-264 -72.5t-264.5 72.5t-173 193.5t-58.5 269zM324 508q0 -61 9.5 -119t32.5 -117.5t70 -96t113 -36.5q68 0 115.5 35t70 95t31 117t8.5 122t-8.5 122 t-31 117t-70 95t-115.5 35q-66 0 -113 -36.5t-70 -96t-32.5 -117.5t-9.5 -119zM451 1208l223 338h297l-309 -338h-211z" />
<glyph unicode="&#xf4;" horiz-adv-x="1097" d="M53 510q0 147 59.5 268t174 193.5t262.5 72.5q150 0 264 -72.5t172.5 -192.5t58.5 -269t-58.5 -269.5t-172.5 -193t-264 -72.5t-264.5 72.5t-173 193.5t-58.5 269zM246 1206l196 295h201l203 -297h-160l-143 152l-142 -150h-155zM324 508q0 -61 9.5 -119t32.5 -117.5 t70 -96t113 -36.5q68 0 115.5 35t70 95t31 117t8.5 122t-8.5 122t-31 117t-70 95t-115.5 35q-66 0 -113 -36.5t-70 -96t-32.5 -117.5t-9.5 -119z" />
<glyph unicode="&#xf5;" horiz-adv-x="1097" d="M53 510q0 147 59.5 268t174 193.5t262.5 72.5q150 0 264 -72.5t172.5 -192.5t58.5 -269t-58.5 -269.5t-172.5 -193t-264 -72.5t-264.5 72.5t-173 193.5t-58.5 269zM217 1178q0 102 58 170.5t159 68.5q61 0 146 -41t120 -41q30 0 56.5 17t27.5 45h131q0 -102 -58 -171 t-159 -69q-61 0 -146 41t-120 41q-30 0 -56 -16.5t-26 -44.5h-133zM324 508q0 -61 9.5 -119t32.5 -117.5t70 -96t113 -36.5q68 0 115.5 35t70 95t31 117t8.5 122t-8.5 122t-31 117t-70 95t-115.5 35q-66 0 -113 -36.5t-70 -96t-32.5 -117.5t-9.5 -119z" />
<glyph unicode="&#xf6;" horiz-adv-x="1097" d="M53 510q0 147 59.5 268t174 193.5t262.5 72.5q150 0 264 -72.5t172.5 -192.5t58.5 -269t-58.5 -269.5t-172.5 -193t-264 -72.5t-264.5 72.5t-173 193.5t-58.5 269zM264 1288q0 50 34 83.5t83 33.5t83 -33.5t34 -83.5t-34 -83.5t-83 -33.5t-83 33.5t-34 83.5zM324 508 q0 -61 9.5 -119t32.5 -117.5t70 -96t113 -36.5q68 0 115.5 35t70 95t31 117t8.5 122t-8.5 122t-31 117t-70 95t-115.5 35q-66 0 -113 -36.5t-70 -96t-32.5 -117.5t-9.5 -119zM592 1288q0 47 35 82t82 35q50 0 84 -34t34 -83t-34 -83t-84 -34q-47 0 -82 35t-35 82z" />
<glyph unicode="&#xf7;" horiz-adv-x="1290" d="M135 418v180h1020v-180h-1020zM487 135q0 65 47 111.5t113 46.5q65 0 111.5 -46.5t46.5 -111.5q0 -66 -46.5 -113t-111.5 -47q-66 0 -113 47t-47 113zM487 883q0 66 46 112.5t112 46.5t112 -46.5t46 -112.5q0 -65 -46 -111.5t-112 -46.5t-112 46.5t-46 111.5z" />
<glyph unicode="&#xf8;" horiz-adv-x="1099" d="M53 510q0 147 59.5 268t174.5 193.5t264 72.5q125 0 227 -51l111 176l100 -53l-117 -186q86 -75 130.5 -186.5t44.5 -233.5q0 -149 -59 -270t-173 -193t-264 -72q-133 0 -236 56l-133 -217l-92 69l131 213q-83 75 -125.5 184.5t-42.5 229.5zM326 508q0 -115 26 -201 l326 522q-51 48 -127 48q-66 0 -113 -36.5t-70 -96t-32.5 -117.5t-9.5 -119zM418 195q56 -56 133 -56q67 0 114 35t69 94.5t31 117t9 122.5q0 129 -29 215z" />
<glyph unicode="&#xf9;" horiz-adv-x="1132" d="M113 1018h272v-645q0 -42 4.5 -73t17 -63.5t41 -50.5t70.5 -18q89 0 153 55.5t64 143.5v540q0 2 -5.5 27t-11.5 53t-7 31h274v-748q0 -106 51 -106q14 0 30 4t36.5 11t30.5 9l43 -149q-17 -5 -72.5 -22t-94 -25t-73.5 -8q-62 0 -105 38t-55 99q-68 -69 -155.5 -109.5 t-180.5 -40.5q-167 0 -236 93t-69 266v577zM137 1546h297l223 -338h-211z" />
<glyph unicode="&#xfa;" horiz-adv-x="1132" d="M113 1018h272v-645q0 -42 4.5 -73t17 -63.5t41 -50.5t70.5 -18q89 0 153 55.5t64 143.5v540q0 2 -5.5 27t-11.5 53t-7 31h274v-748q0 -106 51 -106q14 0 30 4t36.5 11t30.5 9l43 -149q-17 -5 -72.5 -22t-94 -25t-73.5 -8q-62 0 -105 38t-55 99q-68 -69 -155.5 -109.5 t-180.5 -40.5q-167 0 -236 93t-69 266v577zM444 1208l224 338h297l-310 -338h-211z" />
<glyph unicode="&#xfb;" horiz-adv-x="1132" d="M113 1018h272v-645q0 -42 4.5 -73t17 -63.5t41 -50.5t70.5 -18q89 0 153 55.5t64 143.5v540q0 2 -5.5 27t-11.5 53t-7 31h274v-748q0 -106 51 -106q14 0 30 4t36.5 11t30.5 9l43 -149q-17 -5 -72.5 -22t-94 -25t-73.5 -8q-62 0 -105 38t-55 99q-68 -69 -155.5 -109.5 t-180.5 -40.5q-167 0 -236 93t-69 266v577zM254 1206l197 297h200l203 -297h-160l-143 152l-141 -152h-156z" />
<glyph unicode="&#xfc;" horiz-adv-x="1132" d="M113 1018h272v-645q0 -42 4.5 -73t17 -63.5t41 -50.5t70.5 -18q89 0 153 55.5t64 143.5v540q0 2 -5.5 27t-11.5 53t-7 31h274v-748q0 -106 51 -106q14 0 30 4t36.5 11t30.5 9l43 -149q-17 -5 -72.5 -22t-94 -25t-73.5 -8q-62 0 -105 38t-55 99q-68 -69 -155.5 -109.5 t-180.5 -40.5q-167 0 -236 93t-69 266v577zM285 1296q0 50 33.5 83.5t82.5 33.5t83 -33.5t34 -83.5q0 -49 -33.5 -82.5t-83.5 -33.5q-49 0 -82.5 33t-33.5 83zM612 1296q0 47 35 82t82 35q50 0 84.5 -34t34.5 -83t-34.5 -82.5t-84.5 -33.5q-47 0 -82 34.5t-35 81.5z" />
<glyph unicode="&#xfd;" horiz-adv-x="933" d="M-4 1018h264q23 -65 64 -178t74.5 -208t60.5 -179q8 -27 16.5 -83.5t11.5 -70.5q20 125 29 154q26 85 58.5 177.5t75.5 211t63 176.5h225l-363 -1024q-157 -447 -444 -447h-76v174q24 -6 54 -6q45 0 83 19.5t63 46t48 69.5t35 74.5t27 77.5zM387 1208l223 338h297 l-309 -338h-211z" />
<glyph unicode="&#xfe;" horiz-adv-x="1142" d="M117 1573h268v-637q64 55 132 79.5t153 24.5q80 0 149 -31.5t117 -83.5t82 -120.5t50.5 -142.5t16.5 -148q0 -108 -32.5 -205t-92.5 -172t-152 -118.5t-204 -43.5q-127 0 -219 62v-481h-246v1908zM385 420q0 -54 11 -101.5t35 -88t66.5 -64t100.5 -23.5q62 0 107.5 36 t68.5 94t33 115t10 114q0 56 -12.5 113.5t-38 112.5t-72.5 89.5t-108 34.5q-55 0 -108.5 -27.5t-92.5 -70.5v-334z" />
<glyph unicode="&#xff;" horiz-adv-x="933" d="M-4 1018h264q23 -65 64 -178t74.5 -208t60.5 -179q8 -27 16.5 -83.5t11.5 -70.5q20 125 29 154q26 85 58.5 177.5t75.5 211t63 176.5h225l-363 -1024q-157 -447 -444 -447h-76v174q24 -6 54 -6q45 0 83 19.5t63 46t48 69.5t35 74.5t27 77.5zM221 1300q0 50 33.5 83.5 t83.5 33.5t83.5 -33.5t33.5 -83.5q0 -49 -33.5 -82.5t-83.5 -33.5t-83.5 33.5t-33.5 82.5zM549 1300q0 47 35 82t82 35q50 0 84 -34t34 -83t-34 -82.5t-84 -33.5q-47 0 -82 34.5t-35 81.5z" />
<glyph unicode="&#x152;" horiz-adv-x="2160" d="M49 750q0 165 48 305.5t137 244.5t225.5 163t304.5 59q256 0 434 -129v106h911v-203h-630v-424h483v-202h-483v-467h630v-203h-911v111q-183 -134 -434 -134q-168 0 -304.5 59.5t-225.5 164t-137 245.5t-48 304zM350 750q0 -85 12 -162.5t41.5 -153.5t75 -131t119 -89 t166.5 -34q91 0 163.5 34t118.5 89.5t76.5 131t43 153.5t12.5 162q0 70 -8.5 135t-26.5 130.5t-50.5 119t-77 95.5t-108.5 65.5t-143 23.5q-91 0 -163.5 -34t-118.5 -89.5t-76.5 -131.5t-43 -153.5t-12.5 -160.5z" />
<glyph unicode="&#x153;" horiz-adv-x="1736" d="M55 510q0 147 59.5 268t174 193.5t262.5 72.5q223 0 358 -151q131 154 344 154q201 0 312.5 -121t111.5 -324q0 -59 -23 -91t-81 -32h-537q0 -60 16.5 -118t47.5 -106.5t83 -78t117 -29.5q63 0 132 31t116 78l105 -170q-64 -53 -167.5 -81t-197.5 -28q-241 0 -381 150 q-134 -150 -356 -150q-150 0 -264.5 72t-173 192.5t-58.5 268.5zM326 508q0 -48 5.5 -93t20.5 -95.5t39 -87t65.5 -61t94.5 -24.5q68 0 115.5 34t70 92t31 114t8.5 121t-8.5 122t-31 117t-70 95t-115.5 35q-66 0 -113 -36.5t-70 -96t-32.5 -117.5t-9.5 -119zM1042 641h344 q21 0 28 11t7 34q0 83 -42.5 138t-123.5 55q-82 0 -145 -76.5t-68 -161.5z" />
<glyph unicode="&#x178;" horiz-adv-x="1196" d="M20 1380h304l299 -559l307 559h246l-445 -819v-561h-272v561zM346 1622q0 48 34 82.5t83 34.5t83 -34.5t34 -82.5q0 -50 -34 -83.5t-83 -33.5t-83 33.5t-34 83.5zM674 1622q0 48 34 82.5t83 34.5q48 0 83 -34t35 -83t-35 -83t-83 -34q-49 0 -83 33.5t-34 83.5z" />
<glyph unicode="&#x2c6;" horiz-adv-x="563" d="M-16 1204l196 297h201l203 -297h-160l-143 152l-142 -152h-155z" />
<glyph unicode="&#x2dc;" horiz-adv-x="722" d="M16 1178q0 102 58 170.5t159 68.5q61 0 146.5 -41t120.5 -41q30 0 56.5 17t27.5 45h131q0 -102 -58 -171t-159 -69q-61 0 -146.5 41t-120.5 41q-30 0 -55.5 -16.5t-25.5 -44.5h-134z" />
<glyph unicode="&#x2000;" horiz-adv-x="957" />
<glyph unicode="&#x2001;" horiz-adv-x="1915" />
<glyph unicode="&#x2002;" horiz-adv-x="957" />
<glyph unicode="&#x2003;" horiz-adv-x="1915" />
<glyph unicode="&#x2004;" horiz-adv-x="638" />
<glyph unicode="&#x2005;" horiz-adv-x="478" />
<glyph unicode="&#x2006;" horiz-adv-x="319" />
<glyph unicode="&#x2007;" horiz-adv-x="319" />
<glyph unicode="&#x2008;" horiz-adv-x="239" />
<glyph unicode="&#x2009;" horiz-adv-x="383" />
<glyph unicode="&#x200a;" horiz-adv-x="106" />
<glyph unicode="&#x2010;" horiz-adv-x="641" d="M100 430v195h453v-195h-453z" />
<glyph unicode="&#x2011;" horiz-adv-x="641" d="M100 430v195h453v-195h-453z" />
<glyph unicode="&#x2012;" horiz-adv-x="641" d="M100 430v195h453v-195h-453z" />
<glyph unicode="&#x2013;" horiz-adv-x="1028" d="M27 432v193h974v-193h-974z" />
<glyph unicode="&#x2014;" horiz-adv-x="1744" d="M27 432v193h1691v-193h-1691z" />
<glyph unicode="&#x2018;" horiz-adv-x="585" d="M139 1145q0 108 62 202.5t161 165.5q61 -61 80 -83q-31 -29 -62.5 -75t-31.5 -75q0 -16 15.5 -34t33.5 -33.5t33.5 -46t15.5 -68.5q0 -59 -41 -101.5t-100 -42.5q-76 0 -121 56.5t-45 134.5z" />
<glyph unicode="&#x2019;" horiz-adv-x="585" d="M160 1382q0 61 40 102.5t101 41.5q76 0 121 -56.5t45 -134.5q0 -108 -62.5 -202t-160.5 -166q-55 55 -80 84q32 32 63 76t31 73q0 17 -15.5 35t-33.5 33t-33.5 45.5t-15.5 68.5z" />
<glyph unicode="&#x201a;" horiz-adv-x="565" d="M143 141q0 59 41.5 101.5t100.5 42.5q76 0 121 -56.5t45 -134.5q0 -108 -62.5 -202.5t-161.5 -165.5q-55 55 -80 84q32 30 63.5 75t31.5 74q0 16 -15.5 34t-34 33.5t-34 46t-15.5 68.5z" />
<glyph unicode="&#x201c;" horiz-adv-x="997" d="M135 1145q0 108 62 202.5t161 165.5q61 -61 80 -83q-31 -29 -62.5 -75t-31.5 -75q0 -16 15.5 -34t33.5 -33.5t33.5 -46t15.5 -68.5q0 -59 -41 -101.5t-100 -42.5q-76 0 -121 56.5t-45 134.5zM549 1145q0 108 62 202.5t161 165.5q61 -61 80 -83q-31 -29 -62.5 -75 t-31.5 -75q0 -16 15.5 -34t33.5 -33.5t33.5 -46t15.5 -68.5q0 -59 -41 -101.5t-100 -42.5q-76 0 -121 56.5t-45 134.5z" />
<glyph unicode="&#x201d;" horiz-adv-x="997" d="M160 1382q0 60 40.5 102t100.5 42q76 0 121 -56.5t45 -134.5q0 -108 -62.5 -202t-160.5 -166q-55 55 -80 84q32 32 63 76t31 73q0 17 -15.5 35t-33.5 33t-33.5 45.5t-15.5 68.5zM573 1382q0 60 41 102t101 42q76 0 121 -56.5t45 -134.5q0 -107 -63 -201.5t-161 -166.5 q-48 48 -79 84q32 32 63 76t31 73q0 17 -15.5 35t-34 33t-34 45.5t-15.5 68.5z" />
<glyph unicode="&#x201e;" horiz-adv-x="976" d="M129 141q0 59 41 101.5t100 42.5q76 0 121 -56.5t45 -134.5q0 -108 -62 -202.5t-161 -165.5q-55 55 -80 84q31 29 62.5 74.5t31.5 74.5q0 16 -15.5 34t-33.5 33.5t-33.5 46t-15.5 68.5zM543 141q0 59 41 101.5t100 42.5q76 0 121 -56.5t45 -134.5q0 -108 -62 -202.5 t-161 -165.5q-55 55 -80 84q31 29 62.5 74.5t31.5 74.5q0 16 -15.5 34t-33.5 33.5t-33.5 46t-15.5 68.5z" />
<glyph unicode="&#x2022;" horiz-adv-x="903" d="M133 731q0 132 94 226t226 94q133 0 226 -93t93 -227t-92 -226.5t-225 -92.5q-134 0 -228 93t-94 226z" />
<glyph unicode="&#x2026;" horiz-adv-x="1689" d="M182 133q0 66 46.5 113t111.5 47q66 0 113 -47t47 -113q0 -65 -47 -111.5t-113 -46.5q-64 0 -111 46.5t-47 111.5zM690 133q0 66 46 113t112 47t112 -47t46 -113q0 -65 -46 -111.5t-112 -46.5t-112 46.5t-46 111.5zM1196 133q0 66 47 113t113 47q65 0 111 -47t46 -113 q0 -65 -46.5 -111.5t-110.5 -46.5q-66 0 -113 46.5t-47 111.5z" />
<glyph unicode="&#x202f;" horiz-adv-x="383" />
<glyph unicode="&#x2039;" horiz-adv-x="610" d="M68 680l311 352l158 -28l-244 -324l250 -326l-156 -22z" />
<glyph unicode="&#x203a;" horiz-adv-x="673" d="M100 354l250 326l-246 324l158 28l311 -352l-319 -348z" />
<glyph unicode="&#x205f;" horiz-adv-x="478" />
<glyph unicode="&#x20ac;" horiz-adv-x="1050" d="M20 373l23 96h141q-2 20 -2 61q0 43 2 66h-112l18 96h111q44 173 177 276t331 103q143 0 260 -47l-43 -190q-43 31 -100.5 48t-110.5 17q-206 0 -252 -207h432l-23 -96h-423v-59q0 -45 2 -68h395l-23 -96h-354q27 -99 89 -160t161 -61q118 0 207 65l63 -176 q-128 -64 -282 -64q-210 0 -340 106.5t-168 289.5h-179z" />
<glyph unicode="&#x2122;" horiz-adv-x="1163" d="M98 1405v96h416v-96h-147v-387h-123v387h-146zM539 1018v483h151l107 -280l104 278h150v-481h-121v262l-105 -262h-73q-55 136 -107 274v-274h-106z" />
<glyph unicode="&#x25fc;" horiz-adv-x="1013" d="M0 0v1014h1014v-1014h-1014z" />
</font>
</defs>
</svg>
