<?xml version="1.0" encoding="utf-8"?>
<!-- Generator: Adobe Illustrator 19.0.0, SVG Export Plug-In . SVG Version: 6.00 Build 0)  -->
<svg version="1.1" id="Layer_1" xmlns="http://www.w3.org/2000/svg" xmlns:xlink="http://www.w3.org/1999/xlink" x="0px" y="0px"
	 width="129px" height="22px" viewBox="-241 386 129 22" style="enable-background:new -241 386 129 22;" xml:space="preserve">
<style type="text/css">
	.st0{fill:#AFB5BB;}
</style>
<g>
	<g>
		<g>
			<path class="st0" d="M-203.3,388.8c0-2,1-2.8,3-2.8c1,0,1.9,0.4,2.4,1.3l8.4,13.6h0.1v-12.6c0-1.6,0.9-2.3,2.3-2.3
				c1.4,0,2.3,0.8,2.3,2.3V405c0,1.9-0.8,3-2.8,3c-1.5,0-2-0.3-2.6-1.3l-8.4-13.3h-0.1v12.2c0,1.6-0.9,2.3-2.3,2.3s-2.3-0.8-2.3-2.3
				L-203.3,388.8L-203.3,388.8z"/>
			<path class="st0" d="M-177.5,399.3l-5.9-9.8c-0.2-0.4-0.4-0.8-0.4-1.3c0-1.7,1.5-2.2,2.4-2.2c1.1,0,1.7,0.5,2.2,1.4l4.2,7.7
				l4.2-7.7c0.6-1.1,1.1-1.4,2.1-1.4c0.9,0,2.4,0.6,2.4,2.2c0,0.4-0.2,0.9-0.4,1.3l-5.9,9.8v6.2c0,1.4-0.9,2.4-2.4,2.4
				s-2.4-1-2.4-2.4C-177.5,405.6-177.5,399.3-177.5,399.3z"/>
			<path class="st0" d="M-153.4,406.3c-0.5,1.4-1.4,1.7-2.9,1.7s-2.4-0.3-2.9-1.7l-5.9-16.7c-0.2-0.6-0.3-1-0.3-1.4
				c0-1.6,1.2-2.2,2.4-2.2c1.3,0,2,0.7,2.4,2.1l4.3,14.4h0.1l4.5-14.4c0.4-1.4,1.1-2.1,2.3-2.1s2.4,0.5,2.4,2.2
				c0,0.4-0.1,0.9-0.3,1.4L-153.4,406.3z"/>
			<path class="st0" d="M-144.1,387.5c0.4-1.1,1.2-1.5,2.3-1.5h1.1c1.1,0,2.1,0.3,2.6,1.8l5.9,16.2c0.2,0.5,0.5,1.3,0.5,1.9
				c0,1.2-1,2.1-2.3,2.1c-1.1,0-1.8-0.4-2.2-1.3l-1.2-3.5h-7.7l-1.3,3.5c-0.3,0.9-1,1.3-2.1,1.3c-1.3,0-2.2-0.8-2.2-2.1
				c0-0.5,0.3-1.4,0.5-1.9L-144.1,387.5z M-141.2,391.3L-141.2,391.3l-2.9,8.5h5.6L-141.2,391.3z"/>
			<path class="st0" d="M-130.5,388.8c0-2,1-2.8,3-2.8c1,0,1.9,0.4,2.4,1.3l8.4,13.6h0.1v-12.6c0-1.6,0.9-2.3,2.3-2.3
				c1.4,0,2.3,0.8,2.3,2.3V405c0,1.9-0.8,3-2.8,3c-1.5,0-2-0.3-2.6-1.3l-8.4-13.3h-0.1v12.2c0,1.6-0.9,2.3-2.3,2.3s-2.3-0.8-2.3-2.3
				L-130.5,388.8L-130.5,388.8z"/>
		</g>
	</g>
	<path class="st0" d="M-220.4,388.5c0,0-3.4,0-4.5,1.1l-3.1,3.4v1.9l6.6-1.3c0,0,1,0,1.1-1.7l0.4-2.9
		C-219.9,389-219.7,388.5-220.4,388.5z"/>
	<path class="st0" d="M-233.3,397.1l-1.6-0.1c-1.6,1.2-1.5,2.4-1.5,2.4c0.4,0,0.9,0.1,0.9,0.1l2-1.7
		C-232.9,397.1-233.3,397.1-233.3,397.1z"/>
	<path class="st0" d="M-230,401.2c-1.3,0-2.4,1.1-2.4,2.5c0,1.4,1.1,2.5,2.4,2.5c1.4,0,2.4-1.1,2.4-2.5
		C-227.5,402.3-228.6,401.2-230,401.2z"/>
	<path class="st0" d="M-204.8,404l-5.8-16.2c-0.5-1.5-1.5-1.8-2.6-1.8h-0.5h-0.1h-9.6l0,0h-14.8c-1.6,0-2.8,1.3-2.8,2.8v16.3
		c0,1.6,1.3,2.8,2.8,2.8h17c1.1,0,1.8-0.4,2.1-1.3l1-2.9l0.2-0.7h7.7l1.2,3.5c0.4,0.9,1.1,1.3,2.2,1.3c1.2,0,2.3-0.9,2.3-2.1
		C-204.4,405.3-204.6,404.5-204.8,404z M-230,407c-1.8,0-3.3-1.5-3.3-3.3s1.5-3.3,3.3-3.3s3.3,1.5,3.3,3.3S-228.2,407-230,407z
		 M-223,403.9l-3,0.1c0-0.1,0-0.2,0-0.2c0-2.2-1.8-4-4-4s-4,1.8-4,4c0,0.1,0,0.2,0,0.3h-0.7l-2.9-1.2c-0.7-0.4-0.5-2.7-0.5-2.7h0.3
		v-0.9c0.2-2.9,6.4-5.2,6.4-5.2l5.9-5.7c1.9-1.8,8.9-1.4,8.9-1.4v0.1c-0.1,0.1-0.2,0.3-0.2,0.5L-223,403.9z M-216.7,399.8l0.2-0.8
		l2.6-7.8h0.1l2.7,8.5L-216.7,399.8L-216.7,399.8z"/>
</g>
</svg>
