<?xml version="1.0" encoding="utf-8"?>
<!-- Generator: Adobe Illustrator 17.1.0, SVG Export Plug-In . SVG Version: 6.00 Build 0)  -->
<!DOCTYPE svg PUBLIC "-//W3C//DTD SVG 1.1//EN" "http://www.w3.org/Graphics/SVG/1.1/DTD/svg11.dtd">
<svg version="1.1" id="Layer_1" xmlns="http://www.w3.org/2000/svg" xmlns:xlink="http://www.w3.org/1999/xlink" x="0px" y="0px"
	 width="129px" height="22px" viewBox="-14.5 39 129 22" enable-background="new -14.5 39 129 22" xml:space="preserve">
<g>
	<g>
		<g>
			<path fill="#B7B7B7" d="M23.2,41.8c0-2,1-2.8,3-2.8c1,0,1.9,0.4,2.4,1.3L37,53.9h0.1V41.3c0-1.6,0.9-2.3,2.3-2.3
				c1.4,0,2.3,0.8,2.3,2.3V58c0,1.9-0.8,3-2.8,3c-1.5,0-2-0.3-2.6-1.3l-8.4-13.3h-0.1v12.2c0,1.6-0.9,2.3-2.3,2.3
				c-1.4,0-2.3-0.8-2.3-2.3L23.2,41.8L23.2,41.8z"/>
			<path fill="#B7B7B7" d="M49,52.3l-5.9-9.8c-0.2-0.4-0.4-0.8-0.4-1.3c0-1.7,1.5-2.2,2.4-2.2c1.1,0,1.7,0.5,2.2,1.4l4.2,7.7
				l4.2-7.7c0.6-1.1,1.1-1.4,2.1-1.4c0.9,0,2.4,0.6,2.4,2.2c0,0.4-0.2,0.9-0.4,1.3l-5.9,9.8v6.2c0,1.4-0.9,2.4-2.4,2.4
				c-1.5,0-2.4-1-2.4-2.4C49,58.6,49,52.3,49,52.3z"/>
			<path fill="#B7B7B7" d="M73.1,59.3c-0.5,1.4-1.4,1.7-2.9,1.7c-1.5,0-2.4-0.3-2.9-1.7l-5.9-16.7c-0.2-0.6-0.3-1-0.3-1.4
				c0-1.6,1.2-2.2,2.4-2.2c1.3,0,2,0.7,2.4,2.1l4.3,14.4h0.1l4.5-14.4c0.4-1.4,1.1-2.1,2.3-2.1c1.2,0,2.4,0.5,2.4,2.2
				c0,0.4-0.1,0.9-0.3,1.4L73.1,59.3z"/>
			<path fill="#B7B7B7" d="M82.4,40.5c0.4-1.1,1.2-1.5,2.3-1.5h1.1c1.1,0,2.1,0.3,2.6,1.8L94.3,57c0.2,0.5,0.5,1.3,0.5,1.9
				c0,1.2-1,2.1-2.3,2.1c-1.1,0-1.8-0.4-2.2-1.3l-1.2-3.5h-7.7l-1.3,3.5c-0.3,0.9-1,1.3-2.1,1.3c-1.3,0-2.2-0.8-2.2-2.1
				c0-0.5,0.3-1.4,0.5-1.9L82.4,40.5z M85.3,44.3L85.3,44.3l-2.9,8.5h5.6L85.3,44.3z"/>
			<path fill="#B7B7B7" d="M96,41.8c0-2,1-2.8,3-2.8c1,0,1.9,0.4,2.4,1.3l8.4,13.6h0.1V41.3c0-1.6,0.9-2.3,2.3-2.3
				c1.4,0,2.3,0.8,2.3,2.3V58c0,1.9-0.8,3-2.8,3c-1.5,0-2-0.3-2.6-1.3l-8.4-13.3h-0.1v12.2c0,1.6-0.9,2.3-2.3,2.3
				c-1.4,0-2.3-0.8-2.3-2.3V41.8z"/>
		</g>
	</g>
	<path fill="#B7B7B7" d="M6.1,41.5c0,0-3.4,0-4.5,1.1L-1.5,46v1.9l6.6-1.3c0,0,1,0,1.1-1.7L6.6,42C6.6,42,6.8,41.5,6.1,41.5z"/>
	<path fill="#B7B7B7" d="M-6.8,50.1l-1.6-0.1c-1.6,1.2-1.5,2.4-1.5,2.4c0.4,0,0.9,0.1,0.9,0.1l2-1.7C-6.4,50.1-6.8,50.1-6.8,50.1z"
		/>
	<path fill="#B7B7B7" d="M-3.5,54.2c-1.3,0-2.4,1.1-2.4,2.5c0,1.4,1.1,2.5,2.4,2.5c1.4,0,2.4-1.1,2.4-2.5C-1,55.3-2.1,54.2-3.5,54.2
		z"/>
	<path fill="#B7B7B7" d="M21.7,57l-5.8-16.2c-0.5-1.5-1.5-1.8-2.6-1.8h-0.5c0,0-0.1,0-0.1,0H3.1c0,0,0,0,0,0h-14.8
		c-1.6,0-2.8,1.3-2.8,2.8v16.3c0,1.6,1.3,2.8,2.8,2.8h17c1.1,0,1.8-0.4,2.1-1.3l1-2.9l0.2-0.7h7.7l1.2,3.5c0.4,0.9,1.1,1.3,2.2,1.3
		c1.2,0,2.3-0.9,2.3-2.1C22.1,58.3,21.9,57.5,21.7,57z M-3.5,60c-1.8,0-3.3-1.5-3.3-3.3c0-1.8,1.5-3.3,3.3-3.3
		c1.8,0,3.3,1.5,3.3,3.3C-0.2,58.5-1.7,60-3.5,60z M3.5,56.9l-3,0.1c0-0.1,0-0.2,0-0.2c0-2.2-1.8-4-4-4c-2.2,0-4,1.8-4,4
		c0,0.1,0,0.2,0,0.3h-0.7l-2.9-1.2c-0.7-0.4-0.5-2.7-0.5-2.7h0.3v-0.9c0.2-2.9,6.4-5.2,6.4-5.2L1,41.4C2.9,39.6,9.9,40,9.9,40l0,0.1
		c-0.1,0.1-0.2,0.3-0.2,0.5L3.5,56.9z M9.8,52.8L10,52l2.6-7.8h0.1l2.7,8.5H9.8z"/>
</g>
</svg>
