<?xml version="1.0" encoding="utf-8"?>
<!-- Generator: Adobe Illustrator 19.1.0, SVG Export Plug-In . SVG Version: 6.00 Build 0)  -->
<svg version="1.1" id="Layer_1" xmlns="http://www.w3.org/2000/svg" xmlns:xlink="http://www.w3.org/1999/xlink" x="0px" y="0px"
	 viewBox="-499.9 778 119.7 44" style="enable-background:new -499.9 778 119.7 44;" xml:space="preserve">
<style type="text/css">
	.st0{opacity:0.3;enable-background:new    ;}
</style>
<path d="M-496.4,815.6c1.4-1.6,3.1-3.1,5.1-4.6s4.1-3,6.3-4.5c2.3-1.5,4.3-3.1,6.3-4.8c1.9-1.7,3.5-3.5,4.8-5.5
	c1.3-1.9,1.9-4.1,1.9-6.5c0-1.9-0.4-3.6-1.1-5.1c-0.7-1.4-1.6-2.6-2.8-3.6c-1.2-1-2.6-1.7-4.2-2.2s-3.3-0.8-5.2-0.8
	c-4.6,0-8.1,1.3-10.4,3.9c-2.3,2.6-3.5,6.3-3.5,11h1.2c0-2,0.2-3.8,0.7-5.5c0.5-1.7,1.2-3.1,2.2-4.3c1-1.2,2.3-2.1,4-2.8
	c1.6-0.7,3.5-1,5.8-1c1.7,0,3.3,0.2,4.8,0.7s2.7,1.1,3.8,2c1.1,0.9,1.9,1.9,2.5,3.2c0.6,1.3,0.9,2.8,0.9,4.5c0,1.7-0.4,3.3-1.1,4.7
	c-0.7,1.5-1.7,2.8-3,4.1c-1.2,1.3-2.6,2.5-4.2,3.7s-3.2,2.4-4.8,3.5c-1.6,1.2-3.2,2.3-4.8,3.5s-3.1,2.4-4.4,3.7
	c-1.4,1.3-2.4,2.7-3.2,4.1c-0.8,1.5-1.2,3.1-1.1,5h29.2v-1.3h-28C-498.6,818.9-497.8,817.1-496.4,815.6z"/>
<path d="M-454.3,781.5c-0.8,0.8-1.7,1.5-2.6,2.2c-0.9,0.7-1.8,1.2-2.9,1.7c-1,0.5-2.2,1-3.5,1.4v1.3c2.2-0.6,4.3-1.6,6.4-2.9
	c2.1-1.3,3.8-2.9,5.1-4.7h0.1V822h1.3v-43.2h-1.4C-452.7,779.8-453.5,780.7-454.3,781.5z"/>
<polygon points="-433.5,797.4 -430.3,797.4 -430.3,805.8 -429,805.8 -429,797.4 -426,797.4 -426,796.3 -433.6,796.3 -433.6,797.4 
	"/>
<path d="M-416.6,799.2c-0.3-0.6-0.5-1.1-0.9-1.6s-0.9-0.8-1.4-1.1c-0.6-0.3-1.2-0.4-2-0.4c-0.8,0-1.4,0.1-2,0.4s-1,0.6-1.4,1.1
	s-0.7,1-0.9,1.6c-0.2,0.6-0.3,1.2-0.3,1.9c0,0.6,0.1,1.3,0.3,1.9c0.2,0.6,0.5,1.1,0.9,1.6s0.9,0.8,1.4,1.1c0.6,0.3,1.2,0.4,2,0.4
	c0.8,0,1.4-0.1,2-0.4s1-0.6,1.4-1.1s0.7-1,0.9-1.6c0.2-0.6,0.3-1.2,0.3-1.9C-416.3,800.5-416.4,799.8-416.6,799.2z M-417.8,802.4
	c-0.1,0.5-0.3,0.9-0.6,1.2c-0.3,0.4-0.6,0.7-1,0.9c-0.4,0.2-0.9,0.3-1.5,0.3s-1.1-0.1-1.5-0.3c-0.4-0.2-0.8-0.5-1-0.9
	c-0.3-0.4-0.5-0.8-0.6-1.2c-0.1-0.5-0.2-0.9-0.2-1.4s0.1-0.9,0.2-1.4c0.1-0.5,0.3-0.9,0.6-1.2c0.3-0.4,0.6-0.7,1-0.9
	c0.4-0.2,0.9-0.3,1.5-0.3s1.1,0.1,1.5,0.3c0.4,0.2,0.8,0.5,1,0.9c0.3,0.4,0.5,0.8,0.6,1.2c0.1,0.5,0.2,0.9,0.2,1.4
	S-417.7,802-417.8,802.4z"/>
<path d="M-404.6,797.4c-0.7-0.7-1.9-1.1-3.3-1.1h-3.2v9.4h3.2c0.8,0,1.5-0.1,2-0.3c0.6-0.2,1-0.5,1.4-1s0.6-0.9,0.8-1.5
	c0.2-0.6,0.3-1.3,0.3-2.1C-403.4,799.3-403.8,798.2-404.6,797.4z M-404.8,802.5c-0.1,0.4-0.3,0.8-0.5,1c-0.2,0.3-0.4,0.5-0.6,0.6
	c-0.2,0.2-0.5,0.3-0.7,0.4c-0.2,0.1-0.5,0.1-0.7,0.2c-0.2,0-0.4,0-0.5,0h-2.1v-7.3h2.1c0.6,0,1.1,0.1,1.5,0.2c0.4,0.2,0.7,0.4,1,0.7
	c0.3,0.3,0.4,0.7,0.5,1.1c0.1,0.4,0.2,0.9,0.2,1.5C-404.6,801.6-404.7,802.1-404.8,802.5z"/>
<path d="M-397.9,796.4h-1.4v-0.1l-3.7,9.5h1.3l1.1-2.8h4l1,2.8h1.4L-397.9,796.4z M-400.2,801.9l1.6-4.4l1.6,4.4H-400.2z"/>
<path d="M-395.5,797.4h3.2v8.4h1.3v-8.4h3.2v-1.1h-7.6C-395.5,796.3-395.5,797.4-395.5,797.4z"/>
<path d="M-385.6,801.4h4.9v-1.1h-4.9v-3h5.3v-1.1h-6.5v9.4h6.6v-1.1h-5.3C-385.6,804.7-385.6,801.4-385.6,801.4z"/>
<path class="st0" d="M-433.5,819.8c0,0,0,0,0.1,0c1.4,0,17.2,0,17.2,0v1.5h-17.3l0,0V819.8z"/>
<g>
	<path d="M-428.7,778.8c0.6,0,1.1,0.1,1.5,0.3c0.4,0.2,0.8,0.4,1,0.7c0.3,0.3,0.5,0.6,0.6,1s0.2,0.8,0.2,1.2s-0.1,0.8-0.2,1.1
		c-0.1,0.4-0.3,0.7-0.6,1c-0.3,0.3-0.6,0.5-1,0.7c-0.4,0.2-0.9,0.3-1.5,0.3h-2.2v3.5h-2.1v-9.7h4.3V778.8z M-429.2,783.4
		c0.2,0,0.5,0,0.7-0.1c0.2,0,0.4-0.1,0.6-0.2c0.2-0.1,0.3-0.3,0.4-0.4c0.1-0.2,0.2-0.4,0.2-0.7c0-0.3-0.1-0.6-0.2-0.7
		c-0.1-0.2-0.2-0.3-0.4-0.4c-0.2-0.1-0.4-0.2-0.6-0.2s-0.5-0.1-0.7-0.1h-1.7v2.9L-429.2,783.4L-429.2,783.4z"/>
	<path d="M-422.3,781.5v1.3l0,0c0.1-0.2,0.2-0.4,0.4-0.6c0.2-0.2,0.3-0.3,0.5-0.5c0.2-0.1,0.4-0.2,0.6-0.3c0.2-0.1,0.5-0.1,0.7-0.1
		c0.1,0,0.3,0,0.4,0.1v1.8c-0.1,0-0.2,0-0.3,0s-0.3,0-0.4,0c-0.4,0-0.7,0.1-0.9,0.2c-0.2,0.1-0.4,0.3-0.6,0.5
		c-0.1,0.2-0.3,0.4-0.3,0.7c-0.1,0.3-0.1,0.6-0.1,0.9v3.2h-1.9v-7h1.9V781.5z"/>
	<path d="M-419.1,783.5c0.2-0.5,0.4-0.8,0.7-1.2c0.3-0.3,0.7-0.6,1.1-0.7c0.4-0.2,0.9-0.3,1.5-0.3s1.1,0.1,1.5,0.3
		c0.4,0.2,0.8,0.4,1.1,0.7c0.3,0.3,0.6,0.7,0.7,1.2c0.2,0.5,0.3,1,0.3,1.5c0,0.6-0.1,1.1-0.3,1.5c-0.2,0.5-0.4,0.8-0.7,1.2
		c-0.3,0.3-0.7,0.6-1.1,0.7c-0.4,0.2-1,0.3-1.5,0.3c-0.6,0-1.1-0.1-1.5-0.3c-0.4-0.2-0.8-0.4-1.1-0.7c-0.3-0.3-0.6-0.7-0.7-1.2
		c-0.2-0.5-0.3-1-0.3-1.5C-419.3,784.4-419.3,783.9-419.1,783.5z M-417.3,785.8c0.1,0.3,0.1,0.5,0.3,0.7c0.1,0.2,0.3,0.4,0.5,0.5
		c0.2,0.1,0.5,0.2,0.8,0.2c0.3,0,0.6-0.1,0.8-0.2c0.2-0.1,0.4-0.3,0.5-0.5s0.2-0.5,0.3-0.7c0.1-0.3,0.1-0.5,0.1-0.8s0-0.6-0.1-0.8
		c-0.1-0.3-0.1-0.5-0.3-0.7c-0.1-0.2-0.3-0.4-0.5-0.5c-0.2-0.1-0.5-0.2-0.8-0.2c-0.3,0-0.6,0.1-0.8,0.2c-0.2,0.1-0.4,0.3-0.5,0.5
		s-0.2,0.4-0.3,0.7s-0.1,0.5-0.1,0.8C-417.4,785.3-417.4,785.6-417.3,785.8z"/>
	<path d="M-411.4,789.4c0.2,0,0.4,0,0.5-0.1s0.2-0.2,0.2-0.5v-7.3h1.9v7.4c0,0.4,0,0.7-0.1,0.9c-0.1,0.3-0.2,0.5-0.4,0.7
		c-0.2,0.2-0.4,0.3-0.8,0.4c-0.3,0.1-0.7,0.1-1.2,0.1c-0.2,0-0.4,0-0.6-0.1v-1.6C-411.7,789.4-411.6,789.4-411.4,789.4z
		 M-410.6,780.4v-1.6h1.9v1.6H-410.6z"/>
	<path d="M-405,786.8c0.3,0.3,0.7,0.4,1.3,0.4c0.4,0,0.7-0.1,1-0.3c0.3-0.2,0.5-0.4,0.5-0.6h1.7c-0.3,0.8-0.7,1.4-1.3,1.8
		s-1.2,0.5-2,0.5c-0.6,0-1.1-0.1-1.5-0.3s-0.8-0.4-1.1-0.8c-0.3-0.3-0.5-0.7-0.7-1.2c-0.2-0.5-0.3-1-0.3-1.5s0.1-1,0.3-1.5
		c0.2-0.5,0.4-0.8,0.7-1.2c0.3-0.3,0.7-0.6,1.1-0.8s0.9-0.3,1.5-0.3s1.1,0.1,1.6,0.3c0.4,0.2,0.8,0.5,1.1,0.9
		c0.3,0.4,0.5,0.8,0.6,1.3s0.2,1,0.1,1.6h-5.1C-405.4,786.1-405.3,786.5-405,786.8z M-402.8,783.1c-0.2-0.3-0.6-0.4-1.1-0.4
		c-0.3,0-0.6,0.1-0.8,0.2c-0.2,0.1-0.4,0.2-0.5,0.4c-0.1,0.2-0.2,0.3-0.3,0.5c0,0.2-0.1,0.3-0.1,0.5h3.1
		C-402.4,783.7-402.6,783.4-402.8,783.1z"/>
	<path d="M-395.9,782.7c-0.3,0-0.6,0.1-0.8,0.2c-0.2,0.1-0.4,0.3-0.5,0.5s-0.2,0.5-0.3,0.7c-0.1,0.3-0.1,0.5-0.1,0.8s0,0.5,0.1,0.8
		s0.1,0.5,0.3,0.7c0.1,0.2,0.3,0.4,0.5,0.5c0.2,0.1,0.5,0.2,0.8,0.2c0.5,0,0.8-0.1,1.1-0.4c0.3-0.3,0.4-0.6,0.5-1h1.9
		c-0.1,0.9-0.5,1.6-1.1,2.1s-1.4,0.7-2.3,0.7c-0.5,0-1-0.1-1.4-0.3c-0.4-0.2-0.8-0.4-1.1-0.7c-0.3-0.3-0.5-0.7-0.7-1.1
		c-0.2-0.4-0.3-0.9-0.3-1.4s0.1-1,0.2-1.5c0.2-0.5,0.4-0.9,0.7-1.2c0.3-0.3,0.7-0.6,1.1-0.8s1-0.3,1.5-0.3c0.4,0,0.8,0.1,1.2,0.2
		s0.7,0.3,1,0.5c0.3,0.2,0.6,0.5,0.7,0.8c0.2,0.3,0.3,0.7,0.3,1.2h-1.9C-394.6,783.1-395.1,782.7-395.9,782.7z"/>
	<path d="M-387.6,781.5v1.3h-1.4v3.5c0,0.3,0.1,0.5,0.2,0.7c0.1,0.1,0.3,0.2,0.7,0.2c0.1,0,0.2,0,0.3,0s0.2,0,0.3,0v1.5
		c-0.2,0-0.3,0-0.5,0.1c-0.2,0-0.4,0-0.6,0c-0.3,0-0.6,0-0.8-0.1c-0.3,0-0.5-0.1-0.7-0.2c-0.2-0.1-0.4-0.3-0.5-0.5s-0.2-0.5-0.2-0.9
		V783h-1.2v-1.3h1.2v-2.1h1.9v2.1h1.3V781.5z"/>
	<path d="M-385,786.8c0.1,0.1,0.2,0.3,0.3,0.4c0.1,0.1,0.3,0.2,0.5,0.2c0.2,0,0.4,0.1,0.6,0.1c0.1,0,0.3,0,0.4,0
		c0.1,0,0.3-0.1,0.4-0.1c0.1-0.1,0.2-0.2,0.3-0.3s0.1-0.3,0.1-0.4c0-0.3-0.2-0.5-0.6-0.7c-0.4-0.1-0.9-0.3-1.6-0.4
		c-0.3-0.1-0.6-0.1-0.8-0.2c-0.3-0.1-0.5-0.2-0.7-0.3c-0.2-0.1-0.4-0.3-0.5-0.5c-0.1-0.2-0.2-0.5-0.2-0.8c0-0.5,0.1-0.8,0.3-1.1
		c0.2-0.3,0.4-0.5,0.7-0.7c0.3-0.2,0.6-0.3,1-0.4c0.4-0.1,0.7-0.1,1.1-0.1s0.7,0,1.1,0.1c0.4,0.1,0.7,0.2,1,0.4
		c0.3,0.2,0.5,0.4,0.7,0.7c0.2,0.3,0.3,0.6,0.3,1.1h-1.8c0-0.4-0.2-0.6-0.4-0.8c-0.3-0.1-0.6-0.2-0.9-0.2c-0.1,0-0.2,0-0.4,0
		c-0.1,0-0.2,0-0.3,0.1c-0.1,0-0.2,0.1-0.3,0.2s-0.1,0.2-0.1,0.3c0,0.2,0.1,0.3,0.2,0.4c0.1,0.1,0.3,0.2,0.5,0.3
		c0.2,0.1,0.4,0.1,0.7,0.2c0.3,0.1,0.5,0.1,0.8,0.2c0.3,0.1,0.6,0.1,0.8,0.2c0.3,0.1,0.5,0.2,0.7,0.4c0.2,0.1,0.4,0.3,0.5,0.6
		c0.1,0.2,0.2,0.5,0.2,0.8c0,0.5-0.1,0.8-0.3,1.2c-0.2,0.3-0.4,0.6-0.7,0.8c-0.3,0.2-0.6,0.3-1,0.4s-0.8,0.1-1.2,0.1s-0.8,0-1.2-0.1
		s-0.7-0.2-1-0.4c-0.3-0.2-0.6-0.4-0.7-0.8c-0.1-0.4-0.3-0.7-0.3-1.2h1.8C-385.2,786.4-385.1,786.6-385,786.8z"/>
</g>
</svg>
