<?xml version="1.0" encoding="utf-8"?>
<!-- Generator: Adobe Illustrator 19.0.0, SVG Export Plug-In . SVG Version: 6.00 Build 0)  -->
<svg version="1.1" id="Layer_1" xmlns="http://www.w3.org/2000/svg" xmlns:xlink="http://www.w3.org/1999/xlink" x="0px" y="0px"
	 width="86px" height="27px" viewBox="-262 383 86 27" style="enable-background:new -262 383 86 27;" xml:space="preserve">
<style type="text/css">
	.st0{fill:#9CA4AB;}
</style>
<g>
	<path class="st0" d="M-255.5,408.1c0,1.1-0.9,1.9-1.9,1.9s-1.9-0.9-1.9-1.9s0.9-1.9,1.9-1.9S-255.5,407-255.5,408.1z M-246,406.2
		c-1.1,0-1.9,0.9-1.9,1.9s0.9,1.9,1.9,1.9s1.9-0.9,1.9-1.9S-245,406.2-246,406.2z M-245.1,389.1c0.1-0.2,0.2-0.4,0.1-0.6
		s-0.3-0.3-0.6-0.3c-0.5,0-2.3,0-2.3,0c-0.6,0-0.7,0.2-0.9,0.4l-5.2,6.4h-1.6v-12h-6.4c0,0.3,0,0.6,0,0.9c0,1.3,1.1,1.9,1.9,1.9
		c0.3,0,0.9,0,1,0v17.4c0,0.5,0.4,0.7,0.7,0.7c0,0,2,0,2.1,0c0.4,0,0.7-0.3,0.7-0.7v-5.1h1.3c0.8,0,1.3,0.3,1.7,0.8l2.3,3.7
		c0.8,1.2,0.8,1.3,1.8,1.3c0.1,0,2.6,0,2.6,0c0.1,0,0.3,0,0.4-0.1c0.1-0.1-0.1-0.3-0.2-0.5c-1.4-2.3-3.4-5.7-3.4-5.7
		c-0.5-0.9-1.1-1.4-1.4-1.5L-245.1,389.1z M-221.2,388.2c-0.4,0-2,0-3.4,0c-3.3,0-4.7,2.3-4.7,4.6v10.4c0,0.4,0.3,0.7,0.7,0.7h1.8
		c0.4,0,0.7-0.3,0.7-0.7c0-1,0-9.5,0-9.6c0-2,1.8-2.2,2.5-2.2h2.3c0.4,0,0.7-0.3,0.7-0.7v-1.8C-220.5,388.5-220.8,388.2-221.2,388.2
		z M-235.8,403.9c-1.5,0-0.2,0-1.7,0c-2.4,0-4.1-0.7-5.2-1.9c-0.8-0.8-1.2-1.9-1.1-3.2c0.2-2.9,2.5-3.5,4.6-4.1
		c0.3-0.1,3.1-0.8,3.9-1.2c0.7-0.4,0.8-0.6,0.8-1c0-0.7-0.4-1.2-1.4-1.2h-6c-0.5,0-0.7-0.4-0.7-0.7v-1.8c0-0.3,0.2-0.7,0.7-0.7h5.8
		c2.8,0,4.7,1.8,4.7,4.4v7C-231.5,402.3-233.8,403.9-235.8,403.9z M-234.7,396.6c-1.1,0.3-2.8,0.8-3.5,1c-1.9,0.5-2.5,0.7-2.5,1.7
		c0,1.2,1.8,1.6,3.3,1.6h0.2c1.2,0,2.4-0.5,2.4-1.5C-234.7,399.3-234.7,397-234.7,396.6z M-209.1,400.7h-0.9
		c-1.2-0.1-2.6-0.7-2.6-3.1v-6.3h2c0.4,0,0.7-0.3,0.7-0.7v-1.8c0-0.4-0.3-0.7-0.7-0.7h-2v-2.9c0-0.4-0.3-0.7-0.7-0.7h-1.8
		c-0.4,0-0.7,0.3-0.7,0.7v2.9h-2c-0.4,0-0.7,0.3-0.7,0.7v1.8c0,0.4,0.3,0.7,0.7,0.7h2v7c0,4.8,3.6,5.5,5.7,5.5c0.4,0,1,0,1,0
		c0.4,0,0.7-0.3,0.7-0.7v-1.8C-208.4,401-208.6,400.7-209.1,400.7z M-191.6,395.2l-2.6-1.1c-1.1-0.5-1.7-0.8-1.7-1.7
		c0-0.6,0.5-1.2,1.2-1.2h5.7c0.3,0,0.7-0.2,0.7-0.7v-1.8c0-0.3-0.2-0.7-0.7-0.7h-5.8c-2.4,0-4.7,1.7-4.7,4.5c0,1.7,1.1,3.4,3.6,4.3
		l3.4,1.4c0.4,0.2,0.7,0.6,0.7,1.2c0,0.8-0.7,1.2-1.2,1.2h-5.8c-0.5,0-0.7,0.4-0.7,0.7v1.8c0,0.3,0.2,0.7,0.7,0.7h5.7
		c3.1,0,4.7-2.5,4.7-4.4C-188.2,397.7-189.2,396.2-191.6,395.2z M-203.5,383c-1.1,0-1.9,0.9-1.9,1.9s0.9,1.9,1.9,1.9
		c1.1,0,1.9-0.9,1.9-1.9S-202.4,383-203.5,383z M-201.6,388.8c0-0.4-0.3-0.7-0.7-0.7h-4.6c-0.4,0-0.7,0.3-0.7,0.7v1.8
		c0,0.4,0.3,0.7,0.7,0.7h2.1v11.8c0,0.4,0.3,0.7,0.7,0.7h1.8c0.4,0,0.7-0.3,0.7-0.7V388.8z M-176.7,400.7h-0.9
		c-1.2-0.1-2.6-0.7-2.6-3.1v-6.3h2c0.4,0,0.7-0.3,0.7-0.7v-1.8c0-0.4-0.3-0.7-0.7-0.7h-2v-2.9c0-0.4-0.3-0.7-0.7-0.7h-1.8
		c-0.4,0-0.7,0.3-0.7,0.7v2.9h-2c-0.4,0-0.7,0.3-0.7,0.7v1.8c0,0.4,0.3,0.7,0.7,0.7h2v7c0,4.8,3.6,5.5,5.7,5.5c0.4,0,1,0,1,0
		c0.4,0,0.7-0.3,0.7-0.7v-1.8C-176,401-176.3,400.7-176.7,400.7z"/>
</g>
</svg>
