<?xml version="1.0" encoding="utf-8"?>
<!-- Generator: Adobe Illustrator 17.1.0, SVG Export Plug-In . SVG Version: 6.00 Build 0)  -->
<!DOCTYPE svg PUBLIC "-//W3C//DTD SVG 1.1//EN" "http://www.w3.org/Graphics/SVG/1.1/DTD/svg11.dtd">
<svg version="1.1" id="Layer_1" xmlns="http://www.w3.org/2000/svg" xmlns:xlink="http://www.w3.org/1999/xlink" x="0px" y="0px"
	 width="86px" height="27px" viewBox="7 36.5 86 27" enable-background="new 7 36.5 86 27" xml:space="preserve">
<g>
	<path fill="#AFAFAF" d="M13.5,61.6c0,1.1-0.9,1.9-1.9,1.9s-1.9-0.9-1.9-1.9s0.9-1.9,1.9-1.9S13.5,60.5,13.5,61.6z M23,59.7
		c-1.1,0-1.9,0.9-1.9,1.9s0.9,1.9,1.9,1.9s1.9-0.9,1.9-1.9S24,59.7,23,59.7z M23.9,42.6c0.1-0.2,0.2-0.4,0.1-0.6
		c-0.1-0.2-0.3-0.3-0.6-0.3c-0.5,0-2.3,0-2.3,0c-0.6,0-0.7,0.2-0.9,0.4L15,48.5h-1.6v-12H7c0,0.3,0,0.6,0,0.9c0,1.3,1.1,1.9,1.9,1.9
		c0.3,0,0.9,0,1,0l0,17.4c0,0.5,0.4,0.7,0.7,0.7c0,0,2,0,2.1,0c0.4,0,0.7-0.3,0.7-0.7l0-5.1l1.3,0c0.8,0,1.3,0.3,1.7,0.8l2.3,3.7
		c0.8,1.2,0.8,1.3,1.8,1.3c0.1,0,2.6,0,2.6,0c0.1,0,0.3,0,0.4-0.1c0.1-0.1-0.1-0.3-0.2-0.5c-1.4-2.3-3.4-5.7-3.4-5.7
		c-0.5-0.9-1.1-1.4-1.4-1.5L23.9,42.6z M47.8,41.7c-0.4,0-2,0-3.4,0c-3.3,0-4.7,2.3-4.7,4.6v10.4c0,0.4,0.3,0.7,0.7,0.7h1.8
		c0.4,0,0.7-0.3,0.7-0.7c0-1,0-9.5,0-9.6c0-2,1.8-2.2,2.5-2.2h2.3c0.4,0,0.7-0.3,0.7-0.7v-1.8C48.5,42,48.2,41.7,47.8,41.7z
		 M33.2,57.4c-1.5,0-0.2,0-1.7,0c-2.4,0-4.1-0.7-5.2-1.9c-0.8-0.8-1.2-1.9-1.1-3.2c0.2-2.9,2.5-3.5,4.6-4.1c0.3-0.1,3.1-0.8,3.9-1.2
		c0.7-0.4,0.8-0.6,0.8-1c0-0.7-0.4-1.2-1.4-1.2l-6,0c-0.5,0-0.7-0.4-0.7-0.7v-1.8c0-0.3,0.2-0.7,0.7-0.7l5.8,0
		c2.8,0,4.7,1.8,4.7,4.4V53C37.5,55.8,35.2,57.4,33.2,57.4z M34.3,50.1c-1.1,0.3-2.8,0.8-3.5,1c-1.9,0.5-2.5,0.7-2.5,1.7
		c0,1.2,1.8,1.6,3.3,1.6l0.2,0c1.2,0,2.4-0.5,2.4-1.5C34.3,52.8,34.3,50.5,34.3,50.1z M59.9,54.2H59c-1.2-0.1-2.6-0.7-2.6-3.1v-6.3
		h2c0.4,0,0.7-0.3,0.7-0.7v-1.8c0-0.4-0.3-0.7-0.7-0.7h-2v-2.9c0-0.4-0.3-0.7-0.7-0.7h-1.8c-0.4,0-0.7,0.3-0.7,0.7v2.9h-2
		c-0.4,0-0.7,0.3-0.7,0.7v1.8c0,0.4,0.3,0.7,0.7,0.7l2,0l0,7c0,4.8,3.6,5.5,5.7,5.5c0.4,0,1,0,1,0c0.4,0,0.7-0.3,0.7-0.7v-1.8
		C60.6,54.5,60.4,54.2,59.9,54.2z M77.4,48.7l-2.6-1.1c-1.1-0.5-1.7-0.8-1.7-1.7c0-0.6,0.5-1.2,1.2-1.2h5.7c0.3,0,0.7-0.2,0.7-0.7
		l0-1.8c0-0.3-0.2-0.7-0.7-0.7h-5.8c-2.4,0-4.7,1.7-4.7,4.5c0,1.7,1.1,3.4,3.6,4.3l3.4,1.4c0.4,0.2,0.7,0.6,0.7,1.2
		c0,0.8-0.7,1.2-1.2,1.2h-5.8c-0.5,0-0.7,0.4-0.7,0.7v1.8c0,0.3,0.2,0.7,0.7,0.7c0,0,5.7,0,5.7,0c3.1,0,4.7-2.5,4.7-4.4
		C80.8,51.2,79.8,49.7,77.4,48.7z M65.5,36.5c-1.1,0-1.9,0.9-1.9,1.9s0.9,1.9,1.9,1.9c1.1,0,1.9-0.9,1.9-1.9S66.6,36.5,65.5,36.5z
		 M67.4,42.3c0-0.4-0.3-0.7-0.7-0.7h-4.6c-0.4,0-0.7,0.3-0.7,0.7v1.8c0,0.4,0.3,0.7,0.7,0.7h2.1l0,11.8c0,0.4,0.3,0.7,0.7,0.7h1.8
		c0.4,0,0.7-0.3,0.7-0.7L67.4,42.3z M92.3,54.2h-0.9c-1.2-0.1-2.6-0.7-2.6-3.1v-6.3h2c0.4,0,0.7-0.3,0.7-0.7v-1.8
		c0-0.4-0.3-0.7-0.7-0.7h-2v-2.9c0-0.4-0.3-0.7-0.7-0.7h-1.8c-0.4,0-0.7,0.3-0.7,0.7v2.9h-2c-0.4,0-0.7,0.3-0.7,0.7v1.8
		c0,0.4,0.3,0.7,0.7,0.7l2,0l0,7c0,4.8,3.6,5.5,5.7,5.5c0.4,0,1,0,1,0c0.4,0,0.7-0.3,0.7-0.7v-1.8C93,54.5,92.7,54.2,92.3,54.2z"/>
</g>
</svg>
