<?xml version="1.0" encoding="utf-8"?>
<!-- Generator: Adobe Illustrator 19.0.0, SVG Export Plug-In . SVG Version: 6.00 Build 0)  -->
<svg version="1.1" id="Layer_1" xmlns="http://www.w3.org/2000/svg" xmlns:xlink="http://www.w3.org/1999/xlink" x="0px" y="0px"
	 width="125px" height="26px" viewBox="-243 384 125 26" style="enable-background:new -243 384 125 26;" xml:space="preserve">
<style type="text/css">
	.st0{fill:#9CA4AB;}
	.st1{opacity:0.5;}
</style>
<g>
	<rect x="-242.9" y="384.3" class="st0" width="1.7" height="19.3"/>
	<path class="st0" d="M-226.6,399.9c0,0.2,0,0.5,0,0.9c0,0.3,0,0.7,0.1,1.1c0,0.4,0,0.7,0,1s0,0.5,0,0.7h-1.7c0-0.5,0-1,0-1.4
		c0-0.5,0-0.7-0.1-0.9h-0.1c-0.3,0.7-0.9,1.3-1.8,1.9c-0.8,0.5-1.8,0.8-2.9,0.8c-1.1,0-1.9-0.2-2.6-0.5s-1.2-0.7-1.6-1.3
		c-0.4-0.5-0.6-1.1-0.8-1.8c-0.1-0.7-0.2-1.4-0.2-2.1v-7.8h1.8v7.7c0,0.5,0.1,1,0.2,1.5c0.1,0.5,0.3,1,0.5,1.3c0.2,0.4,0.6,0.7,1,1
		c0.4,0.2,1,0.4,1.7,0.4c0.6,0,1.3-0.1,1.8-0.3c0.6-0.2,1.1-0.5,1.5-1c0.4-0.4,0.8-1,1-1.7c0.3-0.7,0.5-1.5,0.5-2.4v-6.5h1.8
		L-226.6,399.9L-226.6,399.9z"/>
	<path class="st0" d="M-224.1,394.1c0-0.2,0-0.5,0-0.9c0-0.3,0-0.7-0.1-1.1c0-0.4,0-0.7,0-1s0-0.5,0-0.7h1.8c0,0.5,0,1,0,1.4
		c0,0.5,0,0.7,0.1,0.9h0.1c0.3-0.7,0.9-1.3,1.8-1.9c0.8-0.5,1.8-0.8,2.9-0.8c0.9,0,1.7,0.2,2.5,0.7c0.7,0.4,1.3,1.2,1.6,2.2
		c0.4-1,1.1-1.7,1.9-2.1c0.8-0.4,1.7-0.7,2.7-0.7c1.1,0,1.9,0.2,2.6,0.5c0.7,0.3,1.2,0.7,1.6,1.3c0.4,0.5,0.6,1.1,0.8,1.8
		c0.2,0.7,0.2,1.4,0.2,2.1v7.8h-1.9v-7.7c0-0.5-0.1-1-0.1-1.5c-0.1-0.5-0.3-0.9-0.5-1.3s-0.6-0.7-1-0.9c-0.4-0.2-1-0.4-1.7-0.4
		c-0.8,0-1.5,0.1-2,0.4s-0.9,0.7-1.3,1.1c-0.3,0.5-0.5,1-0.6,1.5s-0.2,1-0.2,1.5v7.4h-1.8v-7.9c0-1.2-0.2-2.2-0.7-2.9
		s-1.2-1.1-2.1-1.1c-0.6,0-1.3,0.1-1.8,0.3c-0.6,0.2-1.1,0.5-1.5,1c-0.4,0.4-0.8,1-1,1.7s-0.4,1.5-0.4,2.4v6.6h-1.9L-224.1,394.1
		L-224.1,394.1z"/>
	<path class="st0" d="M-200.9,385.3c0-0.4,0.1-0.7,0.4-0.9c0.3-0.2,0.6-0.4,0.9-0.4c0.4,0,0.7,0.1,0.9,0.4c0.3,0.2,0.4,0.5,0.4,0.9
		s-0.1,0.7-0.4,0.9c-0.3,0.2-0.6,0.4-0.9,0.4s-0.7-0.1-0.9-0.4S-200.9,385.6-200.9,385.3L-200.9,385.3z M-200.4,390.5h1.8v13.1h-1.8
		V390.5z"/>
	<path class="st0" d="M-195.1,400.2c0.4,0.7,0.9,1.2,1.7,1.6c0.7,0.4,1.5,0.5,2.3,0.5c0.4,0,0.7-0.1,1.1-0.2s0.7-0.3,1-0.5
		s0.5-0.4,0.7-0.7c0.2-0.3,0.3-0.6,0.3-1c0-0.6-0.2-1.1-0.6-1.4c-0.4-0.3-0.9-0.5-1.5-0.7s-1.2-0.3-1.9-0.4s-1.3-0.3-1.9-0.6
		c-0.6-0.3-1.1-0.6-1.5-1.1c-0.4-0.4-0.6-1.1-0.6-1.9c0-0.6,0.1-1.2,0.4-1.7c0.3-0.5,0.6-0.9,1.1-1.2c0.4-0.3,0.9-0.5,1.5-0.7
		c0.5-0.1,1.1-0.2,1.7-0.2c1.1,0,2.1,0.2,2.9,0.6c0.8,0.4,1.5,1,1.9,1.9l-1.6,0.9c-0.3-0.6-0.8-1.1-1.3-1.4s-1.2-0.5-2-0.5
		c-0.3,0-0.6,0-1,0.1c-0.3,0.1-0.6,0.2-0.9,0.4c-0.3,0.2-0.5,0.4-0.7,0.7c-0.2,0.3-0.3,0.6-0.3,0.9c0,0.6,0.2,1,0.6,1.3
		c0.4,0.3,0.9,0.5,1.5,0.7c0.6,0.1,1.2,0.3,1.9,0.4s1.3,0.3,1.9,0.5c0.6,0.3,1.1,0.6,1.5,1.1s0.6,1.2,0.6,2.1c0,0.7-0.1,1.3-0.4,1.8
		s-0.6,0.9-1.1,1.3c-0.5,0.3-1,0.6-1.6,0.8c-0.6,0.2-1.2,0.3-1.9,0.3c-1.2,0-2.3-0.2-3.2-0.7c-1-0.4-1.7-1.1-2.3-2L-195.1,400.2z"/>
	<path class="st0" d="M-176.4,402.3c0.1,0,0.1,0,0.2,0c0.8,0,1.6-0.1,2.2-0.4c0.7-0.3,1.2-0.7,1.7-1.1c0.5-0.5,0.8-1,1.1-1.7
		c0.2-0.7,0.4-1.3,0.4-2.1c0-0.7-0.1-1.4-0.4-2.1c-0.2-0.7-0.6-1.2-1.1-1.7s-1-0.9-1.7-1.1c-0.7-0.3-1.4-0.4-2.2-0.4
		c-0.1,0-0.1,0-0.2,0v-1.5c0.1,0,0.1,0,0.2,0c1,0,2,0.2,2.9,0.5s1.6,0.8,2.3,1.4c0.6,0.6,1.1,1.3,1.5,2.2c0.4,0.9,0.5,1.8,0.5,2.8
		s-0.2,1.9-0.5,2.8c-0.3,0.8-0.9,1.6-1.5,2.2s-1.4,1.1-2.3,1.4c-0.9,0.3-1.8,0.5-2.9,0.5c-0.1,0-0.1,0-0.2,0V402.3z M-181.9,397
		c0,0.7,0.2,1.4,0.4,2.1c0.3,0.7,0.7,1.2,1.2,1.7s1.1,0.9,1.8,1.1c0.6,0.3,1.3,0.4,2.1,0.4v1.5c-0.5,0-0.9-0.1-1.4-0.2
		s-1-0.3-1.5-0.5s-0.9-0.5-1.3-0.8c-0.4-0.3-0.7-0.7-1-1.2h-0.1v8.9h-1.8v-19.5h1.8v2.3h0.1c0.3-0.4,0.6-0.8,1-1.2
		c0.4-0.3,0.9-0.6,1.3-0.8c0.5-0.2,1-0.4,1.5-0.5s1-0.1,1.4-0.2v1.5c-0.7,0-1.4,0.1-2.1,0.4c-0.7,0.3-1.3,0.7-1.8,1.1
		c-0.5,0.5-0.9,1-1.2,1.7C-181.8,395.6-181.9,396.3-181.9,397z"/>
	<path class="st0" d="M-156.8,395.9c0-0.6-0.1-1.1-0.4-1.6c-0.2-0.5-0.6-1-1-1.3c-0.4-0.4-0.9-0.7-1.5-0.9c-0.6-0.2-1.2-0.3-1.8-0.3
		h-0.1v-1.5c0.1,0,0.1,0,0.2,0c1,0,2,0.2,2.8,0.5s1.5,0.8,2,1.4s0.9,1.2,1.2,2c0.3,0.7,0.4,1.5,0.4,2.2v1.2h-6.6v-1.5h4.8
		L-156.8,395.9L-156.8,395.9z M-161.6,403.9v-1.5c0.1,0,0.2,0,0.3,0c0.9,0,1.8-0.2,2.6-0.6c0.9-0.4,1.5-1,1.9-1.7l1.3,1.1
		c-0.7,1-1.5,1.7-2.5,2.1s-2.1,0.7-3.3,0.7C-161.3,403.9-161.4,403.9-161.6,403.9z M-161.6,391.7c-0.9,0-1.7,0.2-2.3,0.6
		s-1.1,0.8-1.5,1.3s-0.6,1-0.8,1.4s-0.2,0.8-0.2,1h4.8v1.5h-4.8c0,0.4,0.1,0.8,0.2,1.4c0.1,0.6,0.4,1.1,0.8,1.6
		c0.4,0.5,0.9,1,1.6,1.4c0.6,0.3,1.3,0.5,2.2,0.6v1.5c-0.9,0-1.8-0.2-2.5-0.5c-0.8-0.3-1.6-0.8-2.2-1.4s-1.1-1.3-1.4-2.2
		c-0.3-0.8-0.5-1.8-0.5-2.8s0.2-1.9,0.5-2.7c0.3-0.8,0.8-1.5,1.4-2.2c0.6-0.6,1.3-1.1,2.2-1.4c0.8-0.3,1.6-0.5,2.5-0.5V391.7z"/>
	<path class="st0" d="M-140.8,401.6c-0.7,0.8-1.4,1.3-2.3,1.7c-0.8,0.4-1.8,0.6-2.7,0.6c-1,0-2-0.2-2.9-0.5s-1.6-0.8-2.3-1.4
		c-0.6-0.6-1.1-1.3-1.5-2.2c-0.3-0.8-0.5-1.8-0.5-2.8s0.2-1.9,0.5-2.8c0.4-0.8,0.8-1.6,1.5-2.2c0.6-0.6,1.4-1.1,2.3-1.4
		c0.9-0.3,1.8-0.5,2.9-0.5c1,0,1.9,0.2,2.8,0.6c0.9,0.4,1.6,1,2.3,1.7l-1.4,1c-0.5-0.5-1.1-1-1.7-1.3c-0.6-0.3-1.3-0.5-2-0.5
		c-0.8,0-1.6,0.1-2.2,0.4c-0.7,0.3-1.2,0.7-1.7,1.1c-0.5,0.5-0.8,1-1.1,1.7c-0.2,0.7-0.4,1.3-0.4,2.1c0,0.7,0.1,1.4,0.4,2.1
		c0.2,0.7,0.6,1.2,1.1,1.7s1,0.9,1.7,1.1c0.7,0.3,1.4,0.4,2.2,0.4c0.7,0,1.4-0.2,2-0.5s1.2-0.8,1.6-1.3L-140.8,401.6z"/>
	<g class="st1">
		<g>
			<path class="st0" d="M-131.3,403.9c-4.1,0-7.4-3.3-7.4-7.4c0-2.3,1.2-4.6,3-6c0.3-0.2,0.8-0.2,1.1,0.2c0.2,0.3,0.2,0.8-0.2,1.1
				c-1.5,1.1-2.4,2.9-2.4,4.7c0,3.2,2.6,5.9,5.9,5.9c3.2,0,5.9-2.6,5.9-5.9c0-1.8-0.9-3.7-2.4-4.7c-0.3-0.2-0.4-0.7-0.2-1.1
				c0.2-0.3,0.7-0.4,1.1-0.2c1.9,1.4,3,3.7,3,6C-123.8,400.6-127.1,403.9-131.3,403.9z M-131.3,396.8c-0.4,0-0.8-0.3-0.8-0.8v-7.4
				c0-0.4,0.3-0.8,0.8-0.8c0.4,0,0.8,0.3,0.8,0.8v7.4C-130.6,396.5-130.8,396.8-131.3,396.8z"/>
		</g>
	</g>
	<path class="st0" d="M-123.3,388.6h2v0.4h-0.7v2.2h-0.5V389h-0.7v-0.4H-123.3z M-121.1,388.6h0.8l0.7,1.8c0,0.1,0,0.1,0,0.2
		s0,0.2,0,0.2c0-0.1,0-0.2,0-0.2c0-0.1,0-0.1,0-0.2l0.7-1.8h0.8v2.7h-0.4v-2c0-0.1,0-0.1,0-0.2s0-0.2,0-0.2c0,0.1,0,0.2-0.1,0.2
		c0,0.1,0,0.1,0,0.1l-0.8,2.1h-0.5l-0.7-2c0-0.1,0-0.1-0.1-0.2c0-0.1,0-0.1-0.1-0.2c0,0.2,0,0.3,0,0.3c0,0.1,0,0.1,0,0.1v2h-0.5
		C-121.1,391.2-121.1,388.6-121.1,388.6z"/>
</g>
</svg>
