<?xml version="1.0" encoding="utf-8"?>
<!-- Generator: Adobe Illustrator 19.2.1, SVG Export Plug-In . SVG Version: 6.00 Build 0)  -->
<svg version="1.1" id="svg2684" xmlns="http://www.w3.org/2000/svg" xmlns:xlink="http://www.w3.org/1999/xlink" x="0px" y="0px"
	 width="131px" height="20px" viewBox="0 0 131 20" style="enable-background:new 0 0 131 20;" xml:space="preserve">
<style type="text/css">
	.st0{fill:#9BA4AD;}
</style>
<g>
	<polygon class="st0" points="16.4,0 11.4,15.9 10.4,0 8.9,0 2.2,15.9 2.7,0 0.2,0 0,19.8 3,19.8 8.2,7.7 9.2,19.8 12.2,19.8 19,0 	
		"/>
	<path class="st0" d="M27.3,5h-4.8c-0.4,0-0.9,0.1-1.3,0.2C20.8,5.4,20.4,5.7,20,6c-0.3,0.3-0.7,0.6-1,1c-0.2,0.3-0.4,0.8-0.5,1.2
		c-0.2,1.4-0.5,2.7-0.6,3.7c-0.2,1-0.3,1.8-0.4,2.5c-0.1,0.6-0.1,1.1-0.2,1.5c-0.1,0.3-0.2,0.6-0.2,0.8c-0.1,0.2-0.1,0.2-0.1,0.3
		c0,0.1,0,0.2,0,0.2c0,0.7,0.2,1.4,0.8,1.9s1.2,0.8,2,0.8h5.1c1.2,0,2.2-0.6,3.1-1.7L26.3,17c-0.2,0.5-0.5,0.7-1,0.7h-4.8
		c-0.5,0-0.7-0.2-0.7-0.6c0,0,0,0,0-0.1c0-0.1,0.1-0.2,0.1-0.5c0-0.2,0.1-0.6,0.2-1.1c0.1-0.5,0.2-1.2,0.3-2.1h8.7
		c0.2-1.3,0.4-2.3,0.6-3C29.8,9.6,29.9,9,30,8.7C30,8.3,30,8.1,30,8c0-0.2,0-0.2,0-0.2c0-0.8-0.2-1.4-0.8-1.9
		C28.7,5.3,28.1,5,27.3,5z M27.5,7.9c0,0.1-0.1,0.2-0.1,0.4s-0.1,0.5-0.2,0.9c-0.1,0.4-0.2,1-0.3,1.7h-6.2L21.2,8
		c0.2-0.5,0.5-0.9,1-0.9h4.4C27.2,7.1,27.5,7.4,27.5,7.9L27.5,7.9z"/>
	<path class="st0" d="M43.4,6.2c-0.2-0.3-0.6-0.6-0.9-0.8c-0.2-0.2-0.6-0.3-1-0.3H38c-0.7,0-1.5,0.4-2.5,1.1l1.1-6.2h-2.6l-3.5,19.8
		h2.6l0.2-1c0.6,0.7,1.4,1.1,2.1,1.1h3.4c0.4,0,0.9-0.2,1.3-0.4c0.5-0.3,0.9-0.6,1.3-1s0.7-0.9,1-1.4c0.3-0.5,0.5-1,0.6-1.5
		c0.3-1.8,0.6-3.1,0.7-4.1c0.2-1,0.2-1.7,0.3-2.2C44,9,44.1,8.7,44.1,8.6c0-0.1,0-0.2,0-0.2c0-0.4,0-0.8-0.2-1.2S43.6,6.5,43.4,6.2z
		 M41.6,9.3c-0.1,0.1-0.1,0.4-0.2,0.8c-0.1,0.5-0.2,1.1-0.3,2c-0.2,0.9-0.3,2.1-0.6,3.7c-0.2,1.4-0.9,2.1-2,2.1h-3.4
		c-0.3,0-0.6-0.2-0.8-0.4c-0.2-0.3-0.3-0.6-0.3-1c0,0,0-0.1,0-0.2c0-0.2,0.1-0.4,0.2-1c0.1-0.6,0.2-1.4,0.4-2.5
		c0.2-1,0.5-2.6,0.8-4.6c0.1-0.6,0.5-0.9,1-0.9h3.3c1.4,0,2,0.6,2,1.7C41.6,9.1,41.6,9.1,41.6,9.3z"/>
	<polygon class="st0" points="50.9,2.3 60.2,2.3 60.6,0 48.6,0 45.1,19.8 47.7,19.8 49.3,10.9 56.1,10.9 56.5,8.7 49.7,8.7 	"/>
	<path class="st0" d="M68.7,6.1C68.1,5.4,67.3,5,66.6,5h-3.4c-0.4,0-0.9,0.2-1.3,0.4c-0.4,0.2-0.8,0.6-1.2,1c-0.4,0.4-0.7,0.8-1,1.4
		c-0.2,0.5-0.5,1-0.6,1.5c-0.3,1.8-0.6,3.1-0.7,4.1S58.1,15,58,15.4c-0.1,0.5-0.2,0.8-0.2,0.9c0,0.2,0,0.2,0,0.2
		c0,0.4,0.1,0.8,0.2,1.2c0.1,0.4,0.3,0.7,0.6,1c0.2,0.3,0.6,0.6,0.9,0.8c0.2,0.2,0.6,0.3,1,0.3h3.4c0.7,0,1.6-0.6,2.6-1.9l-0.3,1.9
		h2.6l2.6-14.8h-2.6L68.7,6.1z M67,15.4c-0.2,1.5-0.9,2.2-1.8,2.2v-0.2h-3.4c-0.9,0-1.3-0.5-1.3-1.4c0-0.1,0-0.2,0-0.2
		c0.1-0.1,0.1-0.4,0.2-0.8c0.1-0.5,0.2-1.1,0.3-2c0.2-0.9,0.3-2.1,0.6-3.7C61.9,7.8,62.8,7,64.4,7h1.9c0.5,0,1,0,1.4,0
		c0.5,0.2,0.7,0.2,0.8,0.2L67,15.4z"/>
	<path class="st0" d="M74.1,16.5c0.1-0.2,0.1-0.5,0.2-0.8c0-0.4,0.2-0.9,0.2-1.5c0.1-0.6,0.2-1.4,0.4-2.4s0.4-2.2,0.6-3.6
		c0.2-0.6,0.5-0.9,1-0.9h4.9c0.5,0,0.7,0.2,0.7,0.7l2.4-1.3C84.2,5.5,83.3,5,82.1,5h-5.2C76.5,5,76,5,75.6,5.2
		c-0.5,0.2-0.9,0.4-1.2,0.7s-0.6,0.6-0.9,1c-0.2,0.3-0.4,0.8-0.5,1.2c-0.2,1.4-0.5,2.7-0.6,3.7c-0.2,1-0.4,1.8-0.5,2.5
		c-0.1,0.6-0.2,1.1-0.2,1.5c-0.1,0.3-0.2,0.6-0.2,0.8c-0.1,0.2-0.1,0.2-0.1,0.3c0,0.1,0,0.2,0,0.2c0,0.7,0.2,1.4,0.8,1.9
		c0.6,0.6,1.2,0.8,2,0.8h5.2c1.2,0,2.2-0.6,3.1-1.7l-2-1.4c-0.2,0.5-0.5,0.7-1,0.7h-4.9c-0.5,0-0.7-0.2-0.7-0.6v-0.1
		C74,16.7,74.1,16.6,74.1,16.5z"/>
	<path class="st0" d="M93.5,0h-2.6L90,5h-2.8l-0.4,2.2h2.8c-0.2,1.7-0.6,3-0.7,4.2c-0.2,1.1-0.3,2.2-0.5,2.9s-0.2,1.4-0.3,1.8
		c-0.1,0.4-0.2,0.7-0.2,1c-0.1,0.2-0.1,0.3-0.1,0.4v0.2c0,0.7,0.2,1.3,0.8,1.8c0.6,0.4,1.2,0.6,2.1,0.6h2.5l0.4-2.3h-2.6
		c-0.4,0-0.6-0.2-0.6-0.5v-0.1c0,0,0.1-0.2,0.1-0.3c0-0.2,0.1-0.5,0.2-0.9c0.1-0.5,0.2-1,0.3-1.8c0.1-0.7,0.3-1.7,0.5-2.8
		s0.4-2.5,0.7-4.2l0,0h3.7L96.3,5h-3.8L93.5,0z"/>
	<polygon class="st0" points="99.9,2.3 102.5,2.3 102.9,0 100.3,0 	"/>
	<polygon class="st0" points="96.9,19.8 99.5,19.8 102.1,5.1 99.5,5.1 	"/>
	<path class="st0" d="M113.6,5h-5.2c-0.4,0-0.9,0.1-1.3,0.2c-0.5,0.2-0.8,0.4-1.2,0.7c-0.3,0.3-0.6,0.6-0.9,1
		c-0.2,0.3-0.4,0.8-0.5,1.2c-0.2,1.4-0.5,2.7-0.6,3.7c-0.2,1-0.4,1.8-0.5,2.5c-0.1,0.6-0.2,1.1-0.2,1.5c-0.1,0.3-0.2,0.6-0.2,0.8
		C103,16.9,103,17,103,17c0,0.1,0,0.2,0,0.2c0,0.7,0.2,1.4,0.8,1.9s1.2,0.8,2,0.8h5.2c0.5,0,1-0.1,1.4-0.2s0.8-0.4,1.1-0.7
		c0.3-0.3,0.6-0.6,0.9-1c0.2-0.3,0.4-0.8,0.5-1.2c0.2-1.4,0.5-2.7,0.6-3.7c0.2-1,0.4-1.8,0.5-2.5c0.1-0.6,0.2-1.1,0.2-1.5
		c0.1-0.3,0.2-0.6,0.2-0.8c0.1-0.2,0.1-0.3,0.1-0.4V7.7c0-0.8-0.2-1.4-0.8-1.9C115,5.3,114.4,5,113.6,5z M113.7,7.8L113.7,7.8
		c0,0.2-0.1,0.2-0.1,0.4c-0.1,0.2-0.1,0.4-0.2,0.8c0,0.3-0.2,0.9-0.2,1.5c-0.1,0.6-0.2,1.5-0.4,2.5c-0.2,1-0.4,2.2-0.6,3.7
		c-0.2,0.6-0.5,0.9-1,0.9h-4.8c-0.5,0-0.7-0.2-0.7-0.6v-0.2c0-0.1,0.1-0.2,0.1-0.3c0.1-0.2,0.1-0.4,0.2-0.8c0.1-0.4,0.2-0.9,0.2-1.5
		c0.2-0.6,0.3-1.4,0.5-2.5c0.2-1,0.4-2.2,0.6-3.7c0.2-0.6,0.5-0.9,1-0.9h4.8C113.6,7.1,113.8,7.4,113.7,7.8z"/>
	<path class="st0" d="M130.8,7.3c-0.1-0.5-0.3-0.9-0.6-1.2c-0.3-0.3-0.6-0.6-0.9-0.8C129,5,128.7,5,128.4,5v0.2h-3
		c-0.7,0-1.7,0.4-2.9,1.4l0.2-1.4h-2.6L117.6,20h2.6l2.2-12.5c0.2-0.1,0.4-0.1,0.8-0.1s0.8,0,1.2,0c0.7,0,1.4,0.1,2,0.1
		c0.6,0,1,0.1,1.1,0.1c0.7,0.2,1,0.8,1,1.6c0,0.1,0,0.1,0,0.2c0,0.1-0.1,0.2-0.1,0.4c-0.1,0.2-0.1,0.5-0.2,1c-0.1,0.4-0.2,1-0.3,1.8
		c-0.2,0.7-0.3,1.8-0.6,3c-0.2,1.2-0.5,2.6-0.8,4.4h2.6c0.3-1.8,0.6-3.3,0.8-4.6c0.2-1.3,0.4-2.3,0.6-3.1s0.2-1.4,0.3-1.9
		c0.1-0.5,0.2-0.8,0.2-1C131,9,131,8.9,131,8.8s0-0.2,0-0.2C131,8.2,131,7.7,130.8,7.3z"/>
</g>
</svg>
