<?xml version="1.0" encoding="utf-8"?>
<!-- Generator: Adobe Illustrator 17.1.0, SVG Export Plug-In . SVG Version: 6.00 Build 0)  -->
<!DOCTYPE svg PUBLIC "-//W3C//DTD SVG 1.1//EN" "http://www.w3.org/Graphics/SVG/1.1/DTD/svg11.dtd">
<svg version="1.1" id="Layer_1" xmlns="http://www.w3.org/2000/svg" xmlns:xlink="http://www.w3.org/1999/xlink" x="0px" y="0px"
	 width="140.8px" height="100px" viewBox="0 0 140.8 100" enable-background="new 0 0 140.8 100" xml:space="preserve">
<path fill="#010101" d="M95,42.4l-69.1,0L55.4,13c3-3,3-7.8,0-10.8c-3-3-7.8-3-10.8,0L2.2,44.6c-0.4,0.4-0.7,0.7-0.9,1.2
	C1.2,46,1.1,46.1,1,46.3c-0.1,0.3-0.3,0.5-0.4,0.8c-0.1,0.2-0.1,0.5-0.2,0.7c-0.1,0.2-0.2,0.5-0.2,0.7C0.1,48.9,0,49.3,0,49.7
	c0,0.1,0,0.2,0,0.3c0,0.1,0,0.2,0,0.3c0,0.4,0,0.8,0.1,1.1c0.1,0.3,0.2,0.5,0.2,0.8c0.1,0.2,0.1,0.4,0.2,0.6
	c0.1,0.3,0.3,0.6,0.4,0.8c0.1,0.2,0.2,0.3,0.3,0.5c0.3,0.4,0.6,0.8,1,1.2l42.4,42.4c1.5,1.5,3.4,2.2,5.4,2.2c2,0,3.9-0.7,5.4-2.2
	c3-3,3-7.8,0-10.8L26,57.6h69c16.9,0,30.6,13.7,30.6,30.6c0,4.2,3.4,7.6,7.6,7.6c4.2,0,7.6-3.4,7.6-7.6
	C140.8,62.9,120.3,42.4,95,42.4"/>
</svg>
