<?xml version="1.0" encoding="utf-8"?>
<!-- Generator: Adobe Illustrator 19.2.1, SVG Export Plug-In . SVG Version: 6.00 Build 0)  -->
<svg version="1.1" id="Layer_1" xmlns="http://www.w3.org/2000/svg" xmlns:xlink="http://www.w3.org/1999/xlink" x="0px" y="0px"
	 width="63px" height="100px" viewBox="0 0 63 100" style="enable-background:new 0 0 63 100;" xml:space="preserve">
<style type="text/css">
	.st0{fill:#010101;}
</style>
<g>
	<path class="st0" d="M30.2,86.5c0.2,0.2,0.4,0.3,0.6,0.4C31,87,31.3,87,31.5,87s0.5,0,0.7-0.1c0.2-0.1,0.4-0.2,0.6-0.4l29.6-29.6
		c0.7-0.7,0.7-1.9,0-2.6s-1.9-0.7-2.6,0L33.4,80.7V1.9c0-1-0.8-1.9-1.9-1.9c-1,0-1.9,0.8-1.9,1.9v78.9L3.2,54.2
		c-0.7-0.7-1.9-0.7-2.6,0s-0.7,1.9,0,2.6L30.2,86.5z"/>
	<path class="st0" d="M61.1,96.3H1.9c-1,0-1.9,0.8-1.9,1.9s0.8,1.9,1.9,1.9h59.3c1,0,1.9-0.8,1.9-1.9S62.2,96.3,61.1,96.3z"/>
</g>
</svg>
