<?xml version="1.0" encoding="utf-8"?>
<!-- Generator: Adobe Illustrator 17.1.0, SVG Export Plug-In . SVG Version: 6.00 Build 0)  -->
<!DOCTYPE svg PUBLIC "-//W3C//DTD SVG 1.1//EN" "http://www.w3.org/Graphics/SVG/1.1/DTD/svg11.dtd">
<svg version="1.1" id="Layer_1" xmlns="http://www.w3.org/2000/svg" xmlns:xlink="http://www.w3.org/1999/xlink" x="0px" y="0px"
	 width="157.9px" height="100px" viewBox="0 0 157.9 100" enable-background="new 0 0 157.9 100" xml:space="preserve">
<g>
	<g>
		<path d="M72.4,10.4c3,4.1,4.5,9.1,4.5,14.9c0,6-1.5,10.7-4.5,14.4c-1.7,2-4.2,3.9-7.4,5.6c5,1.8,8.7,4.7,11.3,8.6
			c2.5,3.9,3.8,8.7,3.8,14.3c0,5.8-1.5,11-4.4,15.6c-1.8,3-4.1,5.6-6.9,7.7c-3.1,2.4-6.8,4-11,4.9c-4.2,0.9-8.8,1.3-13.8,1.3H0V0
			h47.1C59,0.2,67.5,3.6,72.4,10.4 M19.5,16.9v21.5h23.7c4.2,0,7.7-0.8,10.3-2.4c2.6-1.6,4-4.5,4-8.6c0-4.6-1.7-7.6-5.2-9
			c-3-1-6.9-1.5-11.5-1.5H19.5z M19.5,54.6v26h23.7c4.2,0,7.5-0.6,9.9-1.7c4.3-2.1,6.4-6.2,6.4-12.2c0-5.1-2.1-8.6-6.2-10.5
			c-2.3-1.1-5.6-1.6-9.8-1.7H19.5z"/>
		<path d="M139,26.9c5,2.3,9.2,5.8,12.5,10.7c3,4.3,4.9,9.3,5.8,14.9c0.5,3.3,0.7,8.1,0.6,14.3h-52.5c0.3,7.2,2.8,12.3,7.5,15.2
			c2.9,1.8,6.4,2.7,10.4,2.7c4.3,0,7.8-1.1,10.5-3.3c1.5-1.2,2.8-2.8,3.9-5h19.3c-0.5,4.3-2.8,8.6-7,13c-6.5,7-15.5,10.5-27.1,10.5
			c-9.6,0-18.1-3-25.4-8.9c-7.3-5.9-11-15.5-11-28.9c0-12.5,3.3-22.1,9.9-28.8c6.6-6.7,15.2-10,25.8-10
			C128.3,23.5,134,24.6,139,26.9 M110.8,43.2c-2.7,2.7-4.3,6.5-5,11.2h32.5c-0.3-5-2-8.8-5-11.4c-3-2.6-6.7-3.9-11.2-3.9
			C117.2,39.1,113.4,40.4,110.8,43.2"/>
		<rect x="100.9" y="4.6" width="41.8" height="12.1"/>
	</g>
</g>
</svg>
