<?xml version="1.0" encoding="utf-8"?>
<!-- Generator: Adobe Illustrator 19.0.0, SVG Export Plug-In . SVG Version: 6.00 Build 0)  -->
<svg version="1.1" id="Layer_1" xmlns="http://www.w3.org/2000/svg" xmlns:xlink="http://www.w3.org/1999/xlink" x="0px" y="0px"
	 width="100px" height="100px" viewBox="-283.3 347.1 100 100" style="enable-background:new -283.3 347.1 100 100;"
	 xml:space="preserve">
<g>
	<path d="M-237.3,424.7L-237.3,424.7c-0.8-0.1-1.5,0.1-2,0.7l-11.5,11.4c-2.2,2.2-5,3.9-8.1,4.5c-5.2,1-10.2-0.6-13.9-4.2
		c-2.9-2.9-4.5-6.7-4.5-10.7c0-4,1.5-7.9,4.5-10.7l19.9-19.8c3.8-3.8,9.1-5.3,14.4-4c1.5,0.4,3.1,1,4.3,1.8c1.8,1.1,3.4,2.5,4.5,4.2
		c1,1.4,2.8,1.7,4.1,0.6c0.1,0,0.1-0.1,0.1-0.1c1.1-0.8,1.4-2.5,0.6-3.6c-1.5-2.4-3.8-4.5-6.3-6c-1.7-1-3.4-1.8-5.3-2.2
		c-7.3-1.8-14.6,0.3-19.6,5.3l-21.3,20.9c-8,7.9-8,20.8,0,28.6c3.8,3.8,9,6,14.4,6s10.5-2.1,14.4-6l12.8-12.7
		C-234.5,427.2-235.3,424.8-237.3,424.7z"/>
	<path d="M-220.2,408.8c-0.8-1-2.2-1.3-3.5-0.6c-3.4,2-7.4,2.5-11.5,1.5c-1.7-0.4-3.2-1.1-4.6-2.1c-1.5-1.1-2.9-2.4-4.1-3.9
		c-1-1.4-2.8-1.5-4.1-0.6c-0.1,0-0.1,0.1-0.3,0.1c-1,0.8-1.3,2.5-0.6,3.6c0.7,1.1,1.5,2.1,2.5,3.1c3.8,3.8,9,6,14.4,6
		c3.9,0,7.7-1.1,10.9-3.2C-219.5,412-219.2,410.2-220.2,408.8L-220.2,408.8z"/>
	<path d="M-208.5,376c-0.3,1.4,0.6,2.9,2,3.2l0.4,0.1c1.5,0.4,3.2-0.6,3.5-2.1c2.7-12.4,0.4-21.1-6.9-25.8c-0.6-0.4-2.4-1.4-2.9-1.8
		c-2.9-1.5-6.3-2.5-9.7-2.5c-7.4,0-14.6,2.1-19.3,10.6l-8.1,15.2c-1.1,2,0.6,4.5,2.9,4c0.1,0,0.3,0,0.3,0c1-0.1,1.8-0.7,2.2-1.5
		l7.7-14.2c2.7-4.9,7.8-7.9,13.5-7.9c2.5,0,5,0.7,7.4,1.8C-210.2,358.3-205.9,363-208.5,376z"/>
	<path d="M-197.5,390.7l6.9-0.3c1.5,0,2.7-1.3,2.5-2.8c-0.1-1.5-1.3-2.6-2.8-2.5l-6.9,0.3c-1.5,0-2.7,1.3-2.5,2.8
		C-200.1,389.7-199,390.8-197.5,390.7z"/>
	<path d="M-185,403.9l-14.2-5.7c-1.4-0.6-2.9,0.1-3.5,1.5c-0.6,1.4,0.1,2.9,1.5,3.5l14.2,5.7c1.4,0.6,2.9-0.1,3.5-1.5
		C-183,406-183.6,404.5-185,403.9z"/>
	<path d="M-203.9,408.5c-1-1.1-2.7-1.1-3.8-0.1c-1.1,1-1.1,2.6-0.1,3.8l6.3,6.6c1,1.1,2.7,1.1,3.8,0.1c1.1-1,1.1-2.6,0.1-3.8
		L-203.9,408.5z"/>
</g>
</svg>
