<?xml version="1.0" encoding="utf-8"?>
<!-- Generator: Adobe Illustrator 19.0.0, SVG Export Plug-In . SVG Version: 6.00 Build 0)  -->
<svg version="1.1" id="Layer_1" xmlns="http://www.w3.org/2000/svg" xmlns:xlink="http://www.w3.org/1999/xlink" x="0px" y="0px"
	 width="100px" height="100px" viewBox="0 0 100 100" style="enable-background:new 0 0 100 100;" xml:space="preserve">
<style type="text/css">
	.st0{fill:#010101;}
</style>
<g id="XMLID_1_">
	<path id="XMLID_104_" class="st0" d="M79.7,74c0-0.1,0-0.2,0.1-0.3c0-0.1,0-0.2,0.1-0.3c0.1-0.5,0.1-0.9,0.1-1.4v-1.7v-6.7v-3.4
		v-6.7v-3.4v-6.7v-3.4v-6.7V30v-6.7c0.9,0,1.7-0.7,1.7-1.7S80.9,20,80,20V8c0-4.4-3.6-8-8-8H8C3.6,0,0,3.6,0,8v64c0,4.4,3.6,8,8,8
		h12c0,0.9,0.7,1.7,1.7,1.7c0.9,0,1.7-0.7,1.7-1.7h6.7h3.4h6.7h3.4h6.7h3.4h6.7h3.4h6.7H72c0.5,0,1-0.1,1.4-0.1c0.1,0,0.2,0,0.3-0.1
		c0.1,0,0.2,0,0.3-0.1c0.1,0,0.1-0.1,0.2-0.1c2.6-0.8,4.6-2.8,5.4-5.4C79.7,74.2,79.7,74.1,79.7,74z M73.1,76.5
		c-0.4,0.1-0.7,0.1-1.1,0.1h-1.7h-6.7h-3.4h-6.7h-3.4h-6.7h-3.4h-6.7h-3.4h-6.7H20H8c-2.6,0-4.7-2.1-4.7-4.7V8
		c0-2.6,2.1-4.7,4.7-4.7h64c2.6,0,4.7,2.1,4.7,4.7v12v3.3V30v3.4v6.7v3.4v6.7v3.4v6.7v3.4v6.7V72c0,0.4-0.1,0.7-0.1,1.1
		C76.1,74.8,74.8,76.1,73.1,76.5z"/>
	<path id="XMLID_108_" class="st0" d="M35.3,96.7H32c-0.9,0-1.7,0.7-1.7,1.7s0.7,1.7,1.7,1.7h3.2c0.9,0,1.7-0.7,1.7-1.7
		S36.2,96.7,35.3,96.7z"/>
	<path id="XMLID_109_" class="st0" d="M26.2,96.3c-0.7-0.3-1.4-0.8-1.9-1.4c-0.6-0.7-1.6-0.8-2.3-0.3c-0.7,0.6-0.8,1.6-0.3,2.3
		c0.8,1.1,2,1.9,3.2,2.4c0.2,0.1,0.4,0.1,0.6,0.1c0.7,0,1.3-0.4,1.5-1C27.5,97.6,27.1,96.7,26.2,96.3z"/>
	<path id="XMLID_110_" class="st0" d="M23.3,89.7v-3.2c0-0.9-0.7-1.7-1.7-1.7c-0.9,0-1.7,0.7-1.7,1.7v3.2c0,0.9,0.7,1.7,1.7,1.7
		C22.6,91.4,23.3,90.7,23.3,89.7z"/>
	<path id="XMLID_111_" class="st0" d="M45,96.7h-3.2c-0.9,0-1.7,0.7-1.7,1.7s0.7,1.7,1.7,1.7H45c0.9,0,1.7-0.7,1.7-1.7
		S45.9,96.7,45,96.7z"/>
	<path id="XMLID_142_" class="st0" d="M64.5,96.7h-3.2c-0.9,0-1.7,0.7-1.7,1.7s0.7,1.7,1.7,1.7h3.2c0.9,0,1.7-0.7,1.7-1.7
		S65.4,96.7,64.5,96.7z"/>
	<path id="XMLID_143_" class="st0" d="M74.2,96.7H71c-0.9,0-1.7,0.7-1.7,1.7s0.7,1.7,1.7,1.7h3.2c0.9,0,1.7-0.7,1.7-1.7
		S75.1,96.7,74.2,96.7z"/>
	<path id="XMLID_144_" class="st0" d="M54.7,96.7h-3.2c-0.9,0-1.7,0.7-1.7,1.7s0.7,1.7,1.7,1.7h3.2c0.9,0,1.7-0.7,1.7-1.7
		S55.7,96.7,54.7,96.7z"/>
	<path id="XMLID_145_" class="st0" d="M84,96.7h-3.2c-0.9,0-1.7,0.7-1.7,1.7s0.7,1.7,1.7,1.7H84c0.9,0,1.7-0.7,1.7-1.7
		S84.9,96.7,84,96.7z"/>
	<path id="XMLID_146_" class="st0" d="M93.2,96.5c-0.4,0.1-0.8,0.2-1.3,0.2h-1.5c-0.9,0-1.7,0.7-1.7,1.7s0.7,1.7,1.7,1.7H92
		c0.7,0,1.4-0.1,2.1-0.3c0.9-0.2,1.4-1.2,1.2-2C95,96.8,94.1,96.3,93.2,96.5z"/>
	<path id="XMLID_147_" class="st0" d="M98.3,88.8c-0.9,0-1.7,0.7-1.7,1.7V92c0,0.4-0.1,0.9-0.2,1.3c-0.3,0.9,0.3,1.8,1.1,2.1
		c0.2,0,0.3,0.1,0.5,0.1c0.7,0,1.4-0.5,1.6-1.2c0.2-0.7,0.3-1.5,0.3-2.2v-1.5C100,89.6,99.3,88.8,98.3,88.8z"/>
	<path id="XMLID_148_" class="st0" d="M98.3,30.4c-0.9,0-1.7,0.7-1.7,1.7v3.2c0,0.9,0.7,1.7,1.7,1.7c0.9,0,1.7-0.7,1.7-1.7v-3.2
		C100,31.2,99.3,30.4,98.3,30.4z"/>
	<path id="XMLID_149_" class="st0" d="M98.3,79.1c-0.9,0-1.7,0.7-1.7,1.7V84c0,0.9,0.7,1.7,1.7,1.7c0.9,0,1.7-0.7,1.7-1.7v-3.2
		C100,79.8,99.3,79.1,98.3,79.1z"/>
	<path id="XMLID_150_" class="st0" d="M98.3,40.2c-0.9,0-1.7,0.7-1.7,1.7v3.2c0,0.9,0.7,1.7,1.7,1.7c0.9,0,1.7-0.7,1.7-1.7v-3.2
		C100,40.9,99.3,40.2,98.3,40.2z"/>
	<path id="XMLID_151_" class="st0" d="M91.5,21.7c0-0.9-0.7-1.7-1.7-1.7h-3.2c-0.9,0-1.7,0.7-1.7,1.7s0.7,1.7,1.7,1.7h3.2
		C90.7,23.3,91.5,22.6,91.5,21.7z"/>
	<path id="XMLID_152_" class="st0" d="M98.3,59.6c-0.9,0-1.7,0.7-1.7,1.7v3.2c0,0.9,0.7,1.7,1.7,1.7c0.9,0,1.7-0.7,1.7-1.7v-3.2
		C100,60.4,99.3,59.6,98.3,59.6z"/>
	<path id="XMLID_153_" class="st0" d="M98.3,49.9c-0.9,0-1.7,0.7-1.7,1.7v3.2c0,0.9,0.7,1.7,1.7,1.7c0.9,0,1.7-0.7,1.7-1.7v-3.2
		C100,50.6,99.3,49.9,98.3,49.9z"/>
	<path id="XMLID_154_" class="st0" d="M98.3,69.4c-0.9,0-1.7,0.7-1.7,1.7v3.2c0,0.9,0.7,1.7,1.7,1.7c0.9,0,1.7-0.7,1.7-1.7V71
		C100,70.1,99.3,69.4,98.3,69.4z"/>
	<path id="XMLID_155_" class="st0" d="M97.9,27.3c0.2,0,0.4,0,0.6-0.1c0.9-0.3,1.3-1.3,0.9-2.2c-0.5-1.3-1.3-2.4-2.4-3.3
		c-0.7-0.6-1.8-0.5-2.3,0.3c-0.6,0.7-0.5,1.8,0.3,2.3c0.6,0.5,1.1,1.2,1.4,1.9C96.6,26.9,97.2,27.3,97.9,27.3z"/>
	<circle id="XMLID_156_" class="st0" cx="13.3" cy="13.3" r="1.7"/>
	<circle id="XMLID_157_" class="st0" cx="8.3" cy="8.3" r="1.7"/>
	<circle id="XMLID_158_" class="st0" cx="18.3" cy="8.3" r="1.7"/>
	<circle id="XMLID_159_" class="st0" cx="23.3" cy="13.3" r="1.7"/>
	<circle id="XMLID_160_" class="st0" cx="33.3" cy="13.3" r="1.7"/>
	<circle id="XMLID_161_" class="st0" cx="53.3" cy="13.3" r="1.7"/>
	<circle id="XMLID_162_" class="st0" cx="28.3" cy="8.3" r="1.7"/>
	<circle id="XMLID_163_" class="st0" cx="38.3" cy="8.3" r="1.7"/>
	<circle id="XMLID_164_" class="st0" cx="43.3" cy="13.3" r="1.7"/>
	<circle id="XMLID_165_" class="st0" cx="48.3" cy="8.3" r="1.7"/>
	<circle id="XMLID_166_" class="st0" cx="58.3" cy="8.3" r="1.7"/>
	<circle id="XMLID_167_" class="st0" cx="63.3" cy="13.3" r="1.7"/>
	<circle id="XMLID_168_" class="st0" cx="68.3" cy="8.3" r="1.7"/>
	<circle id="XMLID_169_" class="st0" cx="73.3" cy="13.3" r="1.7"/>
	<circle id="XMLID_170_" class="st0" cx="13.3" cy="33.3" r="1.7"/>
	<circle id="XMLID_171_" class="st0" cx="13.3" cy="23.3" r="1.7"/>
	<circle id="XMLID_172_" class="st0" cx="8.3" cy="18.3" r="1.7"/>
	<circle id="XMLID_173_" class="st0" cx="8.3" cy="28.3" r="1.7"/>
	<circle id="XMLID_174_" class="st0" cx="18.3" cy="18.3" r="1.7"/>
	<circle id="XMLID_175_" class="st0" cx="23.3" cy="23.3" r="1.7"/>
	<circle id="XMLID_176_" class="st0" cx="33.3" cy="23.3" r="1.7"/>
	<circle id="XMLID_177_" class="st0" cx="28.3" cy="18.3" r="1.7"/>
	<circle id="XMLID_178_" class="st0" cx="18.3" cy="28.3" r="1.7"/>
	<circle id="XMLID_179_" class="st0" cx="23.3" cy="33.3" r="1.7"/>
	<circle id="XMLID_180_" class="st0" cx="33.3" cy="33.3" r="1.7"/>
	<circle id="XMLID_181_" class="st0" cx="53.3" cy="33.3" r="1.7"/>
	<circle id="XMLID_182_" class="st0" cx="28.3" cy="28.3" r="1.7"/>
	<circle id="XMLID_183_" class="st0" cx="38.3" cy="18.3" r="1.7"/>
	<circle id="XMLID_184_" class="st0" cx="43.3" cy="23.3" r="1.7"/>
	<circle id="XMLID_185_" class="st0" cx="53.3" cy="23.3" r="1.7"/>
	<circle id="XMLID_186_" class="st0" cx="48.3" cy="18.3" r="1.7"/>
	<circle id="XMLID_187_" class="st0" cx="38.3" cy="28.3" r="1.7"/>
	<circle id="XMLID_188_" class="st0" cx="43.3" cy="33.3" r="1.7"/>
	<circle id="XMLID_189_" class="st0" cx="48.3" cy="28.3" r="1.7"/>
	<circle id="XMLID_190_" class="st0" cx="58.3" cy="18.3" r="1.7"/>
	<circle id="XMLID_191_" class="st0" cx="58.3" cy="28.3" r="1.7"/>
	<circle id="XMLID_192_" class="st0" cx="63.3" cy="33.3" r="1.7"/>
	<circle id="XMLID_193_" class="st0" cx="63.3" cy="23.3" r="1.7"/>
	<circle id="XMLID_194_" class="st0" cx="68.3" cy="18.3" r="1.7"/>
	<circle id="XMLID_195_" class="st0" cx="68.3" cy="28.3" r="1.7"/>
	<circle id="XMLID_196_" class="st0" cx="73.3" cy="33.3" r="1.7"/>
	<circle id="XMLID_197_" class="st0" cx="73.3" cy="23.3" r="1.7"/>
	<circle id="XMLID_198_" class="st0" cx="13.3" cy="53.3" r="1.7"/>
	<circle id="XMLID_199_" class="st0" cx="13.3" cy="43.3" r="1.7"/>
	<circle id="XMLID_200_" class="st0" cx="8.3" cy="38.3" r="1.7"/>
	<circle id="XMLID_201_" class="st0" cx="8.3" cy="48.3" r="1.7"/>
	<circle id="XMLID_202_" class="st0" cx="18.3" cy="38.3" r="1.7"/>
	<circle id="XMLID_203_" class="st0" cx="23.3" cy="43.3" r="1.7"/>
	<circle id="XMLID_204_" class="st0" cx="33.3" cy="43.3" r="1.7"/>
	<circle id="XMLID_205_" class="st0" cx="28.3" cy="38.3" r="1.7"/>
	<circle id="XMLID_206_" class="st0" cx="18.3" cy="48.3" r="1.7"/>
	<circle id="XMLID_207_" class="st0" cx="23.3" cy="53.3" r="1.7"/>
	<circle id="XMLID_208_" class="st0" cx="33.3" cy="53.3" r="1.7"/>
	<circle id="XMLID_209_" class="st0" cx="53.3" cy="53.3" r="1.7"/>
	<circle id="XMLID_210_" class="st0" cx="28.3" cy="48.3" r="1.7"/>
	<circle id="XMLID_211_" class="st0" cx="38.3" cy="38.3" r="1.7"/>
	<circle id="XMLID_212_" class="st0" cx="43.3" cy="43.3" r="1.7"/>
	<circle id="XMLID_213_" class="st0" cx="53.3" cy="43.3" r="1.7"/>
	<circle id="XMLID_214_" class="st0" cx="48.3" cy="38.3" r="1.7"/>
	<circle id="XMLID_215_" class="st0" cx="38.3" cy="48.3" r="1.7"/>
	<circle id="XMLID_216_" class="st0" cx="43.3" cy="53.3" r="1.7"/>
	<circle id="XMLID_217_" class="st0" cx="48.3" cy="48.3" r="1.7"/>
	<circle id="XMLID_218_" class="st0" cx="58.3" cy="38.3" r="1.7"/>
	<circle id="XMLID_219_" class="st0" cx="58.3" cy="48.3" r="1.7"/>
	<circle id="XMLID_220_" class="st0" cx="63.3" cy="53.3" r="1.7"/>
	<circle id="XMLID_221_" class="st0" cx="63.3" cy="43.3" r="1.7"/>
	<circle id="XMLID_222_" class="st0" cx="68.3" cy="38.3" r="1.7"/>
	<circle id="XMLID_223_" class="st0" cx="68.3" cy="48.3" r="1.7"/>
	<circle id="XMLID_224_" class="st0" cx="73.3" cy="53.3" r="1.7"/>
	<circle id="XMLID_225_" class="st0" cx="73.3" cy="43.3" r="1.7"/>
	<circle id="XMLID_226_" class="st0" cx="13.3" cy="73.3" r="1.7"/>
	<circle id="XMLID_227_" class="st0" cx="13.3" cy="63.3" r="1.7"/>
	<circle id="XMLID_228_" class="st0" cx="8.3" cy="58.3" r="1.7"/>
	<circle id="XMLID_229_" class="st0" cx="8.3" cy="68.3" r="1.7"/>
	<circle id="XMLID_230_" class="st0" cx="18.3" cy="58.3" r="1.7"/>
	<circle id="XMLID_231_" class="st0" cx="23.3" cy="63.3" r="1.7"/>
	<circle id="XMLID_232_" class="st0" cx="33.3" cy="63.3" r="1.7"/>
	<circle id="XMLID_233_" class="st0" cx="28.3" cy="58.3" r="1.7"/>
	<circle id="XMLID_234_" class="st0" cx="18.3" cy="68.3" r="1.7"/>
	<circle id="XMLID_235_" class="st0" cx="23.3" cy="73.3" r="1.7"/>
	<circle id="XMLID_236_" class="st0" cx="33.3" cy="73.3" r="1.7"/>
	<circle id="XMLID_237_" class="st0" cx="53.3" cy="73.3" r="1.7"/>
	<circle id="XMLID_238_" class="st0" cx="28.3" cy="68.3" r="1.7"/>
	<circle id="XMLID_239_" class="st0" cx="38.3" cy="58.3" r="1.7"/>
	<circle id="XMLID_240_" class="st0" cx="43.3" cy="63.3" r="1.7"/>
	<circle id="XMLID_241_" class="st0" cx="53.3" cy="63.3" r="1.7"/>
	<circle id="XMLID_242_" class="st0" cx="48.3" cy="58.3" r="1.7"/>
	<circle id="XMLID_243_" class="st0" cx="38.3" cy="68.3" r="1.7"/>
	<circle id="XMLID_244_" class="st0" cx="43.3" cy="73.3" r="1.7"/>
	<circle id="XMLID_245_" class="st0" cx="48.3" cy="68.3" r="1.7"/>
	<circle id="XMLID_246_" class="st0" cx="58.3" cy="58.3" r="1.7"/>
	<circle id="XMLID_247_" class="st0" cx="58.3" cy="68.3" r="1.7"/>
	<circle id="XMLID_248_" class="st0" cx="63.3" cy="73.3" r="1.7"/>
	<circle id="XMLID_249_" class="st0" cx="63.3" cy="63.3" r="1.7"/>
	<circle id="XMLID_250_" class="st0" cx="68.3" cy="58.3" r="1.7"/>
	<circle id="XMLID_251_" class="st0" cx="68.3" cy="68.3" r="1.7"/>
	<circle id="XMLID_252_" class="st0" cx="73.3" cy="73.3" r="1.7"/>
	<circle id="XMLID_253_" class="st0" cx="73.3" cy="63.3" r="1.7"/>
</g>
</svg>
