<?xml version="1.0" encoding="utf-8"?>
<!-- Generator: Adobe Illustrator 17.1.0, SVG Export Plug-In . SVG Version: 6.00 Build 0)  -->
<!DOCTYPE svg PUBLIC "-//W3C//DTD SVG 1.1//EN" "http://www.w3.org/Graphics/SVG/1.1/DTD/svg11.dtd">
<svg version="1.1" id="Layer_1" xmlns="http://www.w3.org/2000/svg" xmlns:xlink="http://www.w3.org/1999/xlink" x="0px" y="0px"
	 width="91.7px" height="100px" viewBox="0 0 91.7 100" enable-background="new 0 0 91.7 100" xml:space="preserve">
<path fill="#010101" d="M91.4,21.8L79.8,10.3c-0.2-0.2-0.5-0.4-0.9-0.4H50.4V4.5c0-2.5-2-4.5-4.5-4.5c-2.5,0-4.5,2-4.5,4.5v5.4H19.4
	c-1.6,0-2.9,1.3-2.9,2.9v19.8c0,1.6,1.3,2.9,2.9,2.9h21.9V43H12.8c-0.3,0-0.6,0.1-0.9,0.4L0.4,54.9C0.1,55.1,0,55.5,0,55.8
	c0,0.3,0.1,0.6,0.4,0.9l11.6,11.6c0.2,0.2,0.5,0.4,0.9,0.4h28.5V100h2.5V68.6h4.1V100h2.5V68.6h21.9c1.6,0,2.9-1.3,2.9-2.9V45.9
	c0-1.6-1.3-2.9-2.9-2.9H50.4v-7.4h28.5c0.3,0,0.6-0.1,0.9-0.4l11.6-11.6c0.2-0.2,0.4-0.5,0.4-0.9C91.7,22.4,91.6,22.1,91.4,21.8z
	 M3,55.8l10.3-10.3h59.4v20.7H13.3L3,55.8z M45.9,2.5c1.1,0,2.1,0.9,2.1,2.1v5.4h-4.1V4.5C43.8,3.4,44.7,2.5,45.9,2.5z M88.7,22.7
	L78.4,33.1H19V12.4h59.4L88.7,22.7z M47.9,35.5V43h-4.1v-7.4H47.9z"/>
</svg>
