<?xml version="1.0" encoding="utf-8"?>
<!-- Generator: Adobe Illustrator 19.2.1, SVG Export Plug-In . SVG Version: 6.00 Build 0)  -->
<svg version="1.1" id="Layer_1" xmlns="http://www.w3.org/2000/svg" xmlns:xlink="http://www.w3.org/1999/xlink" x="0px" y="0px"
	 width="60px" height="60px" viewBox="0 0 60 60" style="enable-background:new 0 0 60 60;" xml:space="preserve">
<style type="text/css">
	.st0{fill:#1A1718;}
</style>
<g>
	<path class="st0" d="M16,21h15c0.6,0,1-0.4,1-1s-0.4-1-1-1H16c-0.6,0-1,0.4-1,1S15.4,21,16,21z"/>
	<path class="st0" d="M44,27H16c-0.6,0-1,0.4-1,1s0.4,1,1,1h28c0.6,0,1-0.4,1-1S44.6,27,44,27z"/>
	<path class="st0" d="M44,35H16c-0.6,0-1,0.4-1,1s0.4,1,1,1h28c0.6,0,1-0.4,1-1S44.6,35,44,35z"/>
	<path class="st0" d="M54,7h-1V4.8C53,2.2,50.8,0,48.2,0H11.8C9.2,0,7,2.2,7,4.8V7H6c-3.3,0-6,2.7-6,6v31c0,3.3,2.7,6,6,6h14.6
		l8.7,9.7c0.2,0.2,0.5,0.3,0.7,0.3c0.3,0,0.6-0.1,0.7-0.3l8.7-9.7H54c3.3,0,6-2.7,6-6V13C60,9.7,57.3,7,54,7z M9,4.8
		C9,3.3,10.3,2,11.8,2h36.4C49.7,2,51,3.3,51,4.8V7H9V4.8z M58,44c0,2.2-1.8,4-4,4H41.5l2.3-2.3c0.4-0.4,0.4-1,0-1.4
		c-0.4-0.4-1-0.4-1.4,0l-4,4c0,0-0.1,0-0.1,0.1L30,57.5l-8.3-9.2c0,0,0,0,0,0c0,0,0,0,0,0l-4-4c-0.4-0.4-1-0.4-1.4,0
		c-0.4,0.4-0.4,1,0,1.4l2.3,2.3H6c-2.2,0-4-1.8-4-4V13c0-2.2,1.8-4,4-4h2h44h2c2.2,0,4,1.8,4,4V44z"/>
</g>
</svg>
