<?xml version="1.0" encoding="utf-8"?>
<!-- Generator: Adobe Illustrator 17.1.0, SVG Export Plug-In . SVG Version: 6.00 Build 0)  -->
<!DOCTYPE svg PUBLIC "-//W3C//DTD SVG 1.1//EN" "http://www.w3.org/Graphics/SVG/1.1/DTD/svg11.dtd">
<svg version="1.1" id="Layer_1" xmlns="http://www.w3.org/2000/svg" xmlns:xlink="http://www.w3.org/1999/xlink" x="0px" y="0px"
	 width="210.5px" height="100px" viewBox="0 0 210.5 100" enable-background="new 0 0 210.5 100" xml:space="preserve">
<g>
	<path d="M145,38.3c-6.8,0-11.9,5.2-11.9,11.9c0,6.7,5.2,11.9,11.9,11.9s11.9-5.2,11.9-11.9C156.9,43.5,151.7,38.3,145,38.3z
		 M145,58.1c-4.4,0-7.9-3.6-7.9-7.9s3.6-7.9,7.9-7.9c4.4,0,7.9,3.6,7.9,7.9S149.3,58.1,145,58.1z"/>
	<path d="M105.3,38.3c-6.8,0-11.9,5.2-11.9,11.9c0,6.7,5.2,11.9,11.9,11.9c6.8,0,11.9-5.2,11.9-11.9C117.2,43.5,112,38.3,105.3,38.3
		z M105.3,58.1c-4.4,0-7.9-3.6-7.9-7.9s3.6-7.9,7.9-7.9c4.4,0,7.9,3.6,7.9,7.9S109.6,58.1,105.3,58.1z"/>
	<path d="M65.5,38.3c-6.8,0-11.9,5.2-11.9,11.9c0,6.7,5.2,11.9,11.9,11.9s11.9-5.2,11.9-11.9C77.5,43.5,72.3,38.3,65.5,38.3z
		 M65.5,58.1c-4.4,0-7.9-3.6-7.9-7.9s3.6-7.9,7.9-7.9c4.4,0,7.9,3.6,7.9,7.9S69.9,58.1,65.5,58.1z"/>
	<path d="M48.1,1L0.4,48.6C0,49,0,49.4,0,50.2c0,0.4,0.4,1.2,0.4,1.6l47.7,47.6c0.8,0.8,2,0.8,2.8,0c0.4-0.4,0.4-0.8,0.4-1.6
		s-0.4-1.2-0.4-1.6l-46.1-46l46.1-46c0.4-0.4,0.4-0.8,0.4-1.6c0-0.4-0.4-1.2-0.4-1.6c-0.4-0.4-0.8-0.4-1.6-0.4
		C48.5,0.6,48.5,0.6,48.1,1z"/>
	<path d="M162.5,99l47.7-47.6c0.4-0.4,0.4-0.8,0.4-1.6c0-0.4-0.4-1.2-0.4-1.6L162.5,0.6c-0.8-0.8-2-0.8-2.8,0
		c-0.4,0.4-0.4,0.8-0.4,1.6c0,0.8,0.4,1.2,0.4,1.6l46.1,46l-46.1,46c-0.4,0.4-0.4,0.8-0.4,1.6c0,0.4,0.4,1.2,0.4,1.6
		c0.4,0.4,0.8,0.4,1.6,0.4C162.1,99.4,162.1,99.4,162.5,99z"/>
</g>
</svg>
