<?xml version="1.0" encoding="utf-8"?>
<!-- Generator: Adobe Illustrator 17.1.0, SVG Export Plug-In . SVG Version: 6.00 Build 0)  -->
<!DOCTYPE svg PUBLIC "-//W3C//DTD SVG 1.1//EN" "http://www.w3.org/Graphics/SVG/1.1/DTD/svg11.dtd">
<svg version="1.1" id="Layer_1" xmlns="http://www.w3.org/2000/svg" xmlns:xlink="http://www.w3.org/1999/xlink" x="0px" y="0px"
	 width="100px" height="100px" viewBox="0 0 100 100" enable-background="new 0 0 100 100" xml:space="preserve">
<g>
	<path d="M50,0C22.4,0,0,22.4,0,50c0,27.6,22.4,50,50,50s50-22.4,50-50C100,22.4,77.6,0,50,0 M81.7,23c5.6,6.6,9.2,15,9.8,24.2
		c-9-0.5-19.8-0.5-28.4,0.3c-1.1-2.8-2.2-5.5-3.4-8.1C69.7,35.2,77.3,29.5,81.7,23 M50,8.3c10.1,0,19.4,3.6,26.6,9.6
		C72.1,23.7,65,28.6,56.1,32.4c-4.8-8.9-10.4-16.7-16.3-22.7C43,8.8,46.5,8.3,50,8.3 M31.1,12.9c6,6,11.7,13.6,16.6,22.5
		c-9.4,2.9-20.2,4.5-31.7,4.5c-2.2,0-4.3-0.1-6.4-0.2C12.6,28,20.6,18.3,31.1,12.9 M8.4,48c2.4,0.1,4.8,0.1,7.2,0.1
		C28.7,48,41,45.9,51.4,42.6c1,2.1,1.9,4.2,2.8,6.3c-1.4,0.3-2.7,0.7-3.7,1.1c-14.4,6-25.6,15.7-31.8,27.5
		C12.3,70.2,8.3,60.6,8.3,50C8.3,49.3,8.4,48.7,8.4,48 M50,91.7c-9.6,0-18.5-3.3-25.5-8.8c5.5-11,15.4-20.1,27.9-25.7
		c1.2-0.5,2.7-1,4.5-1.4c1.5,4.1,2.8,8.4,4,12.8c1.8,6.9,3.1,13.7,3.9,20.3C60.2,90.7,55.2,91.7,50,91.7 M72.5,85
		c-0.8-6.7-2.1-13.6-3.9-20.5c-0.9-3.4-1.9-6.7-3-9.9c8.2-0.7,18-0.6,25.7,0C90,67.4,82.8,78.4,72.5,85"/>
</g>
</svg>
