<?xml version="1.0" encoding="utf-8"?>
<!-- Generator: Adobe Illustrator 19.2.1, SVG Export Plug-In . SVG Version: 6.00 Build 0)  -->
<svg version="1.1" id="Layer_1" xmlns="http://www.w3.org/2000/svg" xmlns:xlink="http://www.w3.org/1999/xlink" x="0px" y="0px"
	 width="100px" height="100px" viewBox="0 0 100 100" style="enable-background:new 0 0 100 100;" xml:space="preserve">
<style type="text/css">
	.st0{fill:#010101;}
</style>
<g>
	<path class="st0" d="M50,100C22.3,100,0,77.7,0,50S22.3,0,50,0s50,22.3,50,50S77.7,100,50,100z M50,4.3C24.7,4.3,4.3,24.7,4.3,50
		S24.7,95.7,50,95.7S95.7,75.3,95.7,50S75.3,4.3,50,4.3z"/>
	<path class="st0" d="M48.1,62.6L46.2,36V24.9h7.7V36l-1.7,26.6H48.1z M46.4,75.1v-7h7v7H46.4z"/>
</g>
</svg>
