<?xml version="1.0" encoding="utf-8"?>
<!-- Generator: Adobe Illustrator 17.1.0, SVG Export Plug-In . SVG Version: 6.00 Build 0)  -->
<!DOCTYPE svg PUBLIC "-//W3C//DTD SVG 1.1//EN" "http://www.w3.org/Graphics/SVG/1.1/DTD/svg11.dtd">
<svg version="1.1" id="Layer_1" xmlns="http://www.w3.org/2000/svg" xmlns:xlink="http://www.w3.org/1999/xlink" x="0px" y="0px"
	 viewBox="0 0 47.6 100" enable-background="new 0 0 47.6 100" xml:space="preserve">
<path d="M36.1,18.2c2.3,0,7.1,0,11.5,0c0-2.4,0-10.6,0-18.2C41.7,0,34.9,0,32,0C9.8,0,10.3,17.5,10.3,20.1c0,2.6,0,14.3,0,14.3H0V52
	h10.3v48h21.1V52h14.2c0,0,1.3-8.4,2-17.6c-1.8,0-16.1,0-16.1,0s0-10.2,0-12C31.5,20.6,33.8,18.2,36.1,18.2z"/>
</svg>
