<?xml version="1.0" encoding="utf-8"?>
<!-- Generator: Adobe Illustrator 19.0.0, SVG Export Plug-In . SVG Version: 6.00 Build 0)  -->
<svg version="1.1" id="Layer_1" xmlns="http://www.w3.org/2000/svg" xmlns:xlink="http://www.w3.org/1999/xlink" x="0px" y="0px"
	 width="65px" height="25px" viewBox="0 0 65 25" style="enable-background:new 0 0 65 25;" xml:space="preserve">
<style type="text/css">
	.st0{fill:#010101;}
</style>
<path id="XMLID_64_" class="st0" d="M43.1,0H21.9C7.6,0,0,5.6,0,16.2v3.6c0,2.2,1.4,4.1,3.5,4.8h0c4.2,1.3,12.1-0.8,12.5-0.9
	c1.4-0.4,2.6-1.2,3.1-2.2c0.4-0.8,0.5-1.6,0.3-2.5c-0.1-1.6-0.3-3.5-0.2-3.9c0.5-2.8,2-4.1,5-4.1h16.5c2.9,0,4.4,1.2,5,4
	c0.1,0.4-0.1,2.3-0.2,3.9c-0.2,0.9-0.1,1.8,0.3,2.5c0.6,1,1.7,1.8,3.1,2.2c0.3,0.1,5,1.3,9,1.3c1.3,0,2.5-0.1,3.5-0.4
	c2.1-0.6,3.5-2.6,3.5-4.8v-3.6C65,5.6,57.4,0,43.1,0z M63,19.8c0,1.3-0.8,2.4-2.1,2.8c-3.6,1.1-11.3-0.9-11.3-0.9
	c-0.9-0.2-1.6-0.7-1.9-1.2c-0.2-0.3-0.2-0.7-0.1-1.1l0-0.2c0.1-1.1,0.3-3.8,0.2-4.6c-0.2-1.1-0.6-2-1.1-2.8c1.5,0.5,3.1,1.3,4.6,2.4
	c0.2,0.2,0.4,0.2,0.6,0.2c0.3,0,0.6-0.1,0.8-0.4c0.4-0.4,0.3-1.1-0.1-1.4C47,8.3,39.9,9,39.6,9c0,0-0.1,0-0.1,0H24.3
	c0,0-0.1,0-0.1,0C24,9,24,9,23.9,9c-0.3,0-6.7,0.1-12.1,4.5c-0.4,0.4-0.5,1-0.1,1.4c0.2,0.2,0.5,0.4,0.8,0.4c0.2,0,0.5-0.1,0.6-0.2
	c1.7-1.4,3.5-2.3,5.1-2.9c-0.4,0.7-0.7,1.5-0.9,2.5c-0.1,0.8,0.1,3.4,0.2,4.6l0,0.2c0.1,0.4,0.1,0.8-0.1,1.1c-0.3,0.5-1,1-1.9,1.2
	c-0.1,0-7.7,2-11.4,0.9h0C2.9,22.3,2,21.1,2,19.8v-3.6C2,6.8,8.7,2,21.9,2h21.1C56.3,2,63,6.8,63,16.2V19.8z"/>
</svg>
