<?xml version="1.0" encoding="utf-8"?>
<!-- Generator: Adobe Illustrator 17.1.0, SVG Export Plug-In . SVG Version: 6.00 Build 0)  -->
<!DOCTYPE svg PUBLIC "-//W3C//DTD SVG 1.1//EN" "http://www.w3.org/Graphics/SVG/1.1/DTD/svg11.dtd">
<svg version="1.1" id="Layer_1" xmlns="http://www.w3.org/2000/svg" xmlns:xlink="http://www.w3.org/1999/xlink" x="0px" y="0px"
	 width="158.1px" height="100px" viewBox="0 0 158.1 100" enable-background="new 0 0 158.1 100" xml:space="preserve">
<g>
	<path d="M119.9,0H37.8L0,31.4V36l0,0.7v49.5C0,93.8,6.2,100,13.8,100h130.5c7.6,0,13.8-6.2,13.8-13.8V31.5L119.9,0z M39.1,4.4h79.5
		l0.2,0.2l32.1,27.1l-39.1,0l-0.2,2c-0.1,1.3-3.2,32.8-32.9,32.8C49,66.5,46.4,35,46.3,33.7l-0.2-2H5.8L39.1,4.4z M153.7,86.2
		c0,5.2-4.2,9.4-9.4,9.4H13.8c-5.2,0-9.4-4.2-9.4-9.4V36h37.8l0.1,0.6c1.3,8,7.9,34.2,36.5,34.2c28.6,0,35.4-26.2,36.8-34.2l0.1-0.6
		h38V86.2z"/>
	<rect x="61.8" y="48" width="34.5" height="5.8"/>
	<rect x="53.8" y="33.5" width="50.5" height="5.8"/>
	<polygon points="125.1,19 33.2,19 26.3,24.8 131.8,24.8 	"/>
</g>
</svg>
