<?xml version="1.0" encoding="utf-8"?>
<!-- Generator: Adobe Illustrator 17.1.0, SVG Export Plug-In . SVG Version: 6.00 Build 0)  -->
<!DOCTYPE svg PUBLIC "-//W3C//DTD SVG 1.1//EN" "http://www.w3.org/Graphics/SVG/1.1/DTD/svg11.dtd">
<svg version="1.1" id="Layer_1" xmlns="http://www.w3.org/2000/svg" xmlns:xlink="http://www.w3.org/1999/xlink" x="0px" y="0px"
	 width="100px" height="100px" viewBox="0 0 100 100" enable-background="new 0 0 100 100" xml:space="preserve">
<g>
	<path fill="#231F20" d="M51.2,49.8c-0.1-0.7-0.8-1.1-1.4-0.9c-0.7,0.1-1.1,0.8-0.9,1.4c3.3,16.6-1.2,33.4-12.3,46.1
		c-0.4,0.5-0.4,1.3,0.1,1.7c0.2,0.2,0.5,0.3,0.8,0.3c0.3,0,0.7-0.1,0.9-0.4C50,84.7,54.7,67.1,51.2,49.8z"/>
	<path fill="#231F20" d="M63.1,47.4c-0.7-3.5-2.7-6.6-5.7-8.5c-3-2-6.6-2.7-10.1-2c-3.5,0.7-6.5,2.7-8.5,5.7c-2,3-2.7,6.6-2,10.1
		c0,0.1,0,0.2,0.1,0.2l0,0.1c0.1,0.7,0.8,1,1.4,0.9c0.7-0.1,1.1-0.8,1-1.5l0-0.2c0-0.1-0.1-0.2-0.1-0.3c-0.5-2.8,0.1-5.6,1.7-8
		c1.6-2.5,4.1-4.1,7-4.7c2.9-0.6,5.8,0,8.3,1.6c2.4,1.6,4.1,4,4.7,6.8c0,0.1,0,0.1,0,0.2c3.5,17.6-0.1,35.4-10.2,50.3
		c-0.4,0.6-0.2,1.3,0.3,1.7c0.2,0.1,0.4,0.2,0.7,0.2c0.4,0,0.8-0.2,1-0.5C63,84.2,66.8,65.7,63.2,47.5
		C63.2,47.5,63.2,47.4,63.1,47.4z"/>
	<path fill="#231F20" d="M38.9,59.3c-0.7,0-1.2,0.6-1.2,1.2c0.1,11.6-4.7,22.8-13.2,30.8c-0.5,0.5-0.5,1.2-0.1,1.7
		c0.2,0.3,0.6,0.4,0.9,0.4c0.3,0,0.6-0.1,0.8-0.3c9-8.4,14.1-20.3,13.9-32.5C40.1,59.8,39.6,59.3,38.9,59.3z"/>
	<path fill="#231F20" d="M75,69.8c-0.7-0.1-1.3,0.4-1.4,1c-1.1,8.4-3.5,16.6-7.2,24.2c-0.3,0.6,0,1.3,0.6,1.6
		c0.2,0.1,0.4,0.1,0.5,0.1c0.4,0,0.9-0.3,1.1-0.7c3.8-7.9,6.3-16.3,7.5-25C76.1,70.5,75.7,69.9,75,69.8z"/>
	<path fill="#231F20" d="M75.1,45c-2.8-13.8-16.3-22.8-30.2-20.1c-13.8,2.8-22.8,16.3-20,30.2c0,0.1,0,0.2,0.1,0.2
		c2,10.6-1.9,21.4-10.2,28.3c-0.5,0.4-0.6,1.2-0.2,1.7c0.2,0.3,0.6,0.4,0.9,0.4c0.3,0,0.5-0.1,0.8-0.3c9.1-7.5,13.3-19.3,11-30.9
		c0-0.1,0-0.2-0.1-0.2c-2.4-12.5,5.7-24.6,18.2-27.1c12.5-2.5,24.7,5.6,27.3,18.1c0,0,0,0.1,0,0.1c1.2,5.8,1.7,11.8,1.5,17.8
		c0,0.7,0.5,1.2,1.2,1.2c0,0,0,0,0,0c0.7,0,1.2-0.5,1.2-1.2C76.8,57.2,76.3,51,75.1,45C75.1,45,75.1,45,75.1,45z"/>
	<path fill="#231F20" d="M87,42.4c-2.6-12.7-11.4-23-23.5-27.7c-0.6-0.2-1.3,0.1-1.6,0.7c-0.2,0.6,0.1,1.3,0.7,1.6
		c11.4,4.4,19.6,14.1,22,26c0,0,0,0.1,0,0.1c2.7,13.7,2.3,27.5-1.3,40.9c-0.2,0.6,0.2,1.3,0.9,1.5c0.1,0,0.2,0,0.3,0
		c0.5,0,1-0.4,1.2-0.9c3.7-13.8,4.1-28,1.3-42.2C87,42.5,87,42.5,87,42.4z"/>
	<path fill="#231F20" d="M14.1,43.1c0.1,0,0.2,0,0.3,0c0.6,0,1-0.4,1.2-0.9C18.6,28.6,29.4,18.1,43,15.3c4.1-0.8,8.3-0.9,12.5-0.2
		c0.6,0.1,1.3-0.3,1.4-1c0.1-0.7-0.3-1.3-1-1.4c-4.5-0.7-9-0.6-13.3,0.3c-14.5,2.9-26,14.2-29.4,28.7C13,42.3,13.4,42.9,14.1,43.1z"
		/>
	<path fill="#231F20" d="M15.3,57c0-0.1,0-0.1-0.1-0.2c-0.5-2.4-0.7-4.8-0.6-7.3c0-0.7-0.5-1.2-1.2-1.2c0,0,0,0,0,0
		c-0.7,0-1.2,0.5-1.2,1.2c0,2.7,0.2,5.4,0.7,8c0,0.1,0,0.1,0.1,0.2C14.1,63.7,11.9,70,7.2,74c-0.5,0.4-0.6,1.2-0.1,1.7
		c0.2,0.3,0.6,0.4,0.9,0.4c0.3,0,0.6-0.1,0.8-0.3C14.2,71.2,16.7,64,15.3,57z"/>
	<path fill="#231F20" d="M99,40.1c0-0.1,0-0.2-0.1-0.2c-2.7-13-10.2-24.2-21.3-31.5C66.5,1,53.2-1.6,40.1,1
		c-7,1.4-13.5,4.3-19.3,8.5c-0.5,0.4-0.7,1.1-0.3,1.7c0.4,0.5,1.1,0.7,1.7,0.3c5.5-4,11.7-6.7,18.4-8c12.5-2.5,25.1,0,35.7,7
		c10.6,7,17.8,17.8,20.3,30.2c0,0.1,0,0.2,0.1,0.2c0.7,3.3,1,6.8,0.9,10.1c0,0.7,0.5,1.2,1.2,1.2c0,0,0,0,0,0c0.7,0,1.2-0.5,1.2-1.2
		C100.1,47.4,99.7,43.7,99,40.1z"/>
	<path fill="#231F20" d="M3.4,59.4c0-0.1,0-0.2-0.1-0.2C0.2,43.6,5.2,27.5,16.5,16.3c0.5-0.5,0.5-1.2,0-1.7c-0.5-0.5-1.2-0.5-1.7,0
		C2.8,26.5-2.3,43.4,1,59.9c0,0.1,0,0.2,0.1,0.2c0.1,0.6,0.3,1.3,0.4,1.9c0.1,0.5,0.6,0.9,1.2,0.9c0.1,0,0.2,0,0.3,0
		c0.6-0.2,1-0.8,0.9-1.5C3.7,60.8,3.5,60.1,3.4,59.4z"/>
</g>
</svg>
