<?xml version="1.0" encoding="utf-8"?>
<!-- Generator: Adobe Illustrator 19.2.1, SVG Export Plug-In . SVG Version: 6.00 Build 0)  -->
<svg version="1.1" id="Layer_1" xmlns="http://www.w3.org/2000/svg" xmlns:xlink="http://www.w3.org/1999/xlink" x="0px" y="0px"
	 width="92.4px" height="100px" viewBox="0 0 92.4 100" style="enable-background:new 0 0 92.4 100;" xml:space="preserve">
<style type="text/css">
	.st0{fill:#010101;}
</style>
<g>
	<path class="st0" d="M19.2,24.3c-5,0-9.2,1.6-12.8,4.9c-3.7,3.5-5.6,7.9-5.6,13.1c0,3.5,1,6.8,3.1,9.8c1.8,2.8,3.7,4.7,6.2,5.5v0.2
		c-2.5,1-3.6,3.6-3.6,7.7c0,3.1,1.1,5.5,3.6,7v0.2C3.2,75,0,79.2,0,85.3c0,5.3,2.3,9.2,6.8,11.7c3.6,2,8.2,3,13.7,3
		c13.5,0,20.3-5.7,20.3-17c0-7.1-5.2-11.4-15.6-13c-2.4-0.4-4.2-1.2-5.5-2.6c-0.9-0.9-1.4-1.9-1.4-2.8c0-2.7,1.5-4.3,4.4-4.7
		c4.4-0.7,8.1-2.7,10.9-6.2c2.8-3.5,4.2-7.5,4.2-12.2c0-1.5-0.4-3-1-4.7c1.9-0.4,3.2-0.8,4.2-1.2V24.3c-4.4,1.8-8.5,2.6-12,2.6
		C25.9,25.2,22.7,24.3,19.2,24.3z M20.4,78.9c6.1,0,9.2,1.9,9.2,5.6c0,3.9-2.8,5.9-8.4,5.9c-6.4,0-9.6-1.9-9.6-5.7
		C11.5,80.8,14.4,78.9,20.4,78.9z M19.6,50c-4.6,0-6.9-2.5-6.9-7.5c0-5.4,2.3-8.1,6.9-8.1c2.2,0,3.9,0.8,5.1,2.5
		c1,1.5,1.5,3.4,1.5,5.5C26.3,47.4,24,50,19.6,50z M52.9,0c-2.1,0-3.9,0.8-5.4,2.4c-1.5,1.6-2.2,3.5-2.2,5.8c0,2.2,0.7,4.1,2.2,5.7
		c1.5,1.6,3.3,2.4,5.4,2.4c2,0,3.8-0.8,5.3-2.4c1.5-1.6,2.2-3.5,2.2-5.7c0-2.3-0.7-4.2-2.2-5.8C56.7,0.8,54.9,0,52.9,0z M59,25H46.6
		c0.1,1.4-0.1,3.5-0.1,6.9v34c0,3.5,0.2,6.3,0.1,7.4H59c-0.1-1.6-0.5-4.4-0.5-8.1V31.7C58.5,28.5,58.8,26.4,59,25z M86.3,62.9
		c-3.2,0-4.8-2.4-4.8-7.3V35.4h4.9c0.9,0,1.7,0,2.6,0c1,0.1,1.4,0,1.9,0V25h-9.4v-4.6c0-1.8,0.3-3.3,0.5-4.3H69.3
		c0.2,1,0.2,2.5,0.2,4.6V25H64v10.4c1.5-0.2,2.8-0.3,3.8-0.3l1.7,0.1v0.1l0,0V55c0,6.1,0.8,10.6,2.3,13.5c2,3.8,5.6,5.7,11,5.7
		c3.8,0,7.1-0.7,9.6-2.2V61.1C90.4,62.3,88.5,62.9,86.3,62.9z"/>
</g>
</svg>
