<?xml version="1.0" encoding="utf-8"?>
<!-- Generator: Adobe Illustrator 19.0.0, SVG Export Plug-In . SVG Version: 6.00 Build 0)  -->
<svg version="1.1" id="Layer_1" xmlns="http://www.w3.org/2000/svg" xmlns:xlink="http://www.w3.org/1999/xlink" x="0px" y="0px"
	 width="67.2px" height="100px" viewBox="-271 347 67.2 100" style="enable-background:new -271 347 67.2 100;"
	 xml:space="preserve">
<path d="M-204.1,411.8c-0.2-0.3-0.5-0.3-0.6,0.2c-1.7,2.8-4.7,6.8-9.3,12c-5.6,6.5-12.2,12.5-14.3,12.6c-1.1,0.1-3.1-1.4-3.2-4.6
	c-0.3-6.6,4.4-15.3,12.1-31.2c3.1-6.6,8.1-14.7,4.9-17.1c-1.4-0.9-4.2-1.9-5.9-1.8c-2.8,0.1-3.8,1.9-5.7,4.8
	c-1.9,2.8-15.5,19.5-15.5,19.5c-6.9,9.2-12.3,16.6-14.3,19.7c2.1-6.7,9.2-26.1,21-58.7c2-5.7,4.5-11.3,4.4-13.4
	c-0.1-1.9-1.5-3.4-3.9-4.9c-1.9-1.3-5-1.9-6.6-1.9c-1.5,0-4.1,11.9-8.3,25.9l-15,44.7c-4.5,14.7-6.8,22.7-6.7,23.9
	c0.2,3.2,5.7,5.6,9,5.5c0.7,0,1.6-3.3,3.1-6.1c4.1-7.3,8.4-13.9,13.2-19.9c7.1-9.2,12.3-14.3,13.2-15.1c-2.8,7.2-4.6,13.2-5.3,18.2
	c-1.5,9.5,0.2,15.6,4.6,18.8c7,5.2,15.5-3.2,21.5-12.6c1.8-3.1,3.5-6.4,5.1-10c1.6-3.6,2.6-6.1,2.7-7.5
	C-203.8,412.4-203.9,412.1-204.1,411.8z"/>
</svg>
