<?xml version="1.0" encoding="utf-8"?>
<!-- Generator: Adobe Illustrator 17.1.0, SVG Export Plug-In . SVG Version: 6.00 Build 0)  -->
<!DOCTYPE svg PUBLIC "-//W3C//DTD SVG 1.1//EN" "http://www.w3.org/Graphics/SVG/1.1/DTD/svg11.dtd">
<svg version="1.1" id="Layer_1" xmlns="http://www.w3.org/2000/svg" xmlns:xlink="http://www.w3.org/1999/xlink" x="0px" y="0px"
	 width="78.1px" height="100px" viewBox="0 0 78.1 100" enable-background="new 0 0 78.1 100" xml:space="preserve">
<path fill="#010101" d="M12.9,55c1.2-1.3,1.9-3,1.9-5c0-1.4-0.4-2.7-1.1-3.8l30.7-32.4c1.1,0.6,2.3,1,3.7,1c0.2,0,0.3,0,0.4,0
	l2.9,10l-8.8,2.6l6.7,36.7l28.8-8.6L63.6,21.2L55,23.7l-2.9-10.1c2.1-1.3,3.4-3.6,3.4-6.2c0-4.1-3.3-7.4-7.4-7.4s-7.4,3.3-7.4,7.4
	c0,1.4,0.4,2.7,1.1,3.8L11.1,43.6c-1.1-0.6-2.3-1-3.7-1C3.3,42.6,0,45.9,0,50s3.3,7.4,7.4,7.4c0.8,0,1.6-0.2,2.3-0.4l15.4,39.3H14.8
	v3.7h37v-3.7H29L12.9,55z M73.1,53.1l-20.9,6.2L46.9,30l14.6-4.4L73.1,53.1z M48.1,3.7c2,0,3.7,1.7,3.7,3.7c0,2-1.7,3.7-3.7,3.7
	s-3.7-1.7-3.7-3.7C44.4,5.4,46.1,3.7,48.1,3.7z M3.7,50c0-2,1.7-3.7,3.7-3.7s3.7,1.7,3.7,3.7c0,2-1.7,3.7-3.7,3.7S3.7,52,3.7,50z"/>
</svg>
