<?xml version="1.0" encoding="utf-8"?>
<!-- Generator: Adobe Illustrator 17.1.0, SVG Export Plug-In . SVG Version: 6.00 Build 0)  -->
<!DOCTYPE svg PUBLIC "-//W3C//DTD SVG 1.1//EN" "http://www.w3.org/Graphics/SVG/1.1/DTD/svg11.dtd">
<svg version="1.1" id="Layer_1" xmlns="http://www.w3.org/2000/svg" xmlns:xlink="http://www.w3.org/1999/xlink" x="0px" y="0px"
	 width="116.8px" height="100px" viewBox="0 0 116.8 100" enable-background="new 0 0 116.8 100" xml:space="preserve">
<path d="M116.8,50c0-0.5-0.3-1-0.8-1.3l-0.5-0.3l0,0l-9.7-5.7l10.1-6c0.5-0.3,0.8-0.8,0.8-1.3c0-0.5-0.3-1-0.8-1.3l-0.5-0.3l0,0
	L59.7,0.5v0l-0.5-0.2c-0.6-0.3-1-0.3-1.6,0l-0.5,0.3l0,0L0.8,33.9C0.3,34.2,0,34.7,0,35.3c0,0.5,0.3,1,0.8,1.3l0.5,0.3l0,0l9.7,5.7
	l-10.1,6C0.3,49,0,49.5,0,50c0,0.5,0.3,1,0.8,1.3l0.5,0.3l0,0l9.7,5.7l-10.1,6C0.3,63.7,0,64.2,0,64.7c0,0.5,0.3,1,0.8,1.3l0.5,0.3
	l0,0l55.9,33.1l0,0l0.5,0.2c0.6,0.3,1,0.3,1.6,0l0.5-0.3l0,0L116,66.1c0.5-0.3,0.8-0.8,0.8-1.3c0-0.5-0.3-1-0.8-1.3l-0.5-0.3l0,0
	l-9.7-5.7l10.1-6C116.5,51,116.8,50.5,116.8,50z M3.9,35.3L58.4,2.9L113,35.3L58.4,67.6L3.9,35.3z M112.2,64.7L58.4,96.6L4.7,64.7
	l9.3-5.5l43.1,25.6l0,0l0.5,0.2c0.6,0.3,1,0.3,1.6,0l0.5-0.3l0,0l43.1-25.6L112.2,64.7z M58.4,81.8L4.7,50l9.3-5.5L57.2,70l0,0
	l0.5,0.2c0.6,0.3,1,0.3,1.6,0l0.5-0.3l0,0l43.1-25.6l9.3,5.5L58.4,81.8z"/>
</svg>
