<?xml version="1.0" encoding="utf-8"?>
<!-- Generator: Adobe Illustrator 19.2.1, SVG Export Plug-In . SVG Version: 6.00 Build 0)  -->
<svg version="1.1" id="Layer_1" xmlns="http://www.w3.org/2000/svg" xmlns:xlink="http://www.w3.org/1999/xlink" x="0px" y="0px"
	 width="100px" height="95.6px" viewBox="0 0 100 95.6" style="enable-background:new 0 0 100 95.6;" xml:space="preserve">
<g>
	<path d="M22.7,95.6V31.1H1.3v64.5H22.7L22.7,95.6z M12,22.3c7.5,0,12.1-5,12.1-11.1C24,4.8,19.5,0,12.1,0S0,4.8,0,11.1
		c0,6.2,4.6,11.1,11.8,11.1H12L12,22.3z"/>
	<path d="M34.6,95.6H56v-36c0-1.9,0.1-3.9,0.7-5.2c1.5-3.9,5.1-7.8,11-7.8c7.8,0,10.9,5.9,10.9,14.6v34.5H100v-37
		c0-19.8-10.6-29-24.7-29c-11.6,0-16.6,6.5-19.5,10.9H56v-9.3H34.6C34.8,37.1,34.6,95.6,34.6,95.6L34.6,95.6z"/>
</g>
</svg>
