<?xml version="1.0" encoding="utf-8"?>
<!-- Generator: Adobe Illustrator 17.1.0, SVG Export Plug-In . SVG Version: 6.00 Build 0)  -->
<!DOCTYPE svg PUBLIC "-//W3C//DTD SVG 1.1//EN" "http://www.w3.org/Graphics/SVG/1.1/DTD/svg11.dtd">
<svg version="1.1" id="Layer_1" xmlns="http://www.w3.org/2000/svg" xmlns:xlink="http://www.w3.org/1999/xlink" x="0px" y="0px"
	 width="157.8px" height="100px" viewBox="0 0 157.8 100" enable-background="new 0 0 157.8 100" xml:space="preserve">
<path fill="#29ABE2" d="M144,0H13.8C6.2,0,0,6.2,0,13.8v72.5C0,93.8,6.2,100,13.8,100H144c7.6,0,13.8-6.2,13.8-13.8V13.8
	C157.8,6.2,151.6,0,144,0z M78.8,60.1L9.8,5.1l1.3-0.4c0.9-0.3,1.8-0.4,2.6-0.4H144c0.8,0,1.6,0.1,2.6,0.4l1.3,0.4L78.8,60.1z
	 M105.3,55.3l-0.4-0.4l-3.5,2.8l46.7,37.1l-1.3,0.4c-1,0.3-1.8,0.4-2.7,0.4H13.8c-0.8,0-1.7-0.1-2.7-0.4l-1.3-0.4l46.6-37.1L52.9,55
	L6.3,92l-0.4-0.7c-1-1.5-1.5-3.3-1.5-5.1l0-72.5c0-1.8,0.5-3.6,1.6-5.2l0.4-0.7l72.5,57.7l72.6-57.7l0.4,0.7c1,1.5,1.6,3.3,1.6,5.2
	l0,72.5c0,1.8-0.5,3.6-1.5,5.1l-0.4,0.7L105.3,55.3z"/>
</svg>
