<?xml version="1.0" encoding="utf-8"?>
<!-- Generator: Adobe Illustrator 17.1.0, SVG Export Plug-In . SVG Version: 6.00 Build 0)  -->
<!DOCTYPE svg PUBLIC "-//W3C//DTD SVG 1.1//EN" "http://www.w3.org/Graphics/SVG/1.1/DTD/svg11.dtd">
<svg version="1.1" id="Layer_1" xmlns="http://www.w3.org/2000/svg" xmlns:xlink="http://www.w3.org/1999/xlink" x="0px" y="0px"
	 width="112px" height="100px" viewBox="0 0 112 100" enable-background="new 0 0 112 100" xml:space="preserve">
<g>
	<path d="M56,0C25.1,0,0,19.7,0,44c0,15,9.6,28.2,24.2,36.2C23.2,85.9,20,92.8,12,100c0,0,21,0,32.5-12.9C48.2,87.7,52.1,88,56,88
		c30.9,0,56-19.7,56-44S86.9,0,56,0 M56,84c-4.5,0-8.9-0.5-13-1.3c-7.8,10.9-22.1,12.8-22.1,12.8c5.3-6.1,6.9-12.6,7.1-17.9
		C13.6,70.5,4,58.1,4,44C4,21.9,27.3,4,56,4s52,17.9,52,40S84.7,84,56,84"/>
</g>
</svg>
