<?xml version="1.0" encoding="utf-8"?>
<!-- Generator: Adobe Illustrator 17.1.0, SVG Export Plug-In . SVG Version: 6.00 Build 0)  -->
<!DOCTYPE svg PUBLIC "-//W3C//DTD SVG 1.1//EN" "http://www.w3.org/Graphics/SVG/1.1/DTD/svg11.dtd">
<svg version="1.1" id="Layer_1" xmlns="http://www.w3.org/2000/svg" xmlns:xlink="http://www.w3.org/1999/xlink" x="0px" y="0px"
	 width="121.8px" height="100px" viewBox="0 0 121.8 100" enable-background="new 0 0 121.8 100" xml:space="preserve">
<g>
	<g>
		<path fill="#010101" d="M5.9,8.9c-0.2,0.6-0.1,1.2,0.3,1.7l14.3,15.1v21.7c0,0.7,0.4,1.3,1,1.5c0.4,0.2,0.9,0.1,1.3-0.1l0,0
			l13.6-6.4l13.3,14c0.3,0.3,0.7,0.5,1.2,0.5c0.3,0,0.7-0.1,1-0.3l69.3-53.9c0.6-0.4,0.8-1.2,0.5-1.9s-0.9-1.1-1.6-1L7.3,7.9
			C6.6,8,6.1,8.4,5.9,8.9 M35.3,36.6l75.2-29.4L51.1,53.3L35.3,36.6z M28.6,42.7l3.9-4.3l1.7,1.7L28.6,42.7z M23.8,43.2V26.4
			l74-17.7l-66,25.8l0,0c-0.2,0.1-0.5,0.2-0.6,0.4L23.8,43.2 M10.9,10.9l89.9-6.3L22.7,23.3L10.9,10.9z M75.5,89.7
			c-0.9,0-1.6,0.7-1.6,1.6s0.7,1.6,1.6,1.6c2.2,0,4.3,0.2,6.2,0.6c0.1,0,0.2,0,0.3,0c0.8,0,1.4-0.5,1.6-1.3c0-0.1,0-0.2,0-0.3
			c0-0.8-0.5-1.4-1.3-1.6C80.2,89.9,78,89.7,75.5,89.7L75.5,89.7 M62.4,90.9c-0.8,0.1-1.4,0.8-1.3,1.6c0,0.1,0,0.2,0,0.2
			c0.1,0.8,0.8,1.4,1.6,1.4c0.1,0,0.2,0,0.3,0c2.3-0.4,4.4-0.7,6.3-0.9c0.8-0.1,1.5-0.8,1.5-1.6c0,0,0-0.1,0-0.2
			c-0.1-0.9-0.8-1.5-1.7-1.5l0,0H69C66.8,90.2,64.7,90.5,62.4,90.9 M7,59.5c0-0.6-0.3-1.1-0.8-1.4c-0.8-0.4-1.8-0.2-2.2,0.6
			c-1.1,1.9-2.1,4.1-2.7,6.3c0,0.2-0.1,0.3-0.1,0.5c0,0.7,0.5,1.3,1.2,1.5c0.1,0,0.2,0,0.4,0c0.7,0,1.4-0.5,1.6-1.1
			c0.6-2,1.4-3.9,2.4-5.6C6.9,60.1,7,59.8,7,59.5 M88.8,92.6c-0.8-0.4-1.8-0.1-2.2,0.7c-0.1,0.2-0.2,0.5-0.2,0.7
			c0,0.6,0.3,1.2,0.9,1.5c1.8,0.9,3.4,2,4.8,3.4c0.3,0.3,0.7,0.5,1.1,0.5s0.8-0.2,1.1-0.5c0.3-0.3,0.5-0.7,0.5-1.2
			c0-0.4-0.2-0.8-0.5-1.1C92.8,94.9,90.9,93.6,88.8,92.6 M49.6,93.4c-0.7,0.1-1.3,0.8-1.3,1.6c0,0.1,0,0.2,0,0.3
			c0.2,0.8,0.8,1.3,1.6,1.3c0.1,0,0.2,0,0.3,0l1.2-0.3c1.7-0.4,3.4-0.8,5.1-1.1l0,0c0.8-0.2,1.3-0.8,1.3-1.6c0-0.1,0-0.2,0-0.3
			c-0.2-0.9-1.1-1.4-1.9-1.3c0,0,0,0-0.1,0C53.6,92.6,51.4,93,49.6,93.4L49.6,93.4 M13.2,92.9c-0.7-0.5-1.8-0.3-2.3,0.3
			c-0.2,0.3-0.3,0.6-0.3,1c0,0.5,0.2,1,0.6,1.3l0.1,0.1c0,0,0.1,0.1,0.2,0.1c1.8,1.3,3.8,2.2,5.9,2.9c0.2,0,0.3,0.1,0.5,0.1
			c0.7,0,1.3-0.5,1.6-1.1c0-0.2,0.1-0.3,0.1-0.5c0-0.7-0.5-1.3-1.1-1.6c-1.9-0.6-3.6-1.4-5.1-2.5L13.2,92.9 M7.7,54.4
			c0,0.4,0.2,0.8,0.4,1.1C8.5,55.9,8.9,56,9.3,56c0.4,0,0.8-0.2,1.1-0.4c1.5-1.4,3.1-2.5,4.9-3.3l0,0c0.8-0.4,1.2-1.3,0.8-2.2
			c-0.3-0.8-1.3-1.2-2.1-0.8c-2.1,0.9-4,2.3-5.8,3.9C7.9,53.5,7.7,54,7.7,54.4 M37,95.9c-0.8,0.1-1.3,0.8-1.3,1.6c0,0.1,0,0.2,0,0.3
			c0.1,0.8,0.8,1.4,1.6,1.4c0.1,0,0.2,0,0.2,0l0,0h0.1c1.9-0.3,4-0.7,6.3-1.1c0.8-0.2,1.3-0.8,1.3-1.6c0-0.1,0-0.2,0-0.3
			c-0.2-0.9-1-1.4-1.9-1.3C40.8,95.2,38.8,95.6,37,95.9L37,95.9 M3.3,82.9c-0.6,0.3-0.9,0.8-0.9,1.4c0,0.2,0,0.5,0.1,0.7
			c1,2.1,2.2,4,3.7,5.8c0.3,0.4,0.8,0.6,1.3,0.6c0.4,0,0.7-0.1,1-0.4c0.4-0.3,0.6-0.8,0.6-1.3c0-0.4-0.2-0.7-0.4-1
			c-1.3-1.6-2.4-3.3-3.2-5.1l0,0C5.1,82.9,4.1,82.5,3.3,82.9 M0,71.8c0,0.5,0,1.1,0,1.6c0,1.7,0.2,3.4,0.5,5.1l0,0l0,0
			c0.2,0.8,0.8,1.3,1.6,1.3c0.1,0,0.2,0,0.3,0c0.8-0.1,1.3-0.8,1.3-1.6c0-0.1,0-0.2,0-0.3c-0.3-1.5-0.4-3-0.4-4.5c0-0.6,0-1.1,0-1.5
			v-0.1c0-0.9-0.6-1.6-1.5-1.6S0.2,70.8,0,71.8L0,71.8L0,71.8 M24.3,96.7c-0.8,0-1.5,0.7-1.6,1.5v0.1c0,0.9,0.6,1.6,1.5,1.6
			c1,0.1,1.9,0.1,3,0.1c1.2,0,2.4,0,3.8-0.1c0.9-0.1,1.5-0.8,1.5-1.7v-0.1c-0.1-0.9-0.9-1.6-1.7-1.5c-2.4,0.2-4.2,0.2-6.2,0
			C24.4,96.7,24.4,96.7,24.3,96.7"/>
	</g>
</g>
</svg>
