<?xml version="1.0" encoding="utf-8"?>
<!-- Generator: Adobe Illustrator 17.1.0, SVG Export Plug-In . SVG Version: 6.00 Build 0)  -->
<!DOCTYPE svg PUBLIC "-//W3C//DTD SVG 1.1//EN" "http://www.w3.org/Graphics/SVG/1.1/DTD/svg11.dtd">
<svg version="1.1" xmlns="http://www.w3.org/2000/svg" xmlns:xlink="http://www.w3.org/1999/xlink" x="0px" y="0px" width="100px"
	 height="100px" viewBox="0 0 100 100" enable-background="new 0 0 100 100" xml:space="preserve">
<g id="Layer_1">
</g>
<g id="Layer_2">
	<g>
		<path fill="#010101" d="M51.7,78.5h25.6c0.6,0,1.1-0.5,1.1-1.1V51.7c0-0.4-0.3-0.8-0.7-1c-0.4-0.2-0.9-0.1-1.2,0.2L51,76.6
			c-0.3,0.3-0.4,0.8-0.2,1.2C50.9,78.2,51.3,78.5,51.7,78.5z M76.3,54.4v21.9H54.4L76.3,54.4z"/>
		<path fill="#010101" d="M99.1,0.1c-0.5-0.2-1.2-0.1-1.6,0.3L0.4,97.5c-0.4,0.4-0.5,1-0.3,1.6c0.2,0.6,0.8,0.9,1.3,0.9h97.1
			c0.8,0,1.5-0.7,1.5-1.4V1.5C100,0.9,99.7,0.3,99.1,0.1z M97.1,23.2H92c-0.6,0-1.1,0.5-1.1,1.1c0,0.6,0.5,1.1,1.1,1.1h5.1v12.5H92
			c-0.6,0-1.1,0.5-1.1,1.1c0,0.6,0.5,1.1,1.1,1.1h5.1v12.4H92c-0.6,0-1.1,0.5-1.1,1.1c0,0.6,0.5,1.1,1.1,1.1h5.1v12.4H92v0
			c-0.6,0-1.1,0.5-1.1,1.1c0,0.6,0.5,1.1,1.1,1.1h5.1v12.4H92c-0.6,0-1.1,0.5-1.1,1.1c0,0.6,0.5,1.1,1.1,1.1h5.1v13.2h-13V92
			c0-0.6-0.5-1.1-1.1-1.1c-0.6,0-1.1,0.5-1.1,1.1v5.1H69.4V92c0-0.6-0.5-1.1-1.1-1.1c-0.6,0-1.1,0.5-1.1,1.1v5.1H54.8V92
			c0-0.6-0.5-1.1-1.1-1.1c-0.6,0-1.1,0.5-1.1,1.1v5.1H40.1V92c0-0.6-0.5-1.1-1.1-1.1c-0.6,0-1.1,0.5-1.1,1.1v5.1H25.5V92
			c0-0.6-0.5-1.1-1.1-1.1s-1.1,0.5-1.1,1.1v5.1H4.9L97.1,5V23.2z"/>
		<path fill="#010101" d="M1.6,69.5c0.2,0,0.5-0.1,0.7-0.2l14.9-8c0.1,0,0.1-0.1,0.2-0.1c0.1,0,0.1-0.1,0.2-0.1c0,0,0,0,0,0
			l41.5-41.4c0.3-0.3,0.4-0.6,0.4-1c0-0.4-0.1-0.8-0.4-1L58.5,17l4-4c0.4-0.4,0.4-1.1,0-1.5l-4.2-4.2C58.2,7.1,57.9,7,57.6,7
			c-0.3,0-0.6,0.1-0.8,0.3l-4,4l0,0l-0.2-0.2l-0.3-0.3h0l-0.2-0.2c-0.6-0.6-1.5-0.6-2,0L45.9,15l0,0l-3-3c-0.4-0.4-1.1-0.4-1.5,0
			L25.1,28.1c-0.4,0.4-0.4,1.1,0,1.5c0.2,0.2,0.5,0.3,0.8,0.3c0.3,0,0.6-0.1,0.8-0.3l15.4-15.4l2.3,2.3L8.7,52.1c0,0,0,0,0,0
			c0,0-0.1,0.1-0.1,0.1c0,0.1-0.1,0.1-0.1,0.2c0,0,0,0,0,0l-8,14.9c-0.3,0.6-0.2,1.2,0.3,1.7C0.9,69.3,1.3,69.5,1.6,69.5z M57.6,9.6
			l2.6,2.6L57,15.5l0,0l0,0l-0.6-0.6l-2-2L57.6,9.6z M51.2,13.8l4.9,4.9L16.6,58l-4.9-4.9L51.2,13.8z M10,55.5l4.2,4.2l-9,4.8
			L10,55.5z"/>
	</g>
</g>
</svg>
