<?xml version="1.0" encoding="utf-8"?>
<!-- Generator: Adobe Illustrator 17.1.0, SVG Export Plug-In . SVG Version: 6.00 Build 0)  -->
<!DOCTYPE svg PUBLIC "-//W3C//DTD SVG 1.1//EN" "http://www.w3.org/Graphics/SVG/1.1/DTD/svg11.dtd">
<svg version="1.1" id="Layer_1" xmlns="http://www.w3.org/2000/svg" xmlns:xlink="http://www.w3.org/1999/xlink" x="0px" y="0px"
	 width="290.9px" height="100px" viewBox="0 0 290.9 100" enable-background="new 0 0 290.9 100" xml:space="preserve">
<g>
	<path d="M262.8,27.3c18.7,18.2,28.1,40.5,28.1,67v0.6c0,3.4-1.5,5.1-4.5,5.1h-60.8c-3,0-4.5-1.7-4.5-5.1V72.2
		c0-6.4-2.2-11.8-6.5-16.2c-4.4-4.4-9.8-6.5-16.2-6.5H92.6c-6.4,0-11.8,2.2-16.2,6.5c-4.4,4.4-6.5,9.8-6.5,16.2v22.7
		c0,3.4-1.5,5.1-4.5,5.1H4.5c-3,0-4.5-1.7-4.5-5.1v-0.6c0-26.5,9.4-48.9,28.1-67C46.9,9.1,69.5,0,96,0h98.9
		C221.4,0,244,9.1,262.8,27.3"/>
</g>
</svg>
