<?xml version="1.0" encoding="utf-8"?>
<!-- Generator: Adobe Illustrator 17.1.0, SVG Export Plug-In . SVG Version: 6.00 Build 0)  -->
<!DOCTYPE svg PUBLIC "-//W3C//DTD SVG 1.1//EN" "http://www.w3.org/Graphics/SVG/1.1/DTD/svg11.dtd">
<svg version="1.1" id="Layer_1" xmlns="http://www.w3.org/2000/svg" xmlns:xlink="http://www.w3.org/1999/xlink" x="0px" y="0px"
	 width="275px" height="100px" viewBox="0 0 275 100" enable-background="new 0 0 275 100" xml:space="preserve">
<path d="M267.1,33.3C252,14,213,3.8,140,0l-0.5,0C73.4,0,33.4,9,14,28.4c-0.6,0.6-1.3,1.3-1.9,2C-1,45-0.8,62.8,0.7,76.6
	c0.5,6,3.4,11.1,8.3,14.7c9.5,7,26.3,8.3,48.4,3.8c31.7-6.5,33.7-15.2,34.4-28.9c0.1-1.1,0.1-2.3,0.2-3.5l0-0.4
	c-0.1-1.7,0.3-6.9,2.7-9.4c0.9-0.9,1.9-1.3,3.3-1.4c10.9-0.3,39.2-0.9,40.3-0.9v0.1c0,0,28.1,1.1,39.2,1.1c1.9,0,2.7,0.7,3.1,1.2
	c1.8,2.1,1.5,6.7,1.3,8.1l-0.1,0.5c-0.1,1.4-0.2,2.7-0.3,4c-1.2,13.9,0.4,22.9,33.4,30c27,5.8,40.1,5.9,48.4,0.1
	c5.1-3.6,8.1-9.2,9.5-18.1C275.6,62.4,277.5,46.5,267.1,33.3z M265.1,76.5c-1.1,6.6-2.9,10.6-6.1,12.8c-5.9,4.1-18.6,3.7-42.2-1.4
	c-28.9-6.2-28.3-12.1-27.5-21.9c0.1-1.3,0.2-2.7,0.3-4.1c0.2-1.7,1.1-9.3-3-14.1c-2.1-2.5-5.2-3.9-8.9-3.9
	c-10.9,0-39.2-1.2-39.3-1.2l0-0.1c0,0-29.2,0.7-40.4,1c-3.6,0.1-6.6,1.5-9,4c-4.8,5.1-4.9,13.3-4.9,15c-0.1,1.2-0.1,2.3-0.2,3.4
	C83.4,76.5,83.1,81.8,56,87.4c-19.6,4-34.6,3.2-42.2-2.5c-3.1-2.3-4.9-5.4-5.3-9.4c-2.1-18.4,0.7-30.4,9.4-40.1
	C34.7,16.9,74.3,7.8,139.1,7.9c69.6,3.6,108.2,13.3,121.7,30.4C268.5,48,268.2,59.6,265.1,76.5z"/>
</svg>
