<?xml version="1.0" encoding="utf-8"?>
<!-- Generator: Adobe Illustrator 17.1.0, SVG Export Plug-In . SVG Version: 6.00 Build 0)  -->
<!DOCTYPE svg PUBLIC "-//W3C//DTD SVG 1.1//EN" "http://www.w3.org/Graphics/SVG/1.1/DTD/svg11.dtd">
<svg version="1.1" id="Layer_1" xmlns="http://www.w3.org/2000/svg" xmlns:xlink="http://www.w3.org/1999/xlink" x="0px" y="0px"
	 width="132.5px" height="100px" viewBox="0 0 132.5 100" enable-background="new 0 0 132.5 100" xml:space="preserve">
<g>
	<path fill="#010101" d="M58.2,58.9c-1.1-2.3-2.4-4.4-4.1-6.3c-0.7-0.8-1.5-1.5-2.5-1c-0.9,0.4-1.3,1.5-0.9,2.3
		c0.4,1,1.5,1.8,2.1,2.7c0.7,1,1.3,2,1.9,3.1c0.4,0.8,0.8,1.7,1.9,1.7C57.8,61.4,58.7,60.1,58.2,58.9C57,56.4,58.6,59.8,58.2,58.9z"
		/>
	<path fill="#010101" d="M31.2,43.6c-2.5,0.2-5,0.8-7.3,1.8c-0.9,0.4-1.9,0.9-1.8,2.1c0.1,0.9,0.9,1.6,1.8,1.6
		c1.2,0,2.6-0.9,3.7-1.2c1.3-0.4,2.6-0.6,3.9-0.7C33.8,46.9,33.5,43.4,31.2,43.6C28.4,43.8,32.1,43.5,31.2,43.6z"/>
	<path fill="#010101" d="M47.1,47c-2.2-1.2-4.5-2.2-7-2.8c-1-0.2-2-0.3-2.6,0.7c-0.5,0.8-0.2,1.9,0.6,2.4c1,0.6,2.5,0.7,3.6,1.1
		c1.3,0.5,2.5,1,3.6,1.7C47.3,51.2,49.1,48.1,47.1,47C44.7,45.6,48,47.4,47.1,47z"/>
	<path fill="#010101" d="M16.2,50c-1.9,1.6-3.6,3.5-4.9,5.6c-0.6,0.8-1,1.8-0.3,2.7c0.6,0.7,1.7,0.8,2.5,0.2c0.8-0.7,1.4-2,2.1-2.8
		c0.7-0.9,1.6-1.8,2.4-2.6c0.7-0.7,1.5-1.4,1-2.5C18.6,49.6,17.1,49.2,16.2,50C14.1,51.8,17,49.3,16.2,50z"/>
	<path fill="#010101" d="M8.7,72.1c2.2,0,1.7-2.8,1.9-4.2c0.2-1.5,1.6-4.8-0.7-5.3c-2.4-0.6-2.5,3-2.7,4.5
		C6.9,68.6,6.2,72.1,8.7,72.1z"/>
	<path fill="#010101" d="M91.8,95.1c-1.3,0.4-2.5,0.8-3.9,1c-1.2,0.2-2.6,0-3.7,0.4c-1.9,0.7-1.3,3.4,0.7,3.4
		c2.8-0.1,5.5-0.6,8.1-1.5C95.2,97.7,94,94.4,91.8,95.1C89.6,95.9,92.8,94.8,91.8,95.1z"/>
	<path fill="#010101" d="M59.1,76.5c2.3-0.2,1.6-3.6,1.6-5.2c0-1.7,0.6-6.4-2.2-6c-2.5,0.3-1.3,4.6-1.3,6.4
		C57.2,73.2,56.7,76.8,59.1,76.5C60.1,76.5,59.1,76.5,59.1,76.5z"/>
	<path fill="#010101" d="M103.1,86.6c-1.4,2-3.1,3.7-5,5.1c-1.8,1.4,0.3,4.2,2.1,2.8c2-1.5,3.8-3.3,5.3-5.3c0.6-0.8,1.1-1.7,0.4-2.7
		C105.3,85.6,103.8,85.6,103.1,86.6C101.7,88.6,103.7,85.8,103.1,86.6z"/>
	<path fill="#010101" d="M109.2,71.4c-2.4,0-1.8,3.4-2,5c-0.2,1.6-2.1,5.3,0.3,6.1c2.6,0.8,2.9-3.6,3.2-5.2
		C110.9,75.7,111.9,71.4,109.2,71.4z"/>
	<path fill="#010101" d="M77.7,95.6c-2.3-0.6-4.5-1.7-6.5-3c-1.9-1.3-3.8,1.7-1.9,3c2.1,1.4,4.4,2.5,6.8,3.2c1,0.3,2,0.5,2.7-0.5
		C79.4,97.3,78.9,95.9,77.7,95.6C75.4,95,78.7,95.9,77.7,95.6z"/>
	<path fill="#010101" d="M62.3,81.6c-0.8-2.1-4.1-0.8-3.3,1.3c0.9,2.3,2.2,4.5,3.7,6.5c0.6,0.8,1.3,1.5,2.4,1.1
		c0.9-0.3,1.4-1.4,1.1-2.3c-0.4-1-1.4-1.9-2-2.8C63.5,84.3,62.8,83,62.3,81.6C61.9,80.7,63.2,83.9,62.3,81.6z"/>
	<path fill="#010101" d="M8.6,79.2c-4.7,0-8.6,3.9-8.6,8.6c0,4.7,3.9,8.6,8.6,8.6s8.6-3.9,8.6-8.6C17.3,83.2,13.3,79.2,8.6,79.2z
		 M8.6,93.9c-7.7,0-7.7-12,0-12S16.4,93.9,8.6,93.9z"/>
	<path fill="#010101" d="M131.6,12.2c-4.5-2.5-9.1-5-13.6-7.6c-2.4-1.4-4.9-2.7-7.3-4.1c-1.1-0.6-3.1-1.3-3.1,0.9
		c0,9.4,0,18.9,0,28.3c0,5.9,0,11.8,0,17.7c0,0.4-3.1,1.4-3.7,1.8c-2,1.5-3.3,3.8-3.5,6.3c-0.4,5.2,4.1,9.6,9.2,9.2
		c5.1-0.4,8.9-5.4,7.8-10.4c-0.5-2.2-1.9-4.2-3.8-5.5c-0.9-0.6-3.2-0.7-3.2-1.8c0-6,0-12.1,0-18.1c0-1.5-0.4-2.4,0.8-3.1
		c2.6-1.4,5.1-2.8,7.7-4.2c3.1-1.7,6.2-3.4,9.3-5.2C129.2,16.1,134.5,13.8,131.6,12.2z M115,56.3c0,7.7-12,7.7-12,0
		C103,48.5,115,48.5,115,56.3z M110.4,23.2c0-6.5,0-13,0-19.5c5.9,3.2,11.7,6.5,17.6,9.7C122.1,16.7,116.3,20,110.4,23.2z"/>
</g>
</svg>
