<?xml version="1.0" encoding="utf-8"?>
<!-- Generator: Adobe Illustrator 19.2.1, SVG Export Plug-In . SVG Version: 6.00 Build 0)  -->
<svg version="1.1" id="Layer_1" xmlns="http://www.w3.org/2000/svg" xmlns:xlink="http://www.w3.org/1999/xlink" x="0px" y="0px"
	 width="100px" height="100px" viewBox="0 0 100 100" style="enable-background:new 0 0 100 100;" xml:space="preserve">
<style type="text/css">
	.st0{fill:#1A1819;}
</style>
<g>
	<path class="st0" d="M90.3,0H26.5c-5.3,0-9.8,4.7-9.8,10.2v14H9.8C4.5,24.1,0,28.8,0,34.3v36.4C0,76.4,4.5,81,9.8,81H20v17.2
		c0,0.7,0.5,1.4,1,1.6c0.2,0,0.3,0.2,0.7,0.2c0.5,0,0.8-0.2,1.2-0.5L39,81h34.4c5.5,0,9.8-4.7,9.8-10.2v-14h6.8
		c5.5,0,9.8-4.7,9.8-10.2V10.2C100.1,4.7,95.6,0,90.3,0z M80.1,55.2v15.7c0,3.8-3,6.7-6.5,6.7H38.3c-0.5,0-1,0.2-1.2,0.5L23.3,93.8
		V79.3c0-1-0.7-1.7-1.7-1.7H9.8c-3.5,0-6.5-3.1-6.5-6.7V34.3c0-3.6,3-6.7,6.5-6.7h8.5h55.3c1.3,0,2.7,0.3,3.7,1.2
		c1.7,1.2,2.8,3.3,2.8,5.7V55.2z M96.8,46.7c0,3.8-3,6.7-6.5,6.7h-6.8V34.3c0-4.7-3-8.4-7-9.8c-0.3-0.2-0.7-0.2-1-0.2
		c-0.5-0.2-1.2-0.2-1.8-0.2H20v-14c0-3.6,3-6.7,6.5-6.7h63.6c3.7,0,6.7,3.1,6.7,6.7V46.7z"/>
	<path class="st0" d="M20,44.8h23.4c1,0,1.7-0.7,1.7-1.7c0-1-0.7-1.7-1.7-1.7H20c-1,0-1.7,0.7-1.7,1.7C18.3,44.1,19,44.8,20,44.8z"
		/>
	<path class="st0" d="M65.1,51.7H20c-1,0-1.7,0.7-1.7,1.7c0,1,0.7,1.7,1.7,1.7h45.1c1,0,1.7-0.7,1.7-1.7
		C66.7,52.4,66.1,51.7,65.1,51.7z"/>
	<path class="st0" d="M65.1,62.1H20c-1,0-1.7,0.7-1.7,1.7c0,1,0.7,1.7,1.7,1.7h45.1c1,0,1.7-0.7,1.7-1.7
		C66.7,62.8,66.1,62.1,65.1,62.1z"/>
</g>
</svg>
