<?xml version="1.0" encoding="utf-8"?>
<!-- Generator: Adobe Illustrator 19.2.1, SVG Export Plug-In . SVG Version: 6.00 Build 0)  -->
<svg version="1.1" id="Layer_1" xmlns="http://www.w3.org/2000/svg" xmlns:xlink="http://www.w3.org/1999/xlink" x="0px" y="0px"
	 width="78.4px" height="100px" viewBox="0 0 78.4 100" style="enable-background:new 0 0 78.4 100;" xml:space="preserve">
<style type="text/css">
	.st0{fill:#010101;}
</style>
<g>
	<polygon class="st0" points="52.5,66.9 13.2,63.1 12.4,71.6 51.7,75.4 	"/>
	<polygon class="st0" points="54.8,56.8 16.8,46.1 14.5,54.3 52.4,65 	"/>
	<polygon class="st0" points="59.8,47.3 26,26.9 21.6,34.2 55.3,54.6 	"/>
	<polygon class="st0" points="57.4,91.9 7.3,91.9 7.6,58.4 0,58.3 0,100 65.3,100 65.3,58.5 57.4,58.5 	"/>
	<rect x="12.3" y="78.1" class="st0" width="39.2" height="8.3"/>
	<rect x="66.7" y="0.4" transform="matrix(0.9864 -0.1644 0.1644 0.9864 -2.3472 11.9379)" class="st0" width="8.5" height="39.4"/>
	<polygon class="st0" points="38.3,13.7 61.2,45.8 68.2,40.8 45.2,8.7 	"/>
</g>
</svg>
