<?xml version="1.0" encoding="utf-8"?>
<!-- Generator: Adobe Illustrator 19.2.1, SVG Export Plug-In . SVG Version: 6.00 Build 0)  -->
<svg version="1.1" id="Layer_1" xmlns="http://www.w3.org/2000/svg" xmlns:xlink="http://www.w3.org/1999/xlink" x="0px" y="0px"
	 width="100px" height="19.2px" viewBox="0 0 100 19.2" style="enable-background:new 0 0 100 19.2;" xml:space="preserve">
<g>
	<polygon points="11.5,7.7 3.2,7.7 3.2,0.4 0,0.4 0,18.8 3.2,18.8 3.2,10.5 11.5,10.5 11.5,18.8 14.7,18.8 14.7,0.4 11.5,0.4 	"/>
	<rect x="18.7" y="0.4" width="3.2" height="18.5"/>
	<path d="M39.9,13.9c0-0.8,0-1.4-0.2-1.8c0-0.6-0.4-0.8-0.6-1.2c-0.2-0.2-0.4-0.4-0.8-0.6c-0.2,0-0.6-0.2-0.8-0.2
		c0.2-0.2,0.4-0.2,0.8-0.4c0.4-0.2,0.6-0.4,1-0.8c0.4-0.4,0.8-0.8,1-1.4c0.2-0.6,0.4-1.4,0.4-2.2c0-1.4-0.6-2.8-1.6-3.6
		c-1-1-2.6-1.4-4.6-1.4h-8.7v18.5H29v-7.5h4.8c0.8,0,1.4,0,1.4,0.2c0.6,0,1,0.4,1.2,0.8c0.4,0.4,0.4,1,0.6,1.6
		c0.2,0.6,0.2,1.4,0.2,2.2c0,0.4,0,1,0,1.4c0,0.6,0.2,1,0.4,1.4h3.4c-0.4-0.4-0.6-1.2-0.8-2C39.9,15.9,39.9,14.9,39.9,13.9z
		 M36.7,8.1c-0.6,0.6-1.4,0.8-2.4,0.8h-5.2V3.2h5.2c0.4,0,0.8,0.2,1.2,0.2c0.4,0,0.6,0.2,1,0.4c0.4,0.2,0.6,0.4,0.8,0.8
		C37.5,5,37.5,5.4,37.5,6C37.5,6.9,37.3,7.5,36.7,8.1z"/>
	<polygon points="43.8,0.4 43.8,18.7 57.3,18.7 57.3,15.9 47.2,15.9 47.2,10.5 56.5,10.5 56.5,7.9 47.2,7.9 47.2,3.2 57.3,3.2 
		57.3,0.4 44,0.4 	"/>
	<path d="M79,11.1c0,0.6,0,1.2,0,1.8c-0.2,0.8-0.4,1.2-0.6,1.8c-0.2,0.4-0.6,0.8-1.2,1.2c-0.6,0.2-1.4,0.4-2.4,0.4
		c-1,0-1.8,0-2.4-0.4c-0.6-0.2-1-0.6-1.4-1.2c-0.4-0.6-0.6-1.2-0.6-1.8s0-1.2,0-1.8V0.4h-3.2h-0.6v11.7c0,1.2,0.2,2.4,0.6,3.2
		c0.4,0.8,1,1.6,1.6,2.2c0.6,0.6,1.4,1.2,2.4,1.4c1,0.2,2,0.4,3.2,0.4c1.2,0,2.2,0,3.2-0.4c1-0.4,1.8-0.8,2.4-1.4
		c0.8-0.6,1.2-1.4,1.6-2.2c0.4-1,0.6-2,0.6-3.2V0.4H79V11.1z"/>
	<path d="M99.8,12.3c0-0.6-0.2-1-0.6-1.4c-0.4-0.4-0.8-0.8-1.2-1.2c-0.4-0.4-1-0.6-1.6-0.8c-0.2-0.2-0.6-0.2-1.2-0.4
		c-0.6,0-1.2-0.2-1.8-0.4c-0.6-0.2-1.2-0.2-1.6-0.4c-0.4-0.2-0.8-0.2-0.8-0.2c-0.6-0.2-1.2-0.4-1.6-0.8c-0.4-0.4-0.6-1-0.6-1.6
		c0-0.4,0.2-0.8,0.4-1.2c0.2-0.4,0.4-0.6,0.8-0.8c0.2-0.2,0.6-0.4,1-0.4c0.4-0.2,0.8-0.2,1.2-0.2c1.2,0,2,0.2,2.8,0.8
		C95.8,4,96.2,4.8,96.2,6h3.2c0-1-0.2-1.8-0.6-2.6c-0.4-0.6-1-1.2-1.6-1.8c-0.6-0.6-1.4-1-2.2-1.2C94,0.2,93.3,0,92.3,0
		c-0.8,0-1.6,0.2-2.4,0.4c-0.8,0.2-1.6,0.6-2.2,1c-0.6,0.6-1.2,1.2-1.6,1.8c-0.4,0.6-0.6,1.4-0.6,2.4c0,0.4,0,1,0.2,1.4
		c0,0.6,0.4,1,0.6,1.4c0.2,0.4,0.6,0.8,1.2,1.2c0.6,0.4,1.2,0.6,2,0.8c1.2,0.4,2.2,0.6,3.2,0.8c1,0.2,1.8,0.4,2.4,0.6
		c0.4,0.2,0.6,0.4,1,0.8c0.2,0.4,0.4,0.8,0.4,1.6c0,0.4-0.2,0.8-0.2,1c0,0.2-0.2,0.6-0.6,0.8c-0.2,0.2-0.6,0.4-1.2,0.6
		c-0.4,0.2-1,0.2-1.8,0.2c-0.6,0-1.2,0-1.8-0.2c-0.4-0.2-1-0.6-1.4-0.8c-0.4-0.2-0.8-0.6-1-1.2c-0.2-0.4-0.4-1-0.4-1.8h-3
		c0,1.2,0.2,2.2,0.6,3c0.4,0.8,1,1.4,1.6,2c0.6,0.6,1.4,1,2.4,1.2c1,0.2,2,0.4,3,0.4c0.8,0,1.8,0,2.8-0.2c1-0.2,1.8-0.6,2.4-1
		c0.6-0.4,1.2-1,1.6-1.8c0.4-0.6,0.6-1.6,0.6-2.6C100,13.3,100,12.7,99.8,12.3z"/>
</g>
</svg>
