<?xml version="1.0" encoding="utf-8"?>
<!-- Generator: Adobe Illustrator 17.1.0, SVG Export Plug-In . SVG Version: 6.00 Build 0)  -->
<!DOCTYPE svg PUBLIC "-//W3C//DTD SVG 1.1//EN" "http://www.w3.org/Graphics/SVG/1.1/DTD/svg11.dtd">
<svg version="1.1" id="Layer_1" xmlns="http://www.w3.org/2000/svg" xmlns:xlink="http://www.w3.org/1999/xlink" x="0px" y="0px"
	 viewBox="0 0 122.2 100" enable-background="new 0 0 122.2 100" xml:space="preserve">
<path fill-rule="evenodd" clip-rule="evenodd" d="M122.2,11.8c-4.5,2-9.3,3.4-14.4,4c5.2-3.1,9.2-8.1,11-14
	c-4.8,2.9-10.2,5-15.9,6.1c-4.6-4.9-11.1-8-18.3-8C70.8,0,59.5,11.3,59.5,25.2c0,2,0.2,3.9,0.6,5.8C39.4,29.9,20.9,19.9,8.5,4.6
	c-2.2,3.7-3.4,8.1-3.4,12.7c0,8.8,4.4,16.5,11.2,21c-4.1-0.1-8-1.3-11.4-3.2c0,0.1,0,0.2,0,0.3c0,12.2,8.6,22.4,20.1,24.8
	c-2.1,0.6-4.3,0.9-6.6,0.9c-1.6,0-3.2-0.2-4.7-0.5c3.2,10,12.5,17.3,23.4,17.5C28.5,85,17.7,89,6,89c-2,0-4-0.1-6-0.4
	C11.1,95.8,24.3,100,38.4,100c46.1,0,71.3-38.5,71.3-71.8c0-1.1,0-2.2-0.1-3.3C114.6,21.3,118.9,16.9,122.2,11.8z"/>
</svg>
