<?xml version="1.0" encoding="utf-8"?>
<!-- Generator: Adobe Illustrator 17.1.0, SVG Export Plug-In . SVG Version: 6.00 Build 0)  -->
<!DOCTYPE svg PUBLIC "-//W3C//DTD SVG 1.1//EN" "http://www.w3.org/Graphics/SVG/1.1/DTD/svg11.dtd">
<svg version="1.1" id="Layer_1" xmlns="http://www.w3.org/2000/svg" xmlns:xlink="http://www.w3.org/1999/xlink" x="0px" y="0px"
	 width="103.6px" height="100px" viewBox="0 0 103.6 100" enable-background="new 0 0 103.6 100" xml:space="preserve">
<path d="M96.2,57.3c-4.1,0-7.4,3.3-7.4,7.4c0,1.2,0.3,2.3,0.8,3.3c-6.8,6.2-15.7,10-25.6,10c-8.5,0-16.3-2.8-22.6-7.5
	c0.7-1.1,1.2-2.5,1.2-3.9c0-4.1-3.3-7.4-7.4-7.4c-1.2,0-2.4,0.3-3.4,0.9C28.2,54.2,26,47.3,26,39.9c0-10.3,4.1-19.5,10.7-26.4
	c1.2,0.8,2.6,1.2,4.1,1.2c4.1,0,7.4-3.3,7.4-7.4c0-4.1-3.3-7.4-7.4-7.4s-7.4,3.3-7.4,7.4c0,1.2,0.3,2.3,0.8,3.3
	c-7.4,7.5-11.9,17.8-11.9,29.2c0,5.4,1.1,10.6,3,15.3l-18-18c0.4-0.6,0.6-1.3,0.6-2c0-2.2-1.8-3.9-3.9-3.9c-2.2,0-3.9,1.8-3.9,3.9
	c0,2.2,1.8,3.9,3.9,3.9c0.8,0,1.5-0.2,2.1-0.6l21.7,21.7c0.4,0.8,0.9,1.5,1.4,2.3c-0.7,1.2-1.2,2.5-1.2,4c0,4.1,3.3,7.4,7.4,7.4
	c1.3,0,2.4-0.3,3.5-0.9c1.6,1.2,3.3,2.3,5,3.3L61.4,94c-0.4,0.6-0.6,1.3-0.6,2.1c0,2.2,1.8,3.9,3.9,3.9c2.2,0,3.9-1.8,3.9-3.9
	c0-2.2-1.8-3.9-3.9-3.9c-0.7,0-1.4,0.2-2,0.6l-14-14c4.8,1.9,9.9,3,15.4,3c10.8,0,20.7-4.1,28.1-10.9c1.2,0.8,2.6,1.2,4.1,1.2
	c4.1,0,7.4-3.3,7.4-7.4C103.6,60.6,100.3,57.3,96.2,57.3z M40.8,3.7c2,0,3.7,1.7,3.7,3.7c0,2-1.7,3.7-3.7,3.7c-2,0-3.7-1.7-3.7-3.7
	C37.1,5.4,38.7,3.7,40.8,3.7z M35.2,70.3c-2,0-3.7-1.7-3.7-3.7c0-2,1.7-3.7,3.7-3.7s3.7,1.7,3.7,3.7C38.9,68.6,37.3,70.3,35.2,70.3z
	 M96.2,68.4c-0.5,0-1-0.1-1.5-0.3l-1.9-1.9c-0.2-0.5-0.3-0.9-0.3-1.5c0-2,1.7-3.7,3.7-3.7c2,0,3.7,1.7,3.7,3.7
	C99.9,66.7,98.3,68.4,96.2,68.4z"/>
</svg>
