<?xml version="1.0" encoding="utf-8"?>
<!-- Generator: Adobe Illustrator 19.2.1, SVG Export Plug-In . SVG Version: 6.00 Build 0)  -->
<svg version="1.1" id="Layer_1" xmlns="http://www.w3.org/2000/svg" xmlns:xlink="http://www.w3.org/1999/xlink" x="0px" y="0px"
	 viewBox="0 0 218.8 59.8" style="enable-background:new 0 0 218.8 59.8;" xml:space="preserve">
<style type="text/css">
	.st0{fill:#717982;}
</style>
<g>
	<path class="st0" d="M30.6,11.9H2.4V1.4h45v9.9L16.7,47.9h31.4v10.6H0v-9.9L30.6,11.9z"/>
	<path class="st0" d="M98.2,1.4v10.6H68.1v12.2h27.7v9.8H68.1v14h30.8v10.6H55.5V1.4H98.2z"/>
	<path class="st0" d="M138.2,1.4c2.6,0,4.9,0.4,6.9,1.2c2.1,0.8,3.8,2,5.3,3.4s2.6,3.1,3.4,5c0.8,1.9,1.2,3.9,1.2,6.1
		c0,3.4-0.7,6.3-2.1,8.7c-1.4,2.5-3.7,4.3-6.9,5.6v0.2c1.5,0.4,2.8,1.1,3.8,2c1,0.9,1.8,1.9,2.5,3.1c0.6,1.2,1.1,2.5,1.4,4
		c0.3,1.4,0.5,2.9,0.6,4.3c0.1,0.9,0.1,2,0.2,3.2c0.1,1.2,0.1,2.5,0.3,3.8c0.1,1.3,0.3,2.5,0.6,3.6c0.3,1.1,0.7,2.1,1.3,2.9H144
		c-0.7-1.8-1.1-4-1.3-6.5c-0.2-2.5-0.4-4.9-0.7-7.2c-0.4-3-1.3-5.2-2.7-6.6c-1.4-1.4-3.7-2.1-6.8-2.1h-12.6v22.3h-12.6V1.4H138.2z
		 M133.7,27.2c2.9,0,5-0.6,6.5-1.9c1.4-1.3,2.2-3.4,2.2-6.2c0-2.8-0.7-4.8-2.2-6c-1.4-1.3-3.6-1.9-6.5-1.9h-13.8v16.1H133.7z"/>
	<path class="st0" d="M164.6,18.3c1.3-3.7,3.1-6.8,5.5-9.6c2.4-2.7,5.3-4.9,8.8-6.4c3.5-1.5,7.4-2.3,11.8-2.3
		c4.4,0,8.4,0.8,11.8,2.3c3.5,1.5,6.4,3.7,8.8,6.4c2.4,2.7,4.2,5.9,5.5,9.6c1.3,3.7,1.9,7.6,1.9,11.9c0,4.2-0.6,8-1.9,11.6
		c-1.3,3.6-3.1,6.7-5.5,9.4c-2.4,2.7-5.3,4.8-8.8,6.3c-3.5,1.5-7.4,2.3-11.8,2.3c-4.4,0-8.3-0.8-11.8-2.3c-3.5-1.5-6.4-3.6-8.8-6.3
		c-2.4-2.7-4.2-5.8-5.5-9.4c-1.3-3.6-1.9-7.5-1.9-11.6C162.6,25.9,163.3,21.9,164.6,18.3z M176,37.2c0.6,2.3,1.5,4.3,2.7,6.1
		c1.2,1.8,2.8,3.3,4.8,4.4c2,1.1,4.4,1.6,7.2,1.6c2.8,0,5.2-0.5,7.2-1.6c2-1.1,3.6-2.5,4.8-4.4c1.2-1.8,2.1-3.9,2.7-6.1
		c0.6-2.3,0.8-4.6,0.8-7c0-2.5-0.3-4.9-0.8-7.3c-0.6-2.3-1.5-4.4-2.7-6.3c-1.2-1.8-2.8-3.3-4.8-4.4c-2-1.1-4.4-1.6-7.2-1.6
		c-2.8,0-5.2,0.5-7.2,1.6c-2,1.1-3.6,2.6-4.8,4.4c-1.2,1.8-2.1,3.9-2.7,6.3c-0.6,2.3-0.8,4.8-0.8,7.3
		C175.2,32.6,175.5,34.9,176,37.2z"/>
</g>
</svg>
