<?xml version="1.0" encoding="utf-8"?>
<!-- Generator: Adobe Illustrator 19.2.1, SVG Export Plug-In . SVG Version: 6.00 Build 0)  -->
<svg version="1.1" id="Layer_1" xmlns="http://www.w3.org/2000/svg" xmlns:xlink="http://www.w3.org/1999/xlink" x="0px" y="0px"
	 viewBox="0 0 529.3 57.1" style="enable-background:new 0 0 529.3 57.1;" xml:space="preserve">
<style type="text/css">
	.st0{fill:#717982;}
</style>
<g>
	<path class="st0" d="M0,10.6V0h46.8v10.6H29.7v46.6H17.1V10.6H0z"/>
	<path class="st0" d="M95.3,57.1l-9.7-38.9h-0.2l-9.5,38.9H63.2L48.1,0h12.6l9,38.9h0.2L79.8,0h11.8l9.8,39.4h0.2L110.8,0h12.3
		l-15.4,57.1H95.3z"/>
	<path class="st0" d="M171.6,0v10.6h-30.2v12.2h27.7v9.8h-27.7v14h30.8v10.6h-43.4V0H171.6z"/>
	<path class="st0" d="M193.2,0L217,38.3h0.2V0H229v57.1h-12.6l-23.8-38.2h-0.2v38.2h-11.8V0H193.2z"/>
	<path class="st0" d="M235.5,10.6V0h46.8v10.6h-17.1v46.6h-12.6V10.6H235.5z"/>
	<path class="st0" d="M282.7,0h14.1l13.4,22.6L323.4,0h14l-21.2,35.2v21.9h-12.6V34.9L282.7,0z"/>
	<path class="st0" d="M404.6,0v10.6H377v13.2H401v9.8H377v23.6h-12.6V0H404.6z"/>
	<path class="st0" d="M424.5,0v57.1h-12.6V0H424.5z"/>
	<path class="st0" d="M447.9,57.1L429.4,0h12.9L455,40.2h0.2L468.1,0h13l-19,57.1H447.9z"/>
	<path class="st0" d="M528.6,0v10.6h-30.2v12.2h27.7v9.8h-27.7v14h30.8v10.6h-43.4V0H528.6z"/>
</g>
</svg>
