<?xml version="1.0" encoding="utf-8"?>
<!-- Generator: Adobe Illustrator 19.2.1, SVG Export Plug-In . SVG Version: 6.00 Build 0)  -->
<svg version="1.1" id="Layer_1" xmlns="http://www.w3.org/2000/svg" xmlns:xlink="http://www.w3.org/1999/xlink" x="0px" y="0px"
	 viewBox="0 0 595.4 59.8" style="enable-background:new 0 0 595.4 59.8;" xml:space="preserve">
<style type="text/css">
	.st0{fill:#717982;}
</style>
<g>
	<path class="st0" d="M1.9,18.3c1.3-3.7,3.1-6.8,5.5-9.6c2.4-2.7,5.3-4.9,8.8-6.4C19.8,0.8,23.7,0,28.1,0c4.4,0,8.4,0.8,11.8,2.3
		c3.5,1.5,6.4,3.7,8.8,6.4c2.4,2.7,4.2,5.9,5.5,9.6c1.3,3.7,1.9,7.6,1.9,11.9c0,4.2-0.6,8-1.9,11.6c-1.3,3.6-3.1,6.7-5.5,9.4
		c-2.4,2.7-5.3,4.8-8.8,6.3c-3.5,1.5-7.4,2.3-11.8,2.3c-4.4,0-8.3-0.8-11.8-2.3c-3.5-1.5-6.4-3.6-8.8-6.3c-2.4-2.7-4.2-5.8-5.5-9.4
		C0.6,38.2,0,34.3,0,30.2C0,25.9,0.6,21.9,1.9,18.3z M13.4,37.2c0.6,2.3,1.5,4.3,2.7,6.1c1.2,1.8,2.8,3.3,4.8,4.4
		c2,1.1,4.4,1.6,7.2,1.6s5.2-0.5,7.2-1.6c2-1.1,3.6-2.5,4.8-4.4c1.2-1.8,2.1-3.9,2.7-6.1c0.6-2.3,0.8-4.6,0.8-7
		c0-2.5-0.3-4.9-0.8-7.3c-0.6-2.3-1.5-4.4-2.7-6.3c-1.2-1.8-2.8-3.3-4.8-4.4c-2-1.1-4.4-1.6-7.2-1.6s-5.2,0.5-7.2,1.6
		c-2,1.1-3.6,2.6-4.8,4.4c-1.2,1.8-2.1,3.9-2.7,6.3c-0.6,2.3-0.8,4.8-0.8,7.3C12.6,32.6,12.8,34.9,13.4,37.2z"/>
	<path class="st0" d="M77.2,1.4L101,39.7h0.2V1.4H113v57.1h-12.6L76.6,20.2h-0.2v38.2H64.7V1.4H77.2z"/>
	<path class="st0" d="M166.7,1.4v10.6h-30.2v12.2h27.7v9.8h-27.7v14h30.8v10.6H124V1.4H166.7z"/>
	<path class="st0" d="M210.6,1.4v21.9h23.1V1.4h12.6v57.1h-12.6V33.8h-23.1v24.6h-12.6V1.4H210.6z"/>
	<path class="st0" d="M299.4,54.1c-4.3,3.8-10.3,5.6-17.9,5.6c-7.7,0-13.7-1.9-18-5.6c-4.2-3.7-6.4-9.5-6.4-17.3V1.4h12.6v35.5
		c0,1.5,0.1,3.1,0.4,4.6c0.3,1.5,0.8,2.8,1.7,4c0.9,1.1,2,2.1,3.6,2.8c1.5,0.7,3.6,1.1,6.1,1.1c4.5,0,7.6-1,9.3-3
		c1.7-2,2.6-5.1,2.6-9.4V1.4h12.6v35.5C305.8,44.6,303.7,50.4,299.4,54.1z"/>
	<path class="st0" d="M329.1,1.4L353,39.7h0.2V1.4h11.8v57.1h-12.6l-23.8-38.2h-0.2v38.2h-11.8V1.4H329.1z"/>
	<path class="st0" d="M400.6,1.4c3.7,0,7.1,0.6,10.3,1.8c3.2,1.2,5.9,2.9,8.2,5.3c2.3,2.3,4.1,5.3,5.4,8.8c1.3,3.5,2,7.7,2,12.4
		c0,4.2-0.5,8-1.6,11.5c-1.1,3.5-2.7,6.6-4.8,9.1c-2.2,2.6-4.9,4.6-8.1,6c-3.2,1.5-7,2.2-11.4,2.2h-24.6V1.4H400.6z M399.7,47.9
		c1.8,0,3.6-0.3,5.3-0.9c1.7-0.6,3.2-1.6,4.6-2.9c1.3-1.4,2.4-3.1,3.2-5.3c0.8-2.2,1.2-4.9,1.2-8c0-2.9-0.3-5.5-0.8-7.8
		c-0.6-2.3-1.5-4.3-2.8-6c-1.3-1.7-3-2.9-5.1-3.8c-2.1-0.9-4.7-1.3-7.8-1.3h-9v36H399.7z"/>
	<path class="st0" d="M466,1.4c2.6,0,4.9,0.4,6.9,1.2c2.1,0.8,3.8,2,5.3,3.4s2.6,3.1,3.4,5c0.8,1.9,1.2,3.9,1.2,6.1
		c0,3.4-0.7,6.3-2.1,8.7c-1.4,2.5-3.7,4.3-6.9,5.6v0.2c1.5,0.4,2.8,1.1,3.8,2c1,0.9,1.8,1.9,2.5,3.1c0.6,1.2,1.1,2.5,1.4,4
		c0.3,1.4,0.5,2.9,0.6,4.3c0.1,0.9,0.1,2,0.2,3.2c0.1,1.2,0.1,2.5,0.3,3.8c0.1,1.3,0.3,2.5,0.6,3.6c0.3,1.1,0.7,2.1,1.3,2.9h-12.6
		c-0.7-1.8-1.1-4-1.3-6.5c-0.2-2.5-0.4-4.9-0.7-7.2c-0.4-3-1.3-5.2-2.7-6.6c-1.4-1.4-3.7-2.1-6.8-2.1h-12.6v22.3h-12.6V1.4H466z
		 M461.5,27.2c2.9,0,5-0.6,6.5-1.9c1.4-1.3,2.2-3.4,2.2-6.2c0-2.8-0.7-4.8-2.2-6c-1.4-1.3-3.6-1.9-6.5-1.9h-13.8v16.1H461.5z"/>
	<path class="st0" d="M535.7,1.4v10.6h-30.2v12.2h27.7v9.8h-27.7v14h30.8v10.6H493V1.4H535.7z"/>
	<path class="st0" d="M569.4,1.4c3.7,0,7.1,0.6,10.3,1.8c3.2,1.2,5.9,2.9,8.2,5.3c2.3,2.3,4.1,5.3,5.4,8.8c1.3,3.5,2,7.7,2,12.4
		c0,4.2-0.5,8-1.6,11.5c-1.1,3.5-2.7,6.6-4.8,9.1c-2.2,2.6-4.9,4.6-8.1,6c-3.2,1.5-7,2.2-11.4,2.2h-24.6V1.4H569.4z M568.6,47.9
		c1.8,0,3.6-0.3,5.3-0.9c1.7-0.6,3.2-1.6,4.6-2.9c1.3-1.4,2.4-3.1,3.2-5.3c0.8-2.2,1.2-4.9,1.2-8c0-2.9-0.3-5.5-0.8-7.8
		c-0.6-2.3-1.5-4.3-2.8-6c-1.3-1.7-3-2.9-5.1-3.8c-2.1-0.9-4.7-1.3-7.8-1.3h-9v36H568.6z"/>
</g>
</svg>
