<?xml version="1.0" encoding="utf-8"?>
<!-- Generator: Adobe Illustrator 19.2.1, SVG Export Plug-In . SVG Version: 6.00 Build 0)  -->
<svg version="1.1" id="Layer_1" xmlns="http://www.w3.org/2000/svg" xmlns:xlink="http://www.w3.org/1999/xlink" x="0px" y="0px"
	 viewBox="0 0 558.2 59.8" style="enable-background:new 0 0 558.2 59.8;" xml:space="preserve">
<style type="text/css">
	.st0{fill:#717982;}
</style>
<g>
	<path class="st0" d="M13.2,44.4c0.7,1.3,1.6,2.4,2.8,3.2c1.1,0.8,2.5,1.4,4,1.8c1.5,0.4,3.1,0.6,4.8,0.6c1.1,0,2.3-0.1,3.6-0.3
		c1.3-0.2,2.5-0.5,3.6-1.1c1.1-0.5,2.1-1.3,2.8-2.2c0.7-0.9,1.1-2.1,1.1-3.6c0-1.5-0.5-2.8-1.5-3.8c-1-1-2.3-1.8-3.9-2.4
		c-1.6-0.6-3.4-1.2-5.4-1.7s-4.1-1-6.2-1.6c-2.1-0.5-4.2-1.2-6.2-2c-2-0.8-3.8-1.8-5.4-3c-1.6-1.2-2.9-2.8-3.9-4.6
		c-1-1.8-1.5-4.1-1.5-6.7c0-2.9,0.6-5.5,1.9-7.6c1.3-2.2,2.9-4,4.9-5.4c2-1.4,4.3-2.5,6.9-3.2c2.6-0.7,5.1-1,7.7-1
		c3,0,5.9,0.3,8.6,1c2.7,0.7,5.2,1.7,7.3,3.2c2.1,1.5,3.8,3.4,5.1,5.7c1.3,2.3,1.9,5.1,1.9,8.4H34c-0.1-1.7-0.5-3.1-1.1-4.2
		c-0.6-1.1-1.4-2-2.4-2.6c-1-0.6-2.2-1.1-3.5-1.4c-1.3-0.3-2.7-0.4-4.3-0.4c-1,0-2,0.1-3,0.3c-1,0.2-1.9,0.6-2.8,1.1
		c-0.8,0.5-1.5,1.2-2,2c-0.5,0.8-0.8,1.8-0.8,3c0,1.1,0.2,2,0.6,2.7c0.4,0.7,1.3,1.3,2.5,1.9c1.3,0.6,3,1.2,5.2,1.8
		c2.2,0.6,5.1,1.3,8.7,2.2c1.1,0.2,2.5,0.6,4.4,1.2c1.9,0.6,3.8,1.5,5.6,2.7c1.9,1.2,3.5,2.9,4.8,4.9c1.4,2.1,2,4.7,2,7.9
		c0,2.6-0.5,5-1.5,7.3C45.5,51,44,53,42,54.6c-2,1.6-4.5,2.9-7.4,3.8s-6.4,1.4-10.3,1.4c-3.1,0-6.2-0.4-9.2-1.2
		c-3-0.8-5.6-2-7.8-3.6c-2.3-1.7-4.1-3.8-5.4-6.3c-1.3-2.6-2-5.6-1.9-9.1h12.2C12.2,41.4,12.5,43.1,13.2,44.4z"/>
	<path class="st0" d="M98.2,1.4v10.6H68.1v12.2h27.7v9.8H68.1v14h30.8v10.6H55.5V1.4H98.2z"/>
	<path class="st0" d="M119.8,58.5L101.3,1.4h12.9l12.7,40.2h0.2l12.9-40.2h13l-19,57.1H119.8z"/>
	<path class="st0" d="M200.5,1.4v10.6h-30.2v12.2H198v9.8h-27.7v14h30.8v10.6h-43.4V1.4H200.5z"/>
	<path class="st0" d="M222.1,1.4l23.8,38.3h0.2V1.4h11.8v57.1h-12.6l-23.8-38.2h-0.2v38.2h-11.8V1.4H222.1z"/>
	<path class="st0" d="M264.4,11.9V1.4h46.8v10.6h-17.1v46.6h-12.6V11.9H264.4z"/>
	<path class="st0" d="M311.6,1.4h14.1L339,23.9l13.3-22.6h14l-21.2,35.2v21.9h-12.6V36.2L311.6,1.4z"/>
	<path class="st0" d="M433.5,1.4v10.6h-27.6v13.2h23.9v9.8h-23.9v23.6h-12.6V1.4H433.5z"/>
	<path class="st0" d="M453.4,1.4v57.1h-12.6V1.4H453.4z"/>
	<path class="st0" d="M476.8,58.5L458.3,1.4h12.9l12.7,40.2h0.2L497,1.4h13l-19,57.1H476.8z"/>
	<path class="st0" d="M557.5,1.4v10.6h-30.2v12.2H555v9.8h-27.7v14h30.8v10.6h-43.4V1.4H557.5z"/>
</g>
</svg>
