<?xml version="1.0" encoding="utf-8"?>
<!-- Generator: Adobe Illustrator 19.2.1, SVG Export Plug-In . SVG Version: 6.00 Build 0)  -->
<svg version="1.1" id="Layer_1" xmlns="http://www.w3.org/2000/svg" xmlns:xlink="http://www.w3.org/1999/xlink" x="0px" y="0px"
	 width="145px" height="22px" viewBox="0 0 145 22" style="enable-background:new 0 0 145 22;" xml:space="preserve">
<style type="text/css">
	.st0{fill:#727A83;}
</style>
<g>
	<path class="st0" d="M0,1.7V0.6h16v1.1H8.6v19.8H7.4V1.7H0z"/>
	<path class="st0" d="M17.4,0.6h1.3v9.5H32V0.6h1.3v20.9H32V11.2H18.7v10.3h-1.3C17.4,21.5,17.4,0.6,17.4,0.6z"/>
	<path class="st0" d="M37,0.6h14v1.1H38.3v8.4h12v1.1h-12v9.2h12.9v1.1H37V0.6z"/>
	<path class="st0" d="M75.1,6.6c0-0.9-0.2-1.7-0.6-2.3c-0.3-0.7-0.8-1.2-1.4-1.7s-1.3-0.8-2.1-1s-1.7-0.3-2.6-0.3
		c-0.6,0-1.2,0-1.9,0.2s-1.3,0.4-1.9,0.7c-0.6,0.3-1.1,0.8-1.4,1.4c-0.4,0.6-0.5,1.3-0.5,2.2s0.2,1.5,0.6,2.1
		c0.4,0.5,0.9,0.9,1.6,1.3s1.4,0.6,2.3,0.8c0.9,0.2,1.7,0.4,2.6,0.5c0.9,0.2,1.8,0.4,2.6,0.6c0.8,0.2,1.6,0.6,2.3,1
		c0.7,0.4,1.2,1,1.6,1.7c0.4,0.7,0.6,1.5,0.6,2.5c0,1.1-0.2,2-0.7,2.7c-0.5,0.7-1.1,1.4-1.8,1.8c-0.7,0.4-1.5,0.8-2.4,1
		c-0.9,0.2-1.7,0.3-2.5,0.3c-1.2,0-2.4-0.1-3.5-0.4c-1.1-0.2-2-0.7-2.8-1.3C62.6,19.8,62,19,61.5,18c-0.4-0.9-0.7-2.1-0.7-3.4h1.3
		c0,1.2,0.1,2.2,0.5,2.9c0.4,0.8,0.9,1.5,1.6,2c0.7,0.5,1.5,0.9,2.4,1.1c0.9,0.2,1.9,0.3,3,0.3c0.6,0,1.3-0.1,2-0.2
		c0.7-0.1,1.4-0.4,1.9-0.8c0.6-0.4,1.1-0.9,1.5-1.5c0.4-0.6,0.6-1.4,0.6-2.3c0-0.9-0.2-1.6-0.6-2.2c-0.4-0.5-0.9-1-1.6-1.4
		c-0.7-0.3-1.4-0.6-2.3-0.8c-0.9-0.2-1.7-0.4-2.6-0.6c-0.9-0.2-1.8-0.4-2.6-0.6c-0.9-0.2-1.6-0.5-2.3-1C62.9,9.2,62.3,8.7,62,8
		c-0.4-0.6-0.6-1.5-0.6-2.4S61.5,3.7,62,3c0.4-0.7,1-1.3,1.7-1.7c0.7-0.4,1.4-0.8,2.3-1C66.7,0.1,67.6,0,68.4,0
		c1.1,0,2.1,0.1,3.1,0.4c0.9,0.2,1.8,0.6,2.5,1.1c0.7,0.5,1.3,1.2,1.7,2c0.4,0.8,0.7,1.8,0.7,3L75.1,6.6L75.1,6.6z"/>
	<path class="st0" d="M79.9,0.6h1.3v20.9h-1.3V0.6z"/>
	<path class="st0" d="M82.6,1.7V0.6h16v1.1h-7.4v19.8H90V1.7H82.6z"/>
	<path class="st0" d="M100,0.6h14v1.1h-12.8v8.4h12v1.1h-12v9.2h12.9v1.1H100V0.6z"/>
	<path class="st0" d="M124.5,0.6h1.3v20.9h-1.3L124.5,0.6L124.5,0.6z"/>
	<path class="st0" d="M143.1,6.6c0-0.9-0.2-1.7-0.6-2.3c-0.3-0.7-0.8-1.2-1.4-1.7c-0.6-0.4-1.3-0.8-2.1-1c-0.8-0.2-1.7-0.3-2.6-0.3
		c-0.6,0-1.2,0-1.9,0.2c-0.7,0.1-1.3,0.4-1.9,0.7c-0.6,0.3-1.1,0.8-1.4,1.4c-0.4,0.6-0.5,1.3-0.5,2.2c0,0.8,0.2,1.5,0.6,2.1
		c0.4,0.5,0.9,0.9,1.6,1.3c0.7,0.3,1.4,0.6,2.3,0.8c0.9,0.2,1.7,0.4,2.6,0.5c0.9,0.2,1.8,0.4,2.6,0.6c0.8,0.2,1.6,0.6,2.3,1
		c0.7,0.4,1.2,1,1.6,1.7c0.4,0.7,0.6,1.5,0.6,2.5c0,1.1-0.2,2-0.7,2.7c-0.5,0.7-1.1,1.4-1.8,1.8c-0.7,0.4-1.5,0.8-2.4,1
		c-0.9,0.2-1.7,0.3-2.5,0.3c-1.2,0-2.4-0.1-3.5-0.4c-1.1-0.2-2-0.7-2.8-1.3c-0.8-0.6-1.4-1.4-1.9-2.3c-0.4-0.9-0.7-2.1-0.7-3.4h1.3
		c0,1.2,0.1,2.2,0.5,2.9c0.4,0.8,0.9,1.5,1.6,2c0.7,0.5,1.5,0.9,2.4,1.1c0.9,0.2,1.9,0.3,3,0.3c0.6,0,1.3-0.1,2-0.2
		c0.7-0.1,1.4-0.4,1.9-0.8c0.6-0.4,1.1-0.9,1.5-1.5c0.4-0.6,0.6-1.4,0.6-2.3c0-0.9-0.2-1.6-0.6-2.2c-0.4-0.5-0.9-1-1.6-1.4
		c-0.7-0.3-1.4-0.6-2.3-0.8c-0.9-0.2-1.7-0.4-2.6-0.6c-0.9-0.2-1.8-0.4-2.6-0.6c-0.9-0.2-1.6-0.5-2.3-1c-0.7-0.4-1.2-0.9-1.6-1.6
		s-0.6-1.5-0.6-2.4s0.2-1.9,0.6-2.5c0.4-0.7,1-1.3,1.7-1.7c0.7-0.4,1.4-0.8,2.3-1c0.8-0.2,1.7-0.3,2.5-0.3c1.1,0,2.1,0.1,3.1,0.4
		c0.9,0.2,1.8,0.6,2.5,1.1c0.7,0.5,1.3,1.2,1.7,2c0.4,0.8,0.7,1.8,0.7,3L143.1,6.6L143.1,6.6z"/>
</g>
</svg>
