<?xml version="1.0" encoding="utf-8"?>
<!-- Generator: Adobe Illustrator 21.1.0, SVG Export Plug-In . SVG Version: 6.00 Build 0)  -->
<svg version="1.1" id="Layer_1" xmlns="http://www.w3.org/2000/svg" xmlns:xlink="http://www.w3.org/1999/xlink" x="0px" y="0px"
	 viewBox="0 0 106.1 43.6" style="enable-background:new 0 0 106.1 43.6;" xml:space="preserve">
<style type="text/css">
	.st0{fill:#E7477C;}
</style>
<g>
	<path class="st0" d="M2.5,43.7H0V20.9C0,13,6.4,6.5,14.4,6.5c7.9,0,14.4,6.4,14.4,14.2c0,7.9-6.4,14.4-14.4,14.4
		c-3.6,0-7-1.3-9.5-3.6l1.7-1.8c2.1,1.9,4.9,3,7.9,3c6.5,0,11.9-5.3,11.9-11.9C26.2,14.3,20.9,9,14.4,9C7.8,9,2.5,14.4,2.5,20.9
		V43.7z"/>
</g>
<g>
	<path class="st0" d="M91.7,35.2c-7.9,0-14.4-6.4-14.4-14.4c0-7.9,6.4-14.2,14.4-14.2c7.9,0,14.3,6.4,14.3,14.2
		C106,28.7,99.6,35.2,91.7,35.2z M91.7,9c-6.5,0-11.9,5.3-11.9,11.8c0,6.5,5.3,11.9,11.9,11.9s11.8-5.3,11.8-11.9
		C103.5,14.3,98.2,9,91.7,9z"/>
</g>
<g>
	<path class="st0" d="M58.9,35.2c-7.9,0-14.4-6.4-14.4-14.4c0-7.9,6.4-14.2,14.2-14.2c7.9,0,14.4,6.4,14.4,14.4v1.2H55.3v-2.5h15.3
		C70,13.7,64.9,9,58.8,9C52.3,9,47,14.3,47,20.8c0,6.5,5.3,11.9,11.9,11.9c3.8,0,7.4-1.9,9.7-5.1l2,1.4
		C67.9,32.9,63.5,35.2,58.9,35.2z"/>
</g>
<g>
	<path class="st0" d="M41.1,35.2c-5.3-1-6.5-5.6-6.4-7.9l0-27.4h2.5v27.4c0,0.5,0,4.5,4.4,5.4L41.1,35.2z"/>
</g>
</svg>
